<svg width="234" height="211" viewBox="0 0 234 211" fill="none" xmlns="http://www.w3.org/2000/svg">
<g id="freepik  background complete  inject 86">
<path id="Vector" d="M24.0585 42.125H9.12378V48.4362H24.0585V42.125Z" fill="#EBEBEB"/>
<path id="Vector_2" d="M15.7282 34.167H0.793457V40.4781H15.7282V34.167Z" fill="#EBEBEB"/>
<path id="Vector_3" d="M32.3888 34.167H17.4541V40.4781H32.3888V34.167Z" fill="#EBEBEB"/>
<path id="Vector_4" d="M224.876 34.167H209.942V40.4781H224.876V34.167Z" fill="#EBEBEB"/>
<path id="Vector_5" d="M224.876 204.467H209.942V210.778H224.876V204.467Z" fill="#EBEBEB"/>
<path id="Vector_6" d="M233.206 196.509H218.272V202.82H233.206V196.509Z" fill="#EBEBEB"/>
<path id="Vector_7" d="M15.7282 204.461H0.793457V210.772H15.7282V204.461Z" fill="#EBEBEB"/>
<path id="Vector_8" d="M41.943 135.682H56.8777V129.37H41.943V135.682Z" fill="#EBEBEB"/>
<path id="Vector_9" d="M50.2733 143.64H65.208V137.328H50.2733V143.64Z" fill="#EBEBEB"/>
<path id="Vector_10" d="M23.6299 0H22.9644V61.5606H23.6299V0Z" fill="#C7C7C7"/>
<path id="Vector_11" d="M42.7155 80.2801L41.1532 83.7149H5.43506L3.87842 80.2801L19.0839 69.7559H27.51L42.7155 80.2801Z" fill="#EBEBEB"/>
<path id="Vector_12" d="M28.5648 59.6152L27.5101 69.756H19.084L18.0293 59.6152H28.5648Z" fill="#DBDBDB"/>
<path id="Vector_13" d="M42.7155 80.2852L41.1532 83.7143H5.43506L3.87842 80.2852H42.7155Z" fill="#DBDBDB"/>
<path id="Vector_14" d="M70.594 0H69.9285V50.4836H70.594V0Z" fill="#C7C7C7"/>
<path id="Vector_15" d="M89.6798 69.2029L88.1175 72.6377H52.3994L50.8428 69.2029L66.0482 58.6787H74.4744L89.6798 69.2029Z" fill="#EBEBEB"/>
<path id="Vector_16" d="M75.5292 48.5381L74.4745 58.6788H66.0483L64.9937 48.5381H75.5292Z" fill="#DBDBDB"/>
<path id="Vector_17" d="M89.6798 69.208L88.1175 72.6371H52.3994L50.8428 69.208H89.6798Z" fill="#DBDBDB"/>
<path id="Vector_18" d="M216.286 44.2969H179.632V80.9512H216.286V44.2969Z" fill="white"/>
<path id="Vector_19" d="M177.726 42.3906V82.8576H218.193V42.3906H177.726ZM216.264 80.9513H179.604V44.2913H216.264V80.9513Z" fill="#DBDBDB"/>
<path id="Vector_20" d="M213.653 73.8498V61.1768H185.086V73.8498H213.653Z" fill="#EBEBEB"/>
<path id="Vector_21" d="M205.277 69.9414V55.3057H190.642V69.9414H205.277Z" fill="#C7C7C7"/>
<path id="Vector_22" d="M219.755 42.3906H218.193V82.8576H219.755V42.3906Z" fill="#C7C7C7"/>
<path id="Vector_23" d="M216.286 96.3428H179.632V132.997H216.286V96.3428Z" fill="white"/>
<path id="Vector_24" d="M195.503 102.208H185.932V129.855H195.503V102.208Z" fill="#C7C7C7"/>
<path id="Vector_25" d="M177.726 94.4365V134.904H218.193V94.4365H177.726ZM216.264 132.997H179.604V96.3372H216.264V132.997Z" fill="#DBDBDB"/>
<path id="Vector_26" d="M205.277 107.352H190.642V121.987H205.277V107.352Z" fill="#EBEBEB"/>
<path id="Vector_27" d="M219.755 94.4365H218.193V134.904H219.755V94.4365Z" fill="#C7C7C7"/>
<path id="Vector_28" d="M216.286 148.389H179.632V185.043H216.286V148.389Z" fill="white"/>
<path id="Vector_29" d="M203.811 153.386H183.699V165.41H203.811V153.386Z" fill="#EBEBEB"/>
<path id="Vector_30" d="M177.726 146.482V186.949H218.193V146.482H177.726ZM216.264 185.043H179.604V148.383H216.264V185.043Z" fill="#DBDBDB"/>
<path id="Vector_31" d="M205.277 159.397H190.642V174.033H205.277V159.397Z" fill="#C7C7C7"/>
<path id="Vector_32" d="M219.755 146.482H218.193V186.949H219.755V146.482Z" fill="#C7C7C7"/>
</g>
</svg>
