<svg width="230" height="198" viewBox="0 0 230 198" fill="none" xmlns="http://www.w3.org/2000/svg">
<path d="M0.778809 100.629L29.3341 100.488L57.8895 100.437L115 100.347L172.111 100.437L200.666 100.488L229.221 100.629L200.666 100.764L172.111 100.815L115 100.911L57.8895 100.815L29.3341 100.764L0.778809 100.629Z" fill="#EBEBEB"/>
<path d="M0.778809 120.132L29.3341 119.996L57.8895 119.945L115 119.85L172.111 119.945L200.666 119.996L229.221 120.132L200.666 120.273L172.111 120.318L115 120.414L57.8895 120.318L29.3341 120.267L0.778809 120.132Z" fill="#EBEBEB"/>
<path d="M0.778809 81.1365L29.3341 81.0011L57.8895 80.9504L115 80.8545L172.111 80.9504L200.666 81.0011L229.221 81.1365L200.666 81.2775L172.111 81.3226L115 81.4185L57.8895 81.3226L29.3341 81.2775L0.778809 81.1365Z" fill="#EBEBEB"/>
<path d="M0.778809 139.635L29.3341 139.499L57.8895 139.449L115 139.358L172.111 139.449L200.666 139.499L229.221 139.635L200.666 139.776L172.111 139.827L115 139.917L57.8895 139.827L29.3341 139.776L0.778809 139.635Z" fill="#EBEBEB"/>
<path d="M0.778809 159.143L29.3341 159.008L57.8895 158.957L115 158.861L172.111 158.957L200.666 159.002L229.221 159.143L200.666 159.279L172.111 159.329L115 159.425L57.8895 159.329L29.3341 159.279L0.778809 159.143Z" fill="#EBEBEB"/>
<path d="M0.778809 178.646L29.3341 178.511L57.8895 178.46L115 178.364L172.111 178.46L200.666 178.511L229.221 178.646L200.666 178.787L172.111 178.838L115 178.928L57.8895 178.832L29.3341 178.787L0.778809 178.646Z" fill="#EBEBEB"/>
<path d="M134.503 61.3848L134.644 78.3442L134.695 95.3037L134.785 129.223L134.695 163.147L134.644 180.107L134.503 197.066L134.368 180.107L134.317 163.147L134.221 129.223L134.317 95.3037L134.368 78.3442L134.503 61.3848Z" fill="#EBEBEB"/>
<path d="M115 61.3848L115.135 78.3442L115.186 95.3037L115.282 129.223L115.186 163.147L115.141 180.107L115 197.066L114.859 180.107L114.814 163.147L114.718 129.223L114.814 95.3037L114.865 78.3442L115 61.3848Z" fill="#EBEBEB"/>
<path d="M95.4971 61.3848L95.6325 78.3442L95.6832 95.3037L95.7735 129.223L95.6832 163.147L95.6325 180.107L95.4971 197.066L95.3561 180.107L95.3053 163.147L95.2151 129.223L95.3053 95.3037L95.3561 78.3442L95.4971 61.3848Z" fill="#EBEBEB"/>
<path d="M75.9883 61.3848L76.1237 78.3442L76.1744 95.3037L76.2703 129.223L76.1744 163.147L76.1293 180.107L75.9883 197.066L75.8529 180.107L75.8022 163.147L75.7063 129.223L75.8022 95.3037L75.8529 78.3442L75.9883 61.3848Z" fill="#EBEBEB"/>
<path d="M193.024 61.3848L193.159 78.3442L193.21 95.3037L193.306 129.223L193.21 163.147L193.159 180.107L193.024 197.066L192.883 180.107L192.832 163.147L192.742 129.223L192.838 95.3037L192.883 78.3442L193.024 61.3848Z" fill="#EBEBEB"/>
<path d="M173.515 61.3848L173.656 78.3442L173.701 95.3037L173.797 129.223L173.701 163.147L173.656 180.107L173.515 197.066L173.38 180.107L173.329 163.147L173.233 129.223L173.329 95.3037L173.38 78.3442L173.515 61.3848Z" fill="#EBEBEB"/>
<path d="M154.012 61.3848L154.147 78.3442L154.198 95.3037L154.294 129.223L154.198 163.147L154.147 180.107L154.012 197.066L153.871 180.107L153.826 163.147L153.73 129.223L153.826 95.3037L153.877 78.3442L154.012 61.3848Z" fill="#EBEBEB"/>
<path d="M212.527 61.3848L212.662 78.3442L212.713 95.3037L212.809 129.223L212.713 163.147L212.668 180.107L212.527 197.066L212.392 180.107L212.341 163.147L212.245 129.223L212.341 95.3037L212.392 78.3442L212.527 61.3848Z" fill="#EBEBEB"/>
<path d="M193.024 61.3848L193.159 78.3442L193.21 95.3037L193.306 129.223L193.21 163.147L193.159 180.107L193.024 197.066L192.883 180.107L192.832 163.147L192.742 129.223L192.838 95.3037L192.883 78.3442L193.024 61.3848Z" fill="#EBEBEB"/>
<path d="M56.4851 61.3848L56.6205 78.3442L56.6712 95.3037L56.7671 129.223L56.6712 163.147L56.6205 180.107L56.4851 197.066L56.3441 180.107L56.2934 163.147L56.2031 129.223L56.299 95.3037L56.3441 78.3442L56.4851 61.3848Z" fill="#EBEBEB"/>
<path d="M36.9763 61.3848L37.1173 78.3442L37.1625 95.3037L37.2583 129.223L37.1681 163.147L37.1173 180.107L36.9763 197.066L36.841 180.107L36.7902 163.147L36.6943 129.223L36.7902 95.3037L36.841 78.3442L36.9763 61.3848Z" fill="#EBEBEB"/>
<path d="M17.4732 61.3848L17.6085 78.3442L17.6593 95.3037L17.7552 129.223L17.6593 163.147L17.6085 180.107L17.4732 197.066L17.3322 180.107L17.287 163.147L17.1912 129.223L17.287 95.3037L17.3322 78.3442L17.4732 61.3848Z" fill="#EBEBEB"/>
<path d="M226.373 0.760742H136.133V7.70358H226.373V0.760742Z" fill="#EBEBEB"/>
<path d="M215.358 71.9548C214.547 71.9146 213.753 71.7064 213.027 71.3433C212.301 70.9802 211.658 70.4701 211.139 69.8454C208.709 67.1946 207.417 62.5642 207.755 57.7702C207.992 54.5216 209.504 50.3592 210.965 46.3323C212.425 42.3053 213.841 38.3912 213.875 35.7178L214.281 4.13379H216.215V4.87263H215.02L214.625 35.7178C214.591 38.5378 213.17 42.4294 211.67 46.5748C210.226 50.551 208.737 54.6682 208.506 57.8153C208.167 62.4119 209.385 66.8393 211.686 69.3322C212.138 69.8819 212.698 70.3322 213.332 70.6545C213.966 70.9768 214.659 71.1641 215.369 71.2047L215.358 71.9548Z" fill="#EBEBEB"/>
<path d="M217.084 71.6667C216.541 71.8598 215.968 71.9571 215.392 71.9544V71.2155C216.102 71.1927 216.8 71.0231 217.442 70.7173C218.084 70.4116 218.655 69.9763 219.12 69.4389C221.483 66.9912 222.814 62.6089 222.594 58.0067C222.442 54.8539 221.06 50.7029 219.718 46.6872C218.319 42.5023 216.999 38.5543 217.039 35.7569L217.434 4.91169H216.238V4.17285H218.167L217.767 35.7569C217.733 38.4246 219.03 42.3162 220.406 46.439C221.782 50.5619 223.164 54.7073 223.322 57.9559C223.548 62.7612 222.138 67.3521 219.639 69.9409C218.933 70.7063 218.058 71.2972 217.084 71.6667Z" fill="#EBEBEB"/>
<path d="M215.358 71.954C214.96 71.9307 214.572 71.8255 214.217 71.645C213.861 71.4645 213.547 71.2126 213.294 70.905C211.23 68.7054 210.04 63.4433 210.339 57.8089C210.502 54.5828 211.506 50.4149 212.476 46.3879C213.446 42.361 214.399 38.4186 214.433 35.7227L214.834 4.13867H216.227V4.87751H215.578L215.183 35.7227C215.144 38.4976 214.202 42.4117 213.209 46.5515C212.245 50.5446 211.252 54.6787 211.083 57.8315C210.807 63.1895 211.94 68.3557 213.841 70.3805C214.028 70.6145 214.262 70.8078 214.526 70.9484C214.791 71.0891 215.082 71.1741 215.381 71.1983L215.358 71.954Z" fill="#EBEBEB"/>
<path d="M216.176 71.8195C215.913 71.9115 215.637 71.9573 215.358 71.9549H214.992L215.855 4.16211H217.614L217.208 35.7461C217.174 38.442 218.009 42.3336 218.9 46.4621C219.791 50.5906 220.666 54.7021 220.75 57.9395C220.902 63.5795 219.583 68.8078 217.462 70.9566C217.103 71.3365 216.664 71.6313 216.176 71.8195ZM215.736 71.1766C216.193 71.0473 216.605 70.7934 216.926 70.4434C218.878 68.4581 220.147 63.3314 220 57.9621C219.915 54.798 219.03 50.6301 218.167 46.6257C217.276 42.4577 216.436 38.5266 216.475 35.7517L216.864 4.90659H216.588L215.736 71.1766Z" fill="#EBEBEB"/>
<path d="M213.068 2.67825L212.752 27.607L219.097 27.6917L219.419 2.61621L213.068 2.67825Z" fill="#A6A6A6"/>
<path d="M182.596 20.4668H179.917V54.3294H182.596V20.4668Z" fill="#EBEBEB"/>
<path d="M188.506 52.8516H174L173.261 73.0935H189.251L188.506 52.8516ZM178.213 70.7473H176.707V55.7449H178.213V70.7473ZM182.003 70.7473H180.503V55.7449H182.003V70.7473ZM185.793 70.7473H184.293V55.7449H185.793V70.7473Z" fill="#EBEBEB"/>
<path d="M178.535 2.67825L178.213 27.607L184.564 27.6917L184.885 2.61621L178.535 2.67825Z" fill="#A6A6A6"/>
<path d="M147.78 36.3945V20.1738H143.561V69.6874H163.91V36.4114L147.78 36.3945ZM159.821 42.2262C159.581 42.2262 159.346 42.155 159.147 42.0215C158.947 41.888 158.792 41.6983 158.7 41.4764C158.609 41.2545 158.585 41.0103 158.632 40.775C158.68 40.5396 158.796 40.3236 158.966 40.1542C159.136 39.9848 159.352 39.8698 159.588 39.8236C159.824 39.7775 160.068 39.8023 160.289 39.895C160.511 39.9876 160.7 40.1439 160.832 40.3441C160.965 40.5442 161.035 40.7792 161.034 41.0193C161.034 41.1782 161.002 41.3356 160.941 41.4825C160.88 41.6293 160.791 41.7626 160.678 41.8747C160.566 41.9869 160.432 42.0756 160.285 42.136C160.138 42.1963 159.98 42.227 159.821 42.2262Z" fill="#EBEBEB"/>
<path d="M142.969 2.67825L142.647 27.607L148.998 27.6917L149.32 2.61621L142.969 2.67825Z" fill="#A6A6A6"/>
<path d="M6.57667 69.5744H98.3282L101.278 0.760742H3.62695L6.57667 69.5744Z" fill="#EBEBEB"/>
<path d="M50.5012 63.2579H13.3956L10.9817 7.42188H50.5012V63.2579ZM13.937 62.6939H49.9372V7.98588H11.5852L13.937 62.6939Z" fill="#DBDBDB"/>
<path d="M47.1566 44.8032H43.2988V24.6289H47.1566V44.8032ZM43.8628 44.2392H46.5926V25.1929H43.8628V44.2392Z" fill="#DBDBDB"/>
<path d="M91.5094 63.2579H54.4038V7.42188H93.9233L91.5094 63.2579ZM54.9678 62.6939H90.9679L93.3367 7.98588H54.9847L54.9678 62.6939Z" fill="#DBDBDB"/>
<path d="M61.6063 44.8032H57.7485V24.6289H61.6063V44.8032ZM58.3125 44.2392H61.0423V25.1929H58.3125V44.2392Z" fill="#DBDBDB"/>
</svg>
