<svg width="234" height="177" viewBox="0 0 234 177" fill="none" xmlns="http://www.w3.org/2000/svg">
<g id="freepik  background complete  inject 171">
<path id="Vector" d="M209.942 9.04872L217.347 8.89081L221.103 8.82312C222.355 8.82312 223.619 8.82312 224.876 8.79492H225.13V9.04872V15.3599V15.6419H224.848L217.392 15.6024C214.905 15.6024 212.418 15.5404 209.925 15.5122H209.772V15.3655C209.772 14.2939 209.823 13.228 209.846 12.1733L209.942 9.04872ZM209.942 9.04872L210.021 12.2353C210.049 13.2844 210.088 14.3221 210.1 15.3599L209.942 15.202C212.435 15.202 214.922 15.1117 217.409 15.1117L224.876 15.0779L224.594 15.3599L224.628 9.04872L224.876 9.29688C223.647 9.29688 222.423 9.29688 221.188 9.29688L217.477 9.22356L209.942 9.04872Z" fill="#EBEBEB"/>
<path id="Vector_2" d="M218.272 1.09084L225.677 0.932914L229.433 0.865234C230.691 0.865234 231.949 0.865234 233.207 0.865234H233.46V1.11903L233.489 7.43019V7.71219H233.184L225.739 7.64451C223.252 7.64451 220.765 7.58247 218.272 7.55427H218.12V7.40199C218.12 6.33039 218.17 5.26443 218.193 4.20975L218.272 1.09084ZM218.272 1.09084L218.356 4.27743C218.356 5.32647 218.419 6.36423 218.43 7.40199L218.272 7.24407C220.765 7.21587 223.252 7.15383 225.739 7.15383L233.184 7.11999L232.908 7.40199L232.936 1.09084L233.184 1.32771C231.955 1.32771 230.731 1.32771 229.496 1.29951L225.784 1.23184L218.272 1.09084Z" fill="#EBEBEB"/>
<path id="Vector_3" d="M201.6 1.09084L209.005 0.932914L212.762 0.865234C214.014 0.865234 215.277 0.865234 216.535 0.865234H216.783V1.11903L216.828 7.40199V7.68399H216.546L209.079 7.65015C206.591 7.65015 204.098 7.58811 201.611 7.55991H201.459V7.40763C201.459 6.33603 201.504 5.27007 201.532 4.21539L201.6 1.09084ZM201.6 1.09084L201.679 4.27743C201.679 5.32647 201.741 6.36423 201.752 7.40199L201.6 7.24408C204.087 7.21588 206.58 7.15384 209.067 7.15384L216.535 7.11999L216.253 7.40199L216.287 1.09084L216.535 1.33899C215.305 1.33899 214.076 1.33899 212.846 1.31079L209.135 1.24311L201.6 1.09084Z" fill="#EBEBEB"/>
<path id="Vector_4" d="M9.12391 1.09084L16.5236 0.932914L20.2798 0.865234C21.5376 0.865234 22.8009 0.865234 24.0586 0.865234H24.3068V1.11903L24.3406 7.43019V7.71219H24.0586L16.6082 7.64451C14.1153 7.64451 11.6281 7.58247 9.14083 7.55427H8.98291V7.40199C8.98291 6.33039 9.03367 5.26443 9.05623 4.20975L9.12391 1.09084ZM9.12391 1.09084L9.20287 4.27743C9.20287 5.32647 9.26491 6.36423 9.27619 7.40199L9.12391 7.24407C11.6112 7.21587 14.0984 7.15383 16.5913 7.15383L24.0586 7.11999L23.7766 7.40199L23.8048 1.09084L24.0586 1.33899C22.8122 1.32771 21.5996 1.32771 20.3644 1.32771L16.6533 1.26003L9.12391 1.09084Z" fill="#EBEBEB"/>
<path id="Vector_5" d="M9.12391 169.823L16.5236 169.665L20.2798 169.603C21.5376 169.575 22.8009 169.603 24.0586 169.569H24.3068V169.823L24.3406 176.134V176.416H24.0586L16.6082 176.377C14.1153 176.377 11.6281 176.315 9.14083 176.287H8.98291V176.134C8.98291 175.063 9.03367 173.997 9.05623 172.942L9.12391 169.823ZM9.12391 169.823L9.20287 173.01C9.20287 174.059 9.26491 175.102 9.27619 176.134L9.12391 175.976C11.6112 175.948 14.0984 175.892 16.5913 175.886L24.0586 175.852L23.7766 176.134L23.8048 169.823L24.0586 170.071C22.8291 170.071 21.5996 170.071 20.3644 170.043L16.6533 169.964L9.12391 169.823Z" fill="#EBEBEB"/>
<path id="Vector_6" d="M0.816122 161.865L8.2158 161.707L11.972 161.645C13.2298 161.617 14.4875 161.645 15.7508 161.611H15.999V161.865L16.0328 168.176V168.458H15.7508L8.28348 168.419C5.7906 168.419 3.30336 168.357 0.816122 168.329H0.658203V168.176C0.658203 167.105 0.708962 166.039 0.731522 164.984L0.816122 161.865ZM0.816122 161.865L0.895082 165.052C0.895082 166.101 0.957123 167.144 0.968403 168.176L0.816122 168.018C3.30336 167.99 5.7906 167.934 8.28348 167.928L15.7508 167.894L15.4688 168.176V161.865L15.7226 162.113C14.4875 162.113 13.2636 162.113 12.0284 162.085L8.31732 162.023L0.816122 161.865Z" fill="#EBEBEB"/>
<path id="Vector_7" d="M218.272 169.817L225.677 169.659L229.434 169.592C230.691 169.592 231.949 169.592 233.207 169.592H233.461V169.846L233.489 176.157V176.439H233.184L225.717 176.405C223.23 176.405 220.742 176.343 218.249 176.315H218.097V176.162C218.097 175.091 218.148 174.025 218.17 172.97L218.272 169.817ZM218.272 169.817L218.357 173.004C218.357 174.053 218.419 175.091 218.43 176.129L218.272 175.971C220.765 175.971 223.252 175.88 225.739 175.88L233.207 175.847L232.93 176.129L232.959 169.817L233.207 170.066C231.977 170.066 230.753 170.066 229.518 170.037L225.807 169.97L218.272 169.817Z" fill="#EBEBEB"/>
<path id="Vector_8" d="M185.402 90.5585L178.002 90.7165L174.246 90.7785C172.988 90.8067 171.725 90.7785 170.467 90.8123H170.219V90.5585L170.185 84.2361V83.9541H170.467L177.935 83.9879C180.422 83.9879 182.915 84.0556 185.402 84.0838H185.56V84.2361C185.56 85.3077 185.515 86.3737 185.487 87.4283L185.402 90.5585ZM185.402 90.5585L185.323 87.3719C185.295 86.3173 185.261 85.2795 185.25 84.2474L185.402 84.3997C182.915 84.4335 180.422 84.4899 177.935 84.4955L170.467 84.5294L170.749 84.2474L170.721 90.5585L170.467 90.3104C171.697 90.3104 172.926 90.3104 174.162 90.3104L177.873 90.3724L185.402 90.5585Z" fill="#EBEBEB"/>
<path id="Vector_9" d="M177.072 98.516L169.666 98.6739L165.91 98.736C164.658 98.736 163.395 98.736 162.137 98.7698H161.889V98.516L161.861 92.2049V91.9229H162.143L169.61 91.9567C172.097 91.9567 174.59 92.0244 177.077 92.0526H177.235V92.2049C177.235 93.2765 177.19 94.3424 177.162 95.3971L177.072 98.516ZM177.072 98.516L176.993 95.3294C176.965 94.2747 176.931 93.237 176.919 92.2049L177.072 92.3571C174.584 92.391 172.092 92.4474 169.604 92.453L162.137 92.4869L162.419 92.2049L162.385 98.516L162.137 98.2679C163.366 98.2679 164.596 98.2679 165.826 98.2961L169.537 98.3581L177.072 98.516Z" fill="#EBEBEB"/>
<path id="Vector_10" d="M84.2824 1.09082H2.55884V110.541H84.2824V1.09082Z" fill="#EBEBEB"/>
<path id="Vector_11" d="M41.2719 5.47266H7.59546V54.1571H41.2719V5.47266Z" fill="white"/>
<path id="Vector_12" d="M79.246 5.47266H45.5696V54.1571H79.246V5.47266Z" fill="white"/>
<path id="Vector_13" d="M41.2719 57.4736H7.59546V106.158H41.2719V57.4736Z" fill="white"/>
<path id="Vector_14" d="M79.246 57.4736H45.5696V106.158H79.246V57.4736Z" fill="white"/>
<path id="Vector_15" d="M24.459 1.09082H2.55884V157.68H24.459V1.09082Z" fill="#DBDBDB"/>
<path id="Vector_16" d="M20.3079 8.53516L20.4771 25.4664L20.5335 42.3921L20.652 76.2546L20.5392 110.117L20.4771 127.048L20.3079 143.98L20.1331 127.048L20.0767 110.117L19.9583 76.2546L20.0767 42.3921L20.1387 25.4664L20.3079 8.53516Z" fill="#EBEBEB"/>
<path id="Vector_17" d="M10.2518 12.4609L10.421 27.5761L10.5169 42.697L10.5958 72.933L10.5169 103.163L10.421 118.284L10.2518 133.399L10.0826 118.284L9.98106 103.163L9.9021 72.933L9.9867 42.697L10.0826 27.5761L10.2518 12.4609Z" fill="#EBEBEB"/>
<path id="Vector_18" d="M15.2771 16.0254L15.4463 33.7293L15.5084 51.4333L15.6268 86.8356L15.5084 122.238L15.4463 139.942L15.2771 157.646L15.1079 139.942L15.0459 122.238L14.9331 86.8356L15.0459 51.4333L15.1079 33.7293L15.2771 16.0254Z" fill="#EBEBEB"/>
<path id="Vector_19" d="M6.51252 9.42676L6.68172 27.9542L6.74376 46.4816L6.85656 83.5363L6.74376 120.591L6.68172 139.119L6.51252 157.646L6.34332 139.119L6.28128 120.591L6.16284 83.5363L6.28128 46.4816L6.34332 27.9542L6.51252 9.42676Z" fill="#EBEBEB"/>
<path id="Vector_20" d="M62.3823 157.674H84.2825L84.2825 1.08485H62.3823L62.3823 157.674Z" fill="#DBDBDB"/>
<path id="Vector_21" d="M66.5335 8.53516L66.7027 25.4664L66.7647 42.3921L66.8832 76.2546L66.7647 110.117L66.7027 127.048L66.5335 143.98L66.3643 127.048L66.3023 110.117L66.1895 76.2546L66.3023 42.3921L66.3643 25.4664L66.5335 8.53516Z" fill="#EBEBEB"/>
<path id="Vector_22" d="M76.5896 12.4609L76.7588 27.5761L76.8547 42.697L76.9393 72.933L76.8547 103.163L76.7588 118.284L76.5896 133.399L76.4204 118.284L76.3246 103.163L76.2456 72.933L76.3246 42.697L76.4204 27.5761L76.5896 12.4609Z" fill="#EBEBEB"/>
<path id="Vector_23" d="M71.5643 16.0254L71.7335 33.7293L71.7899 51.4333L71.9083 86.8356L71.7955 122.238L71.7335 139.942L71.5643 157.646L71.3894 139.942L71.333 122.238L71.2146 86.8356L71.333 51.4333L71.3951 33.7293L71.5643 16.0254Z" fill="#EBEBEB"/>
<path id="Vector_24" d="M80.3289 9.42676L80.4981 27.9542L80.5601 46.4816L80.6729 83.5363L80.5601 120.591L80.4981 139.119L80.3289 157.646L80.1597 139.119L80.0977 120.591L79.9849 83.5363L80.0977 46.4816L80.1597 27.9542L80.3289 9.42676Z" fill="#EBEBEB"/>
<path id="Vector_25" d="M170.495 36.3125L230.618 36.3125V32.7424L170.495 32.7424V36.3125Z" fill="#EBEBEB"/>
<path id="Vector_26" d="M226.055 36.3125H222.485V48.117H226.055V36.3125Z" fill="#EBEBEB"/>
<path id="Vector_27" d="M226.055 36.3125H222.485V39.9616H226.055V36.3125Z" fill="#DBDBDB"/>
<path id="Vector_28" d="M178.628 36.3125H175.058V48.117H178.628V36.3125Z" fill="#EBEBEB"/>
<path id="Vector_29" d="M178.628 36.3125H175.058V39.9616H178.628V36.3125Z" fill="#DBDBDB"/>
<path id="Vector_30" d="M215.424 32.743V9.99121H209.694V32.743H215.424Z" fill="#C7C7C7"/>
<path id="Vector_31" d="M215.424 11.271V8.77246H209.694V11.271H215.424Z" fill="#DBDBDB"/>
<path id="Vector_32" d="M215.424 15.4054V14.4805H209.694V15.4054H215.424Z" fill="#DBDBDB"/>
<path id="Vector_33" d="M215.424 29.7593V27.2607H208.983V29.7593H215.424Z" fill="#DBDBDB"/>
<path id="Vector_34" d="M209.694 32.742V6.2002H205.689V32.742H209.694Z" fill="#DBDBDB"/>
<path id="Vector_35" d="M208.91 18.9076V8.69922H206.507V18.9076H208.91Z" fill="#EBEBEB"/>
<path id="Vector_36" d="M180.022 32.7581L198.898 14.0986L196.083 11.2508L177.207 29.9103L180.022 32.7581Z" fill="#C7C7C7"/>
<path id="Vector_37" d="M183.885 27.8066L191.145 20.6299L189.456 18.9212L182.196 26.0979L183.885 27.8066Z" fill="#DBDBDB"/>
<path id="Vector_38" d="M205.689 32.7423V12.585H198.887V32.7423H205.689Z" fill="#A6A6A6"/>
<path id="Vector_39" d="M205.689 30.6105V28.7324H198.887V30.6105H205.689Z" fill="#C7C7C7"/>
<path id="Vector_40" d="M205.689 27.4971V26.7695H198.887V27.4971H205.689Z" fill="#C7C7C7"/>
<path id="Vector_41" d="M220.116 32.7485V13.8037H215.418V32.7485H220.116Z" fill="#A6A6A6"/>
<path id="Vector_42" d="M220.116 30.7399V28.9746H215.418V30.7399H220.116Z" fill="#C7C7C7"/>
<path id="Vector_43" d="M220.122 19.4772V17.7119H215.424V19.4772H220.122Z" fill="#C7C7C7"/>
<path id="Vector_44" d="M220.122 21.3611V20.6787H215.424V21.3611H220.122Z" fill="#C7C7C7"/>
</g>
</svg>
