<svg width="40" height="40" viewBox="0 0 40 40" fill="none" xmlns="http://www.w3.org/2000/svg">
<g id="Foods">
<path id="Vector" d="M37.7499 23.9044C37.7499 24.6934 37.4572 25.4071 36.9839 25.9237C36.5099 26.4404 35.856 26.7599 35.1339 26.7599H4.86602C3.4218 26.7599 2.25 25.4817 2.25 23.9044C2.25 23.4818 2.33375 23.0815 2.48422 22.7211C2.61516 22.4078 2.7957 22.1255 3.01602 21.885C3.49008 21.3684 4.14391 21.0488 4.86602 21.0488H35.134C36.192 21.0488 37.1035 21.734 37.5158 22.7211C37.6662 23.0815 37.7499 23.4818 37.7499 23.9044Z" fill="#9D6E1E"/>
<path id="Vector_2" d="M37.5158 22.722C37.3849 23.0345 37.2036 23.3176 36.984 23.5573C36.51 24.0739 35.8561 24.3935 35.134 24.3935H4.86605C3.80894 24.3935 2.89738 23.7083 2.48425 22.7221C2.61519 22.4088 2.79566 22.1265 3.01605 21.886C3.49011 21.3693 4.14394 21.0498 4.86605 21.0498H35.134C36.1919 21.0497 37.1035 21.735 37.5158 22.722Z" fill="#D7A251"/>
<path id="Vector_3" d="M40 29.0653C40 32.7445 38.4395 35.4783 35.917 37.2918C33.3937 39.1061 29.9085 39.9999 26.0589 39.9999H13.941C6.24195 39.9999 0 36.4237 0 29.0653C0 28.6552 0.0935156 28.2664 0.262656 27.9167C0.405781 27.6184 0.603359 27.3495 0.843281 27.1204C1.36375 26.6225 2.08422 26.3145 2.87867 26.3145H37.1214C38.2818 26.3145 39.282 26.9713 39.7374 27.9167C39.9065 28.2665 40 28.6552 40 29.0653Z" fill="#FFD885"/>
<path id="Vector_4" d="M39.7374 27.9167C39.1942 30.3665 37.8329 32.2749 35.9171 33.6524C33.3938 35.4667 29.9086 36.3606 26.0589 36.3606H13.9411C7.16731 36.3606 1.5223 33.593 0.262695 27.9167C0.40582 27.6184 0.603398 27.3495 0.84332 27.1204C1.36379 26.6225 2.08426 26.3145 2.87871 26.3145H37.1214C38.2818 26.3145 39.282 26.9713 39.7374 27.9167Z" fill="#FFD885"/>
<path id="Vector_5" d="M31.124 19.8506L24.3567 27.2374C24.1868 27.4221 24.0054 27.5854 23.8135 27.7265C22.3807 28.7854 20.4177 28.623 19.1484 27.2374L12.3811 19.8506H31.124Z" fill="#FFBC2E"/>
<path id="Vector_6" d="M31.1239 19.8506L24.3567 27.2374C24.1867 27.4221 24.0053 27.5854 23.8135 27.7265C23.2971 27.5348 22.8124 27.2143 22.401 26.7643L16.0671 19.8506H31.1239Z" fill="#FFBC2E"/>
<path id="Vector_7" d="M39.2405 20.8812C39.2405 21.2682 39.182 21.664 39.0551 22.0502C38.5582 23.5636 37.2279 24.1512 36.1911 23.315L34.9477 22.3129C34.0801 21.6126 32.9734 21.8993 32.3455 22.9875L32.2927 23.079C31.6901 24.1245 30.6395 24.4352 29.7816 23.8227L26.9973 21.8353C26.3548 21.3773 25.5848 21.427 24.9766 21.9676L22.7452 23.9488C22.1045 24.5178 21.288 24.5417 20.6302 24.01L18.0849 21.9507C17.4344 21.4244 16.6277 21.4412 15.9894 21.9951L13.6719 24.0039C13.0498 24.5427 12.2675 24.5737 11.6243 24.0864L8.62367 21.8105C8.03328 21.3632 7.32179 21.3507 6.72328 21.7777L3.92437 23.7758C2.06054 24.0376 1.1539 22.5437 1.1539 22.5437C0.707496 21.6969 0.66273 20.693 0.904293 19.8507C1.19132 18.8441 1.88664 18.0684 2.79086 18.0684H37.2101C38.0964 18.0684 38.8047 18.8326 39.0959 19.8462C39.1901 20.1711 39.2405 20.5217 39.2405 20.8812Z" fill="#72B766"/>
<path id="Vector_8" d="M39.0958 19.8464C39.0836 19.8907 39.0698 19.9342 39.0552 19.9787C38.5583 21.493 37.228 22.0806 36.1912 21.2445L34.9478 20.2414C34.0802 19.542 32.9734 19.8287 32.3456 20.916L32.2927 21.0083C31.6902 22.0539 30.6395 22.3646 29.7816 21.7521L26.9973 19.7647C26.3549 19.3058 25.5848 19.3564 24.9766 19.897L22.7453 21.8782C22.1045 22.4471 21.2881 22.4702 20.6302 21.9385L18.085 19.8792C17.4345 19.3529 16.6278 19.3706 15.9895 19.9236L13.6719 21.9332C13.0498 22.4711 12.2675 22.503 11.6243 22.0157L8.62367 19.7398C8.03328 19.2916 7.3218 19.2791 6.72328 19.707L3.92437 21.7041C2.06055 21.9668 1.15391 20.4721 1.15391 20.4721C1.04898 20.2724 0.966094 20.0638 0.904297 19.8508C1.19133 18.8442 1.88664 18.0684 2.79086 18.0684H37.2101C38.0963 18.0684 38.8046 18.8327 39.0958 19.8464Z" fill="#72B766"/>
<path id="Vector_9" d="M38.5461 16.2416C38.5518 16.5371 38.516 16.8221 38.4461 17.091C38.1314 18.2876 37.1214 19.1628 35.9244 19.1628C31.2243 19.1628 18.7054 19.0474 16.8173 19.1157C16.775 19.1175 16.7328 19.1193 16.6913 19.1201C14.3071 19.2186 13.7639 19.6358 13.7639 21.0232V26.0995C13.7639 26.3605 13.6671 26.5975 13.5102 26.7688C13.3532 26.9401 13.1369 27.0457 12.8979 27.0457C12.4189 27.0457 12.031 27.4691 12.031 27.9919V30.203C12.031 30.4275 12.0066 30.6451 11.9594 30.8545C11.6919 32.0635 10.6925 32.9609 9.49223 32.9609H9.42801C8.06348 32.9609 6.95918 31.7511 6.96325 30.2616L6.97465 26.2593C6.97543 25.9522 7.09012 25.6735 7.27473 25.4729C7.46012 25.2714 7.71465 25.1471 7.99684 25.1471C8.56122 25.1471 9.01903 24.6474 9.01903 24.0314V21.0232C9.01903 19.9953 8.25629 19.1628 7.31465 19.1628H4.12528C2.69004 19.1628 1.48247 17.9263 1.45317 16.3597C1.42387 14.7522 2.6095 13.4385 4.07567 13.4385H35.8724C37.3084 13.4385 38.5176 14.6749 38.5461 16.2416Z" fill="#FF6752"/>
<path id="Vector_10" d="M38.546 16.2416C38.5517 16.5371 38.5159 16.8221 38.446 17.091C33.4702 17.0857 21.5808 16.9783 19.7447 17.0439C17.2531 17.1336 16.6912 17.541 16.6912 18.9524V19.1201C14.307 19.2186 13.7638 19.6358 13.7638 21.0232V26.0995C13.7638 26.3605 13.667 26.5975 13.5101 26.7688C13.3532 26.9401 13.1369 27.0457 12.8978 27.0457C12.4188 27.0457 12.0309 27.4691 12.0309 27.9919V30.203C12.0309 30.4275 12.0066 30.6451 11.9594 30.8545C10.7835 30.6477 9.88655 29.532 9.89061 28.1899L9.90202 24.1884C9.9028 23.8804 10.0175 23.6026 10.2021 23.402C10.3875 23.2005 10.642 23.0762 10.9242 23.0762C11.4886 23.0762 11.9464 22.5765 11.9464 21.9605V18.9523C11.9464 17.9244 11.1837 17.0919 10.242 17.0919H7.05264C5.61741 17.0919 4.40983 15.8554 4.38053 14.2888C4.37483 13.9932 4.41061 13.7083 4.48139 13.4385H35.8723C37.3083 13.4385 38.5176 14.6749 38.546 16.2416Z" fill="#FF6752"/>
<path id="Vector_11" d="M23.5446 10.5293L17.7426 16.8652C17.1612 17.4998 16.4756 17.9516 15.7454 18.2188C13.945 18.8828 11.8764 18.431 10.4435 16.8652L4.63916 10.5293H23.5446Z" fill="#FFBC2E"/>
<path id="Vector_12" d="M23.5446 10.5293L17.7426 16.8652C17.1612 17.4998 16.4756 17.9516 15.7454 18.2188C15.0159 17.9516 14.3305 17.4998 13.7498 16.8652L7.94537 10.5293H23.5446Z" fill="#FFBC2E"/>
<path id="Vector_13" d="M40 11.4203C40 11.4674 39.9984 11.5135 39.9959 11.5596C39.9642 12.1552 39.73 12.6922 39.3673 13.0882C38.9762 13.5152 38.4362 13.7787 37.8394 13.7787H2.16062C0.967656 13.7787 0 12.7224 0 11.4203C0 8.5941 1.20023 6.46642 3.01281 4.86601C4.48383 3.56654 6.35898 2.61407 8.32203 1.91556C13.8142 -0.0362808 20 4.74353e-05 20 4.74353e-05C20 4.74353e-05 40 -0.117977 40 11.4203Z" fill="#FFD885"/>
<path id="Vector_14" d="M40 11.4203C40 11.4674 39.9983 11.5135 39.9959 11.5596H6.55168C5.35879 11.5596 4.39105 10.5034 4.39105 9.2012C4.39105 6.375 5.59129 4.24732 7.40386 2.64699C7.69496 2.38954 8.00152 2.14641 8.32191 1.91556C13.8142 -0.0362808 20 4.74353e-05 20 4.74353e-05C20 4.74353e-05 40 -0.117977 40 11.4203Z" fill="#FFD885"/>
<path id="Vector_15" d="M25.9035 9.0588C26.0845 9.57337 25.8491 10.1507 25.3777 10.3483C24.9063 10.5459 24.3774 10.2889 24.1964 9.77437C24.0153 9.2598 23.909 7.71107 24.3803 7.51348C24.8518 7.31598 25.7225 8.54424 25.9035 9.0588Z" fill="#FFF5CC"/>
<path id="Vector_16" d="M15.887 9.68352C15.7608 10.2172 15.262 10.5381 14.7731 10.4003C14.2842 10.2625 13.9902 9.71806 14.1165 9.18439C14.2427 8.65072 14.9798 7.32235 15.4688 7.46016C15.9577 7.59797 16.0133 9.14994 15.887 9.68352Z" fill="#FFF5CC"/>
</g>
</svg>
