<svg width="40" height="40" viewBox="0 0 40 40" fill="none" xmlns="http://www.w3.org/2000/svg">
<g id="Foods">
<path id="Vector" d="M28.4845 18.416C26.3634 18.416 26.3634 20.1063 24.2423 20.1063C22.1213 20.1063 22.1213 18.416 20.0004 18.416C17.8793 18.416 17.8793 20.1063 15.7584 20.1063C13.6373 20.1063 13.6373 18.416 11.5161 18.416C9.3951 18.416 9.3951 20.1063 7.27406 20.1063C5.48783 20.1063 5.20522 18.9082 3.89411 18.5297C3.49985 18.4159 3.12327 18.7526 3.20808 19.1502L6.86535 36.3035C7.32476 38.4582 9.2465 40.0003 11.4722 40.0003H28.5278C30.7536 40.0003 32.6754 38.4583 33.1347 36.3035L36.7921 19.1495C36.8746 18.7627 36.5155 18.4156 36.1309 18.5226C34.7985 18.893 34.5237 20.1062 32.7265 20.1062C30.6056 20.1063 30.6056 18.416 28.4845 18.416Z" fill="#A3A0CA"/>
<path id="Vector_2" d="M22.3074 26.6797C21.3703 26.6797 20.536 27.1152 20 27.7929C19.464 27.1152 18.6298 26.6797 17.6926 26.6797C16.0754 26.6797 14.7643 27.9768 14.7643 29.577C14.7643 33.217 20 35.2441 20 35.2441C20 35.2441 25.2358 33.217 25.2358 29.577C25.2358 27.9768 23.9247 26.6797 22.3074 26.6797Z" fill="#EFEFF6"/>
<path id="Vector_3" d="M36.131 18.5226C34.7986 18.8931 34.5238 20.1063 32.7266 20.1063C32.5485 20.1063 32.3866 20.0934 32.2359 20.0717L32.1152 20.638C31.9992 20.6297 31.8791 20.6247 31.7527 20.6247C28.8146 20.6247 28.8146 22.9661 25.8765 22.9661C22.9385 22.9661 22.9385 20.6247 20.0006 20.6247C17.0626 20.6247 17.0626 22.9661 14.1246 22.9661C11.1865 22.9661 11.1865 20.6247 8.24831 20.6247C5.96271 20.6247 5.45473 22.0413 3.95877 22.6706L4.29776 24.2605C5.54665 23.5788 6.14409 22.378 8.24831 22.378C11.1865 22.378 11.1865 24.7194 14.1246 24.7194C17.0626 24.7194 17.0626 22.378 20.0006 22.378C22.9386 22.378 22.9386 24.7194 25.8765 24.7194C28.8117 24.7194 28.8149 22.3829 31.7442 22.3782L28.7752 36.3035C28.3157 38.4582 26.394 40.0002 24.1681 40.0002H28.5278C30.7536 40.0002 32.6754 38.4582 33.1348 36.3034L36.7922 19.1495C36.8747 18.7627 36.5157 18.4156 36.131 18.5226Z" fill="#A3A0CA"/>
<path id="Vector_4" d="M2.37206 22.9658C5.31014 22.9658 5.31014 20.6244 8.24813 20.6244C11.1863 20.6244 11.1863 22.9658 14.1244 22.9658C17.0624 22.9658 17.0624 20.6244 20.0004 20.6244C22.9384 20.6244 22.9384 22.9658 25.8763 22.9658C28.8145 22.9658 28.8145 20.6244 31.7526 20.6244C34.6906 20.6244 34.6906 22.9658 37.6286 22.9658C37.6341 22.9658 37.6395 22.9658 37.6451 22.9658C38.4683 22.9633 39.1898 22.4272 39.4507 21.6548C39.8068 20.6012 39.9999 19.4738 39.9999 18.3017C39.9999 13.5685 36.8566 9.56195 32.5227 8.2132C30.4599 3.38664 25.6298 0 20 0C14.3703 0 9.54014 3.38664 7.47721 8.21313C3.1433 9.56195 0 13.5684 0 18.3017C0 19.4934 0.19962 20.6387 0.567037 21.7073C0.824379 22.4558 1.53971 22.9609 2.33874 22.9658C2.3498 22.9658 2.36093 22.9658 2.37206 22.9658Z" fill="#FFC0B8"/>
<path id="Vector_5" d="M32.5229 8.21313C30.4599 3.38664 25.6298 0 20 0C19.2597 0 18.5334 0.0591406 17.8252 0.171875C22.5024 0.916172 26.3816 4.02141 28.1732 8.2132C32.5071 9.56203 35.6504 13.5685 35.6504 18.3017C35.6504 19.4738 35.4572 20.6012 35.1012 21.6548C35.0605 21.7751 35.0075 21.8888 34.9459 21.9966C35.6043 22.5076 36.329 22.9659 37.6286 22.9659C37.6342 22.9659 37.6396 22.9659 37.6452 22.9659C38.4684 22.9634 39.1898 22.4273 39.4508 21.6548C39.8069 20.6013 40 19.4739 40 18.3018C40.0002 13.5685 36.8567 9.56195 32.5229 8.21313Z" fill="#FFC0B8"/>
<path id="Vector_6" d="M24.8872 10.1216C25.9138 10.1216 26.7461 9.29823 26.7461 8.2825C26.7461 7.26677 25.9138 6.44336 24.8872 6.44336C23.8605 6.44336 23.0283 7.26677 23.0283 8.2825C23.0283 9.29823 23.8605 10.1216 24.8872 10.1216Z" fill="#A3A0CA"/>
<path id="Vector_7" d="M13.7177 8.2818C14.7443 8.2818 15.5766 7.45839 15.5766 6.44266C15.5766 5.42693 14.7443 4.60352 13.7177 4.60352C12.691 4.60352 11.8588 5.42693 11.8588 6.44266C11.8588 7.45839 12.691 8.2818 13.7177 8.2818Z" fill="#2FC9EF"/>
<path id="Vector_8" d="M6.3962 18.4156C7.42283 18.4156 8.25508 17.5922 8.25508 16.5764C8.25508 15.5607 7.42283 14.7373 6.3962 14.7373C5.36957 14.7373 4.53732 15.5607 4.53732 16.5764C4.53732 17.5922 5.36957 18.4156 6.3962 18.4156Z" fill="#FFD885"/>
<path id="Vector_9" d="M18.8724 16.5767C19.8991 16.5767 20.7313 15.7533 20.7313 14.7376C20.7313 13.7218 19.8991 12.8984 18.8724 12.8984C17.8458 12.8984 17.0135 13.7218 17.0135 14.7376C17.0135 15.7533 17.8458 16.5767 18.8724 16.5767Z" fill="#FF6752"/>
<path id="Vector_10" d="M32.7266 18.8091C33.7533 18.8091 34.5855 17.9857 34.5855 16.97C34.5855 15.9543 33.7533 15.1309 32.7266 15.1309C31.7 15.1309 30.8678 15.9543 30.8678 16.97C30.8678 17.9857 31.7 18.8091 32.7266 18.8091Z" fill="#91C788"/>
<path id="Vector_11" d="M25.2358 29.577C25.2358 27.9769 23.9248 26.6797 22.3074 26.6797C21.3703 26.6797 20.536 27.1152 20 27.7929V35.244C20 35.2441 25.2358 33.2171 25.2358 29.577Z" fill="#EFEFF6"/>
<path id="Vector_12" d="M15.5762 6.44363C15.5762 5.42793 14.7439 4.60449 13.7173 4.60449V8.28277C14.7439 8.28277 15.5762 7.45934 15.5762 6.44363Z" fill="#2FC9EF"/>
<path id="Vector_13" d="M20.7312 14.7376C20.7312 13.7219 19.8989 12.8984 18.8723 12.8984V16.5767C19.8989 16.5766 20.7312 15.7533 20.7312 14.7376Z" fill="#FF6752"/>
<path id="Vector_14" d="M34.5858 16.969C34.5858 15.9533 33.7535 15.1299 32.7269 15.1299V18.8082C33.7535 18.8082 34.5858 17.9847 34.5858 16.969Z" fill="#91C788"/>
<path id="Vector_15" d="M26.7457 8.2825C26.7457 7.2668 25.9134 6.44336 24.8868 6.44336V10.1216C25.9135 10.1216 26.7457 9.2982 26.7457 8.2825Z" fill="#A3A0CA"/>
<path id="Vector_16" d="M8.25549 16.5764C8.25549 15.5607 7.42321 14.7373 6.39661 14.7373V18.4156C7.42321 18.4156 8.25549 17.5922 8.25549 16.5764Z" fill="#FFD885"/>
</g>
</svg>
