<svg width="74" height="192" viewBox="0 0 74 192" fill="none" xmlns="http://www.w3.org/2000/svg">
<g id="freepik  Character  inject 171">
<path id="Vector" d="M21.4182 135.354L43.2224 135.05C43.2224 135.05 42.1734 121.401 42.3538 120.386C42.5794 119.1 58.05 58.4473 58.05 58.4473H37.244C37.244 58.4473 20.888 114.983 20.245 120.431C19.5175 126.725 21.4182 135.354 21.4182 135.354Z" fill="#D3766A"/>
<path id="Vector_2" d="M45.2078 112.878C45.2078 112.878 21.0178 110.244 20.6286 109.951C20.2395 109.658 37.2441 58.5312 37.2441 58.5312H58.0557L45.2078 112.878Z" fill="#37474F"/>
<path id="Vector_3" d="M43.7471 108.282C37.2723 107.114 30.775 106.2 24.1988 105.58C24.1198 105.58 24.0973 105.687 24.1988 105.699C30.6735 106.889 37.199 107.78 43.7471 108.423C43.7624 108.418 43.7759 108.409 43.7855 108.396C43.7951 108.384 43.8002 108.368 43.8002 108.352C43.8002 108.336 43.7951 108.321 43.7855 108.308C43.7759 108.295 43.7624 108.286 43.7471 108.282Z" fill="#3A5036"/>
<path id="Vector_4" d="M37.915 58.458V58.5313L47.3282 103.826L57.9314 58.96C57.9765 58.7569 58.0047 58.6047 58.016 58.5313V58.458H37.915Z" fill="#3A5036"/>
<path id="Vector_5" d="M8.18669 191.038C9.38237 191.404 43.3577 190.547 44.6324 189.69C44.9821 189.464 45.1964 179.718 45.1964 174.112C45.2371 173.284 45.042 172.461 44.6336 171.739C44.2253 171.017 43.6205 170.426 42.8896 170.034C38.8909 168.207 29.4495 167.671 25.2985 170.356C24.2438 171.044 23.1891 174.93 23.1891 174.93L23.3921 178.912C23.3921 178.912 10.5329 185.059 9.23572 186.142C7.93852 187.225 6.99101 190.671 8.18669 191.038Z" fill="#C7C7C7"/>
<path id="Vector_6" d="M8.0853 191.083C9.28662 191.456 43.4537 190.593 44.7453 189.735C45.3375 189.341 45.4616 182.065 45.4221 174.395L23.1949 174.891L23.3979 178.895C23.3979 178.895 10.4654 185.099 9.15691 186.165C7.84843 187.231 6.87834 190.717 8.0853 191.083Z" fill="#91C788"/>
<path id="Vector_7" d="M8.53639 189.724C14.261 189.436 37.3737 188.827 43.0532 188.979C43.0983 188.979 43.104 189.013 43.0532 189.019C37.4132 189.425 14.2892 189.848 8.54201 189.814C8.41793 189.797 8.41795 189.724 8.53639 189.724Z" fill="#3A5036"/>
<path id="Vector_8" d="M22.5462 177.643C24.8022 177.164 27.5546 177.44 29.3142 179.002C29.3819 179.064 29.3142 179.16 29.2183 179.138C27.0548 178.5 24.8295 178.096 22.5801 177.931C22.5452 177.929 22.512 177.916 22.4864 177.892C22.4608 177.868 22.4445 177.836 22.4405 177.801C22.4364 177.767 22.4448 177.732 22.4642 177.703C22.4836 177.674 22.5127 177.653 22.5462 177.643Z" fill="#3A5036"/>
<path id="Vector_9" d="M20.9445 178.664C23.2005 178.19 25.9528 178.467 27.7125 180.029C27.7802 180.085 27.7125 180.181 27.6166 180.164C25.4466 179.521 23.2133 179.114 20.9558 178.952C20.9222 178.946 20.8914 178.93 20.8687 178.904C20.8461 178.879 20.833 178.846 20.8317 178.812C20.8303 178.778 20.8409 178.745 20.8614 178.718C20.882 178.691 20.9114 178.672 20.9445 178.664Z" fill="#3A5036"/>
<path id="Vector_10" d="M19.3427 179.684C21.5987 179.211 24.351 179.487 26.1107 181.049C26.1784 181.106 26.1107 181.202 26.0148 181.185C23.8448 180.541 21.6115 180.135 19.354 179.972C19.3204 179.967 19.2896 179.95 19.2669 179.925C19.2443 179.899 19.2312 179.867 19.2298 179.833C19.2285 179.799 19.2391 179.766 19.2596 179.738C19.2802 179.711 19.3096 179.692 19.3427 179.684Z" fill="#3A5036"/>
<path id="Vector_11" d="M17.7409 180.7C19.9969 180.226 22.7492 180.503 24.5089 182.065C24.5766 182.121 24.5089 182.223 24.413 182.2C22.243 181.557 20.0097 181.15 17.7522 180.988C17.7186 180.983 17.6878 180.966 17.6651 180.94C17.6425 180.915 17.6294 180.883 17.628 180.849C17.6267 180.815 17.6372 180.781 17.6578 180.754C17.6784 180.727 17.7078 180.708 17.7409 180.7Z" fill="#3A5036"/>
<path id="Vector_12" d="M19.3426 175.72C20.967 176.921 23.0594 177.373 24.9375 178.016C25.1293 178.083 25.2816 177.897 25.2816 177.728C25.3211 177.728 25.3493 177.688 25.3323 177.643C24.6 175.664 23.3588 173.914 21.734 172.567C20.7696 171.8 19.1058 171.293 18.2541 172.539C17.4025 173.786 18.3951 175.021 19.3426 175.72ZM18.7279 173.932C18.2654 171.473 20.9557 172.703 21.6381 173.295C22.0761 173.688 22.4869 174.11 22.8677 174.558C23.6685 175.472 24.3284 176.487 25.0334 177.474C24.131 177.102 23.2061 176.809 22.2867 176.47C21.1926 176.058 18.9761 175.28 18.7279 173.932Z" fill="#3A5036"/>
<path id="Vector_13" d="M32.7714 174.022C32.2074 172.628 30.459 172.781 29.3592 173.333C27.4917 174.316 25.916 175.773 24.7908 177.558C24.7626 177.597 24.7908 177.631 24.8247 177.648C24.8121 177.69 24.8097 177.735 24.8178 177.778C24.8259 177.821 24.8442 177.862 24.8713 177.897C24.8983 177.932 24.9333 177.96 24.9733 177.978C25.0132 177.997 25.057 178.005 25.101 178.003C27.075 177.761 29.2069 177.75 31.0456 176.909C32.1172 176.419 33.2959 175.336 32.7714 174.022ZM28.0169 177.028C27.0468 177.169 26.0824 177.265 25.118 177.439C26.0147 176.622 26.8663 175.747 27.8421 175.031C28.308 174.674 28.7959 174.346 29.3028 174.05C30.0981 173.615 32.9801 172.961 32.0213 175.279C31.4968 176.554 29.1675 176.858 28.0169 177.028Z" fill="#3A5036"/>
<path id="Vector_14" opacity="0.1" d="M29.585 190.761C37.2554 190.485 44.17 190.113 44.734 189.735C45.298 189.357 45.4334 182.786 45.4164 175.562L29.585 190.761Z" fill="black"/>
<path id="Vector_15" d="M34.9324 139.735L30.334 140.03L32.2149 169.275L36.8133 168.98L34.9324 139.735Z" fill="#DBDBDB"/>
<path id="Vector_16" d="M28.9306 146.099C28.688 146.274 30.3067 149.003 30.9271 149.252C31.5475 149.5 34.4014 149.601 35.5181 149.094C36.0482 148.851 37.2101 145.975 37.1706 145.76C37.1311 145.546 31.0399 144.553 28.9306 146.099Z" fill="#C7C7C7"/>
<path id="Vector_17" d="M38.6935 169.369C38.936 169.189 37.2778 166.481 36.6574 166.244C36.037 166.008 33.1775 165.946 32.0665 166.47C31.5363 166.718 30.4421 169.612 30.4647 169.82C30.4873 170.029 36.5954 170.943 38.6935 169.369Z" fill="#C7C7C7"/>
<path id="Vector_18" d="M19.6247 131C18.4121 130.746 20.5327 141.231 21.9878 142.889C23.6798 144.824 28.4344 146.561 33.2678 146.505C37.4414 146.448 41.6658 144 43.2394 142.557C44.8129 141.113 44.9314 129.054 44.3674 129.303C42.0211 130.385 34.8865 134.192 19.6247 131Z" fill="#A6A6A6"/>
<path id="Vector_19" d="M36.1611 191.415C37.3624 191.793 72.3812 191.038 73.6558 190.18C74.1521 189.864 72.3191 156.679 72.3191 156.679L50.4077 157.102L51.4681 179.306C51.4681 179.306 38.5468 185.454 37.244 186.537C35.9412 187.62 34.988 191.071 36.1611 191.415Z" fill="#D3766A"/>
<path id="Vector_20" d="M36.1612 191.415C37.3568 191.788 72.3813 191.032 73.6616 190.18C73.9266 190.005 73.498 179.921 73.0524 170.863L51.0959 171.523L51.4681 179.306C51.4681 179.306 38.5413 185.448 37.2441 186.542C35.9469 187.637 34.988 191.066 36.1612 191.415Z" fill="#EBEBEB"/>
<path id="Vector_21" d="M36.1161 191.444C37.3174 191.811 72.3982 191.066 73.6729 190.203C74.2651 189.808 73.4473 182.307 73.3796 174.614L51.1523 175.178L51.3723 179.183C51.3723 179.183 38.4623 185.387 37.1595 186.515C35.8567 187.643 34.8922 191.077 36.1161 191.444Z" fill="#91C788"/>
<path id="Vector_22" d="M36.5502 190.062C42.2691 189.758 65.3819 189.064 71.0613 189.194C71.1065 189.194 71.1065 189.228 71.0613 189.233C65.4213 189.656 42.2973 190.164 36.5502 190.158C36.4317 190.158 36.4261 190.068 36.5502 190.062Z" fill="#3A5036"/>
<path id="Vector_23" d="M50.5094 177.947C52.7654 177.462 55.5177 177.733 57.2774 179.284C57.3451 179.346 57.2774 179.442 57.1815 179.419C55.008 178.788 52.7731 178.39 50.515 178.235C50.4816 178.229 50.4513 178.211 50.4292 178.186C50.4071 178.16 50.3947 178.127 50.3941 178.093C50.3934 178.059 50.4045 178.026 50.4256 177.999C50.4466 177.973 50.4762 177.954 50.5094 177.947Z" fill="#3A5036"/>
<path id="Vector_24" d="M48.9131 179.007C51.1691 178.517 53.9214 178.787 55.6811 180.338C55.7544 180.4 55.6811 180.496 55.5908 180.479C53.4174 179.846 51.1825 179.447 48.9243 179.289C48.8869 179.291 48.8505 179.277 48.823 179.252C48.7955 179.227 48.7792 179.191 48.7777 179.154C48.7762 179.117 48.7896 179.08 48.815 179.053C48.8404 179.025 48.8757 179.009 48.9131 179.007Z" fill="#3A5036"/>
<path id="Vector_25" d="M47.3171 180.006C49.5731 179.521 52.3198 179.786 54.0851 181.342C54.1528 181.399 54.0851 181.495 53.9949 181.478C51.8214 180.845 49.5866 180.446 47.3284 180.288C47.291 180.289 47.2545 180.276 47.227 180.25C47.1995 180.225 47.1832 180.19 47.1818 180.152C47.1803 180.115 47.1937 180.078 47.2191 180.051C47.2445 180.023 47.2797 180.007 47.3171 180.006Z" fill="#3A5036"/>
<path id="Vector_26" d="M45.7039 181.032C47.9599 180.547 50.7122 180.812 52.4719 182.369C52.5396 182.425 52.4719 182.527 52.376 182.504C50.2026 181.871 47.9678 181.472 45.7095 181.314C45.6721 181.315 45.636 181.301 45.609 181.275C45.582 181.249 45.5664 181.213 45.5657 181.176C45.565 181.138 45.5791 181.102 45.605 181.075C45.6309 181.048 45.6665 181.033 45.7039 181.032Z" fill="#3A5036"/>
<path id="Vector_27" d="M47.3002 176.041C48.9301 177.231 51.0226 177.677 52.9007 178.297C52.9436 178.308 52.9886 178.309 53.0318 178.299C53.075 178.289 53.1151 178.268 53.1488 178.24C53.1826 178.211 53.2089 178.174 53.2256 178.133C53.2423 178.092 53.2488 178.048 53.2447 178.004C53.254 178.004 53.2631 178.001 53.2712 177.997C53.2794 177.992 53.2862 177.986 53.2913 177.978C53.2963 177.97 53.2993 177.961 53.3 177.952C53.3008 177.943 53.2992 177.933 53.2955 177.925C52.5575 175.943 51.3083 174.192 49.6746 172.849C48.7158 172.087 47.0464 171.585 46.2004 172.849C45.3544 174.112 46.3527 175.342 47.3002 176.041ZM46.6742 174.242C46.206 171.783 48.8963 173.001 49.5844 173.593C50.0254 173.983 50.4382 174.403 50.8195 174.851C51.6261 175.765 52.2859 176.774 52.9966 177.761C52.0942 177.389 51.1636 177.101 50.2443 176.769C49.1557 176.368 46.9336 175.624 46.6742 174.242Z" fill="#3A5036"/>
<path id="Vector_28" d="M60.7233 174.287C60.1593 172.9 58.4053 173.058 57.3055 173.616C55.4403 174.613 53.8706 176.084 52.754 177.88C52.7258 177.919 52.754 177.953 52.7878 177.97C52.7763 178.013 52.775 178.057 52.7839 178.101C52.7928 178.144 52.8118 178.184 52.8392 178.219C52.8666 178.254 52.9018 178.281 52.9418 178.3C52.9819 178.318 53.0257 178.327 53.0698 178.326C55.0382 178.077 57.1757 178.055 59.0087 177.198C60.0803 176.69 61.276 175.624 60.7233 174.287ZM55.9744 177.316C55.01 177.457 54.0455 177.558 53.0811 177.739C53.9455 176.887 54.8529 176.079 55.7996 175.319C56.2626 174.959 56.7487 174.629 57.2547 174.332C58.0443 173.892 60.9263 173.233 59.9788 175.551C59.4543 176.825 57.125 177.141 55.9744 177.316Z" fill="#3A5036"/>
<path id="Vector_29" d="M37.915 58.4527C37.915 58.4527 38.5185 68.4017 40.8986 76.2582C41.0904 76.9068 41.2934 77.5441 41.519 78.1588C43.6179 78.9752 45.6379 79.9814 47.5538 81.165C47.5538 81.165 49.054 119.224 49.0258 121.587C48.93 130.43 51.186 173.475 51.186 173.475L73.182 173.266C73.182 173.266 70.926 124.565 70.8921 121.327C70.8921 116.122 66.2842 58.4414 66.2842 58.4414L37.915 58.4527Z" fill="#D3766A"/>
<path id="Vector_30" d="M37.915 58.4522C37.915 58.4522 38.5185 68.4012 40.8986 76.2577C41.0904 76.9063 41.2934 77.5493 41.5134 78.1584C43.615 78.9726 45.637 79.9789 47.5538 81.1645C47.5538 81.1645 47.5538 110.239 47.6666 113.64C47.6666 113.64 70.3845 113.031 72.1442 112.512C71.4787 103.837 70.1025 91.3729 68.6249 78.5588C68.6249 78.5588 70.7398 66.8389 66.273 58.4297L37.915 58.4522Z" fill="#37474F"/>
<path id="Vector_31" d="M50.6841 82.5072C49.7253 81.8417 48.6988 81.2833 47.6836 80.7137C46.6684 80.1441 45.5968 79.5857 44.5196 79.0668C42.3968 78.1286 40.2129 77.3353 37.9828 76.6924C37.9264 76.6924 37.8926 76.7657 37.9433 76.7939C40.0753 77.7076 42.1451 78.7566 44.2658 79.6985C45.3317 80.1723 46.409 80.6235 47.475 81.0972C48.5409 81.571 49.5843 82.0955 50.6615 82.5467L50.6841 82.5072Z" fill="#3A5036"/>
<path id="Vector_32" d="M45.0047 71.7176C44.9765 70.6742 44.9032 69.6308 44.8524 68.5874C44.7284 66.1227 44.6325 63.6411 44.4013 61.1821C44.3967 61.1654 44.3867 61.1507 44.373 61.1402C44.3592 61.1297 44.3424 61.124 44.3251 61.124C44.3078 61.124 44.291 61.1297 44.2772 61.1402C44.2635 61.1507 44.2536 61.1654 44.249 61.1821C44.2208 63.0884 44.2941 65.0004 44.3336 66.9067C44.3336 67.8598 44.3787 68.8186 44.4069 69.7718C44.4351 70.725 44.4915 71.5991 44.4069 72.5072C44.3561 73.1953 44.2039 74.5319 43.2789 74.6109C42.3539 74.6899 41.7899 73.9172 41.5869 73.2517C41.1059 71.5199 40.8035 69.7434 40.6845 67.9501C40.583 66.9067 40.4363 62.5075 40.4927 61.4528C40.4927 61.3851 40.3912 61.3851 40.3856 61.4528C40.3292 62.53 40.1825 63.6016 40.143 64.6845C40.1036 65.7674 40.1036 66.839 40.1769 67.9106C40.2502 68.9822 40.3292 69.9748 40.4814 70.9957C40.5861 71.9302 40.8097 72.8476 41.147 73.7254C41.2753 74.0993 41.4937 74.4359 41.7829 74.7054C42.072 74.9749 42.4231 75.1691 42.8051 75.2708C42.9037 75.2901 43.0037 75.3014 43.1041 75.3046C43.1041 75.5246 43.1435 75.7446 43.1604 75.9645C43.1604 76.3086 43.2281 76.6526 43.2732 76.9966C43.3219 77.3339 43.3935 77.6674 43.4876 77.9949C43.5583 78.3294 43.676 78.6522 43.8372 78.9537C43.8654 78.9988 43.9275 78.9537 43.9331 78.9199C43.9417 78.5906 43.9133 78.2614 43.8485 77.9385C43.8034 77.6001 43.7583 77.2617 43.6906 76.9289C43.6229 76.5962 43.5609 76.2747 43.4932 75.9476C43.4481 75.7333 43.4199 75.5077 43.3748 75.2821C43.6376 75.2374 43.8851 75.1279 44.0948 74.9634C44.3046 74.799 44.47 74.5847 44.5761 74.3402C44.9179 73.5103 45.0646 72.6131 45.0047 71.7176Z" fill="#3A5036"/>
<path id="Vector_33" d="M69.5047 107.667C62.9209 107.701 56.3409 108.006 49.7647 108.581C49.7482 108.581 49.7324 108.587 49.7208 108.599C49.7092 108.611 49.7026 108.626 49.7026 108.643C49.7026 108.659 49.7092 108.675 49.7208 108.687C49.7324 108.698 49.7482 108.705 49.7647 108.705C56.3409 108.705 62.9228 108.372 69.4765 107.808C69.5949 107.797 69.5949 107.662 69.5047 107.667Z" fill="#3A5036"/>
<path id="Vector_34" d="M66.9781 71.2158C65.4946 71.3989 63.9968 71.4386 62.5056 71.3342C61.092 71.1913 59.7444 70.6647 58.6083 69.8114C56.1437 67.8938 55.0608 64.7636 54.3952 61.8308C54.3915 61.8195 54.3844 61.8097 54.3747 61.8027C54.3651 61.7957 54.3535 61.792 54.3417 61.792C54.3298 61.792 54.3182 61.7957 54.3086 61.8027C54.299 61.8097 54.2918 61.8195 54.2881 61.8308C54.5701 64.3801 55.1172 67.0139 56.764 69.0613C57.4696 69.966 58.3648 70.7053 59.3867 71.227C60.4722 71.7294 61.6596 71.9727 62.8553 71.9377C64.2572 71.9252 65.6519 71.7357 67.0063 71.3737C67.0195 71.3636 67.0296 71.3501 67.0356 71.3347C67.0416 71.3192 67.0433 71.3024 67.0403 71.2861C67.0374 71.2698 67.0301 71.2546 67.0191 71.2422C67.0081 71.2298 66.994 71.2206 66.9781 71.2158Z" fill="#3A5036"/>
<path id="Vector_35" d="M48.6651 29.7679C44.6494 40.0722 31.8184 52.091 27.4644 52.4802C22.3884 52.937 9.27537 47.1109 4.19937 40.0722C2.99805 38.3802 13.7479 30.4334 15.564 31.6799C19.2976 34.2348 26.3251 37.7034 26.9286 37.7542C28.1299 37.8444 36.1048 31.5953 42.4724 27.134C50.3966 21.5673 50.2669 25.662 48.6651 29.7679Z" fill="#D3766A"/>
<path id="Vector_36" d="M5.75025 41.922C5.75025 41.922 1.09725 37.1224 0.60657 32.5991C0.262529 29.4689 0.606568 21.1725 8.11341 15.555C9.89565 14.2184 13.3868 13.5867 11.2605 16.824C9.74901 19.1195 8.0965 20.1234 7.46482 21.618C7.46482 21.618 11.9768 21.3417 13.2627 23.1803C14.3702 24.7904 15.3615 26.4773 16.2294 28.2281C15.9438 28.4588 15.6443 28.6716 15.3326 28.8654C15.3326 28.8654 16.3535 30.6984 15.6484 33.8004L5.75025 41.922Z" fill="#D3766A"/>
<path id="Vector_37" d="M16.8554 12.3345L22.0159 28.7187C22.219 29.1981 22.0159 29.6098 21.5196 29.638L12.9355 30.1118C12.6731 30.1076 12.4172 30.0291 12.1975 29.8854C11.9779 29.7416 11.8036 29.5385 11.6948 29.2996L6.53415 12.9098C6.4783 12.8201 6.44724 12.7172 6.44411 12.6115C6.44098 12.5059 6.46591 12.4013 6.51635 12.3085C6.56679 12.2156 6.64094 12.1378 6.73126 12.0829C6.82157 12.028 6.92481 11.9981 7.03047 11.9961L15.6145 11.4941C15.8799 11.5014 16.1377 11.5844 16.3576 11.7333C16.5774 11.8821 16.7501 12.0908 16.8554 12.3345Z" fill="#455A64"/>
<path id="Vector_38" d="M15.8121 12.3852L20.9727 28.7694C21.1757 29.2488 20.9727 29.6605 20.4764 29.6887L11.8979 30.185C11.6346 30.1813 11.3778 30.103 11.1572 29.9593C10.9366 29.8155 10.7613 29.6122 10.6515 29.3729L5.49653 12.983C5.28785 12.5093 5.49652 12.0975 5.9872 12.0693L14.5713 11.5674C14.8344 11.572 15.0907 11.6514 15.3104 11.7962C15.5301 11.941 15.7041 12.1452 15.8121 12.3852Z" fill="#37474F"/>
<path id="Vector_39" d="M13.5561 13.2818C13.5687 13.4247 13.6233 13.5607 13.713 13.6726C13.8026 13.7846 13.9234 13.8676 14.0601 13.9111C14.1968 13.9546 14.3433 13.9567 14.4812 13.9172C14.6191 13.8777 14.7423 13.7983 14.8352 13.689C14.9281 13.5797 14.9866 13.4454 15.0034 13.3029C15.0201 13.1604 14.9944 13.0162 14.9295 12.8883C14.8645 12.7604 14.7632 12.6546 14.6382 12.5841C14.5133 12.5136 14.3703 12.4816 14.2272 12.4922C14.0336 12.508 13.8541 12.6001 13.7283 12.7481C13.6024 12.8962 13.5405 13.0881 13.5561 13.2818Z" fill="#3A5036"/>
<path id="Vector_40" d="M1.05762 28.1549C2.00514 26.8013 4.05245 23.9644 6.53405 22.2329C9.292 20.304 15.1181 17.3374 16.5225 19.3847C17.549 20.8906 15.4227 22.2047 15.4227 22.2047C15.4227 22.2047 18.0904 21.4884 18.7221 23.0507C19.2861 24.472 17.5941 25.4026 17.5941 25.4026C17.5941 25.4026 19.2861 25.2447 19.5794 26.7167C19.929 28.4933 16.3251 28.5328 15.1238 30.6365C14.8474 31.1215 1.05762 28.1549 1.05762 28.1549Z" fill="#D3766A"/>
<path id="Vector_41" d="M8.08521 25.487C10.1205 23.6809 12.659 22.5396 15.3608 22.2158C15.4285 22.2158 15.468 22.2609 15.4059 22.2779C12.8486 23.0655 10.3961 24.1601 8.10212 25.5378L8.08521 25.487Z" fill="#3A5036"/>
<path id="Vector_42" d="M10.11 28.211C12.2944 26.6036 14.8724 25.6156 17.5717 25.3516C17.6394 25.3516 17.6732 25.4023 17.6112 25.4192C15.017 26.0708 12.5059 27.0169 10.1269 28.2392C10.1269 28.2392 10.093 28.2223 10.11 28.211Z" fill="#3A5036"/>
<path id="Vector_43" d="M15.6991 29.9199C15.6991 30.9182 15.6992 31.8883 15.5864 32.8471C15.5412 33.3321 15.4679 33.8059 15.3777 34.2796C15.2762 34.7588 15.1462 35.2316 14.9885 35.6953C15.5957 34.8741 15.9522 33.8947 16.015 32.8753C16.0601 32.3743 16.0601 31.8703 16.015 31.3694C15.9678 30.8754 15.8618 30.3888 15.6991 29.9199Z" fill="#3A5036"/>
<path id="Vector_44" d="M43.2168 40.4327L35.3208 31.5779C35.3208 31.5779 41.6207 26.1804 46.1891 24.1331C50.7575 22.0857 51.3948 25.0411 49.387 29.4798C47.3791 33.9185 43.2168 40.4327 43.2168 40.4327Z" fill="#91C788"/>
<path id="Vector_45" opacity="0.1" d="M44.4801 25.3968C44.6028 25.3536 44.7366 25.3542 44.8589 25.3984C44.9813 25.4426 45.0845 25.5277 45.1513 25.6393C45.3374 25.9551 45.3825 26.5135 45.6025 26.5022C45.9635 26.5022 45.9014 25.8141 46.1665 25.4024C46.2313 25.2869 46.3296 25.1939 46.4484 25.1354C46.5673 25.077 46.701 25.0561 46.832 25.0753C46.9244 25.0915 47.0118 25.1283 47.0879 25.1832C47.1639 25.238 47.2265 25.3093 47.271 25.3918C47.3155 25.4743 47.3408 25.5659 47.3448 25.6595C47.3489 25.7532 47.3317 25.8465 47.2945 25.9326C47.1197 26.4402 46.3075 26.6432 46.4541 26.9421C46.6008 27.2411 47.1084 26.7165 47.5821 26.6771C47.7598 26.6509 47.9407 26.6952 48.0861 26.8006C48.2315 26.906 48.33 27.0641 48.3604 27.2411C48.3882 27.3407 48.3919 27.4454 48.3713 27.5467C48.3508 27.6481 48.3065 27.7431 48.2421 27.824C48.1777 27.9049 48.0951 27.9694 48.0009 28.0122C47.9068 28.0549 47.8039 28.0748 47.7006 28.0701C47.2268 28.0983 46.6459 27.743 46.5049 27.8558C46.3639 27.9686 46.8546 28.4198 46.9899 28.8259C47.024 28.909 47.0408 28.9981 47.0392 29.0879C47.0377 29.1777 47.0178 29.2662 46.9809 29.348C46.9439 29.4299 46.8906 29.5033 46.8243 29.5638C46.758 29.6244 46.68 29.6707 46.5951 29.7001C46.502 29.7341 46.4029 29.7486 46.3039 29.7427C46.2049 29.7367 46.1082 29.7104 46.0198 29.6654C45.9315 29.6204 45.8533 29.5577 45.7902 29.4812C45.7272 29.4047 45.6805 29.316 45.6533 29.2207C45.5123 28.8315 45.8507 27.9009 45.6533 27.7374C45.4559 27.5738 45.0272 28.369 44.5253 28.5608C44.3599 28.6295 44.1751 28.6353 44.0057 28.5771C43.8364 28.5189 43.6942 28.4008 43.6059 28.245C43.5637 28.1635 43.5396 28.0738 43.5352 27.9821C43.5308 27.8904 43.5463 27.7989 43.5805 27.7137C43.6148 27.6286 43.6671 27.5518 43.7338 27.4887C43.8004 27.4257 43.88 27.3777 43.9669 27.3482C44.3504 27.1847 45.0949 27.3482 45.0949 27.1113C45.0949 26.8744 44.4012 26.6827 44.2094 26.3781C44.1504 26.2995 44.1101 26.2084 44.0918 26.1118C44.0734 26.0152 44.0775 25.9157 44.1036 25.8209C44.1298 25.7261 44.1773 25.6386 44.2426 25.5651C44.3079 25.4916 44.3891 25.434 44.4801 25.3968ZM43.2168 40.433L43.4537 40.0495C42.9968 39.6152 42.2467 39.305 41.9421 39.0061L43.2168 40.433ZM44.9934 36.3102C44.9135 36.1675 44.8051 36.043 44.6748 35.9443C44.5445 35.8457 44.3952 35.775 44.2362 35.7369C44.0773 35.6987 43.9122 35.6939 43.7513 35.7227C43.5904 35.7515 43.4372 35.8132 43.3014 35.9041C42.6302 36.2932 42.0549 37.3648 41.7504 37.111C41.4458 36.8572 41.9309 35.7462 41.7109 34.9171C41.6826 34.7333 41.6116 34.5588 41.5036 34.4074C41.3957 34.2561 41.2538 34.1321 41.0893 34.0455C40.9248 33.9588 40.7423 33.9119 40.5564 33.9085C40.3705 33.9052 40.1864 33.9454 40.0189 34.026C39.7133 34.1415 39.465 34.372 39.327 34.668C39.1889 34.9641 39.1721 35.3025 39.28 35.6108C39.4993 36.0988 39.7818 36.5558 40.1204 36.97L41.8632 38.9158C41.8314 38.8778 41.8118 38.8312 41.8068 38.782C41.8018 38.7327 41.8116 38.6831 41.835 38.6395C42.0606 38.2503 43.8259 38.521 44.4632 38.1375C44.5626 38.0777 44.6569 38.0098 44.7452 37.9345C44.9558 37.7522 45.1021 37.507 45.1626 37.2351C45.2157 36.9183 45.1558 36.5929 44.9934 36.3158V36.3102Z" fill="black"/>
<path id="Vector_46" opacity="0.1" d="M37.3962 33.924L43.2167 40.4326C43.2167 40.4326 47.3565 33.924 49.3643 29.4797C50.8702 26.1408 50.8815 23.6423 48.8511 23.4844L37.3962 33.924Z" fill="black"/>
<path id="Vector_47" d="M37.5598 30.2354C40.0081 32.5485 42.2993 35.0225 44.418 37.6408C44.418 37.6408 44.3729 37.7084 44.356 37.6972C42.3707 35.7908 38.716 31.6962 37.4752 30.32C37.4526 30.2918 37.5316 30.2129 37.5598 30.2354Z" fill="#3A5036"/>
<path id="Vector_48" d="M46.426 26.9416H46.4542C46.4147 28.6336 46.426 32.4744 49.0316 32.1416C50.0744 31.9127 51.0308 31.3924 51.7896 30.6414C52.5817 29.9453 53.2947 29.1642 53.9159 28.3121C54.6152 27.3758 55.2413 26.3381 55.873 25.3567C55.9012 25.3116 55.9576 25.3567 55.935 25.3962C55.4337 26.4718 54.853 27.5087 54.1979 28.4982C53.5542 29.4549 52.7839 30.32 51.908 31.07C51.1 31.8476 50.0757 32.3627 48.9696 32.5477C48.4855 32.5894 48.0018 32.4621 47.6008 32.1876C47.1999 31.9131 46.9063 31.5083 46.77 31.0418C46.3519 29.7176 46.2344 28.3169 46.426 26.9416Z" fill="#3A5036"/>
<path id="Vector_49" d="M67.8185 66.1171C67.7283 66.2017 36.3529 62.8234 36.0596 62.4399C35.6479 61.9041 44.5986 29.9647 47.3791 24.7252C48.5692 22.4692 54.243 22.1703 56.4877 24.2796C62.1277 29.5643 66.0137 46.6479 66.8371 51.769C68.202 60.2064 68.1287 65.8069 67.8185 66.1171Z" fill="white"/>
<path id="Vector_50" d="M47.9939 23.7725L40.3009 67.8998L34.3733 64.8542C34.3733 64.8542 44.1982 32.3678 44.8411 30.1118C45.4841 27.8558 46.7982 24.6185 47.9939 23.7725Z" fill="#91C788"/>
<path id="Vector_51" d="M54.6379 22.8585C54.2487 22.7006 53.9103 40.2748 53.8652 43.1625C53.8201 46.0502 53.5381 68.926 53.5381 68.926L70.8924 66.67C70.8924 66.67 67.8186 46.3152 62.3083 33.8847C59.2006 26.8854 57.5143 24.0598 54.6379 22.8585Z" fill="#91C788"/>
<path id="Vector_52" opacity="0.1" d="M61.3098 33.9184C61.2168 33.9542 61.1173 33.9701 61.0177 33.9649C60.9182 33.9598 60.8208 33.9338 60.732 33.8886C60.6432 33.8434 60.5649 33.78 60.5021 33.7025C60.4394 33.6251 60.3937 33.5353 60.3679 33.439C60.2325 33.0498 60.5653 32.1192 60.3679 31.9557C60.1705 31.7921 59.7418 32.593 59.2399 32.7791C59.0758 32.8514 58.8905 32.8591 58.7211 32.8005C58.5516 32.7419 58.4106 32.6215 58.3262 32.4633C58.2839 32.3821 58.2595 32.2928 58.2547 32.2014C58.25 32.11 58.265 32.0187 58.2987 31.9336C58.3324 31.8485 58.384 31.7717 58.4501 31.7083C58.5162 31.645 58.5951 31.5966 58.6815 31.5665C59.0651 31.4086 59.8095 31.5665 59.8095 31.3296C59.8095 31.0928 59.1102 30.901 58.9184 30.5964C58.8573 30.5199 58.8144 30.4305 58.7931 30.3349C58.7718 30.2394 58.7726 30.1402 58.7955 30.045C58.8183 29.9498 58.8626 29.8611 58.925 29.7856C58.9873 29.7101 59.0661 29.6499 59.1553 29.6094C59.2787 29.5648 59.4138 29.5646 59.5373 29.6089C59.6609 29.6531 59.7651 29.7391 59.8321 29.852C60.0126 30.1678 60.0577 30.7262 60.2833 30.7205C60.5089 30.7149 60.5371 30.54 60.6048 30.3088C60.8755 30.8728 61.1688 31.4368 61.4395 32.091C61.3098 32.0516 61.2139 32.0403 61.1688 32.091C60.9996 32.2264 61.5185 32.655 61.6595 33.0611C61.6928 33.1404 61.7103 33.2254 61.7108 33.3114C61.7113 33.3974 61.6948 33.4826 61.6623 33.5622C61.6299 33.6419 61.582 33.7143 61.5215 33.7754C61.461 33.8365 61.3891 33.8851 61.3098 33.9184ZM55.416 52.9647C54.9535 53.0042 54.4346 53.5005 54.288 53.2298C54.1413 52.959 54.9535 52.7278 55.1283 52.2202C55.1656 52.1345 55.1829 52.0415 55.1788 51.9482C55.1747 51.8548 55.1494 51.7636 55.1049 51.6815C55.0603 51.5994 54.9976 51.5286 54.9215 51.4744C54.8454 51.4201 54.758 51.3839 54.6659 51.3686C54.5361 51.3476 54.4031 51.3672 54.285 51.4248C54.1668 51.4823 54.0694 51.575 54.006 51.69C53.8817 51.9369 53.7888 52.1984 53.7296 52.4684C53.7296 53.5964 53.7296 54.7244 53.6901 55.8524C53.7869 55.9401 53.9062 55.9993 54.0347 56.0232C54.1632 56.0471 54.2958 56.0348 54.4177 55.9877C54.5024 55.9589 54.5803 55.9131 54.6467 55.8532C54.7132 55.7934 54.7668 55.7206 54.8042 55.6393C54.8417 55.5581 54.8622 55.4701 54.8646 55.3807C54.867 55.2913 54.8512 55.2023 54.8181 55.1192C54.6771 54.7131 54.1583 54.2844 54.3275 54.1491C54.4967 54.0137 55.0494 54.3916 55.5231 54.3578C55.6269 54.3634 55.7305 54.3442 55.8254 54.3018C55.9202 54.2594 56.0036 54.1951 56.0687 54.114C56.1337 54.033 56.1785 53.9376 56.1994 53.8358C56.2203 53.7341 56.2166 53.6288 56.1886 53.5287C56.1569 53.3535 56.0589 53.1972 55.9151 53.0922C55.7712 52.9872 55.5925 52.9415 55.416 52.9647ZM47.2549 28.0189L47.4861 26.6879C47.0462 26.7725 46.5837 27.1955 46.454 26.9417C46.3243 26.6879 47.1195 26.4398 47.2944 25.9322C47.3282 25.8518 47.3449 25.7653 47.3434 25.6781C47.3419 25.591 47.3222 25.5051 47.2856 25.4259C47.2489 25.3468 47.1962 25.2763 47.1307 25.2187C47.0652 25.1612 46.9884 25.1179 46.9052 25.0918C46.4129 25.9388 45.9921 26.8255 45.6475 27.7426C45.8392 27.9062 45.5008 28.8367 45.6475 29.2259C45.6748 29.3212 45.7214 29.4099 45.7845 29.4864C45.8475 29.563 45.9257 29.6257 46.0141 29.6706C46.1024 29.7156 46.1991 29.7419 46.2981 29.7479C46.3971 29.7538 46.4962 29.7394 46.5894 29.7053C46.6742 29.676 46.7522 29.6296 46.8185 29.5691C46.8849 29.5085 46.9381 29.4351 46.9751 29.3533C47.0121 29.2714 47.0319 29.1829 47.0335 29.0931C47.035 29.0033 47.0183 28.9142 46.9842 28.8311C46.8488 28.425 46.3299 28.002 46.4991 27.861C46.6683 27.72 46.9108 27.9344 47.2549 28.0189ZM69.7641 66.0213C69.8939 65.9198 70.3789 66.2018 70.8188 66.23C70.7737 65.9254 70.7004 65.4742 70.5989 64.8933C70.2097 65.023 69.8375 65.3219 69.7303 65.102C69.6231 64.882 70.2266 64.6451 70.4917 64.2447C70.4409 63.957 70.3845 63.6468 70.3281 63.3141C70.2594 63.2729 70.1823 63.2478 70.1025 63.2408C69.9729 63.2206 69.8402 63.2406 69.7222 63.2981C69.6043 63.3555 69.5067 63.4477 69.4427 63.5622C69.1719 63.9796 69.234 64.6564 68.8787 64.6902C68.6531 64.6902 68.6079 64.1262 68.4275 63.8273C68.3605 63.7145 68.2562 63.6285 68.1327 63.5842C68.0092 63.54 67.8741 63.5402 67.7507 63.5848C67.6621 63.6251 67.5839 63.6852 67.5221 63.7604C67.4603 63.8356 67.4166 63.924 67.3942 64.0187C67.3719 64.1135 67.3716 64.2121 67.3933 64.307C67.415 64.4019 67.4581 64.4905 67.5194 64.5662C67.7112 64.8707 68.4049 65.1302 68.4049 65.305C68.4049 65.4798 67.6435 65.3783 67.2769 65.5362C67.1903 65.567 67.1113 65.616 67.0452 65.6799C66.9791 65.7437 66.9275 65.821 66.8938 65.9066C66.8602 65.9921 66.8452 66.0838 66.85 66.1756C66.8548 66.2674 66.8792 66.3571 66.9216 66.4386C67.0079 66.595 67.149 66.7137 67.3177 66.7721C67.4865 66.8304 67.6709 66.8241 67.8353 66.7545C68.3147 66.5627 68.7095 65.728 68.9633 65.931C69.0986 66.0495 68.9633 66.5571 68.9351 66.9744L70.1928 66.8109C69.9559 66.4443 69.6231 66.1397 69.7641 66.0213ZM40.7463 65.3388L40.9776 64.036C40.5602 64.1488 40.1372 64.5154 40.0188 64.2785C39.9003 64.0416 40.6843 63.7766 40.8591 63.2633C40.8953 63.1776 40.9116 63.0848 40.9071 62.9918C40.9025 62.8988 40.877 62.8081 40.8326 62.7263C40.7882 62.6445 40.7259 62.5738 40.6505 62.5193C40.575 62.4648 40.4883 62.4281 40.3966 62.4117C40.2661 62.3903 40.1322 62.4097 40.0131 62.4672C39.894 62.5248 39.7955 62.6176 39.7311 62.7332C39.4604 63.1505 39.5224 63.8273 39.1671 63.8612C38.9415 63.8612 38.8964 63.2972 38.7159 62.9982C38.6498 62.8844 38.5459 62.7972 38.4223 62.7519C38.2987 62.7066 38.1632 62.7059 38.0391 62.7501C37.9504 62.791 37.8722 62.8517 37.8104 62.9274C37.7486 63.0032 37.7049 63.092 37.6826 63.1871C37.6603 63.2823 37.66 63.3813 37.6817 63.4766C37.7034 63.5719 37.7466 63.661 37.8079 63.7371C37.9996 64.0416 38.6934 64.2672 38.6934 64.4759C38.6934 64.6846 37.932 64.5492 37.5654 64.7072C37.4789 64.7373 37.4 64.7856 37.3339 64.849C37.2679 64.9123 37.2162 64.9891 37.1825 65.0742C37.1488 65.1593 37.1338 65.2507 37.1386 65.3421C37.1433 65.4335 37.1677 65.5228 37.21 65.6039C37.2954 65.7612 37.4361 65.8812 37.605 65.9406C37.7738 66 37.9587 65.9946 38.1237 65.9254C38.6031 65.7336 38.9979 64.8933 39.2517 65.0963C39.5055 65.2994 39.1051 66.1905 39.2517 66.5796C39.2776 66.6752 39.3232 66.7644 39.3855 66.8413C39.4479 66.9183 39.5256 66.9813 39.6138 67.0265C39.7019 67.0716 39.7985 67.0978 39.8974 67.1034C39.9963 67.109 40.0953 67.0939 40.188 67.059C40.2637 67.0381 40.3346 67.0024 40.3965 66.954C40.4585 66.9056 40.5102 66.8455 40.5489 66.777C40.6211 66.6425 40.6469 66.4878 40.6222 66.3371C40.6163 66.2945 40.6049 66.2528 40.5884 66.213C40.4474 65.807 39.9285 65.3783 40.0977 65.243C40.2669 65.1076 40.4305 65.2486 40.7463 65.3388ZM58.4446 40.5228C58.2247 40.9628 58.4446 41.9498 58.2134 42.0851C57.9822 42.2205 57.5817 41.2448 57.1192 40.9064C57.0228 40.8254 56.9101 40.7662 56.7887 40.7329C56.6672 40.6995 56.5401 40.6928 56.4158 40.7132C56.2916 40.7335 56.1732 40.7805 56.0687 40.8508C55.9643 40.9211 55.8763 41.0132 55.8108 41.1207C55.6884 41.3338 55.6489 41.5845 55.6999 41.8249C55.7509 42.0653 55.8888 42.2784 56.0871 42.4235C56.6511 42.8522 57.9201 42.7224 57.8468 43.1398C57.7735 43.5572 56.4594 43.7489 56.104 44.1888C56.0087 44.2868 55.9352 44.4037 55.8882 44.532C55.8413 44.6604 55.8219 44.7972 55.8315 44.9335C55.8411 45.0698 55.8794 45.2026 55.9438 45.323C56.0083 45.4435 56.0975 45.5491 56.2056 45.6327C56.2998 45.7124 56.4095 45.772 56.5277 45.8077C56.6459 45.8434 56.7702 45.8545 56.8928 45.8402C57.0155 45.8259 57.1339 45.7866 57.2407 45.7247C57.3476 45.6628 57.4406 45.5797 57.514 45.4804C57.8919 45.0292 58.0216 44.1155 58.3036 44.217C58.5856 44.3186 58.5349 45.2379 58.9071 45.7737C58.9748 45.8988 59.0712 46.006 59.1884 46.0865C59.3056 46.167 59.4403 46.2185 59.5814 46.2367C59.7224 46.2548 59.8658 46.2392 59.9996 46.1911C60.1334 46.1429 60.2538 46.0637 60.351 45.9598C60.5406 45.7998 60.6593 45.5714 60.6815 45.3243C60.7037 45.0772 60.6275 44.8313 60.4694 44.64C60.0915 44.1212 59.144 43.8674 59.3414 43.512C59.5388 43.1567 60.4074 43.935 61.1293 43.7828C61.2566 43.7642 61.3782 43.7173 61.4849 43.6454C61.5916 43.5735 61.6808 43.4785 61.7458 43.3675C61.8108 43.2564 61.85 43.1321 61.8604 43.0039C61.8709 42.8756 61.8523 42.7467 61.8061 42.6266C61.7398 42.4561 61.6223 42.3104 61.4698 42.2094C61.3173 42.1084 61.1373 42.0571 60.9545 42.0626C60.272 42.0626 59.5219 42.5927 59.2625 42.1866C59.0989 41.9272 59.7193 41.476 59.9562 41.0586C60.0422 40.9009 60.0702 40.7179 60.0352 40.5416C60.0001 40.3654 59.9043 40.207 59.7644 40.0942C59.6533 40.0204 59.5269 39.9726 59.3947 39.9545C59.2625 39.9364 59.1279 39.9484 59.001 39.9896C58.874 40.0308 58.7581 40.1002 58.6618 40.1925C58.5654 40.2849 58.4912 40.3978 58.4446 40.5228ZM55.8164 62.0112C56.104 62.4117 57.0854 62.6655 57.0967 62.9475C57.108 63.2295 56.0533 63.1167 55.54 63.3648C55.4237 63.4127 55.3191 63.4851 55.2333 63.5771C55.1475 63.6691 55.0825 63.7786 55.0429 63.898C55.0033 64.0174 54.9899 64.1439 55.0037 64.269C55.0174 64.394 55.058 64.5146 55.1227 64.6226C55.2546 64.8309 55.4589 64.9831 55.6964 65.0498C55.9338 65.1164 56.1875 65.0928 56.4086 64.9835C57.0459 64.6846 57.5366 63.5002 57.8581 63.7596C58.1796 64.0191 57.7509 65.2712 57.9765 65.7957C58.0215 65.9235 58.0926 66.0406 58.1853 66.1394C58.278 66.2383 58.3903 66.3167 58.5149 66.3698C58.6396 66.4228 58.774 66.4493 58.9095 66.4476C59.045 66.4459 59.1786 66.4159 59.3019 66.3597C59.4162 66.3139 59.5199 66.2452 59.6065 66.1576C59.693 66.0701 59.7607 65.9656 59.8051 65.8508C59.8495 65.736 59.8699 65.6133 59.8648 65.4902C59.8597 65.3672 59.8294 65.2466 59.7757 65.1358C59.5501 64.5718 58.8 64.0473 59.0199 63.8442C59.2399 63.6412 60.0351 64.115 60.6781 64.0304C60.8205 64.0289 60.9605 63.9937 61.0867 63.9278C61.2129 63.8618 61.3218 63.7669 61.4043 63.6509C61.4868 63.5348 61.5406 63.4009 61.5615 63.26C61.5823 63.1191 61.5695 62.9753 61.5241 62.8403C61.4662 62.5976 61.316 62.3871 61.1054 62.2533C60.8948 62.1196 60.6403 62.0732 60.3961 62.124C59.7644 62.2143 59.0989 62.9418 58.8902 62.5865C58.6815 62.2312 59.7588 61.842 59.9562 61.1258C59.9974 61.0052 60.0112 60.877 59.9966 60.7504C59.9821 60.6238 59.9395 60.5021 59.872 60.3941C59.8044 60.286 59.7137 60.1944 59.6063 60.1259C59.4989 60.0573 59.3776 60.0135 59.2512 59.9978C59.07 59.981 58.888 60.0201 58.7297 60.1099C58.5714 60.1996 58.4444 60.3357 58.3657 60.4997C58.0329 61.0919 58.1739 62.0169 57.6889 62.062C57.3787 62.0902 57.2715 61.3288 56.9952 60.934C56.8943 60.7846 56.7443 60.6753 56.5713 60.6248C56.3983 60.5743 56.213 60.586 56.0476 60.6576C55.9324 60.7216 55.8329 60.8106 55.7566 60.9181C55.6804 61.0257 55.6293 61.149 55.6071 61.2789C55.5849 61.4089 55.5922 61.5422 55.6284 61.6689C55.6646 61.7957 55.7289 61.9127 55.8164 62.0112ZM42.5116 55.2432L42.7993 53.5512C42.7075 53.5248 42.6128 53.5097 42.5173 53.5061C41.8348 53.5061 41.0847 54.0419 40.8253 53.6302C40.6561 53.3708 41.2765 52.9252 41.519 52.5022C41.6055 52.3436 41.6336 52.1597 41.5986 51.9825C41.5636 51.8052 41.4676 51.6459 41.3272 51.5321C41.2162 51.4561 41.0893 51.4065 40.9562 51.3872C40.823 51.3679 40.6872 51.3794 40.5592 51.4208C40.4312 51.4622 40.3144 51.5324 40.2178 51.626C40.1212 51.7196 40.0473 51.8341 40.0018 51.9608C39.7762 52.4007 40.0018 53.3877 39.765 53.523C39.5281 53.6584 39.1333 52.6827 38.6708 52.3443C38.5371 52.2476 38.3825 52.1839 38.2196 52.1582L37.6894 53.8953C38.2534 54.2844 39.4717 54.1716 39.3814 54.5777C39.2912 54.9838 37.9884 55.1868 37.633 55.6268C37.5385 55.7251 37.4657 55.8422 37.4193 55.9704C37.3728 56.0986 37.3537 56.2352 37.3633 56.3712C37.3729 56.5073 37.4108 56.6398 37.4748 56.7603C37.5387 56.8807 37.6272 56.9864 37.7346 57.0706C37.8288 57.1499 37.9382 57.2092 38.0561 57.2449C38.174 57.2805 38.2979 57.2919 38.4203 57.2782C38.5427 57.2644 38.661 57.226 38.7681 57.1651C38.8751 57.1042 38.9687 57.0221 39.043 56.924C39.4209 56.4671 39.5506 55.5534 39.8326 55.655C40.1146 55.7565 40.0639 56.6758 40.4361 57.2116C40.5048 57.3362 40.6017 57.443 40.7192 57.5232C40.8367 57.6035 40.9714 57.6551 41.1124 57.6737C41.2535 57.6924 41.3969 57.6776 41.5312 57.6307C41.6655 57.5837 41.7869 57.5058 41.8856 57.4034C42.0734 57.2407 42.1904 57.0112 42.2114 56.7636C42.2325 56.516 42.1561 56.27 41.9984 56.078C41.6205 55.5591 40.673 55.3053 40.8704 54.95C41.0678 54.5946 41.8405 55.2489 42.5116 55.2376V55.2432ZM65.8951 54.4536C66.273 54.2055 67.7224 55.2545 68.4669 55.2094C68.5485 55.204 68.6295 55.1927 68.7095 55.1756C68.5403 54.3803 68.3598 53.5682 68.1455 52.7334C67.4292 52.8857 66.6509 53.3708 66.5155 53.0549C66.3801 52.7391 67.2938 51.9269 67.4799 51.0809C67.5404 50.9042 67.5583 50.7158 67.5321 50.5309C67.5059 50.346 67.4363 50.1699 67.329 50.0171C67.2218 49.8642 67.08 49.7388 66.9151 49.6512C66.7501 49.5636 66.5668 49.5163 66.3801 49.513C66.0555 49.4744 65.7286 49.5642 65.4693 49.7634C65.2101 49.9626 65.039 50.2553 64.9927 50.579C64.8291 51.4024 65.427 52.553 64.8968 52.6488C64.3667 52.7447 64.361 51.2445 63.5658 50.6861C63.4346 50.5796 63.2812 50.504 63.1168 50.4648C62.9525 50.4255 62.7815 50.4237 62.6164 50.4595C62.4512 50.4952 62.2962 50.5676 62.1628 50.6712C62.0294 50.7749 61.921 50.9072 61.8456 51.0584C61.7452 51.2748 61.7136 51.5168 61.755 51.7517C61.7963 51.9867 61.9086 52.2033 62.0768 52.3725C62.6408 53.0493 63.8647 53.2805 63.7068 53.9066C63.6053 54.3014 62.6182 54.0983 61.9809 54.2562C61.7506 54.3138 61.5477 54.4503 61.4076 54.6419C61.2674 54.8336 61.1989 55.0683 61.2139 55.3053C61.2408 55.4797 61.3069 55.6457 61.4072 55.7909C61.5076 55.9361 61.6395 56.0567 61.7931 56.1435C61.9468 56.2304 62.1181 56.2813 62.2942 56.2924C62.4703 56.3035 62.6467 56.2745 62.81 56.2077C63.436 56.0272 64.1805 54.9274 64.5359 55.0402C64.8912 55.153 64.282 56.3994 64.361 57.1496C64.3708 57.3149 64.4159 57.4761 64.4931 57.6226C64.5703 57.7691 64.678 57.8974 64.8088 57.9988C64.9397 58.1003 65.0907 58.1726 65.2518 58.211C65.4129 58.2493 65.5803 58.2528 65.7428 58.2212C66.0574 58.1496 66.3345 57.9644 66.5208 57.701C66.7071 57.4376 66.7896 57.1147 66.7524 56.7942C66.6791 55.858 65.4439 54.7526 65.8951 54.448V54.4536ZM42.1281 39.1354L41.5021 41.2109C41.5568 41.3867 41.6326 41.5552 41.7277 41.7129C41.8088 41.8552 41.92 41.9781 42.0535 42.073C42.1869 42.168 42.3395 42.2328 42.5005 42.2628C42.6615 42.2929 42.8272 42.2875 42.9859 42.2471C43.1446 42.2067 43.2927 42.1321 43.4197 42.0287C43.6674 41.8216 43.8298 41.5302 43.8756 41.2105C43.9214 40.8909 43.8474 40.5656 43.6678 40.2972C43.3689 39.8178 42.5737 39.4738 42.1281 39.1354ZM44.9932 36.3154C44.9134 36.1728 44.8049 36.0482 44.6746 35.9495C44.5443 35.8509 44.395 35.7803 44.2361 35.7421C44.0772 35.704 43.9121 35.6991 43.7512 35.7279C43.5903 35.7567 43.4371 35.8185 43.3012 35.9093C43.21 35.9624 43.1233 36.0227 43.0418 36.0898C42.8237 36.8418 42.5868 37.6258 42.3312 38.4417C42.9628 38.3571 44.0232 38.4417 44.4574 38.1428C44.6194 38.0651 44.7632 37.9543 44.8795 37.8174C44.9958 37.6806 45.0821 37.5208 45.1326 37.3485C45.1831 37.1761 45.1968 36.9951 45.1728 36.8171C45.1488 36.6391 45.0876 36.4682 44.9932 36.3154Z" fill="black"/>
<path id="Vector_53" d="M58.2924 31.8033C56.0985 45.2265 49.9283 55.0344 47.3678 55.4574C40.4813 56.5854 28.8347 45.3336 25.3718 42.6885C23.9674 41.6225 35.4222 32.0345 36.7758 33.3486C39.9681 36.4393 44.1981 40.5791 44.4293 40.5791C44.9143 40.5791 46.5556 37.2402 52.5565 29.3611C57.5479 22.7793 59.1892 26.293 58.2924 31.8033Z" fill="#D3766A"/>
<path id="Vector_54" d="M18.9817 20.3882C18.0342 21.8377 21.8017 23.8794 21.8017 23.8794C21.0538 23.8852 20.3315 24.1526 19.76 24.6351C18.79 25.5319 19.76 27.4551 19.76 27.4551C18.9875 27.6201 18.2821 28.013 17.7353 28.5831C16.8949 29.5363 17.6112 31.6005 17.6112 31.6005C17.0026 32.1591 16.6044 32.9097 16.4832 33.7268C16.0376 37.3928 24.0521 42.638 26.6352 43.6532L37.1425 34.1667C37.1425 34.1667 33.2453 25.4529 30.07 23.2026C28.3216 21.9505 20.4425 18.1717 18.9817 20.3882Z" fill="#D3766A"/>
<path id="Vector_55" d="M21.8637 23.8573C24.1012 24.6302 26.2358 25.6738 28.22 26.9649C28.2595 26.9649 28.22 27.0608 28.1749 27.0326C26.1953 25.8143 23.8377 25.0981 21.813 23.9644C21.7988 23.9577 21.7878 23.9456 21.7825 23.9308C21.7772 23.916 21.778 23.8997 21.7848 23.8855C21.7915 23.8713 21.8036 23.8603 21.8184 23.855C21.8332 23.8497 21.8495 23.8505 21.8637 23.8573Z" fill="#3A5036"/>
<path id="Vector_56" d="M19.9292 27.3253C20.4268 27.5299 20.8952 27.7992 21.3223 28.1262C21.7961 28.442 22.2642 28.7691 22.7323 29.1019C23.6573 29.7674 24.5709 30.4555 25.4621 31.1661C25.5015 31.2 25.4621 31.2677 25.4226 31.2338C24.492 30.5739 23.5614 29.9253 22.6026 29.3049L21.1644 28.38C20.6896 28.1241 20.245 27.8157 19.839 27.4607C19.8271 27.4467 19.8201 27.4292 19.819 27.4108C19.8179 27.3925 19.8229 27.3743 19.8331 27.359C19.8432 27.3437 19.8582 27.3321 19.8755 27.326C19.8929 27.32 19.9117 27.3197 19.9292 27.3253Z" fill="#3A5036"/>
<path id="Vector_57" d="M17.6676 31.6235C18.1159 31.8152 18.5279 32.0822 18.8859 32.4131C19.3032 32.7233 19.7206 33.0335 20.1436 33.3381C20.9839 33.9529 21.8356 34.5676 22.6816 35.1542C22.7267 35.1824 22.6816 35.2501 22.6421 35.2219C21.7623 34.6579 20.8768 34.0544 20.0026 33.4565L18.7223 32.5711C18.3086 32.3351 17.9401 32.0277 17.6338 31.663C17.6338 31.663 17.6451 31.6179 17.6676 31.6235Z" fill="#3A5036"/>
<path id="Vector_58" d="M16.8837 32.5254C16.494 33.0908 16.3199 33.7771 16.393 34.4599C16.4807 35.1463 16.7429 35.7987 17.1544 36.355C17.9304 37.464 18.8333 38.4785 19.8447 39.378C20.8406 40.2894 21.9081 41.1193 23.0369 41.8596C24.1638 42.5987 25.3548 43.2348 26.5958 43.7603H26.5676C27.3572 44.4089 32.546 48.8927 33.3751 49.2311C32.6419 48.5204 27.4812 44.2622 26.7311 43.5911C25.5386 43.0047 24.3906 42.3317 23.2964 41.5776C22.1972 40.8287 21.1478 40.0092 20.1549 39.1242C19.1574 38.2522 18.2453 37.2871 17.4308 36.2421C17.0175 35.7354 16.7347 35.1351 16.6073 34.4938C16.4651 33.8256 16.563 33.1286 16.8837 32.5254Z" fill="#3A5036"/>
<path id="Vector_59" d="M56.5328 43.0836L46.1721 37.2744C46.1721 37.2744 50.3852 30.1229 54.0681 26.7107C57.751 23.2985 59.2851 25.8816 58.8227 30.732C58.3602 35.5824 56.5328 43.0836 56.5328 43.0836Z" fill="#91C788"/>
<path id="Vector_60" opacity="0.1" d="M58.7098 31.5664C58.6703 31.9386 58.6195 32.3222 58.5688 32.6944C58.4791 32.6294 58.4057 32.5444 58.3544 32.4462C58.315 32.3659 58.293 32.2781 58.2898 32.1886C58.2866 32.0992 58.3022 32.01 58.3357 31.927C58.3693 31.844 58.4199 31.769 58.4843 31.7069C58.5488 31.6447 58.6256 31.5969 58.7098 31.5664ZM49.6519 36.7044C50.0072 36.6537 50.4979 36.1066 50.684 36.1968C50.8702 36.2871 50.4415 36.9244 50.4302 37.3248C50.422 37.4161 50.4335 37.508 50.464 37.5944C50.4945 37.6808 50.5432 37.7596 50.6069 37.8254C50.6706 37.8913 50.7478 37.9426 50.8331 37.9759C50.9184 38.0093 51.01 38.0238 51.1014 38.0186C51.2801 38.0021 51.4465 37.9206 51.5691 37.7897C51.6918 37.6587 51.7622 37.4873 51.7669 37.3079C51.7669 36.7947 51.2029 36.0953 51.4624 35.96C51.7218 35.8246 52.4042 36.524 52.816 36.5691C52.9138 36.5851 53.014 36.5803 53.1099 36.5549C53.2057 36.5296 53.2952 36.4843 53.3724 36.422C53.4496 36.3597 53.5128 36.2818 53.5578 36.1935C53.6028 36.1051 53.6287 36.0083 53.6338 35.9092C53.6423 35.8198 53.6324 35.7296 53.6049 35.6441C53.5773 35.5587 53.5326 35.4797 53.4735 35.4122C53.4143 35.3446 53.342 35.2898 53.261 35.2511C53.1799 35.2124 53.0918 35.1907 53.0021 35.1873C52.5734 35.1534 51.9756 35.4524 51.9192 35.2437C51.8628 35.035 52.4324 34.6797 52.596 34.2341C52.644 34.1421 52.6691 34.0398 52.6693 33.936C52.6696 33.8322 52.6449 33.7299 52.5974 33.6376C52.5498 33.5453 52.4809 33.4658 52.3962 33.4057C52.3116 33.3456 52.2138 33.3067 52.111 33.2922C51.936 33.247 51.7504 33.2717 51.5934 33.3613C51.4365 33.4508 51.3207 33.598 51.2706 33.7716C51.1183 34.2116 51.3608 34.8996 51.0619 34.8996C50.763 34.8996 50.8758 34.0875 50.4979 33.7209C50.4345 33.6521 50.3563 33.5986 50.2692 33.5643C50.1822 33.53 50.0885 33.5158 49.9951 33.5229C49.9018 33.5299 49.8113 33.558 49.7304 33.605C49.6495 33.652 49.5802 33.7167 49.5278 33.7942C49.4567 33.9056 49.4213 34.036 49.4264 34.168C49.4314 34.3001 49.4766 34.4274 49.556 34.533C49.8211 34.9504 50.4697 35.1704 50.3344 35.4975C50.2498 35.7062 49.7196 35.4975 49.3587 35.5595C49.2294 35.5747 49.1094 35.6341 49.0189 35.7276C48.9285 35.8212 48.8732 35.9431 48.8623 36.0728C48.8615 36.1701 48.8827 36.2664 48.9245 36.3544C48.9663 36.4424 49.0276 36.5197 49.1036 36.5805C49.1796 36.6413 49.2685 36.6841 49.3635 36.7056C49.4585 36.727 49.5571 36.7267 49.6519 36.7044ZM55.8108 41.1206C55.6884 41.3337 55.649 41.5844 55.7 41.8248C55.751 42.0652 55.8888 42.2783 56.0872 42.4234C56.2573 42.5406 56.449 42.623 56.6512 42.6659C56.7358 42.2824 56.8824 41.6507 57.0572 40.8611C56.9607 40.7894 56.8501 40.7389 56.7326 40.713C56.6151 40.6871 56.4935 40.6864 56.3758 40.7109C56.258 40.7355 56.1468 40.7846 56.0494 40.8552C55.952 40.9258 55.8707 41.0163 55.8108 41.1206Z" fill="black"/>
<path id="Vector_61" d="M47.9206 35.2724C50.9883 36.6636 53.9581 38.2615 56.8092 40.0551C56.8092 40.0551 56.8092 40.1397 56.7698 40.1285C54.2712 39.0004 49.4716 36.282 47.8698 35.3739C47.8416 35.357 47.8924 35.2555 47.9206 35.2724Z" fill="#3A5036"/>
<path id="Vector_62" d="M55.5288 42.52C55.8785 42.6723 56.2282 42.8472 56.5722 43.0051L56.4199 43.084C56.6624 41.4823 56.9557 39.8974 57.3054 38.3182C57.4746 37.5286 57.6495 36.7447 57.8694 35.9607C58.0894 35.1768 58.2755 34.3984 58.518 33.6201C58.4221 34.421 58.3037 35.2219 58.1627 36.0171C58.0217 36.8124 57.8807 37.6076 57.7228 38.4028C57.4032 39.9896 57.0272 41.5631 56.5948 43.1235L56.5609 43.242L56.465 43.1799C56.1661 42.9487 55.8559 42.7456 55.5288 42.52Z" fill="#3A5036"/>
<path id="Vector_63" d="M57.9429 36.6147C58.0574 36.2995 58.1931 35.9923 58.349 35.6954C58.5074 35.4006 58.6845 35.1161 58.8791 34.8438C58.7694 35.1609 58.6336 35.4684 58.473 35.7631C58.3166 36.0591 58.1394 36.3437 57.9429 36.6147Z" fill="#3A5036"/>
<path id="Vector_64" d="M48.823 29.2148C50.7067 29.3276 53.6959 25.7236 54.5363 23.2702C54.5927 23.101 54.0738 21.5218 53.538 19.5704C53.2165 18.386 52.8894 17.0606 52.6751 15.8311L45.2754 19.0459C45.983 20.5081 46.5078 22.0519 46.8377 23.6425C46.8644 23.8141 46.8776 23.9876 46.8771 24.1613C46.8743 24.1895 46.8743 24.2178 46.8771 24.2459C46.8884 25.2329 47.0012 29.102 48.823 29.2148Z" fill="#D3766A"/>
<path id="Vector_65" d="M46.8772 24.1611V24.2401C47.1464 24.2361 47.4146 24.2058 47.678 24.1498C52.1336 23.2756 52.2408 17.6243 52.19 16.0508L50.3458 16.8517L45.2698 19.0456C45.9781 20.5095 46.5028 22.0553 46.832 23.6478C46.8637 23.8171 46.8788 23.989 46.8772 24.1611Z" fill="#3A5036"/>
<path id="Vector_66" d="M40.9157 4.83887C40.9157 4.83887 38.4341 6.46318 38.4567 9.29447C38.4793 12.1257 39.6411 14.8781 39.9062 14.974C40.1713 15.0698 40.9157 4.83887 40.9157 4.83887Z" fill="#3A5036"/>
<path id="Vector_67" d="M52.2633 7.16277C53.4252 9.89253 52.8273 18.2059 51.0112 20.2363C48.3886 23.1917 43.651 23.9587 41.0341 20.7044C38.4961 17.546 39.4774 6.72849 41.5417 4.83345C44.576 2.04165 50.5375 3.13017 52.2633 7.16277Z" fill="#D3766A"/>
<path id="Vector_68" opacity="0.2" d="M52.8443 12.3906C52.7428 15.5603 52.0942 19.0233 51.0113 20.2359C48.3887 23.1912 43.6511 23.9526 41.0341 20.704C40.0979 19.5365 39.6411 17.32 39.5396 14.9286C39.5734 15.0414 40.0697 16.7616 41.0905 16.8519C41.3858 16.8799 41.6824 16.813 41.937 16.6608C42.1916 16.5087 42.391 16.2792 42.5062 16.0059L43.1717 15.8085C44.193 16.4034 45.3967 16.604 46.5557 16.3725C47.377 16.2516 48.1621 15.9534 48.8565 15.4985C49.551 15.0437 50.1381 14.4431 50.577 13.7386C51.141 12.7177 51.0846 12.3398 51.0846 12.3398L52.8443 12.3906Z" fill="#3A5036"/>
<path id="Vector_69" d="M45.1794 13.0107C45.1794 13.0107 45.2245 13.0446 45.2245 13.0671C45.1681 13.6311 45.2245 14.2741 45.6927 14.494C45.6927 14.494 45.6927 14.5279 45.6927 14.5222C45.0723 14.3982 45.0384 13.5353 45.1794 13.0107Z" fill="#3A5036"/>
<path id="Vector_70" d="M45.7041 12.4639C46.6121 12.4639 46.5614 14.2687 45.7041 14.2743C44.8468 14.2799 44.9653 12.4695 45.7041 12.4639Z" fill="#3A5036"/>
<path id="Vector_71" d="M41.9592 12.915C41.9592 12.915 41.914 12.915 41.914 12.9658C41.914 13.5298 41.8238 14.1728 41.3105 14.342V14.3758C41.9366 14.3194 42.0494 13.4508 41.9592 12.915Z" fill="#3A5036"/>
<path id="Vector_72" d="M41.474 12.3172C40.5716 12.2213 40.4532 14.0092 41.2823 14.1164C42.1113 14.2235 42.2298 12.3962 41.474 12.3172Z" fill="#3A5036"/>
<path id="Vector_73" d="M46.4597 11.6515C46.2236 11.5764 45.992 11.4879 45.766 11.3864C45.5099 11.325 45.2805 11.1825 45.1118 10.9803C45.0712 10.906 45.0564 10.8203 45.0697 10.7366C45.0829 10.6529 45.1235 10.576 45.1851 10.5178C45.3241 10.4217 45.4861 10.3643 45.6546 10.3514C45.8231 10.3385 45.9919 10.3707 46.1439 10.4445C46.4769 10.5487 46.7587 10.7742 46.9335 11.0762C46.9696 11.1467 46.9843 11.2262 46.9757 11.305C46.9672 11.3837 46.9358 11.4582 46.8855 11.5194C46.8351 11.5805 46.768 11.6256 46.6924 11.6491C46.6167 11.6725 46.5358 11.6734 46.4597 11.6515Z" fill="#3A5036"/>
<path id="Vector_74" d="M40.7972 11.3808C41.0432 11.3431 41.2863 11.2884 41.5247 11.2173C41.7891 11.194 42.0386 11.0851 42.2354 10.9071C42.2871 10.84 42.3151 10.7577 42.3151 10.673C42.3151 10.5883 42.2871 10.506 42.2354 10.439C42.1109 10.324 41.9578 10.2445 41.7922 10.2088C41.6265 10.1731 41.4543 10.1824 41.2935 10.2359C40.9505 10.29 40.6404 10.4712 40.425 10.7435C40.3803 10.8071 40.3549 10.8822 40.3517 10.9598C40.3484 11.0375 40.3676 11.1144 40.4067 11.1815C40.4459 11.2486 40.5035 11.3031 40.5728 11.3384C40.642 11.3737 40.7199 11.3884 40.7972 11.3808Z" fill="#3A5036"/>
<path id="Vector_75" d="M45.3262 18.2678C45.1908 18.3919 45.0498 18.5723 44.8468 18.5836C44.6369 18.5732 44.4314 18.5194 44.2433 18.4257C44.2433 18.4257 44.2095 18.4257 44.2433 18.4539C44.3213 18.5657 44.4278 18.6545 44.5519 18.711C44.6759 18.7676 44.8128 18.7898 44.9483 18.7754C45.2021 18.7415 45.3318 18.5216 45.4052 18.2903C45.3882 18.2678 45.3487 18.2283 45.3262 18.2678Z" fill="#3A5036"/>
<path id="Vector_76" d="M44.7845 16.5755C44.6354 16.7925 44.4433 16.9765 44.2202 17.1162C43.9971 17.2559 43.7476 17.3483 43.4873 17.3877C43.2592 17.4215 43.0274 17.4215 42.7993 17.3877C42.7542 17.3904 42.709 17.3904 42.6639 17.3877H42.5455C42.5154 17.3807 42.4883 17.3644 42.4681 17.3411C42.4478 17.3178 42.4354 17.2887 42.4327 17.258C42.4327 17.258 42.4327 17.2241 42.4327 17.2016V17.1508C42.4327 16.7222 42.4947 16.0679 42.4947 16.0679C42.3368 16.1412 41.519 16.4796 41.5359 16.254C41.6445 14.3071 41.9487 12.376 42.4439 10.49C42.4477 10.4787 42.4548 10.4689 42.4644 10.4619C42.4741 10.4549 42.4857 10.4512 42.4975 10.4512C42.5094 10.4512 42.521 10.4549 42.5306 10.4619C42.5402 10.4689 42.5474 10.4787 42.5511 10.49C42.4609 12.2891 42.0548 14.0601 41.9364 15.8705C42.2279 15.7458 42.5354 15.6623 42.85 15.6224C42.9121 15.6224 42.709 16.8857 42.7259 17.0831C43.0795 17.1269 43.4383 17.0995 43.7812 17.0027C44.124 16.9058 44.4441 16.7414 44.7225 16.5191C44.7789 16.4683 44.8184 16.5078 44.7845 16.5755Z" fill="#3A5036"/>
<path id="Vector_77" d="M43.042 17.2972C43.2854 17.5925 43.6026 17.8182 43.9613 17.9515C44.1572 18.0164 44.3689 18.0164 44.5648 17.9515C44.9991 17.8161 44.9991 17.4157 44.9032 17.0716C44.849 16.8912 44.7753 16.7172 44.6832 16.5527C44.2309 16.9717 43.6551 17.2328 43.042 17.2972Z" fill="#3A5036"/>
<path id="Vector_78" d="M43.9612 17.9521C44.1571 18.0171 44.3688 18.0171 44.5647 17.9521C44.999 17.8167 44.999 17.4163 44.9031 17.0723C44.6695 17.0903 44.4491 17.1872 44.2779 17.3471C44.1067 17.507 43.995 17.7203 43.9612 17.9521Z" fill="#FF98B9"/>
<path id="Vector_79" d="M52.3536 14.1054C51.4174 14.3648 50.4304 11.5448 50.154 10.4619C49.9171 9.50878 49.6915 6.51394 49.652 6.29962C49.6125 6.0853 45.5348 8.83762 43.2168 8.09314C40.8987 7.34866 39.3929 5.19982 39.3872 4.21846C39.3816 3.2371 42.3595 0.834461 44.8693 0.778061C47.3791 0.721661 50.7011 4.00978 50.7011 4.00978C50.3133 3.52553 49.9626 3.01271 49.652 2.4757C50.0896 2.58634 50.493 2.8033 50.8265 3.10733C51.1601 3.41135 51.4134 3.79302 51.564 4.21846C51.564 4.21846 51.2876 2.7577 51.4061 2.73514C51.5245 2.71258 52.7597 3.98722 52.4495 4.92346C52.4495 4.92346 53.8707 6.2263 53.9666 7.61938C54.0625 9.01246 53.4534 13.8008 52.3536 14.1054Z" fill="#3A5036"/>
<path id="Vector_80" d="M41.5699 7.55142C42.2536 7.94113 42.9909 8.22808 43.7582 8.40306C44.6168 8.49903 45.4859 8.38483 46.2906 8.0703C47.1061 7.77946 47.8683 7.35645 48.5466 6.81822C49.1444 6.35573 49.6746 5.79174 50.3175 5.38001C50.4754 5.27285 50.6503 5.5041 50.5488 5.6451C49.4682 7.09792 47.9468 8.16232 46.2116 8.67942C45.4087 8.9175 44.5576 8.94286 43.742 8.75303C42.9263 8.5632 42.1739 8.16468 41.5586 7.59654C41.5586 7.59654 41.5586 7.55142 41.5699 7.55142Z" fill="#3A5036"/>
<path id="Vector_81" d="M51.2369 13.9927C51.2369 13.9927 52.8556 11.1727 54.1077 11.7367C55.3598 12.3007 54.3164 16.2487 52.9797 16.8916C52.8104 16.9856 52.624 17.0445 52.4315 17.0649C52.239 17.0854 52.0444 17.0669 51.8592 17.0106C51.6739 16.9543 51.5019 16.8613 51.3534 16.7372C51.2048 16.6131 51.0827 16.4604 50.9944 16.2882L51.2369 13.9927Z" fill="#D3766A"/>
<path id="Vector_82" d="M53.7806 12.8701C53.7806 12.8701 53.8088 12.8701 53.7806 12.904C53.3429 13.1667 52.9659 13.5192 52.6742 13.9382C52.3826 14.3571 52.183 14.8331 52.0886 15.3348C52.1366 15.2306 52.2068 15.1381 52.2943 15.0639C52.3817 14.9896 52.4843 14.9352 52.5949 14.9046C52.7055 14.874 52.8215 14.8679 52.9347 14.8867C53.0479 14.9054 53.1556 14.9487 53.2504 15.0133C53.2786 15.0133 53.2504 15.0697 53.2504 15.0697C53.0724 15.0297 52.8865 15.0456 52.7179 15.1152C52.5493 15.1849 52.4063 15.3049 52.3085 15.4589C52.1466 15.7178 52.0142 15.994 51.9137 16.2823C51.8742 16.3782 51.7107 16.3443 51.7389 16.2372C51.6204 14.9625 52.4382 13.1126 53.7806 12.8701Z" fill="#3A5036"/>
</g>
</svg>
