<svg width="120" height="120" viewBox="0 0 120 120" fill="none" xmlns="http://www.w3.org/2000/svg">
<path d="M18.9264 0H18.6864V32.5272H18.9264V0Z" fill="#C7C7C7"/>
<path d="M30.1008 43.4159L29.1936 45.4127H8.41676L7.51196 43.4159L16.356 37.2935H21.2568L30.1008 43.4159Z" fill="#EBEBEB"/>
<path d="M21.8712 31.3945L21.2568 37.2937H16.356L15.7416 31.3945H21.8712Z" fill="#DBDBDB"/>
<path d="M30.1008 43.416L29.1912 45.4128H8.41678L7.50958 43.416H30.1008Z" fill="#DBDBDB"/>
<path d="M43.1783 0H42.9383V26.0856H43.1783V0Z" fill="#C7C7C7"/>
<path d="M54.3528 36.972L53.4456 38.9712H32.6688L31.764 36.972L40.608 30.8496H45.5088L54.3528 36.972Z" fill="#EBEBEB"/>
<path d="M46.1231 24.9531L45.5087 30.8499H40.6079L39.9935 24.9531H46.1231Z" fill="#DBDBDB"/>
<path d="M54.3528 36.9746L53.4432 38.9714H32.6688L31.7616 36.9746H54.3528Z" fill="#DBDBDB"/>
<path d="M11.64 53.6014L9.2712 57.4198L10.4472 58.1398C10.612 58.247 10.7441 58.3976 10.8287 58.5751C10.9134 58.7525 10.9475 58.9499 10.9272 59.1454C10.9079 59.3633 10.9007 59.582 10.9056 59.8006C10.9123 59.9997 10.8639 60.1967 10.7656 60.37C10.6673 60.5432 10.5231 60.6859 10.3488 60.7822L9.1488 61.4326L11.28 65.4022L12.48 64.7518C12.6507 64.6603 12.8434 64.6174 13.0368 64.628C13.2303 64.6386 13.4171 64.7022 13.5768 64.8118C13.7728 64.9487 13.9763 65.0745 14.1864 65.1886C14.357 65.2825 14.4981 65.4221 14.5939 65.5916C14.6897 65.7612 14.7364 65.954 14.7288 66.1486L14.6856 67.5238L19.1784 67.663L19.2192 66.283C19.2255 66.088 19.2859 65.8986 19.3935 65.7359C19.5011 65.5732 19.6518 65.4436 19.8288 65.3614C19.9344 65.311 20.0376 65.2582 20.1408 65.203C20.244 65.1478 20.3448 65.0902 20.4432 65.0302C20.6089 64.9283 20.7995 64.8744 20.994 64.8744C21.1885 64.8744 21.3792 64.9283 21.5448 65.0302L22.7232 65.7502L25.0896 61.9318L23.9112 61.1998C23.7462 61.0928 23.614 60.9423 23.5293 60.7648C23.4446 60.5873 23.4106 60.3898 23.4312 60.1942C23.4504 59.9772 23.4576 59.7593 23.4528 59.5414C23.4463 59.3421 23.4951 59.1449 23.5938 58.9717C23.6925 58.7984 23.8373 58.6559 24.012 58.5598L25.212 57.9094L23.088 53.9494L21.8736 54.5998C21.6974 54.692 21.4991 54.7334 21.3008 54.7194C21.1024 54.7055 20.9119 54.6366 20.7504 54.5206C20.5704 54.3958 20.3832 54.2806 20.1936 54.1774C20.0188 54.0863 19.8729 53.9481 19.7724 53.7785C19.6719 53.6089 19.6208 53.4146 19.6248 53.2174L19.68 51.8398L15.1896 51.6982L15.1464 53.0782C15.1383 53.2753 15.0757 53.4662 14.9655 53.6298C14.8553 53.7933 14.7019 53.9231 14.5224 54.0046C14.4216 54.0502 14.3232 54.1006 14.2248 54.1534C14.1264 54.2062 14.0304 54.2614 13.9368 54.319C13.7682 54.4226 13.5743 54.4775 13.3764 54.4775C13.1786 54.4775 12.9846 54.4226 12.816 54.319L11.64 53.6014ZM15.0336 56.6926C15.6586 56.2443 16.4083 56.0029 17.1775 56.0024C17.9467 56.002 18.6967 56.2425 19.3223 56.6901C19.9478 57.1377 20.4174 57.7701 20.6651 58.4983C20.9129 59.2265 20.9263 60.014 20.7035 60.7502C20.4808 61.4865 20.033 62.1344 19.4231 62.6032C18.8132 63.0719 18.0718 63.3378 17.3031 63.3636C16.5343 63.3893 15.7768 63.1737 15.1369 62.7468C14.4969 62.32 14.0068 61.7035 13.7352 60.9838C13.449 60.2254 13.4211 59.3937 13.6559 58.6178C13.8907 57.8419 14.3749 57.1652 15.0336 56.6926Z" fill="#EBEBEB"/>
<path d="M110.16 16.3202C110.059 16.2613 109.977 16.1755 109.922 16.0725C109.868 15.9696 109.843 15.8534 109.85 15.737C109.85 15.6722 109.85 15.6074 109.85 15.5426C109.85 15.4778 109.85 15.4106 109.85 15.3458C109.843 15.2295 109.868 15.1133 109.922 15.0103C109.977 14.9073 110.059 14.8216 110.16 14.7626L110.863 14.357L109.543 12.065L108.83 12.4802C108.729 12.5384 108.614 12.567 108.497 12.5627C108.38 12.5585 108.267 12.5216 108.17 12.4562C108.06 12.3866 107.947 12.3194 107.83 12.2594C107.726 12.2073 107.638 12.1275 107.577 12.0288C107.515 11.9302 107.483 11.8164 107.482 11.7002V10.8818H104.842V11.6906C104.839 11.8058 104.804 11.9179 104.742 12.0148C104.68 12.1117 104.592 12.1897 104.489 12.2402C104.371 12.3002 104.249 12.3674 104.148 12.437C104.051 12.5024 103.938 12.5393 103.821 12.5435C103.705 12.5478 103.589 12.5192 103.488 12.461L102.785 12.0554L101.462 14.3474L102.168 14.7554C102.271 14.8142 102.354 14.9009 102.41 15.0054C102.465 15.1099 102.489 15.228 102.48 15.3458C102.48 15.4106 102.48 15.4754 102.48 15.5402C102.48 15.605 102.48 15.6698 102.48 15.7346C102.488 15.8516 102.463 15.9685 102.408 16.0719C102.352 16.1754 102.269 16.2614 102.168 16.3202L101.462 16.7258L102.785 19.0178L103.486 18.6122C103.587 18.5543 103.702 18.5256 103.819 18.5294C103.935 18.5332 104.048 18.5694 104.146 18.6338C104.256 18.7068 104.371 18.7733 104.489 18.833C104.592 18.8853 104.68 18.9652 104.74 19.0639C104.801 19.1626 104.834 19.2762 104.834 19.3922V20.201H107.474V19.3898C107.475 19.2736 107.508 19.1599 107.57 19.0612C107.631 18.9626 107.719 18.8828 107.822 18.8306C107.94 18.7703 108.055 18.7038 108.166 18.6314C108.262 18.5669 108.375 18.5307 108.491 18.5269C108.608 18.5231 108.722 18.5518 108.823 18.6098L109.526 19.0154L110.846 16.7234L110.16 16.3202ZM106.166 17.7098C105.739 17.7098 105.322 17.5832 104.966 17.3458C104.611 17.1085 104.334 16.7711 104.171 16.3764C104.007 15.9817 103.965 15.5474 104.048 15.1284C104.131 14.7094 104.337 14.3246 104.639 14.0225C104.941 13.7204 105.326 13.5147 105.745 13.4313C106.164 13.348 106.598 13.3908 106.993 13.5543C107.388 13.7177 107.725 13.9946 107.962 14.3498C108.2 14.705 108.326 15.1226 108.326 15.5498C108.326 15.8339 108.27 16.1151 108.161 16.3774C108.051 16.6396 107.892 16.8778 107.69 17.0782C107.489 17.2786 107.25 17.4373 106.987 17.5453C106.725 17.6533 106.443 17.7084 106.159 17.7074L106.166 17.7098Z" fill="#EBEBEB"/>
<path d="M50.6208 76.5262C50.5268 76.4711 50.4487 76.3927 50.394 76.2985C50.3393 76.2043 50.31 76.0975 50.3088 75.9886C50.3088 75.8806 50.3088 75.775 50.3088 75.667C50.2971 75.5587 50.3036 75.4492 50.328 75.343C50.3545 75.2369 50.4092 75.1398 50.4864 75.0622C50.5678 74.9909 50.6582 74.9304 50.7552 74.8822L51.3144 74.5558V74.5678L49.98 72.283H50.0112L49.2768 72.715C49.1416 72.7825 48.9873 72.8011 48.84 72.7678C48.7012 72.7246 48.5695 72.6615 48.4488 72.5806L48.2664 72.4774C48.1991 72.4423 48.1382 72.396 48.0864 72.3406C47.98 72.23 47.9155 72.0857 47.904 71.9326V71.0806L47.9592 71.1358L45.3192 71.1598L45.4008 71.0806V71.935C45.3932 72.0576 45.3543 72.1762 45.2879 72.2795C45.2216 72.3829 45.1299 72.4675 45.0216 72.5254L44.8416 72.6334L44.6616 72.739C44.5919 72.7827 44.5157 72.8151 44.436 72.835C44.2743 72.8705 44.1054 72.8511 43.956 72.7798L43.212 72.355L43.356 72.3166L42.0432 74.6134L42 74.4526L42.744 74.8798C42.8486 74.9517 42.9336 75.0487 42.991 75.1619C43.0485 75.2751 43.0766 75.4009 43.0728 75.5278V75.739V75.9478C43.0741 76.0291 43.0628 76.1101 43.0392 76.1878C42.9893 76.3499 42.885 76.4897 42.744 76.5838L42 77.011L42.0408 76.8598L43.3512 79.1566L43.2168 79.1206L43.9632 78.7006C44.113 78.6304 44.282 78.6127 44.4432 78.6502C44.5202 78.6704 44.5938 78.7019 44.6616 78.7438L44.844 78.8518L45.024 78.9574C45.0938 78.9959 45.157 79.0453 45.2112 79.1038C45.3193 79.222 45.3836 79.3736 45.3936 79.5334V80.3902L45.3288 80.3254L47.9688 80.3518L47.9304 80.3902V79.5382C47.9417 79.3889 48.0045 79.2481 48.108 79.1398C48.2168 79.0443 48.3379 78.9636 48.468 78.8998C48.5879 78.8211 48.7178 78.759 48.8544 78.715C48.9974 78.6808 49.148 78.6987 49.2792 78.7654L50.016 79.1926H49.9992L51.3288 76.9054L50.6208 76.5262ZM50.6208 76.5262L51.324 76.9294L50.0112 79.2238V79.2358L49.272 78.8158C49.1466 78.7551 49.0041 78.7398 48.8688 78.7726C48.7302 78.8144 48.599 78.8776 48.48 78.9598C48.3548 79.0232 48.2393 79.104 48.1368 79.1998C48.0437 79.3004 47.9886 79.4302 47.9808 79.567V80.4166V80.455H47.9424L45.3024 80.4814H45.24V80.3998V79.5526C45.23 79.4277 45.1775 79.3099 45.0912 79.219C45.0475 79.1742 44.9973 79.1361 44.9424 79.1062L44.7552 79.0006L44.568 78.895C44.5153 78.8633 44.4577 78.8405 44.3976 78.8278C44.2769 78.8009 44.1507 78.8161 44.04 78.871L43.32 79.3006L43.236 79.351L43.1856 79.2646L41.8536 76.9798L41.7984 76.8838L41.8944 76.8286L42.6144 76.4038C42.71 76.338 42.7803 76.2415 42.8136 76.1302C42.8299 76.0741 42.838 76.0159 42.8376 75.9574V75.7414V75.5254C42.838 75.467 42.8299 75.4087 42.8136 75.3526C42.78 75.2421 42.7086 75.147 42.612 75.0838L41.892 74.6566L41.7888 74.599L41.8488 74.4982L43.1784 72.2134L43.2336 72.1198L43.3248 72.1726L44.0448 72.5974C44.1519 72.6502 44.2739 72.6647 44.3904 72.6382C44.4491 72.6259 44.5052 72.6032 44.556 72.571L44.7432 72.4654L44.9328 72.3598C44.9861 72.3315 45.0347 72.2951 45.0768 72.2518C45.1617 72.1634 45.2127 72.0478 45.2208 71.9254V71.083V70.999H45.3L47.94 71.023H48V71.0782V71.9254C48.0088 72.0575 48.0621 72.1827 48.1512 72.2806C48.2521 72.3762 48.366 72.457 48.4896 72.5206C48.6026 72.6013 48.7272 72.6645 48.8592 72.7078C48.9904 72.739 49.1284 72.7246 49.2504 72.667L49.992 72.2518L50.0112 72.2398V72.259L51.324 74.5558L50.7624 74.8774C50.6658 74.9241 50.5762 74.9839 50.496 75.055C50.4191 75.13 50.3643 75.2246 50.3376 75.3286C50.3123 75.4338 50.305 75.5426 50.316 75.6502C50.316 75.7582 50.316 75.8662 50.316 75.9718C50.3135 76.0829 50.3404 76.1926 50.3939 76.29C50.4474 76.3873 50.5257 76.4688 50.6208 76.5262Z" fill="#EBEBEB"/>
<path d="M46.6272 77.9163C46.2596 77.9148 45.898 77.8223 45.5749 77.6471C45.2517 77.4719 44.9769 77.2194 44.7751 76.9122C44.5732 76.605 44.4505 76.2525 44.4179 75.8864C44.3854 75.5202 44.444 75.1517 44.5885 74.8137C44.7329 74.4756 44.9589 74.1786 45.2461 73.9492C45.5332 73.7197 45.8728 73.5649 46.2343 73.4985C46.5959 73.4321 46.9683 73.4563 47.3182 73.5689C47.6682 73.6814 47.9849 73.8788 48.24 74.1435C48.6526 74.5748 48.8771 75.1523 48.864 75.7491C48.8447 76.3275 48.6018 76.8758 48.1864 77.2787C47.771 77.6816 47.2155 77.9076 46.6368 77.9091L46.6272 77.9163ZM46.6272 77.9163C46.9082 77.9161 47.1863 77.8596 47.4452 77.7503C47.7041 77.641 47.9385 77.481 48.1346 77.2797C48.3307 77.0784 48.4846 76.84 48.5872 76.5784C48.6898 76.3167 48.739 76.0372 48.732 75.7563C48.7157 75.2081 48.4867 74.6878 48.0933 74.3056C47.6999 73.9234 47.1732 73.7095 46.6248 73.7091C46.0659 73.7091 45.5299 73.9311 45.1347 74.3263C44.7396 74.7215 44.5176 75.2574 44.5176 75.8163C44.5176 76.3752 44.7396 76.9111 45.1347 77.3063C45.5299 77.7015 46.0659 77.9235 46.6248 77.9235L46.6272 77.9163Z" fill="#EBEBEB"/>
<path d="M7.38239 105.062L20.5368 105.005L33.6912 104.983L60 104.945L86.3088 104.983L99.4632 105.005L112.618 105.062L99.4632 105.122L86.3088 105.144L60 105.182L33.6912 105.144L20.5368 105.122L7.38239 105.062Z" fill="#263238"/>
<path d="M110.467 21.6025H70.6752V61.8217H110.467V21.6025Z" fill="#EBEBEB"/>
<path d="M88.9704 19.1766C90.2976 17.619 92.5704 17.2446 94.7688 17.6886C96.9672 18.1326 99.6 19.2414 99.84 22.9182C100.037 25.9038 99.12 28.815 99.12 32.1462C99.12 35.4774 102.89 43.5918 96.8568 47.5518C91.4352 51.1086 80.4504 47.8422 80.112 40.5198C79.8456 34.7166 86.7288 29.3502 87.4536 27.0534C88.1784 24.7566 87.516 20.8806 88.9704 19.1766Z" fill="#263238"/>
<path d="M87.9792 22.4521C87.9384 24.1129 87.6984 25.7929 87.0192 27.3601C86.843 27.7571 86.6128 28.1278 86.3352 28.4617C86.0688 28.7977 85.7856 29.1145 85.5024 29.4217C84.9312 30.0433 84.3672 30.6601 83.8224 31.3009C82.7403 32.5564 81.8462 33.9623 81.168 35.4745C80.5177 36.9939 80.1602 38.6225 80.1144 40.2745C80.0468 39.4408 80.0718 38.602 80.1888 37.7737C80.3186 36.9412 80.5333 36.1241 80.8296 35.3353C81.4548 33.7549 82.3407 32.2906 83.4504 31.0033C83.9952 30.3529 84.5736 29.7313 85.1496 29.1169C85.7256 28.5025 86.3088 27.9169 86.6664 27.1969C87.0332 26.4608 87.3126 25.6843 87.4992 24.8833C87.7098 24.0838 87.8701 23.2718 87.9792 22.4521Z" fill="#263238"/>
<path d="M99.6888 25.4258C99.648 27.1202 99.54 28.8122 99.5856 30.4946C99.6053 31.3325 99.6758 32.1684 99.7968 32.9978C99.9216 33.8138 100.166 34.6298 100.37 35.4554C100.574 36.281 100.757 37.1186 100.891 37.9634C101.021 38.8121 101.076 39.6706 101.054 40.529C101.015 41.3915 100.854 42.244 100.574 43.061C100.252 43.8639 99.7714 44.5937 99.1608 45.2066C99.6958 44.5489 100.103 43.7967 100.361 42.989C100.585 42.1858 100.696 41.3555 100.692 40.5218C100.624 38.8435 100.361 37.1787 99.9096 35.561C99.7176 34.7378 99.4728 33.9218 99.3552 33.0554C99.245 32.2065 99.2017 31.3503 99.2256 30.4946C99.2763 28.7971 99.431 27.1043 99.6888 25.4258Z" fill="#263238"/>
<path d="M90.96 39.6748C85.44 45.7516 80.9352 48.67 76.4952 48.67C72.2736 48.67 63.2544 38.4196 62.592 37.0684C62.0208 35.902 69.4248 29.5204 70.5624 30.3148C72.4824 31.6444 78.6408 39.3412 79.2936 39.3772C79.9464 39.4132 82.3512 37.8244 88.1424 35.1124C91.6608 33.4684 94.8 35.4628 90.96 39.6748Z" fill="#EB9481"/>
<path d="M63.4512 38.0791C62.64 37.2007 59.2344 32.8159 58.56 31.3855C57.8856 29.9551 56.2512 25.6975 57.2952 25.0711C58.3392 24.4447 58.9152 25.6519 58.9152 25.6519C58.9152 25.6519 58.5096 23.7463 59.6184 23.2111C60.7272 22.6759 61.5624 24.5839 61.5624 24.5839C61.5624 24.5839 61.2888 22.5967 62.4312 22.1407C63.5736 21.6847 64.0968 23.7487 64.0968 23.7487C64.0968 23.7487 63.7608 21.9415 64.86 21.9631C66.1824 21.9895 66.4248 25.3903 67.2864 26.9143C67.4808 27.2599 71.748 33.6343 71.748 33.6343L63.4512 38.0791Z" fill="#EB9481"/>
<path d="M64.0512 23.573C64.236 26.0714 64.7496 27.1346 66.2112 29.1194C66.24 29.1578 66.1896 29.2082 66.156 29.1722C64.5408 27.3578 63.7056 26.1194 63.924 23.5754C63.9408 23.4506 64.0416 23.453 64.0512 23.573Z" fill="#263238"/>
<path d="M61.5552 24.3866C61.9728 26.9666 62.5152 28.1234 63.9048 30.3146C63.924 30.3458 63.8736 30.3818 63.852 30.353C62.3136 28.3154 61.5072 27.0602 61.428 24.4274C61.4232 24.3074 61.536 24.2666 61.5552 24.3866Z" fill="#263238"/>
<path d="M58.992 25.7622C59.5776 28.2318 60.1224 29.5254 61.74 31.479C61.7784 31.527 61.7136 31.587 61.6728 31.5438C59.8296 29.7102 59.1384 28.0998 58.92 25.7838C58.9056 25.6302 58.956 25.6062 58.992 25.7622Z" fill="#263238"/>
<path d="M73.6512 34.2436C73.6512 34.2436 73.596 31.102 73.2672 29.7268C72.9384 28.3516 69.84 23.6812 68.7816 24.2956C67.4304 25.0876 68.6928 28.1356 69.5016 29.5516C69.5016 29.5516 66.3816 31.3852 66.8064 33.7708C67.2312 36.1564 73.6512 34.2436 73.6512 34.2436Z" fill="#EB9481"/>
<path d="M68.4816 24.6335C67.7616 26.2463 68.9616 28.0343 69.6456 29.4623C69.6566 29.4829 69.6625 29.5058 69.6629 29.5291C69.6633 29.5524 69.6581 29.5754 69.6478 29.5963C69.6374 29.6172 69.6223 29.6353 69.6035 29.6492C69.5848 29.663 69.563 29.6722 69.54 29.6759C68.2776 30.5327 66.7488 32.1047 66.7296 33.7127C66.7296 33.7223 66.7258 33.7314 66.7191 33.7382C66.7123 33.7449 66.7032 33.7487 66.6936 33.7487C66.6841 33.7487 66.6749 33.7449 66.6682 33.7382C66.6614 33.7314 66.6576 33.7223 66.6576 33.7127C66.444 31.9847 67.8192 30.3143 69.2592 29.4671C68.5392 28.0103 67.4184 26.1671 68.4672 24.6191L68.4816 24.6335Z" fill="#263238"/>
<path d="M81.4416 37.6107L85.8768 45.8859C85.8768 45.8859 91.8912 40.0467 92.8512 37.6107C93.8112 35.1747 92.7768 33.4059 88.4976 34.7091C86.053 35.4336 83.6887 36.4059 81.4416 37.6107Z" fill="#FF9385"/>
<path d="M86.9016 44.1605C86.6832 43.7117 86.4912 43.2485 86.2632 42.8021C86.0352 42.3557 85.8072 41.9141 85.5696 41.4773C85.0896 40.5941 84.6096 39.7085 84.1104 38.8373C83.8272 38.3573 83.5296 37.8629 83.22 37.3973C83.208 37.3757 83.1672 37.3973 83.1792 37.4141C83.9928 39.2357 84.9792 40.9805 85.9632 42.7133C86.2488 43.2149 86.5728 43.6925 86.8704 44.1869C86.88 44.1989 86.9136 44.1773 86.9016 44.1605Z" fill="#263238"/>
<path d="M92.8512 37.6104C91.8912 40.0464 85.8768 45.8856 85.8768 45.8856L82.8888 40.32L92.7456 34.8696C93.312 35.46 93.3048 36.4608 92.8512 37.6104Z" fill="#263238"/>
<path d="M82.452 51.5427C82.452 51.5427 80.0136 57.3795 80.8752 61.8195H107.76C106.886 49.7499 100.87 39.3771 97.3152 36.0195C94.4496 33.3123 91.4328 33.5547 89.3328 34.9395C88.8384 35.2683 83.3832 42.8067 82.7928 43.9995C80.4504 48.7059 82.452 51.5427 82.452 51.5427Z" fill="#FF9385"/>
<path d="M89.52 34.5845C89.52 34.5845 87.84 39.4157 88.8144 39.6677C91.2384 40.2917 94.4904 36.3341 94.6848 35.9309C94.7328 35.8277 94.9488 33.1229 95.1096 31.0181C95.2128 29.6645 95.292 28.5581 95.292 28.5581L89.3112 30.6101L89.5032 34.3181L89.52 34.5845Z" fill="#EB9481"/>
<path d="M89.3016 30.6101L89.4936 34.3181C90.7104 34.1477 93.3864 33.4877 95.1 31.0181C95.2032 29.6645 95.2824 28.5581 95.2824 28.5581L94.5336 28.7981L89.3016 30.6101Z" fill="#263238"/>
<path d="M84.8472 25.4183C84.7752 27.3023 84.9624 28.8263 85.4208 29.8391C85.8135 30.7042 86.4384 31.4434 87.226 31.9747C88.0136 32.506 88.9331 32.8085 89.8824 32.8487C90.6024 32.8751 92.676 32.6855 94.176 31.5431C95.3424 30.6551 96.0456 29.0543 96.444 26.2391C97.356 19.8023 94.4112 17.6375 91.5096 17.3783C88.608 17.1191 85.0872 18.9239 84.8472 25.4183Z" fill="#EB9481"/>
<path d="M86.5104 23.9833C86.6616 23.9617 86.8008 23.9185 86.9472 23.8849C87.1064 23.8705 87.2569 23.8058 87.3768 23.7001C87.4068 23.659 87.423 23.6094 87.423 23.5585C87.423 23.5076 87.4068 23.458 87.3768 23.4169C87.3021 23.3474 87.2103 23.299 87.1108 23.2767C87.0113 23.2543 86.9076 23.2588 86.8104 23.2897C86.6034 23.3226 86.4161 23.4312 86.2848 23.5945C86.2538 23.6323 86.2351 23.6786 86.2312 23.7273C86.2272 23.776 86.2383 23.8248 86.2628 23.8671C86.2873 23.9093 86.3242 23.9431 86.3684 23.9639C86.4127 23.9846 86.4622 23.9914 86.5104 23.9833Z" fill="#263238"/>
<path d="M90.7513 24.1446C90.604 24.1186 90.4582 24.085 90.3145 24.0438C90.1552 24.0305 90.0049 23.9647 89.8873 23.8566C89.8572 23.8155 89.841 23.7659 89.841 23.715C89.841 23.6641 89.8572 23.6145 89.8873 23.5734C89.9625 23.5041 90.055 23.4562 90.155 23.4347C90.255 23.4132 90.3589 23.4188 90.4561 23.451C90.6646 23.4843 90.8531 23.5948 90.9841 23.7606C91.0141 23.799 91.0318 23.8456 91.0347 23.8943C91.0377 23.9429 91.0257 23.9914 91.0004 24.0331C90.9751 24.0748 90.9377 24.1078 90.8932 24.1277C90.8487 24.1476 90.7992 24.1535 90.7513 24.1446Z" fill="#263238"/>
<path d="M89.6904 25.7668C89.6904 25.75 89.724 25.7884 89.724 25.8076C89.688 26.2468 89.724 26.7676 90.1152 26.926C90.1152 26.926 90.1152 26.9524 90.1152 26.95C89.6256 26.8588 89.5872 26.1772 89.6904 25.7668Z" fill="#263238"/>
<path d="M90.108 25.3225C90.828 25.3033 90.8088 26.7313 90.1464 26.7505C89.484 26.7697 89.52 25.3393 90.108 25.3225Z" fill="#263238"/>
<path d="M90.3888 25.4018C90.5112 25.4834 90.6288 25.6274 90.7824 25.6418C90.936 25.6562 91.0896 25.5122 91.2048 25.3682C91.2168 25.3538 91.2288 25.3682 91.2288 25.385C91.2288 25.6586 91.1232 25.9394 90.828 25.9778C90.5328 26.0162 90.372 25.7666 90.3048 25.4978C90.2928 25.4402 90.3384 25.3682 90.3888 25.4018Z" fill="#263238"/>
<path d="M87.3264 25.5794C87.3264 25.5626 87.2928 25.601 87.2928 25.6178C87.2928 26.0618 87.2472 26.5778 86.8464 26.717C86.8344 26.717 86.8344 26.7434 86.8464 26.741C87.3384 26.6738 87.4104 25.997 87.3264 25.5794Z" fill="#263238"/>
<path d="M86.9329 25.1158C86.2129 25.0606 86.1625 26.4886 86.8225 26.539C87.4825 26.5894 87.528 25.1638 86.9329 25.1158Z" fill="#263238"/>
<path d="M86.64 25.2001C86.5248 25.2721 86.4 25.4041 86.2728 25.4089C86.1456 25.4137 86.0064 25.2529 85.9128 25.1017C85.9128 25.0849 85.8912 25.1017 85.8888 25.1161C85.872 25.3897 85.9488 25.6753 86.2104 25.7401C86.472 25.8049 86.6328 25.5697 86.7072 25.3009C86.712 25.2481 86.676 25.1713 86.64 25.2001Z" fill="#263238"/>
<path d="M89.6472 29.2035C89.544 29.3115 89.4432 29.4579 89.2848 29.4771C89.1202 29.4783 88.9569 29.4465 88.8048 29.3835C88.8019 29.3809 88.7982 29.3796 88.7944 29.3798C88.7905 29.3801 88.787 29.3818 88.7844 29.3847C88.7819 29.3875 88.7806 29.3913 88.7808 29.3951C88.781 29.3989 88.7827 29.4025 88.7856 29.4051C88.8522 29.4898 88.9404 29.555 89.0409 29.5938C89.1414 29.6327 89.2506 29.6438 89.3568 29.6259C89.4455 29.5982 89.5242 29.5453 89.5834 29.4737C89.6426 29.4022 89.6798 29.315 89.6904 29.2227C89.6918 29.2172 89.6912 29.2114 89.6887 29.2063C89.6862 29.2013 89.682 29.1972 89.6769 29.1949C89.6717 29.1926 89.6659 29.1922 89.6605 29.1938C89.6551 29.1954 89.6504 29.1988 89.6472 29.2035Z" fill="#263238"/>
<path d="M87.84 27.5648C87.84 27.5648 87.7344 28.2248 87.7296 28.5368C87.7296 28.5656 87.804 28.58 87.9096 28.5896C87.9096 28.5896 87.9096 28.5896 87.9216 28.5896C88.1865 28.642 88.4607 28.621 88.7146 28.5287C88.9684 28.4365 89.1921 28.2767 89.3616 28.0664C89.3832 28.0376 89.3448 28.004 89.316 28.0232C88.9127 28.2859 88.4357 28.4121 87.9552 28.3832C87.936 28.2944 88.1736 27.26 88.1232 27.2552C87.8776 27.2705 87.6353 27.3197 87.4032 27.4016C87.5832 26.0216 87.9816 24.6824 88.1376 23.3072C88.1376 23.2592 88.0728 23.2424 88.0584 23.2856C87.54 24.6584 87.3 26.2424 87.0768 27.6608C87.0576 27.8408 87.7056 27.6176 87.84 27.5648Z" fill="#263238"/>
<path d="M88.1088 28.4259C88.2624 28.6611 88.474 28.8529 88.7232 28.9827C88.8605 29.0481 89.0147 29.0699 89.1648 29.0451C89.4936 28.9851 89.5248 28.6899 89.4864 28.4331C89.463 28.2964 89.4243 28.1628 89.3712 28.0347C89.0029 28.2965 88.5606 28.4335 88.1088 28.4259Z" fill="#263238"/>
<path d="M88.7232 28.9825C88.8605 29.048 89.0147 29.0697 89.1648 29.0449C89.4936 28.9849 89.5248 28.6897 89.4864 28.4329C89.3159 28.4253 89.1478 28.4754 89.0093 28.5751C88.8708 28.6748 88.77 28.8184 88.7232 28.9825Z" fill="#FF98B9"/>
<path d="M96.3264 25.6611C95.6184 25.6827 93.6096 23.9163 93.2448 20.5227C93.2448 20.5227 93.7848 23.5467 94.0536 23.9715C94.3224 24.3963 92.9304 22.9755 92.5968 20.2443C92.5968 20.2443 91.1808 21.4779 89.9184 21.9579C88.656 22.4379 87.8664 22.5003 87.7584 22.4139C87.6504 22.3275 89.5056 21.5547 89.9664 20.9163C89.9664 20.9163 86.6712 22.8363 85.0968 23.0955C84.9144 23.1243 85.2216 20.2899 87.528 18.4659C89.8344 16.6419 93.0048 17.0979 94.1424 18.0099C94.1424 18.0099 95.3856 18.0747 96.8832 19.7667C98.3808 21.4587 97.0872 25.6371 96.3264 25.6611Z" fill="#263238"/>
<path d="M95.3928 26.6977C95.3928 26.6977 96.7104 24.6025 97.6536 25.0633C98.5968 25.5241 97.6776 28.5121 96.6192 28.9657C96.4875 29.0338 96.3433 29.0744 96.1954 29.0852C96.0476 29.096 95.899 29.0767 95.7588 29.0285C95.6186 28.9802 95.4896 28.9041 95.3797 28.8046C95.2698 28.7051 95.1811 28.5844 95.1192 28.4497L95.3928 26.6977Z" fill="#EB9481"/>
<path d="M97.3681 25.9199C97.3873 25.9199 97.3897 25.9415 97.3681 25.9487C96.6265 26.2919 96.264 27.0143 96.0192 27.7559C96.2328 27.4631 96.5304 27.2951 96.9192 27.5447C96.9384 27.5567 96.9193 27.5903 96.9001 27.5855C96.7665 27.5529 96.6261 27.5615 96.4975 27.6104C96.369 27.6592 96.2582 27.746 96.18 27.8591C96.0506 28.0531 95.9413 28.2598 95.8537 28.4759C95.8225 28.5455 95.6976 28.5167 95.7216 28.4375C95.7206 28.4312 95.7206 28.4247 95.7216 28.4183C95.6544 27.4487 96.3385 26.0615 97.3681 25.9199Z" fill="#263238"/>
<path d="M99.396 37.3369C102.055 40.4065 109.51 51.5185 107.782 54.5209C106.123 57.4009 102.362 58.2121 100.198 54.3433C98.64 51.5761 96.0216 43.3201 95.3712 39.3601C94.8432 36.1537 96.9384 34.4977 99.396 37.3369Z" fill="#EB9481"/>
<path d="M96.912 47.1748L105.725 43.9372C105.725 43.9372 100.778 37.1668 98.5008 35.878C96.2232 34.5892 94.3272 35.3668 95.0232 39.7852C95.3978 42.3066 96.0308 44.7828 96.912 47.1748Z" fill="#FF9385"/>
<path d="M104.16 42.6797C103.68 42.8357 103.2 42.9605 102.72 43.1237C102.24 43.2869 101.779 43.4525 101.314 43.6277C100.37 43.9781 99.4296 44.3285 98.496 44.7053C97.9728 44.9165 97.4496 45.1445 96.9384 45.3845C96.9144 45.3845 96.924 45.4349 96.9384 45.4277C98.8584 44.8757 100.721 44.1413 102.574 43.4093C103.111 43.1957 103.627 42.9293 104.158 42.7157C104.194 42.7061 104.177 42.6725 104.16 42.6797Z" fill="#263238"/>
<path d="M97.4088 46.9685C97.2343 47.0071 97.0633 47.06 96.8976 47.1269C96.6576 46.6061 96.0888 44.3165 95.9568 43.7285C95.6928 42.5573 95.4768 41.3741 95.2008 40.2029C95.2008 40.1693 95.136 40.1789 95.1408 40.2029C95.2224 40.8533 95.3232 41.5013 95.436 42.1445C95.316 41.8373 95.196 41.5277 95.1024 41.2133C95.1034 41.2111 95.1038 41.2087 95.1036 41.2063C95.1034 41.204 95.1026 41.2017 95.1012 41.1997C95.0999 41.1977 95.0981 41.196 95.096 41.1949C95.0939 41.1937 95.0916 41.1931 95.0892 41.1931C95.0868 41.1931 95.0845 41.1937 95.0824 41.1949C95.0803 41.196 95.0785 41.1977 95.0772 41.1997C95.0758 41.2017 95.0751 41.204 95.0748 41.2063C95.0746 41.2087 95.075 41.2111 95.076 41.2133C95.1851 41.6038 95.319 41.987 95.4768 42.3605C95.5704 43.5605 96.6624 47.3741 96.6936 47.3597C96.9405 47.2477 97.1809 47.1219 97.4136 46.9829C97.44 46.9901 97.44 46.9661 97.4088 46.9685Z" fill="#263238"/>
<path d="M93.0504 24.3767L90.5424 35.0831C90.4344 35.3975 90.5952 35.6495 90.9024 35.6447L95.6904 36.6191C95.8581 36.6037 96.0181 36.541 96.1515 36.4381C96.285 36.3353 96.3864 36.1966 96.444 36.0383L98.952 25.3319C99.06 25.0175 98.8992 24.7655 98.592 24.7727L93.804 23.7959C93.6362 23.8113 93.4763 23.874 93.3428 23.9769C93.2094 24.0797 93.1079 24.2184 93.0504 24.3767Z" fill="#A6A6A6"/>
<path d="M93.4608 24.4372L90.96 35.1436C90.852 35.458 91.0128 35.71 91.32 35.7052L96.108 36.6796C96.2755 36.6645 96.4352 36.6021 96.5686 36.4997C96.702 36.3973 96.8036 36.2591 96.8616 36.1012L99.36 25.3948C99.468 25.078 99.3072 24.8284 99 24.8332L94.2144 23.8564C94.0469 23.8726 93.8873 23.9357 93.754 24.0384C93.6207 24.1412 93.5191 24.2794 93.4608 24.4372Z" fill="#DBDBDB"/>
<path d="M94.9776 24.8979C94.9799 24.9939 94.9534 25.0884 94.9015 25.1692C94.8496 25.25 94.7746 25.3134 94.6863 25.3511C94.598 25.3888 94.5003 25.3992 94.4061 25.3809C94.3118 25.3625 94.2252 25.3163 94.1574 25.2482C94.0897 25.1801 94.044 25.0933 94.0261 24.9989C94.0082 24.9046 94.0191 24.807 94.0573 24.7189C94.0955 24.6307 94.1592 24.5561 94.2403 24.5046C94.3213 24.4531 94.416 24.427 94.512 24.4299C94.6357 24.4305 94.7541 24.4801 94.8414 24.5678C94.9286 24.6555 94.9776 24.7742 94.9776 24.8979Z" fill="#263238"/>
<path d="M101.477 55.313C103.034 58.193 107.158 56.5514 107.782 54.521C109.246 49.757 108.338 41.837 107.465 37.4138C107.184 35.9906 97.5168 37.4138 97.5744 38.9522C97.6416 40.8122 98.424 49.649 101.477 55.313Z" fill="#EB9481"/>
<path d="M107.357 39.5285C107.844 37.4298 107.873 35.2508 107.443 33.1397C106.934 30.8381 105.271 25.9565 98.5848 23.7797C96.9984 23.2613 94.3704 23.6477 96.6648 25.4333C98.2872 26.7029 99.6984 27.0173 100.505 27.9293C100.505 27.9293 97.2216 28.8173 96.7656 30.4253C96.3664 31.8328 96.0672 33.2668 95.8704 34.7165C96.1275 34.8129 96.3905 34.893 96.6576 34.9565C96.5166 36.3565 96.8423 37.7639 97.584 38.9597L107.357 39.5285Z" fill="#EB9481"/>
<path d="M106.606 31.0202C105.612 30.3002 103.486 28.769 101.304 28.1402C98.8848 27.4202 94.0392 26.7242 93.5352 28.5122C93.1656 29.825 94.992 30.2594 94.992 30.2594C94.992 30.2594 92.928 30.389 92.8536 31.6466C92.7864 32.7938 94.2192 33.0458 94.2192 33.0458C94.2192 33.0458 92.9808 33.3386 93.1272 34.457C93.3048 35.7986 95.8752 34.9634 97.2312 36.1682C97.536 36.4322 106.606 31.0202 106.606 31.0202Z" fill="#EB9481"/>
<path d="M100.982 30.8117C99.936 30.2741 97.2432 29.6669 95.0304 30.2165C94.98 30.2165 94.9632 30.2717 95.0112 30.2717C97.0154 30.2176 99.0187 30.4062 100.978 30.8333C100.99 30.8381 100.994 30.8165 100.982 30.8117Z" fill="#263238"/>
<path d="M100.2 33.2308C99.24 32.8612 96.444 32.3572 94.2216 32.9908C94.1712 33.0052 94.1568 33.0508 94.2048 33.0484C96.2061 32.8885 98.2191 32.9577 100.205 33.2548C100.208 33.2541 100.211 33.2523 100.213 33.2495C100.214 33.2468 100.215 33.2435 100.214 33.2404C100.214 33.2372 100.212 33.2344 100.209 33.2326C100.206 33.2308 100.203 33.2301 100.2 33.2308Z" fill="#263238"/>
<path d="M100.594 53.3068C100.522 53.0668 100.452 52.8268 100.375 52.6084C100.217 52.1284 100.08 51.6484 99.9408 51.1684C99.6576 50.2084 99.3864 49.234 99.1488 48.2548C98.6746 46.3031 98.3148 44.3253 98.0712 42.3316C98.004 41.7796 97.9464 41.2276 97.8864 40.6756C97.8264 40.1236 97.8072 39.55 97.7016 38.9956C97.7016 38.9668 97.4208 38.5444 97.3104 38.3356C97.1958 38.1184 97.0956 37.8939 97.0104 37.6636C96.831 37.1937 96.7093 36.7037 96.648 36.2044C96.6467 36.2013 96.6446 36.1986 96.6418 36.1967C96.639 36.1949 96.6357 36.1938 96.6324 36.1938C96.629 36.1938 96.6257 36.1949 96.623 36.1967C96.6202 36.1986 96.618 36.2013 96.6168 36.2044C96.5856 36.7726 96.6572 37.3417 96.828 37.8844C96.9759 38.3384 97.2311 38.7501 97.572 39.0844C97.572 39.1564 97.5888 40.0444 97.6176 40.5412C97.6464 41.038 97.692 41.5348 97.7472 42.0292C97.86 43.0228 97.9992 44.014 98.1744 45.0004C98.5168 46.9958 98.9931 48.9658 99.6 50.8972C99.6 50.9284 99.6216 50.9596 99.6312 50.9908C99.6312 51.0628 99.6312 51.1348 99.6312 51.2068C99.6347 51.3843 99.6492 51.5615 99.6744 51.7372C99.7236 52.0869 99.8097 52.4304 99.9312 52.762C99.9301 52.7649 99.9297 52.768 99.9301 52.7711C99.9305 52.7742 99.9317 52.7771 99.9334 52.7797C99.9352 52.7822 99.9375 52.7843 99.9403 52.7857C99.943 52.7871 99.9461 52.7879 99.9492 52.7879C99.9523 52.7879 99.9553 52.7871 99.9581 52.7857C99.9608 52.7843 99.9632 52.7822 99.9649 52.7797C99.9667 52.7771 99.9678 52.7742 99.9682 52.7711C99.9686 52.768 99.9683 52.7649 99.9672 52.762C99.882 52.4151 99.8243 52.062 99.7944 51.706L99.7512 51.3412C99.8832 51.73 100.022 52.1188 100.159 52.5052C100.255 52.774 100.354 53.0356 100.464 53.2972C100.574 53.5588 100.661 53.8132 100.79 54.0556C100.79 54.0748 100.829 54.0556 100.824 54.0412C100.764 53.7844 100.668 53.5492 100.594 53.3068Z" fill="#263238"/>
<path d="M70.6752 61.8194V55.3682L63.3432 61.8194H70.6752Z" fill="#EBEBEB"/>
<path d="M32.9928 75.4968C35.1048 84.6864 39.4728 95.7024 41.3376 97.4904C43.6968 99.7512 59.304 103.898 60.0816 103.982C62.0016 104.177 65.8728 90.3024 63.8184 90.0024C60.6984 89.5512 49.332 88.9344 48.6528 88.236C47.9736 87.5376 43.1496 81.456 38.22 74.6232C34.8168 69.9024 31.68 69.7944 32.9928 75.4968Z" fill="#AD6359"/>
<path d="M58.536 103.234C58.764 103.349 62.0256 104.99 64.0416 105.574C65.5464 106.01 69.9096 107.15 70.5552 105.54C70.9968 104.446 68.508 103.474 66.7656 102.746C65.8464 102.362 64.7136 101.402 64.9848 100.812C65.4648 99.78 67.824 100.812 69.3792 101.719C72.3864 103.466 76.392 106.613 78.228 105.079C78.9216 104.503 78.1152 103.452 76.9368 102.422C78.8568 103.622 80.892 104.606 81.6864 103.997C82.1448 103.649 82.1664 103.171 81.912 102.629C82.5024 102.821 83.0232 102.782 83.388 102.389C84.0096 101.736 83.7072 100.776 83.0256 99.7896C83.1426 99.7776 83.255 99.7377 83.3535 99.6734C83.452 99.6091 83.5338 99.5223 83.592 99.42C84.9096 97.4112 78.312 91.6441 76.0344 91.1041C69.3264 89.5081 62.256 89.8056 62.256 89.8056C59.6208 91.92 58.5288 103.229 58.536 103.234Z" fill="#AD6359"/>
<path d="M68.4 97.0582C69.9972 97.3076 71.523 97.8942 72.876 98.779C74.5776 99.9022 75.7056 101.217 77.1312 102.54C77.1368 102.547 77.1397 102.556 77.1394 102.566C77.139 102.575 77.1354 102.584 77.1292 102.591C77.123 102.598 77.1146 102.603 77.1053 102.605C77.096 102.606 77.0865 102.604 77.0784 102.6C76.3992 101.971 73.5816 99.6046 72.8544 99.067C71.539 98.0772 70.0158 97.3993 68.4 97.0846C68.3784 97.0822 68.3832 97.0534 68.4 97.0582Z" fill="#263238"/>
<path d="M69.6504 94.2095C71.4144 94.6895 73.2216 95.1695 74.8584 96.0143C76.6488 96.9263 78.0504 98.4143 79.4184 99.8543C80.2472 100.713 81.056 101.593 81.8448 102.494C81.876 102.533 81.8256 102.593 81.792 102.554C80.3936 101.076 78.9536 99.6359 77.472 98.2343C76.1007 96.9327 74.4858 95.9148 72.72 95.2391C71.712 94.8527 70.6752 94.5479 69.6384 94.2407C69.624 94.2359 69.6312 94.2047 69.6504 94.2095Z" fill="#263238"/>
<path d="M71.5344 91.721C73.248 92.0738 74.7432 92.3738 76.26 93.2906C78.2688 94.5074 80.208 96.5546 80.8872 97.2818C81.6384 98.0834 82.3632 98.909 83.0736 99.7466C83.1024 99.7802 83.0448 99.833 83.0136 99.7994C81.3855 97.9629 79.6403 96.2336 77.7888 94.6226C76.9178 93.8426 75.9319 93.2015 74.8656 92.7218C73.7847 92.2975 72.6694 91.9667 71.532 91.733C71.532 91.733 71.52 91.7186 71.5344 91.721Z" fill="#263238"/>
<path d="M61.176 89.2535L56.376 104.46C56.376 104.46 43.38 100.749 41.016 98.1887C38.652 95.6278 34.2576 82.4038 32.9688 75.9934C31.68 69.583 34.92 69.7534 37.8984 73.783C40.8768 77.8126 48.2928 87.619 48.6984 87.8326C49.104 88.0462 61.176 89.2535 61.176 89.2535Z" fill="#FF9385"/>
<path opacity="0.1" d="M61.176 89.2535L56.376 104.46C56.376 104.46 43.38 100.749 41.016 98.1887C38.652 95.6278 34.2576 82.4038 32.9688 75.9934C31.68 69.583 34.92 69.7534 37.8984 73.783C40.8768 77.8126 48.2928 87.619 48.6984 87.8326C49.104 88.0462 61.176 89.2535 61.176 89.2535Z" fill="black"/>
<path d="M55.128 97.7038C55.7112 95.911 56.3064 94.1229 56.82 92.3085C57.1128 91.2789 57.4104 90.247 57.6936 89.215C57.7056 89.1742 57.6408 89.1525 57.6264 89.1909C56.9712 90.967 56.3184 92.7502 55.7448 94.555C55.1712 96.3598 54.588 98.155 54.0408 99.9478C53.7312 100.975 53.4504 102.007 53.2032 103.051C53.2032 103.07 53.232 103.082 53.2392 103.063C53.9544 101.309 54.5424 99.5086 55.128 97.7038Z" fill="#263238"/>
<path d="M49.8216 102.37L49.2456 102.168C48.1632 101.782 47.0592 101.366 46.02 100.942C45.8856 100.889 45.7536 100.834 45.624 100.778C45.4152 100.692 45.2064 100.603 45.0048 100.514L44.7024 100.382L44.5944 100.334L44.2824 100.19C43.8696 100.001 43.4784 99.8112 43.1136 99.6192L42.8736 99.4848C42.3033 99.1914 41.7659 98.8382 41.2704 98.4312C41.2248 98.3904 41.1792 98.3496 41.1384 98.3088C41.0976 98.268 41.0544 98.2272 41.0184 98.1888C38.6424 95.628 34.26 82.404 32.9712 75.9936L32.928 75.7728V75.7248C32.8416 75.2448 32.7648 74.6352 32.7024 73.9824C32.5224 70.7928 34.032 70.272 35.8968 71.6736C40.5456 81.6504 47.6664 98.136 49.8216 102.37Z" fill="#263238"/>
<path d="M43.08 104.923L14.76 105.072C14.784 104.462 18.816 86.6303 22.0224 80.0495C26.1336 71.6111 28.2624 70.9295 29.5176 70.4783C31.1376 69.8975 34.0224 70.1855 34.7064 70.5095C35.484 70.8719 37.956 75.1871 38.8416 78.3527C40.6128 84.7199 43.4784 104.534 43.08 104.923Z" fill="#EBEBEB"/>
<path d="M28.0656 71.1455C28.0656 71.1455 31.6656 84.4775 31.8456 85.3631C32.1168 86.6495 33.912 105.005 33.912 105.005L14.172 105.072C14.172 105.072 18.48 88.0799 21.6864 80.6399C25.1856 72.4799 28.0656 71.1455 28.0656 71.1455Z" fill="#FF9385"/>
<g opacity="0.1">
<path opacity="0.1" d="M28.0656 71.1455C28.0656 71.1455 31.6656 84.4775 31.8456 85.3631C32.1168 86.6495 33.912 105.005 33.912 105.005L14.172 105.072C14.172 105.072 18.48 88.0799 21.6864 80.6399C25.1856 72.4799 28.0656 71.1455 28.0656 71.1455Z" fill="black"/>
</g>
<path d="M34.9656 70.7158C35.0712 71.1406 38.3904 81.9718 38.6208 84.6718C38.8776 87.667 41.148 105.072 41.148 105.072H44.028C44.028 105.072 39.8592 80.0662 38.7144 77.4238C36.372 72.031 34.9656 70.7158 34.9656 70.7158Z" fill="#FF9385"/>
<path opacity="0.1" d="M34.9656 70.7158C35.0712 71.1406 38.3904 81.9718 38.6208 84.6718C38.8776 87.667 41.148 105.072 41.148 105.072H44.028C44.028 105.072 39.8592 80.0662 38.7144 77.4238C36.372 72.031 34.9656 70.7158 34.9656 70.7158Z" fill="black"/>
<path d="M24.3384 74.2634C19.596 79.3442 8.0664 98.621 11.724 102.137C15.3816 105.653 35.688 100.92 41.3904 98.201C43.0872 97.3946 36.6408 86.8154 34.6464 86.5682C32.9856 86.3642 24.4992 90.245 24.252 89.7578C23.976 89.2058 25.3248 85.133 27.372 77.7578C29.7216 69.257 26.436 72.017 24.3384 74.2634Z" fill="#AD6359"/>
<path d="M43.0752 83.1554C47.1984 82.5794 48.3552 83.0666 51.5688 80.7338C53.6832 79.2026 55.5696 79.8962 54.3624 82.3274C52.3896 86.3066 47.2248 88.1642 45.2424 88.2938L43.0752 83.1554Z" fill="#AD6359"/>
<path d="M32.1216 87.1199C32.1216 87.1199 36.756 84.5471 41.0904 83.5007C44.0856 82.7807 50.7816 81.9287 57.1896 88.5407C58.7088 90.1079 59.7624 93.4199 56.352 91.7615C53.928 90.5831 52.752 89.1047 51.2136 88.6751C51.2136 88.6751 52.0536 93.0455 50.424 94.5071C48.9997 95.7843 47.4863 96.9585 45.8952 98.0207C45.6336 97.7745 45.3882 97.5115 45.1608 97.2335C45.1608 97.2335 43.5096 98.4551 40.404 98.1575L32.1216 87.1199Z" fill="#AD6359"/>
<path d="M44.0616 83.2803C45.5016 84.0267 48.504 85.6611 50.5008 87.8547C52.7208 90.2931 56.3376 95.5827 54.5208 97.2147C53.1912 98.4027 51.6408 96.4947 51.6408 96.4947C51.6408 96.4947 52.6752 98.9979 51.2376 99.8067C49.9296 100.546 48.8112 99.0051 48.8112 99.0051C48.8112 99.0051 49.1784 100.63 47.7792 101.098C46.0992 101.659 45.6048 98.1603 43.4088 97.2579C42.9072 97.0419 44.0616 83.2803 44.0616 83.2803Z" fill="#AD6359"/>
<path d="M47.5368 89.7603C48.768 90.6843 51.0288 93.4995 51.6528 96.4154C51.6672 96.4826 51.6264 96.5282 51.6 96.4706C50.5158 94.0841 49.1458 91.838 47.52 89.7819C47.5008 89.7603 47.52 89.7603 47.5368 89.7603Z" fill="#263238"/>
<path d="M45.1416 92.071C46.1232 92.9782 48.324 95.983 48.8544 98.9614C48.8664 99.0286 48.8208 99.0718 48.7992 99.0118C47.8382 96.573 46.6039 94.251 45.12 92.0902C45.1056 92.0758 45.12 92.059 45.1416 92.071Z" fill="#263238"/>
<path d="M51.2136 88.6465C52.5576 89.0425 53.4312 89.7025 54.5736 90.4897C55.1297 90.8871 55.7074 91.2533 56.304 91.5865C56.8512 91.8817 57.66 92.3281 58.2408 91.8649C58.5672 91.6081 58.5624 91.1449 58.4808 90.7681C58.3167 90.2227 58.0672 89.7067 57.7416 89.2393C57.7416 89.2201 57.7584 89.1985 57.7728 89.2153C58.0872 89.6412 58.3574 90.098 58.5792 90.5785C58.7245 90.9079 58.7672 91.2734 58.7016 91.6273C58.5024 92.3665 57.6288 92.465 57.0216 92.261C56.6536 92.1257 56.2999 91.9545 55.9656 91.7497C55.6392 91.5625 55.3224 91.3609 55.0056 91.1497C54.3672 90.7177 53.7552 90.2497 53.1216 89.8105C52.506 89.3973 51.8647 89.0237 51.2016 88.6921C51.1966 88.6897 51.1925 88.6856 51.1902 88.6806C51.1878 88.6755 51.1873 88.6698 51.1887 88.6644C51.1902 88.659 51.1934 88.6542 51.198 88.651C51.2025 88.6477 51.208 88.6462 51.2136 88.6465Z" fill="#263238"/>
<path d="M54.0288 93.3745C53.6808 92.6089 51.7968 89.4169 51.1872 88.6777C51.185 88.674 51.184 88.6697 51.1845 88.6654C51.185 88.6611 51.187 88.6571 51.19 88.6541C51.1931 88.651 51.197 88.6491 51.2013 88.6486C51.2056 88.6481 51.2099 88.649 51.2136 88.6513C52.2624 89.6449 53.9448 92.2825 54.3336 93.1273C54.7224 93.9721 55.1688 95.0305 55.1688 95.9593C55.1688 97.3633 54.2376 97.6393 53.8944 97.6993C53.4837 97.7736 53.0599 97.7041 52.6944 97.5025C52.2668 97.2413 51.8976 96.8949 51.6096 96.4849C51.5952 96.4657 51.6216 96.4393 51.6384 96.4585C52.1184 97.0129 52.9344 97.5577 53.6952 97.4569C53.864 97.4409 54.0278 97.3913 54.177 97.3109C54.3263 97.2305 54.4579 97.121 54.564 96.9889C54.772 96.6512 54.852 96.2501 54.7896 95.8585C54.6774 94.9936 54.4202 94.1538 54.0288 93.3745Z" fill="#263238"/>
<path d="M32.1216 87.1198L38.6208 100.8C38.6208 100.8 13.2 106.507 11.0064 102.081C8.81279 97.6558 18.6864 80.3374 23.1336 75.2926C28.2912 69.4462 28.9488 71.4358 27.8136 76.6174C26.6136 82.0414 24.3264 89.8846 24.3264 89.8846L32.1216 87.1198Z" fill="#FF9385"/>
<path opacity="0.1" d="M32.1216 87.1198L38.6208 100.8C38.6208 100.8 13.2 106.507 11.0064 102.081C8.81279 97.6558 18.6864 80.3374 23.1336 75.2926C28.2912 69.4462 28.9488 71.4358 27.8136 76.6174C26.6136 82.0414 24.3264 89.8846 24.3264 89.8846L32.1216 87.1198Z" fill="black"/>
<path d="M16.6008 93.5257C18.9455 91.8972 21.5203 90.628 24.24 89.76C25.0104 89.52 25.788 89.292 26.5656 89.0688C26.5896 89.0688 26.5992 89.1 26.5656 89.1072C25.2093 89.5461 23.8799 90.0638 22.584 90.6576C21.2896 91.2336 20.0096 91.8329 18.744 92.4553C18.024 92.8081 17.3232 93.1945 16.6176 93.5713C16.6128 93.5702 16.6084 93.568 16.6048 93.5648C16.6011 93.5617 16.5983 93.5576 16.5967 93.5531C16.595 93.5485 16.5945 93.5436 16.5952 93.5388C16.5959 93.534 16.5978 93.5295 16.6008 93.5257Z" fill="#263238"/>
<path d="M32.0544 87.0838C31.9272 87.1174 24.9744 89.4142 24.7464 89.5198C24.7752 89.4142 26.0232 85.7182 26.2104 85.1758C26.2272 85.123 26.244 85.0678 26.2632 85.015C26.388 84.775 26.5176 84.535 26.6352 84.295C26.784 83.9806 26.9328 83.6614 27.0792 83.335H27.0648L26.5848 84.2638C26.5104 84.4054 26.4408 84.5518 26.3712 84.6982C26.4936 84.3166 26.6112 83.9326 26.7288 83.5462C26.916 82.9342 27.084 82.315 27.2496 81.6958C27.2496 81.6742 27.2256 81.6694 27.2184 81.6958C26.8488 82.7734 26.4456 83.839 26.0736 84.9166C25.7016 85.9942 24.2712 89.9566 24.2832 89.9566C24.2952 89.9566 31.9392 87.2542 32.088 87.1942C32.0952 87.192 32.1019 87.1884 32.1078 87.1836C32.1137 87.1787 32.1185 87.1728 32.1221 87.1661C32.1256 87.1594 32.1278 87.1521 32.1286 87.1446C32.1293 87.137 32.1286 87.1294 32.1264 87.1222C32.1242 87.1149 32.1205 87.1082 32.1157 87.1023C32.1109 87.0965 32.105 87.0916 32.0983 87.0881C32.0916 87.0845 32.0843 87.0823 32.0768 87.0816C32.0692 87.0808 32.0616 87.0816 32.0544 87.0838Z" fill="#263238"/>
<path d="M32.5224 96.0002C31.8024 94.4762 31.104 92.9426 30.3336 91.4402C29.8944 90.5882 29.46 89.7338 29.0136 88.8866C28.9968 88.8554 28.9392 88.8866 28.9536 88.913C29.6112 90.473 30.2736 92.033 31.0032 93.5666C31.7328 95.1002 32.4432 96.6146 33.1848 98.1266C33.6072 98.9858 34.056 99.8314 34.5312 100.663C34.5312 100.68 34.5696 100.663 34.5624 100.663C33.9576 99.0746 33.2448 97.541 32.5224 96.0002Z" fill="#263238"/>
<path d="M38.9496 101.011C38.6952 100.589 38.3736 99.9839 38.1024 99.5711C38.0304 99.4631 37.9464 99.4847 38.004 99.5975C38.1984 99.9815 38.3592 100.411 38.5488 100.797C38.1936 100.869 37.8288 100.932 37.4784 101.006C37.0656 101.093 36.6552 101.181 36.2424 101.265C35.4328 101.425 34.6232 101.585 33.8136 101.745C32.172 102.051 30.524 102.32 28.8696 102.552C25.5552 103.037 22.218 103.35 18.8712 103.49C17.9352 103.524 16.9968 103.541 16.0608 103.529C15.1375 103.531 14.2147 103.486 13.296 103.394C13.2696 103.394 13.2648 103.435 13.296 103.44C14.0865 103.607 14.889 103.711 15.696 103.752C16.5432 103.793 17.3928 103.812 18.2424 103.802C19.9224 103.783 21.6192 103.673 23.3016 103.519C26.6376 103.212 29.964 102.761 33.2616 102.177C34.1864 102.017 35.1088 101.844 36.0288 101.657C36.4944 101.563 36.9576 101.469 37.4208 101.366C37.884 101.263 38.9928 101.083 38.9496 101.011Z" fill="#263238"/>
<path d="M34.9704 75.6911C33.2904 76.1543 30.2832 73.6703 29.0544 71.6111C28.9704 71.4695 29.136 69.9431 29.2488 68.0783C29.3136 66.9479 29.3568 65.6783 29.3136 64.5311C29.3136 64.2911 36.6168 66.0239 36.6168 66.0239C36.6168 66.0239 35.9928 68.4671 36.0792 70.4783C36.0868 70.64 36.1093 70.8007 36.1464 70.9583C36.153 70.9835 36.1578 71.0092 36.1608 71.0351C36.3408 71.9255 36.5952 75.2423 34.9704 75.6911Z" fill="#AD6359"/>
<path d="M29.76 64.5601C30.168 66.4993 31.5552 71.1672 35.4192 71.112C35.667 71.1096 35.9142 71.0872 36.1584 71.0448C36.1614 71.0185 36.1614 70.992 36.1584 70.9657C36.1228 70.8077 36.0995 70.6472 36.0888 70.4857C36.0048 68.4721 36.6264 66.0265 36.6264 66.0265C36.6264 66.0265 31.3416 64.7785 29.76 64.5601Z" fill="#263238"/>
<path d="M37.488 61.0681C37.4064 62.8392 38.6016 64.332 40.1568 64.404C41.712 64.476 43.0367 63.0936 43.1159 61.3224C43.1951 59.5513 41.9999 58.0585 40.4471 57.9889C38.8944 57.9193 37.5672 59.2969 37.488 61.0681Z" fill="#455A64"/>
<path d="M42.8306 61.4203C42.9198 59.45 41.5901 57.7894 39.8608 57.7111C38.1315 57.6329 36.6574 59.1667 36.5682 61.137C36.4791 63.1073 37.8087 64.768 39.5381 64.8462C41.2674 64.9245 42.7415 63.3906 42.8306 61.4203Z" fill="#C7C7C7"/>
<path d="M30.2664 55.3416C29.0088 57.7128 28.9296 65.2512 30.408 67.224C32.5512 70.08 36.7632 71.1288 39.36 68.4C41.8872 65.7456 41.8152 55.92 40.0992 54.0552C37.5768 51.3024 32.124 51.84 30.2664 55.3416Z" fill="#AD6359"/>
<path d="M36.5352 61.1687C36.5352 61.1495 36.4944 61.1951 36.4968 61.2167C36.5232 61.7231 36.4704 62.3087 36.0168 62.4863C36.0024 62.4863 36.0048 62.5175 36.0168 62.5151C36.5784 62.4239 36.6408 61.6463 36.5352 61.1687Z" fill="#263238"/>
<path d="M36.0696 60.6503C35.2512 60.6071 35.2248 62.2463 35.9808 62.2847C36.7368 62.3231 36.756 60.6863 36.0696 60.6503Z" fill="#263238"/>
<path d="M39.3768 61.2312C39.3768 61.212 39.4152 61.2576 39.4152 61.2768C39.3912 61.7856 39.4488 62.3712 39.8952 62.5464C39.9096 62.5464 39.8952 62.5776 39.8952 62.5752C39.3408 62.4864 39.2712 61.7088 39.3768 61.2312Z" fill="#263238"/>
<path d="M39.84 60.7199C40.656 60.6695 40.6944 62.3087 39.936 62.3543C39.1776 62.3999 39.1536 60.7487 39.84 60.7199Z" fill="#263238"/>
<path d="M35.3352 59.3399C35.5752 59.3279 35.7744 59.2775 36.0024 59.2439C36.2429 59.2393 36.4751 59.1549 36.6624 59.0039C36.7126 58.9461 36.7422 58.8733 36.7466 58.7968C36.7509 58.7204 36.7297 58.6446 36.6864 58.5815C36.5814 58.4711 36.4489 58.3906 36.3026 58.3484C36.1562 58.3063 36.0012 58.3039 35.8536 58.3415C35.5408 58.3664 35.2488 58.5077 35.0352 58.7375C34.9904 58.7926 34.9625 58.8594 34.9547 58.9299C34.9469 59.0005 34.9596 59.0718 34.9912 59.1353C35.0228 59.1988 35.0721 59.2519 35.1331 59.2882C35.1941 59.3245 35.2642 59.3424 35.3352 59.3399Z" fill="#263238"/>
<path d="M40.6104 59.5202C40.3913 59.472 40.175 59.4119 39.9624 59.3402C39.7263 59.3117 39.5062 59.2063 39.336 59.0402C39.293 58.9768 39.2722 58.9009 39.277 58.8245C39.2818 58.748 39.3118 58.6753 39.3624 58.6178C39.4798 58.5194 39.6212 58.454 39.7722 58.4283C39.9232 58.4026 40.0783 58.4174 40.2216 58.4714C40.5285 58.5359 40.8005 58.7121 40.9848 58.9658C41.0207 59.026 41.0388 59.0953 41.0368 59.1654C41.0348 59.2356 41.0129 59.3037 40.9736 59.3618C40.9344 59.42 40.8794 59.4657 40.815 59.4938C40.7507 59.5218 40.6798 59.531 40.6104 59.5202Z" fill="#263238"/>
<path d="M35.6088 65.8751C35.7288 65.9951 35.8488 66.1607 36.0312 66.1799C36.22 66.1782 36.4063 66.1373 36.5784 66.0599C36.5819 66.0591 36.5854 66.0594 36.5888 66.0605C36.5921 66.0617 36.595 66.0638 36.5972 66.0665C36.5995 66.0692 36.6009 66.0725 36.6014 66.076C36.6019 66.0795 36.6014 66.083 36.6 66.0863C36.5264 66.1854 36.4272 66.2625 36.313 66.3095C36.1988 66.3564 36.074 66.3713 35.952 66.3527C35.8488 66.3238 35.7565 66.2651 35.6865 66.184C35.6165 66.1029 35.5719 66.0029 35.5584 65.8967C35.5512 65.8679 35.5896 65.8559 35.6088 65.8751Z" fill="#263238"/>
<path d="M36.168 64.3631C36.2933 64.566 36.4593 64.7407 36.6555 64.8761C36.8517 65.0116 37.0739 65.105 37.308 65.1503C37.5121 65.1939 37.7215 65.2076 37.9295 65.1911C37.9698 65.1896 38.0098 65.1856 38.0495 65.1791L38.16 65.1623C38.1871 65.1578 38.2121 65.1446 38.2312 65.1247C38.2502 65.1048 38.2623 65.0793 38.2656 65.0519C38.2667 65.0343 38.2667 65.0167 38.2656 64.9991V64.9535C38.2824 64.5623 38.2656 63.9671 38.2656 63.9671C38.4072 64.0415 39.1319 64.3823 39.1223 64.1783C39.0503 62.4839 38.9688 60.6023 38.5392 58.9343C38.5367 58.9237 38.5308 58.9142 38.5223 58.9074C38.5138 58.9007 38.5032 58.897 38.4923 58.897C38.4815 58.897 38.4709 58.9007 38.4624 58.9074C38.4539 58.9142 38.448 58.9237 38.4456 58.9343C38.4456 60.5639 38.7432 62.1815 38.7744 63.8183C38.5174 63.694 38.2443 63.606 37.9631 63.5567C37.9079 63.5735 38.0375 64.7063 38.0159 64.8815C38.0165 64.8879 38.0165 64.8943 38.0159 64.9007C37.356 64.9727 36.864 64.7663 36.2352 64.3151C36.1776 64.2887 36.1368 64.3199 36.168 64.3631Z" fill="#263238"/>
<path d="M37.7016 64.9871C37.4833 65.2634 37.1972 65.4783 36.8712 65.6111C36.6912 65.6777 36.495 65.6869 36.3096 65.6375C35.9064 65.5223 35.9016 65.1575 35.9808 64.8335C36.025 64.6667 36.0887 64.5056 36.1704 64.3535C36.6003 64.7224 37.1367 64.9444 37.7016 64.9871Z" fill="#263238"/>
<path d="M36.8712 65.6111C36.6912 65.6777 36.495 65.6869 36.3096 65.6375C35.9064 65.5223 35.9016 65.1575 35.9808 64.8335C36.4152 64.8863 36.84 65.1887 36.8712 65.6111Z" fill="#FF98B9"/>
<path opacity="0.2" d="M29.3232 60.6648C29.8176 60.5856 31.0032 58.9128 31.5048 58.248C32.0064 57.5832 32.2968 54.0192 32.3424 53.208C31.4622 53.7057 30.7415 54.4431 30.264 55.3344C29.7024 56.4 29.3784 58.4952 29.3232 60.6648Z" fill="#263238"/>
<path d="M38.4744 56.16C38.1813 56.4815 37.811 56.7228 37.3985 56.8609C36.9861 56.9991 36.5452 57.0297 36.1176 56.9496C35.6813 56.8693 35.2727 56.6788 34.9308 56.3961C34.5888 56.1134 34.3249 55.7479 34.164 55.3344C34.164 55.308 34.116 55.3224 34.1256 55.3464C34.2554 55.7968 34.5057 56.2032 34.8496 56.5217C35.1935 56.8402 35.6178 57.0587 36.0768 57.1536C36.5328 57.2225 36.999 57.1701 37.4283 57.0015C37.8576 56.833 38.235 56.5544 38.5224 56.1936C38.524 56.1875 38.5237 56.1809 38.5215 56.1749C38.5194 56.1689 38.5154 56.1637 38.5101 56.1601C38.5049 56.1564 38.4987 56.1544 38.4923 56.1544C38.4859 56.1544 38.4796 56.1564 38.4744 56.16Z" fill="#263238"/>
<path d="M36.036 49.7712C34.5552 49.7568 33.1728 50.532 32.5992 51.5208C32.2806 52.0843 32.1622 52.739 32.2632 53.3784C32.2632 53.4048 32.3184 53.4 32.316 53.3784C32.3035 52.8149 32.4429 52.2585 32.7195 51.7674C32.9961 51.2763 33.3997 50.8686 33.888 50.5872C34.4226 50.2595 35.026 50.0604 35.6507 50.0054C36.2754 49.9504 36.9043 50.0411 37.488 50.2704C38.0569 50.4809 38.5318 50.8878 38.8272 51.4176C38.856 51.4728 38.9664 51.4416 38.9448 51.3864C38.5704 50.4456 37.3728 49.7832 36.036 49.7712Z" fill="#263238"/>
<path d="M44.52 53.2488C44.3005 52.5113 43.828 51.8748 43.1856 51.4512C42.2952 50.8608 41.2656 50.9112 40.248 50.9832C40.2423 50.9832 40.2368 50.9855 40.2328 50.9895C40.2287 50.9936 40.2264 50.9991 40.2264 51.0048C40.2264 51.0105 40.2287 51.016 40.2328 51.0201C40.2368 51.0241 40.2423 51.0264 40.248 51.0264C41.1168 50.9688 42.0024 50.9592 42.7848 51.3936C43.4361 51.7462 43.945 52.3136 44.2248 52.9992C44.4912 53.7025 44.4946 54.4783 44.2345 55.1838C43.9743 55.8894 43.468 56.4772 42.8088 56.8392C42.4244 57.0378 42.0034 57.1558 41.5717 57.1859C41.14 57.216 40.7068 57.1577 40.2984 57.0144C40.2648 57.0024 40.2408 57.048 40.272 57.0624C40.8236 57.2798 41.4248 57.3394 42.0083 57.2345C42.5918 57.1297 43.1346 56.8645 43.576 56.4687C44.0173 56.0729 44.3399 55.5621 44.5074 54.9935C44.675 54.4248 44.681 53.8207 44.5248 53.2488H44.52Z" fill="#263238"/>
<path d="M29.7312 56.7936C29.7312 56.7936 28.4208 54.0984 29.6496 52.6104C30.3456 51.768 32.5488 51.96 32.5488 51.96C32.5488 51.96 33.3048 50.7192 35.148 50.3664C36.9912 50.0136 39.1656 51.168 39.1656 51.168C39.1656 51.168 40.956 50.2296 42.564 51.228C44.808 52.62 44.3952 56.0976 42.048 57.1344C40.4016 57.8544 38.256 56.352 38.256 56.352C38.0424 56.3736 35.8296 57.5976 34.2648 55.608C34.2648 55.608 32.892 56.7408 31.728 55.8696C31.5299 56.2097 31.2322 56.4807 30.875 56.646C30.5179 56.8112 30.1186 56.8628 29.7312 56.7936Z" fill="#263238"/>
<path d="M30.6744 61.5769C30.6744 61.5769 29.4288 58.9369 28.2552 59.3305C27.0816 59.7241 27.732 63.3769 28.908 64.0633C29.0531 64.1618 29.2166 64.2299 29.3887 64.2635C29.5608 64.2972 29.7379 64.2957 29.9094 64.2592C30.0809 64.2226 30.2432 64.1518 30.3867 64.0509C30.5301 63.95 30.6516 63.8212 30.744 63.6721L30.6744 61.5769Z" fill="#AD6359"/>
<path d="M28.4664 60.3696C28.4472 60.3696 28.4376 60.3936 28.4664 60.4032C29.2872 60.912 29.6112 61.812 29.7888 62.7168C29.5848 62.3448 29.256 62.1048 28.7664 62.34C28.7614 62.3434 28.7575 62.3482 28.7553 62.3539C28.7532 62.3596 28.7529 62.3658 28.7545 62.3717C28.7561 62.3775 28.7595 62.3827 28.7642 62.3865C28.769 62.3903 28.7748 62.3925 28.7808 62.3928C28.9447 62.3706 29.1115 62.3995 29.2584 62.4755C29.4052 62.5515 29.5251 62.671 29.6016 62.8176C29.726 63.0643 29.8242 63.3233 29.8944 63.5904C29.9232 63.6768 30.072 63.6576 30.0576 63.5616C30.0587 63.5545 30.0587 63.5472 30.0576 63.54C30.2592 62.4192 29.6568 60.6936 28.4664 60.3696Z" fill="#263238"/>
<path d="M33.3888 66.8925L31.0248 65.8725L29.124 63.5061L29.4888 63.2109L31.3176 65.4885L33.576 66.4629L33.3888 66.8925Z" fill="#C7C7C7"/>
<path d="M33.1368 66.5161C33.3768 65.8273 35.2968 66.0817 34.9488 67.1233C34.6008 68.1649 32.904 67.2001 33.1368 66.5161Z" fill="#37474F"/>
<path d="M28.2192 59.2585C28.2192 59.2585 27.9624 55.3873 29.0952 53.2585C30.3576 50.8801 35.5896 48.6169 39.1752 51.1729C39.1752 51.1729 33.3504 50.1313 30.636 53.4289C29.4936 54.8161 29.5224 59.3665 29.5224 59.3665L28.2192 59.2585Z" fill="#C7C7C7"/>
<path d="M28.7474 64.8184C30.4784 64.8012 31.8657 63.1884 31.8461 61.2162C31.8265 59.244 30.4073 57.6591 28.6763 57.6763C26.9453 57.6936 25.558 59.3063 25.5776 61.2785C25.5972 63.2508 27.0164 64.8356 28.7474 64.8184Z" fill="#C7C7C7"/>
<path d="M30.9312 61.1137C30.948 62.8873 29.7024 64.3369 28.1472 64.3513C26.592 64.3657 25.3152 62.9425 25.2984 61.1689C25.2816 59.3953 26.5272 57.9457 28.0824 57.9313C29.6376 57.9169 30.9144 59.3401 30.9312 61.1137Z" fill="#455A64"/>
<path d="M36.132 70.9151L34.44 75.1871L29.1168 69.8159L27.624 71.5535C27.624 71.5535 32.844 80.0999 32.8752 79.7135L34.6152 76.0295L37.164 78.5759L36.924 72.1583L36.132 70.9151Z" fill="#EBEBEB"/>
<path d="M37.2264 75.3959C37.152 74.3375 37.1088 73.2695 36.9864 72.2159C36.9864 72.1799 36.924 72.1631 36.9144 72.2159C36.708 73.2407 37.0128 77.2847 37.0128 78.2567H37.0008C36.8952 78.1463 34.6392 76.0175 34.6176 76.0511C34.2408 76.6367 32.9616 79.3175 32.8752 79.5623C32.0496 78.2039 28.5552 72.8543 27.5712 71.5703C27.5664 71.562 27.5585 71.556 27.5493 71.5535C27.5401 71.551 27.5302 71.5523 27.522 71.5571C27.5137 71.5618 27.5076 71.5697 27.5052 71.5789C27.5027 71.5882 27.504 71.598 27.5088 71.6063C28.2288 73.0463 32.7648 80.1047 32.8272 80.0855C33.5005 78.8199 34.1085 77.5206 34.6488 76.1927C35.0304 76.6559 37.3056 79.0607 37.3128 78.9023C37.3459 77.7328 37.3171 76.5623 37.2264 75.3959Z" fill="#263238"/>
<path d="M94.2816 59.6832H86.8584C86.1386 59.6826 85.4486 59.3964 84.9397 58.8875C84.4308 58.3786 84.1446 57.6885 84.144 56.9688C84.144 56.2489 84.4299 55.5585 84.939 55.0494C85.448 54.5404 86.1384 54.2544 86.8584 54.2544H94.2816C95.0015 54.2544 95.6919 54.5404 96.2009 55.0494C96.71 55.5585 96.996 56.2489 96.996 56.9688C96.996 57.3253 96.9257 57.6782 96.7893 58.0076C96.6529 58.3369 96.453 58.6361 96.2009 58.8882C95.9489 59.1402 95.6496 59.3402 95.3203 59.4766C94.991 59.613 94.638 59.6832 94.2816 59.6832Z" fill="#455A64"/>
<path d="M88.4808 56.9207C88.486 56.8348 88.5142 56.7519 88.5624 56.6807L88.6296 56.5823L88.7712 56.4407L88.9368 56.3207C89.1649 56.1756 89.4193 56.0769 89.6856 56.0303C90.2996 55.9079 90.9316 55.9079 91.5456 56.0303C91.8086 56.0753 92.0599 56.1724 92.2848 56.3159C92.3424 56.3543 92.4 56.3975 92.4552 56.4383L92.5944 56.5775C92.6308 56.6301 92.6644 56.6846 92.6952 56.7407C92.7187 56.7984 92.7379 56.8578 92.7528 56.9183H91.536C91.5266 56.9195 91.517 56.9176 91.5087 56.9128C91.5005 56.9081 91.494 56.9007 91.4904 56.8919C91.4571 56.8274 91.4075 56.7728 91.3464 56.7336C91.2853 56.6944 91.2149 56.672 91.1424 56.6687C90.7884 56.6459 90.4332 56.6459 90.0792 56.6687C90.0072 56.6717 89.9373 56.6937 89.8766 56.7325C89.8159 56.7713 89.7666 56.8254 89.7336 56.8895C89.7336 56.9063 89.7168 56.9183 89.6928 56.9183H88.4808V56.9207Z" fill="white"/>
<path d="M88.4808 57.5998V57.1558H89.6808C89.6808 57.1822 89.6808 57.211 89.6808 57.2422V57.5998C89.684 57.6207 89.6823 57.6421 89.6758 57.6622C89.6692 57.6824 89.658 57.7007 89.643 57.7156C89.6281 57.7306 89.6098 57.7418 89.5896 57.7484C89.5695 57.7549 89.5481 57.7566 89.5272 57.7534H88.632C88.6111 57.7568 88.5898 57.7551 88.5697 57.7486C88.5496 57.742 88.5314 57.7307 88.5166 57.7157C88.5018 57.7006 88.4908 57.6823 88.4846 57.6621C88.4784 57.6419 88.477 57.6205 88.4808 57.5998Z" fill="white"/>
<path d="M91.5456 57.6143C91.5456 57.4631 91.5456 57.3119 91.5456 57.1631H92.7336V57.1895C92.7336 57.3287 92.7336 57.4703 92.7336 57.6095C92.7359 57.6296 92.7336 57.6499 92.727 57.669C92.7203 57.6881 92.7094 57.7055 92.6951 57.7198C92.6808 57.7341 92.6635 57.745 92.6444 57.7516C92.6253 57.7583 92.6049 57.7606 92.5848 57.7583H91.68C91.6613 57.7591 91.6427 57.7558 91.6253 57.7488C91.608 57.7417 91.5924 57.7309 91.5797 57.7172C91.5669 57.7035 91.5572 57.6873 91.5514 57.6695C91.5455 57.6517 91.5435 57.6329 91.5456 57.6143Z" fill="white"/>
<path d="M63.8256 105.36H62.1792V106.435H63.8256V105.36Z" fill="#455A64"/>
<path d="M65.9592 105.288H64.3128V106.363H65.9592V105.288Z" fill="#455A64"/>
<path d="M68.0952 105.216H66.4488V106.291H68.0952V105.216Z" fill="#455A64"/>
<path d="M70.2312 105.146H68.5848V106.222H70.2312V105.146Z" fill="#455A64"/>
<path d="M72.3672 105.074H70.7208V106.149H72.3672V105.074Z" fill="#455A64"/>
<path d="M74.5032 105.005H72.8568V106.08H74.5032V105.005Z" fill="#455A64"/>
<path d="M76.6392 104.933H74.9928V106.008H76.6392V104.933Z" fill="#455A64"/>
<path d="M78.7752 104.861H77.1288V105.936H78.7752V104.861Z" fill="#455A64"/>
<path d="M80.9088 104.791H79.2624V105.866H80.9088V104.791Z" fill="#455A64"/>
<path d="M81.3144 107.052H61.7736V105.744L81.3144 105.199V107.052Z" fill="#37474F"/>
<path d="M100.385 101.894H68.1288L73.2576 77.8799H105.514L100.385 101.894Z" fill="#455A64"/>
<path d="M101.578 101.894H69.3216L74.4504 77.8799H106.706L101.578 101.894Z" fill="#37474F"/>
<path d="M90.0587 89.8442C90.9338 89.0355 91.0832 87.7738 90.3924 87.0262C89.7015 86.2786 88.432 86.3281 87.5568 87.1368C86.6816 87.9455 86.5322 89.2072 87.2231 89.9548C87.914 90.7024 89.1835 90.6529 90.0587 89.8442Z" fill="#263238"/>
<path d="M92.4552 108.166H76.5912V106.932L92.4552 106.421V108.166Z" fill="#455A64"/>
<path d="M96.768 108.163H88.2504L83.1192 94.7065H91.6368L96.768 108.163Z" fill="#455A64"/>
<path d="M98.1697 108.163H89.6521L84.5233 94.7065H93.0409L98.1697 108.163Z" fill="#263238"/>
<path d="M61.1712 108.492H44.8152C43.4208 108.492 45.4392 104.517 50.5344 102.993C55.6296 101.469 62.7792 107.001 61.1712 108.492Z" fill="#37474F"/>
<path d="M54.7536 108.492C54.7667 108.039 54.8418 107.59 54.9768 107.157C55.1086 106.721 55.2931 106.303 55.5264 105.912C55.7611 105.519 56.054 105.163 56.3952 104.858C56.7326 104.552 57.1219 104.308 57.5448 104.138C57.3696 104.282 57.1704 104.378 57.0096 104.539L56.7696 104.753L56.5296 104.993C56.2263 105.309 55.9605 105.659 55.7376 106.037C55.5111 106.414 55.3168 106.81 55.1568 107.22C54.9939 107.634 54.8592 108.059 54.7536 108.492Z" fill="#263238"/>
<path d="M56.6904 104.709C57.6619 105.031 58.5812 105.493 59.4192 106.08C59.8427 106.373 60.226 106.719 60.5592 107.112C60.7228 107.312 60.8637 107.531 60.9792 107.762C61.0933 107.994 61.1586 108.246 61.1712 108.504C61.1139 108.259 61.014 108.027 60.876 107.817C60.7454 107.607 60.5925 107.412 60.42 107.234C60.0703 106.88 59.6887 106.559 59.28 106.274C58.8744 105.981 58.4448 105.72 58.0152 105.461C57.7992 105.331 57.5784 105.206 57.3576 105.086C57.1368 104.966 56.9136 104.832 56.6904 104.709Z" fill="#263238"/>
<path d="M62.3424 53.9734C62.2013 55.312 61.6911 56.585 60.8686 57.6505C60.0462 58.7161 58.944 59.5322 57.6848 60.0078C56.4257 60.4834 55.0591 60.5999 53.7376 60.3442C52.4161 60.0885 51.1917 59.4708 50.2008 58.5598L46.56 59.1022L48.3792 55.9606C47.9246 54.8538 47.7531 53.6511 47.88 52.4614C47.9732 51.5074 48.2542 50.5813 48.7068 49.7364C49.1595 48.8915 49.7748 48.1445 50.5173 47.5383C51.2598 46.9322 52.115 46.479 53.0334 46.2047C53.9518 45.9305 54.9155 45.8406 55.8688 45.9403C56.8221 46.04 57.7463 46.3273 58.5881 46.7857C59.4299 47.2441 60.1727 47.8645 60.7737 48.6111C61.3748 49.3578 61.8222 50.216 62.0901 51.1363C62.3581 52.0566 62.4414 53.0208 62.3352 53.9734H62.3424Z" fill="white"/>
<path d="M62.3424 53.9734C62.2027 55.3132 61.6952 56.5882 60.876 57.6574C60.6724 57.9234 60.4528 58.1767 60.2184 58.4158C59.9753 58.6467 59.7188 58.8631 59.4504 59.0638C58.9156 59.4709 58.3257 59.7998 57.6984 60.0406C57.0713 60.2863 56.4129 60.443 55.7424 60.5062C55.4065 60.5378 55.0688 60.5442 54.732 60.5254C54.3946 60.5176 54.0583 60.4831 53.7264 60.4222C52.3847 60.1761 51.1382 59.5611 50.1264 58.6462L50.2128 58.6726L46.5816 59.2318L46.32 59.2798L46.452 59.0398L48.2616 55.8886V56.0134C47.837 54.9811 47.6534 53.8656 47.7249 52.7516C47.7963 51.6377 48.1209 50.5548 48.674 49.5852C49.227 48.6156 49.994 47.7849 50.9164 47.1564C51.8389 46.5279 52.8925 46.118 53.9972 45.9581C55.1019 45.7981 56.2286 45.8922 57.2914 46.2333C58.3543 46.5743 59.3253 47.1533 60.1307 47.9262C60.936 48.6991 61.5545 49.6455 61.939 50.6934C62.3235 51.7413 62.4639 52.8631 62.3496 53.9734H62.3424ZM62.3424 53.9734C62.4563 52.8797 62.3182 51.7743 61.9386 50.7422C61.559 49.7101 60.9481 48.7787 60.1526 48.0194C59.3571 47.2601 58.3983 46.693 57.3497 46.3618C56.301 46.0306 55.1905 45.944 54.1032 46.1086C53.025 46.2695 51.9979 46.675 51.1008 47.2942C50.2135 47.9186 49.4717 48.7275 48.9264 49.6654C48.3897 50.6082 48.0731 51.66 48 52.7422C47.9329 53.8267 48.1092 54.9124 48.516 55.9198L48.5424 55.9846L48.5064 56.0422L46.6776 59.179L46.548 58.987L50.1864 58.4782H50.2368L50.2728 58.5118C51.2438 59.4209 52.4488 60.0417 53.7528 60.3046C54.078 60.37 54.4078 60.4101 54.7392 60.4246C55.07 60.4474 55.402 60.4474 55.7328 60.4246C56.3968 60.374 57.0504 60.2301 57.6744 59.9974C58.3015 59.7708 58.8918 59.4529 59.4264 59.0542C59.6942 58.8552 59.9506 58.6413 60.1944 58.4134C60.4295 58.1768 60.6499 57.9259 60.8544 57.6622C61.6826 56.5942 62.1977 55.3172 62.3424 53.9734Z" fill="#263238"/>
<path d="M59.1672 53.438C59.1677 53.6123 59.1164 53.7828 59.0199 53.928C58.9234 54.0731 58.786 54.1864 58.6251 54.2534C58.4642 54.3205 58.2871 54.3382 58.116 54.3045C57.945 54.2708 57.7879 54.1871 57.6644 54.064C57.541 53.941 57.4569 53.784 57.4227 53.6131C57.3885 53.4422 57.4058 53.2649 57.4724 53.1039C57.539 52.9428 57.6519 52.8051 57.7968 52.7082C57.9417 52.6113 58.1121 52.5596 58.2864 52.5596C58.402 52.5593 58.5164 52.5817 58.6233 52.6257C58.7301 52.6697 58.8273 52.7344 58.9091 52.816C58.9909 52.8976 59.0558 52.9945 59.1001 53.1013C59.1444 53.208 59.1672 53.3224 59.1672 53.438Z" fill="#263238"/>
<path d="M56.0136 53.438C56.014 53.6124 55.9627 53.783 55.8661 53.9282C55.7695 54.0734 55.632 54.1867 55.4709 54.2537C55.3099 54.3206 55.1326 54.3383 54.9615 54.3044C54.7904 54.2704 54.6333 54.1865 54.5099 54.0632C54.3866 53.9399 54.3027 53.7827 54.2688 53.6116C54.2349 53.4405 54.2525 53.2632 54.3195 53.1022C54.3864 52.9412 54.4997 52.8036 54.6449 52.707C54.7901 52.6104 54.9607 52.5591 55.1352 52.5596C55.3681 52.5596 55.5915 52.6521 55.7563 52.8169C55.921 52.9816 56.0136 53.205 56.0136 53.438Z" fill="#263238"/>
<path d="M52.8624 53.438C52.8629 53.6123 52.8116 53.7828 52.7151 53.928C52.6186 54.0731 52.4812 54.1864 52.3203 54.2534C52.1594 54.3205 51.9823 54.3382 51.8112 54.3045C51.6402 54.2708 51.4831 54.1871 51.3596 54.064C51.2362 53.941 51.1521 53.784 51.1179 53.6131C51.0837 53.4422 51.101 53.2649 51.1676 53.1039C51.2342 52.9428 51.3471 52.8051 51.492 52.7082C51.6369 52.6113 51.8073 52.5596 51.9816 52.5596C52.2148 52.5596 52.4385 52.652 52.6036 52.8167C52.7687 52.9814 52.8618 53.2048 52.8624 53.438Z" fill="#263238"/>
<path d="M65.4216 16.2886C65.5628 17.6271 66.0729 18.9002 66.8951 19.9658C67.7173 21.0314 68.8193 21.8477 70.0783 22.3238C71.3372 22.7998 72.7037 22.9169 74.0253 22.6619C75.3468 22.407 76.5716 21.79 77.5632 20.8798L81.1968 21.4126L79.38 18.271C79.7966 17.248 79.9746 16.1435 79.9003 15.0414C79.8261 13.9393 79.5015 12.8686 78.9514 11.9107C78.4013 10.9528 77.6401 10.133 76.7256 9.51341C75.8111 8.89386 74.7674 8.49093 73.6738 8.33524C72.5803 8.17955 71.4656 8.27521 70.4145 8.61493C69.3634 8.95465 68.4037 9.52951 67.6081 10.2958C66.8125 11.0621 66.2021 11.9997 65.8232 13.0373C65.4443 14.0749 65.307 15.1852 65.4216 16.2838V16.2886Z" fill="white"/>
<path d="M67.596 10.2861C68.3874 9.50558 69.3477 8.91741 70.4026 8.56702C71.4575 8.21663 72.5788 8.1134 73.68 8.26532C74.7889 8.41156 75.8496 8.80973 76.7808 9.42932C78.1915 10.371 79.2333 11.7713 79.7297 13.3932C80.2262 15.015 80.1467 16.7586 79.5048 18.3285V18.2037L81.3096 21.3597L81.4416 21.5997L81.18 21.5589L77.5464 21.0021L77.6328 20.9757C76.621 21.8906 75.3744 22.5055 74.0328 22.7517C73.7008 22.8126 73.3646 22.8471 73.0272 22.8549C72.6912 22.8725 72.3543 22.8661 72.0192 22.8357C70.6732 22.7074 69.389 22.209 68.3088 21.3957C68.0403 21.1949 67.7839 20.9786 67.5408 20.7477C67.3069 20.508 67.0873 20.2548 66.8832 19.9893C65.7953 18.5679 65.2665 16.7968 65.3969 15.0116C65.5274 13.2264 66.3081 11.551 67.5912 10.3029L67.596 10.2861ZM66.9096 19.9557C67.1141 20.2186 67.3345 20.4687 67.5696 20.7045C67.8122 20.9337 68.0686 21.1477 68.3376 21.3453C68.872 21.7462 69.4633 22.0649 70.092 22.2909C70.7155 22.5225 71.3681 22.6663 72.0312 22.7181C72.3628 22.7409 72.6956 22.7409 73.0272 22.7181C73.3578 22.7034 73.6868 22.6633 74.0112 22.5981C75.3151 22.3352 76.5201 21.7144 77.4912 20.8053L77.5272 20.7717H77.5776L81.216 21.2805L81.0864 21.4725L79.2576 18.3357L79.2216 18.2757L79.248 18.2109C79.6554 17.2074 79.8301 16.1246 79.7591 15.0438C79.688 13.9631 79.3729 12.9125 78.8376 11.9709C78.2929 11.0325 77.551 10.2235 76.6632 9.59972C75.7667 8.98091 74.7405 8.57537 73.6632 8.41412C72.2392 8.19425 70.7819 8.40757 69.4807 9.02638C68.1795 9.6452 67.0943 10.6409 66.3662 11.8843C65.638 13.1276 65.3005 14.5612 65.3974 15.9988C65.4943 17.4364 66.0212 18.8117 66.9096 19.9461V19.9557Z" fill="#263238"/>
<path d="M73.296 16.4204V17.3276C73.298 17.418 73.2816 17.5078 73.2479 17.5917C73.2142 17.6756 73.1639 17.7518 73.1 17.8157C73.0361 17.8796 72.9599 17.9299 72.8761 17.9636C72.7922 17.9972 72.7023 18.0136 72.612 18.0116C72.4308 18.011 72.2572 17.9387 72.129 17.8106C72.0009 17.6825 71.9286 17.5088 71.928 17.3276V15.8876C71.928 15.8732 71.9424 15.8732 71.9424 15.8588C71.9424 15.8444 71.928 15.8444 71.928 15.8324C71.9328 15.6526 72.0064 15.4814 72.1337 15.3541C72.2609 15.2269 72.4321 15.1533 72.612 15.1484C72.8271 15.1653 73.0435 15.1375 73.2473 15.0668C73.4512 14.9961 73.6383 14.8839 73.7968 14.7374C73.9552 14.5909 74.0817 14.4132 74.1681 14.2155C74.2546 14.0177 74.2993 13.8042 74.2993 13.5884C74.2993 13.3726 74.2546 13.1591 74.1681 12.9614C74.0817 12.7637 73.9552 12.586 73.7968 12.4395C73.6383 12.293 73.4512 12.1808 73.2473 12.1101C73.0435 12.0393 72.8271 12.0115 72.612 12.0284C72.3409 12.0273 72.0744 12.0978 71.8393 12.2326C71.6041 12.3675 71.4087 12.5619 71.2728 12.7964C71.2261 12.8758 71.164 12.9451 71.0903 13.0003C71.0165 13.0555 70.9325 13.0954 70.8431 13.1177C70.7537 13.1401 70.6608 13.1444 70.5698 13.1304C70.4787 13.1165 70.3913 13.0845 70.3128 13.0364C70.2354 12.9909 70.1678 12.9305 70.1138 12.8587C70.0598 12.787 70.0206 12.7053 69.9983 12.6183C69.976 12.5313 69.9711 12.4408 69.9838 12.3519C69.9966 12.2631 70.0269 12.1776 70.0728 12.1004C70.3156 11.679 70.6595 11.3246 71.0733 11.0691C71.4872 10.8136 71.9582 10.665 72.4437 10.6368C72.9293 10.6086 73.4143 10.7015 73.855 10.9074C74.2957 11.1132 74.6783 11.4254 74.9683 11.8159C75.2583 12.2063 75.4467 12.6628 75.5164 13.1442C75.5862 13.6255 75.5351 14.1167 75.3678 14.5734C75.2005 15.0301 74.9222 15.4381 74.558 15.7605C74.1939 16.0829 73.7552 16.3097 73.2816 16.4204H73.296ZM73.296 19.4756V19.7156C73.2983 19.8061 73.2822 19.8961 73.2486 19.9801C73.2151 20.0641 73.1648 20.1404 73.1008 20.2044C73.0368 20.2684 72.9605 20.3187 72.8764 20.3523C72.7924 20.3858 72.7024 20.4019 72.612 20.3996C72.4306 20.3996 72.2566 20.3276 72.1283 20.1993C72.0001 20.071 71.928 19.897 71.928 19.7156V19.4756C71.9305 19.295 72.0033 19.1225 72.1311 18.9947C72.2588 18.867 72.4313 18.7941 72.612 18.7916C72.7021 18.7907 72.7915 18.8077 72.8749 18.8417C72.9583 18.8758 73.0341 18.9261 73.0978 18.9898C73.1615 19.0535 73.2118 19.1293 73.2459 19.2127C73.2799 19.2962 73.2969 19.3855 73.296 19.4756Z" fill="#FF9385"/>
</svg>
