<svg width="40" height="40" viewBox="0 0 40 40" fill="none" xmlns="http://www.w3.org/2000/svg">
<g id="022   Cookie">
<path id="Shape" d="M40 20.1849C39.9289 21.9185 39.6298 23.6351 39.1103 25.2905C38.6572 26.985 38.3517 28.7685 37.491 30.2518C36.6207 31.7573 35.1035 32.7929 33.8821 34.0141C32.6607 35.2353 31.6648 36.8201 30.1579 37.6908C28.6745 38.5491 26.8607 38.823 25.1655 39.2776C23.499 39.7417 21.7788 39.9846 20.049 40C18.3208 39.9721 16.6037 39.717 14.9421 39.2411C13.2968 38.7478 11.7245 38.0373 10.2669 37.1285C8.72879 36.3482 7.29941 35.3698 6.01517 34.2183C4.86665 32.9326 3.89145 31.5019 3.11448 29.9627C2.25586 28.4794 1.19586 27.0546 0.742759 25.3608C0.271662 23.6751 0.0219768 21.9352 0 20.1849C0 18.409 0.703448 16.7566 1.14138 15.1187C1.59448 13.4242 1.74966 11.6 2.60828 10.1166C3.47931 8.61184 4.96069 7.54105 6.18276 6.32193C7.40483 5.1028 8.52276 3.70015 10.0276 2.83152C11.5117 1.97323 13.289 1.73796 14.9834 1.28467C16.6207 0.845177 18.2759 0 20.0503 0C21.8123 0.0192177 23.5644 0.265484 25.2634 0.732717C26.9382 1.25148 28.5379 1.98697 30.0221 2.92052C31.5269 3.79122 32.5903 5.20767 33.8117 6.42887C35.0331 7.65006 36.4855 8.69187 37.3559 10.1966C38.1741 11.731 38.7878 13.3661 39.1814 15.06C39.6773 16.7251 39.9526 18.4481 40 20.1849Z" fill="#E7C897"/>
<g id="Group">
<path id="Shape_2" d="M5.51729 21.3887C5.13641 21.3887 4.82764 21.0798 4.82764 20.6987C4.82764 17.97 6.63246 17.249 7.58626 17.249C7.96714 17.2467 8.27776 17.5538 8.28005 17.9348C8.28234 18.3159 7.97542 18.6266 7.59453 18.6289C7.35867 18.6365 6.20695 18.7717 6.20695 20.6987C6.20695 21.0798 5.89818 21.3887 5.51729 21.3887Z" fill="#D7A251"/>
<path id="Shape_3" d="M33.1035 28.2881C33.0572 28.2884 33.0109 28.2838 32.9656 28.2743C32.7863 28.2378 32.6289 28.1315 32.528 27.9788C32.4271 27.8261 32.391 27.6395 32.4276 27.4602C32.9794 24.6873 30.9538 24.1485 30.867 24.125C30.6264 24.0666 30.4356 23.8836 30.3671 23.6456C30.2985 23.4076 30.3627 23.1512 30.5353 22.9736C30.7079 22.796 30.9624 22.7247 31.2021 22.7866C32.3745 23.0805 34.427 24.4914 33.7794 27.7307C33.7161 28.0542 33.433 28.2877 33.1035 28.2881Z" fill="#D7A251"/>
<path id="Shape_4" d="M17.2414 34.4978C16.1354 34.6009 15.0457 34.1752 14.3021 33.3497C13.7977 32.6327 13.6203 31.7355 13.8138 30.8804C13.9051 30.5104 14.2788 30.2844 14.6487 30.3757C15.0185 30.467 15.2444 30.8409 15.1532 31.2109C15.0565 31.6579 15.1434 32.1251 15.3945 32.5073C15.8878 32.977 16.5655 33.201 17.2414 33.1179C17.6223 33.1179 17.9311 33.4268 17.9311 33.8078C17.9311 34.1889 17.6223 34.4978 17.2414 34.4978Z" fill="#D7A251"/>
<path id="Shape_5" d="M28.9656 9.65962C28.7348 9.65988 28.5192 9.54465 28.3911 9.3526C28.1422 8.93758 27.7299 8.64685 27.2555 8.55188C26.7811 8.45692 26.2887 8.56653 25.8993 8.85377C25.6944 8.99057 25.432 9.00757 25.211 8.89837C24.9901 8.78916 24.8442 8.57035 24.8283 8.32434C24.8124 8.07833 24.9288 7.84251 25.1338 7.70571C25.8271 7.21346 26.6926 7.02896 27.5262 7.19571C28.3598 7.36245 29.0879 7.86568 29.5387 8.58676C29.6798 8.79837 29.6931 9.07051 29.5732 9.29486C29.4534 9.51922 29.2198 9.6594 28.9656 9.65962Z" fill="#D7A251"/>
<path id="Shape_6" d="M21.2676 25.5282C20.9203 25.5271 20.628 25.2679 20.5853 24.9231C20.5426 24.5783 20.7628 24.2555 21.0993 24.1697C21.7156 24.0222 22.2619 23.6661 22.6456 23.1617C22.784 22.8927 22.7979 22.5766 22.6835 22.2965C22.6056 22.0623 22.6586 21.8044 22.8223 21.6198C22.9861 21.4353 23.2359 21.3522 23.4775 21.4018C23.7192 21.4515 23.916 21.6263 23.9938 21.8604C24.2305 22.506 24.1803 23.2219 23.8559 23.8282C23.2871 24.6694 22.4252 25.2682 21.4387 25.5075C21.3828 25.5217 21.3253 25.5286 21.2676 25.5282Z" fill="#D7A251"/>
<path id="Shape_7" d="M9.65523 13.7992C9.33916 13.7989 9.06376 13.5837 8.98695 13.277C8.72208 12.366 8.8488 11.3858 9.33663 10.5723C9.82446 9.75869 10.6292 9.18541 11.5573 8.99036C11.9256 8.90086 12.297 9.12538 12.3891 9.49314C12.4812 9.8609 12.2594 10.2341 11.8925 10.3288C11.3236 10.4422 10.8291 10.7906 10.5306 11.2881C10.2321 11.7856 10.1574 12.3861 10.3249 12.9417C10.4174 13.3113 10.193 13.6859 9.82351 13.7785C9.76851 13.7925 9.71197 13.7995 9.65523 13.7992Z" fill="#D7A251"/>
</g>
<path id="Rectangle path" d="M30.8002 13.294L29.5754 13.9287C28.5607 14.4546 28.1643 15.7038 28.6899 16.7189L29.3244 17.9442C29.85 18.9593 31.0987 19.3559 32.1133 18.8301L33.3382 18.1953C34.3528 17.6695 34.7493 16.4203 34.2237 15.4052L33.5892 14.1799C33.0636 13.1648 31.8149 12.7682 30.8002 13.294Z" fill="#AA7727"/>
<path id="Rectangle path_2" d="M26.1752 29.9577L24.8814 29.4817C23.8095 29.0873 22.6211 29.6368 22.2269 30.7091L21.751 32.0034C21.3568 33.0757 21.9061 34.2646 22.9779 34.659L24.2717 35.135C25.3435 35.5294 26.532 34.9799 26.9262 33.9076L27.4021 32.6133C27.7963 31.541 27.247 30.3521 26.1752 29.9577Z" fill="#AA7727"/>
<path id="Rectangle path_3" d="M10.3351 23.0755L8.96402 23.2301C7.82822 23.3581 7.01122 24.383 7.13919 25.5193L7.29368 26.8909C7.42166 28.0272 8.44615 28.8445 9.58195 28.7165L10.953 28.562C12.0888 28.4339 12.9058 27.409 12.7778 26.2727L12.6233 24.9011C12.4954 23.7649 11.4709 22.9475 10.3351 23.0755Z" fill="#AA7727"/>
<path id="Rectangle path_4" d="M20.538 4.56086L19.2042 4.20761C18.0992 3.91497 16.9664 4.57384 16.6738 5.67925L16.3207 7.0136C16.0282 8.119 16.6868 9.25235 17.7918 9.54499L19.1256 9.89824C20.2305 10.1909 21.3634 9.532 21.6559 8.4266L22.009 7.09225C22.3015 5.98684 21.6429 4.8535 20.538 4.56086Z" fill="#AA7727"/>
<path id="Rectangle path_5" d="M17.0673 14.6312L15.7873 15.1459C14.7269 15.5723 14.2128 16.7779 14.639 17.8388L15.1535 19.1193C15.5797 20.1801 16.7849 20.6944 17.8452 20.268L19.1252 19.7533C20.1856 19.327 20.6997 18.1213 20.2735 17.0605L19.759 15.78C19.3328 14.7192 18.1277 14.2048 17.0673 14.6312Z" fill="#AA7727"/>
</g>
</svg>
