<svg width="96" height="96" viewBox="0 0 96 96" fill="none" xmlns="http://www.w3.org/2000/svg">
<rect width="96" height="96" fill="#E5E5E5"/>
<g id="Favorites - No Foods" clip-path="url(#clip0_0_1)">
<rect width="375" height="812" transform="translate(-140 -304)" fill="white"/>
<g id="diet 1">
<g id="Group">
<g id="Group_2">
<path id="Vector" d="M37.1182 37.2873C36.3095 36.4021 35.1581 35.8837 33.9594 35.8651C31.5484 35.8342 29.5538 37.7564 29.5129 40.1656C29.4998 40.9422 30.1187 41.5823 30.8951 41.5954C30.9034 41.5956 30.9113 41.5956 30.9195 41.5956C31.6851 41.5956 32.3121 40.9816 32.325 40.213C32.3394 39.3526 33.0467 38.6622 33.9154 38.6772C34.3491 38.684 34.749 38.864 35.0417 39.1842C35.5656 39.7578 36.4552 39.7979 37.0284 39.274C37.6018 38.7503 37.6421 37.8607 37.1182 37.2873Z" fill="#E7E8E7"/>
</g>
</g>
<g id="Group_3">
<g id="Group_4">
<path id="Vector_2" d="M44.5998 41.8703C44.1688 40.8571 43.3297 40.0574 42.2971 39.6762C40.2208 38.9103 37.9061 39.9747 37.1368 42.0486C36.8666 42.7769 37.238 43.5861 37.9661 43.8563C38.1273 43.9161 38.2925 43.9444 38.4549 43.9444C39.0262 43.9444 39.5632 43.5938 39.7736 43.0268C40.0046 42.404 40.7008 42.0852 41.3233 42.3149C41.6362 42.4304 41.8807 42.6635 42.0114 42.9709C42.3153 43.6855 43.1415 44.0189 43.8558 43.7148C44.5708 43.4108 44.9036 42.5851 44.5998 41.8703Z" fill="#E7E8E7"/>
</g>
</g>
<g id="Group_5">
<g id="Group_6">
<path id="Vector_3" d="M53.6635 29.4158C53.1137 28.867 52.2233 28.8681 51.6748 29.4179L50.3492 30.7461C49.8006 31.2959 49.8015 32.1863 50.3513 32.7347C50.6256 33.0087 50.985 33.1455 51.3445 33.1455C51.7048 33.1455 52.0652 33.0079 52.3399 32.7327L53.6655 31.4044C54.2142 30.8547 54.2132 29.9642 53.6635 29.4158Z" fill="#E7E8E7"/>
</g>
</g>
<g id="Group_7">
<g id="Group_8">
<path id="Vector_4" d="M44.9145 47.5703H43.0403C42.2635 47.5703 41.634 48.1999 41.634 48.9766C41.634 49.7532 42.2635 50.3828 43.0403 50.3828H44.9145C45.6913 50.3828 46.3208 49.7532 46.3208 48.9766C46.3208 48.1999 45.6913 47.5703 44.9145 47.5703Z" fill="#E7E8E7"/>
</g>
</g>
<g id="Group_9">
<g id="Group_10">
<path id="Vector_5" d="M59.2852 47.5703H57.4108C56.634 47.5703 56.0045 48.1999 56.0045 48.9766C56.0045 49.7532 56.6341 50.3828 57.4108 50.3828H59.2852C60.0618 50.3828 60.6915 49.7532 60.6915 48.9766C60.6915 48.1999 60.0618 47.5703 59.2852 47.5703Z" fill="#E7E8E7"/>
</g>
</g>
<g id="Group_11">
<g id="Group_12">
<path id="Vector_6" d="M95.9548 72.9265L95.5886 70.9499C95.3552 69.6869 94.2523 68.7702 92.9662 68.7702C92.8048 68.7702 92.6421 68.785 92.4819 68.8145L85.027 70.184L88.4031 67.927C89.2879 67.3357 89.7351 66.2778 89.5421 65.2284C89.4885 64.9409 89.388 64.6651 89.2425 64.4069L88.2208 62.5978C87.8708 61.9762 87.2738 61.5144 86.5847 61.3314C86.2472 61.2414 85.8943 61.2213 85.5501 61.2661C85.926 59.1913 86.1199 57.0722 86.1199 54.915C86.1199 53.9578 85.5443 53.1341 84.7221 52.7683C85.7964 50.2131 85.8698 47.2877 84.8078 44.6087C84.7217 44.3908 84.5938 44.1964 84.4283 44.0306C84.264 43.8664 84.0718 43.7395 83.8538 43.6519C82.5812 43.1451 81.2438 42.8882 79.8786 42.8882C79.704 42.8882 79.5302 42.8927 79.357 42.901C79.1622 38.976 75.9137 35.8427 71.9481 35.8427C71.4259 35.8427 70.9167 35.8982 70.4249 36.0017C70.7665 33.958 70.5653 31.82 69.7694 29.8126C69.6839 29.5919 69.5555 29.3939 69.3809 29.2165C69.2129 29.0485 69.0158 28.919 68.7972 28.8321C67.4264 28.2862 65.9857 28.0094 64.5149 28.0094C62.2994 28.0094 60.1801 28.6323 58.3505 29.7903C57.6821 27.854 56.5798 26.0362 55.0396 24.4925C54.5885 24.0406 53.9885 23.7916 53.3501 23.7916C52.7117 23.7916 52.1117 24.0406 51.66 24.4929L44.8513 31.3171C43.5913 30.1932 41.9333 29.5214 40.1336 29.5214C39.7253 29.5214 39.313 29.5572 38.9081 29.6277C37.4413 29.8831 36.0915 30.601 35.0567 31.6525C33.7298 31.0122 32.2097 30.7938 30.7489 31.048C30.4276 31.1039 30.1157 31.1826 29.8131 31.2786V26.02C29.8131 22.3987 26.9026 19.4473 23.3022 19.385V16.4026C24.4043 16.212 25.2458 15.2514 25.2458 14.0957V7.33837C25.2458 6.04612 24.1945 4.99463 22.9021 4.99463H11.4663C10.1739 4.99463 9.12259 6.04612 9.12259 7.33837V14.0957C9.12259 15.2514 9.96408 16.212 11.0662 16.4026V19.3846C7.46584 19.4467 4.55548 22.3981 4.55548 26.0197V67.0625C1.74787 69.598 0 73.136 0 77.0483C0 84.7444 6.75466 91.0058 15.0575 91.0058L71.3423 90.9893C73.2634 90.9885 75.0702 90.1442 76.299 88.6731C77.496 87.241 78.0047 85.3808 77.7117 83.5463L88.9536 85.5666C89.1092 85.5945 89.2686 85.6088 89.4266 85.6088C89.9872 85.6088 90.5244 85.4367 90.9793 85.1115C91.5641 84.6938 91.9599 84.0471 92.0655 83.3378L92.37 81.2946C92.4139 81.0019 92.409 80.7072 92.3556 80.4182C92.162 79.3735 91.3665 78.5446 90.3287 78.3068L86.3663 77.3978L93.8139 76.0296C94.5163 75.9006 95.1257 75.5063 95.5299 74.9193C95.9334 74.3337 96.0842 73.6261 95.9548 72.9265ZM79.8786 45.7003C80.7252 45.7003 81.5575 45.8344 82.3577 46.0986C83.0728 48.2762 82.8051 50.625 81.6853 52.5652H77.8971L79.1059 51.3536C79.6545 50.8039 79.6534 49.9134 79.1035 49.3648C78.5535 48.8162 77.6631 48.8171 77.1149 49.3671L76.4753 50.0081C76.1755 49.0209 75.652 48.1371 74.9639 47.412C76.3596 46.3037 78.073 45.7003 79.8786 45.7003ZM71.9481 38.6549C74.4878 38.6549 76.5539 40.7271 76.5539 43.2743C76.5539 43.3215 76.5516 43.3682 76.5503 43.4151C75.0679 43.8971 73.7016 44.7025 72.5363 45.7961C72.3509 45.7258 72.1628 45.6606 71.9697 45.6071C71.5583 43.3849 70.0608 41.6037 68.0825 40.7717C68.9035 39.4997 70.3281 38.6549 71.9481 38.6549ZM64.5147 30.8215C65.4698 30.8215 66.4085 30.976 67.313 31.2816C68.0399 33.4431 67.8914 35.7649 66.9652 37.7761C66.2037 38.4696 65.5859 39.319 65.1637 40.2737C64.9126 40.2883 64.6615 40.3161 64.4135 40.3592C63.3115 40.551 62.284 41.0292 61.4242 41.7225C61.1309 41.1863 60.7719 40.6915 60.3605 40.246L63.5853 37.0139C64.1339 36.4641 64.1328 35.5737 63.5829 35.0252C63.0331 34.4766 62.1427 34.4776 61.5941 35.0275L58.0694 38.5602C57.3988 38.2431 56.6739 38.0226 55.9121 37.9195C56.2411 36.2414 57.0555 34.6602 58.3151 33.3976C59.9724 31.7363 62.1742 30.8215 64.5147 30.8215ZM53.7391 52.5652H52.5202C52.3149 52.0429 51.8073 51.6726 51.212 51.6726C50.6167 51.6726 50.1092 52.043 49.9039 52.5652H48.4699C48.8029 52.023 48.7355 51.3045 48.2655 50.8354C47.7157 50.2867 46.8253 50.2877 46.2767 50.8374L44.9512 52.1657C44.8322 52.2849 44.7407 52.4209 44.6734 52.5652H41.8112C40.7393 50.9203 40.0851 48.9788 40.0076 46.89H62.3174C62.24 48.9788 61.5858 50.9203 60.5139 52.5652H57.5354C57.4683 52.4209 57.3764 52.2847 57.2576 52.1655L55.9323 50.8372C55.3835 50.2877 54.4935 50.2862 53.9437 50.835C53.4733 51.3041 53.406 52.0228 53.7391 52.5652ZM50.4686 44.0775C50.9987 42.1131 52.7906 40.6635 54.9142 40.6635C57.038 40.6635 58.8299 42.1133 59.36 44.0775H50.4686ZM53.3443 26.7862C54.6819 28.2318 55.5663 29.9481 56 31.7523C55.2821 32.5324 54.6856 33.3946 54.2152 34.312C54.0016 34.1811 53.7513 34.1044 53.4827 34.1044H51.6088C50.8322 34.1044 50.2025 34.7341 50.2025 35.5107C50.2025 36.2873 50.8322 36.9169 51.6088 36.9169H53.2526C53.1602 37.3052 53.0883 37.6982 53.0362 38.0942C52.4778 38.2409 51.9446 38.4497 51.4455 38.7156C50.5082 37.0981 48.956 35.8926 47.1171 35.4091C47.1165 35.4051 47.1157 35.4012 47.115 35.3972C47.0047 34.7609 46.8124 34.1571 46.5501 33.5959L53.3443 26.7862ZM27.9235 39.4754C27.841 39.2447 27.7786 39.0081 27.7375 38.7707C27.3342 36.4456 28.9017 34.2241 31.231 33.8185C31.4766 33.7758 31.7262 33.754 31.9726 33.754C32.899 33.754 33.7844 34.0495 34.5327 34.6084C34.8422 34.8398 35.2337 34.9334 35.6147 34.8674C35.9957 34.8012 36.3327 34.5813 36.5464 34.2589C37.2066 33.2631 38.2167 32.6024 39.3904 32.398C39.6366 32.3551 39.8867 32.3335 40.1336 32.3335C42.2171 32.3335 43.9879 33.8241 44.3438 35.8782C44.3846 36.1135 44.4056 36.3587 44.406 36.6072C44.4073 37.3351 44.964 37.9418 45.6892 38.0055C47.2614 38.1437 48.5998 39.1332 49.2202 40.527C48.3896 41.524 47.8138 42.7412 47.5952 44.0775H39.5755C38.5783 44.0775 37.7228 44.6931 37.366 45.5642C35.6016 44.3625 33.5222 43.7151 31.3431 43.7151C29.9779 43.7151 28.6405 43.9721 27.367 44.4791C27.151 44.5654 26.9579 44.6927 26.7933 44.8573C26.6264 45.0242 26.4983 45.2198 26.4143 45.4343C26.0907 46.2505 25.8749 47.0895 25.7583 47.9338C25.2543 47.3601 24.8991 46.6466 24.7604 45.846C24.4296 43.938 25.4285 42.0383 27.1885 41.226C27.85 40.9208 28.1689 40.161 27.9235 39.4754ZM32.1156 52.1807L32.4992 52.5652H29.1218C28.3636 50.8061 28.2484 48.8038 28.864 46.9258C29.6654 46.6613 30.4973 46.5274 31.3431 46.5274C33.462 46.5274 35.4553 47.3556 36.9555 48.8591C37.155 49.0592 37.3408 49.2688 37.5154 49.4854C37.7537 50.5642 38.1199 51.5949 38.5916 52.565H36.4723L34.1067 50.1939C33.5579 49.6444 32.6674 49.6429 32.1181 50.1917C31.5681 50.7405 31.567 51.6309 32.1156 52.1807ZM26.1269 52.5652H21.1137C21.3372 51.2031 22.1566 50.0419 23.294 49.3571C23.9673 50.2592 24.8461 50.9886 25.8586 51.4826C25.9302 51.8475 26.0181 52.2092 26.1269 52.5652ZM11.9351 7.80712H22.4333V13.6269H11.9351V7.80712ZM20.4897 16.4394V19.3818H13.8789V16.4394H20.4897ZM7.36816 31.7226H16.4999C17.2767 31.7226 17.9062 31.093 17.9062 30.3164C17.9062 29.5398 17.2767 28.9101 16.4999 28.9101H7.36816V26.0197C7.36816 23.9103 9.0789 22.1943 11.1817 22.1943H23.1869C25.2899 22.1943 27.0006 23.9103 27.0006 26.0197V28.9101H24.3749C23.5981 28.9101 22.9687 29.5398 22.9687 30.3164C22.9687 31.093 23.5981 31.7226 24.3749 31.7226H27.0006V32.9708C25.3895 34.5505 24.5526 36.8671 24.9659 39.25C24.9666 39.2547 24.9676 39.2595 24.9683 39.2644C22.7123 40.8122 21.5103 43.564 21.989 46.3264C22.0169 46.4876 22.052 46.6463 22.0902 46.8032C21.3877 47.1906 20.7567 47.6908 20.216 48.2762H7.36816V31.7226ZM7.36797 51.0885H18.583C18.4338 51.5625 18.3284 52.0558 18.277 52.5652H18.04C16.7457 52.5652 15.6926 53.6192 15.6926 54.9146C15.6926 57.1475 15.9001 59.3396 16.3023 61.4842C15.8982 61.4518 15.4839 61.4343 15.0624 61.4343C13.3618 61.4343 11.7414 61.7041 10.5003 62.1943C8.6019 62.9439 8.07709 64.0083 7.96253 64.7448C7.76134 64.8449 7.56372 64.9507 7.36797 65.0589V51.0885ZM25.175 68.3637C25.6814 68.7689 25.991 69.1133 26.1704 69.3618C26.1535 69.362 26.1359 69.3622 26.1181 69.3622C25.3221 69.3622 23.8921 69.0414 22.2659 68.1412C21.6605 67.8057 21.1027 67.4268 20.6527 67.0456C20.128 66.601 19.3587 66.6014 18.8345 67.0458C18.3845 67.4274 17.8269 67.8061 17.222 68.1408C15.5954 69.0414 14.1654 69.3622 13.3696 69.3622C13.3514 69.3622 13.334 69.362 13.3169 69.3618C13.4962 69.1133 13.8058 68.7687 14.3124 68.3634C14.7551 68.009 14.9416 67.4232 14.7854 66.8782C14.6291 66.3329 14.1607 65.9349 13.5973 65.8689C12.2249 65.708 11.3572 65.3587 10.9509 65.1044C11.46 64.7874 12.7469 64.2468 15.0629 64.2468C16.9811 64.2468 18.383 64.6501 19.0554 65.0277C19.483 65.2677 20.0045 65.2677 20.4322 65.0279C21.1049 64.6503 22.507 64.247 24.4251 64.247C26.7413 64.247 28.0281 64.7877 28.537 65.1046C28.1309 65.3591 27.2629 65.7082 25.8903 65.8691C25.3268 65.9352 24.8583 66.3331 24.7021 66.8785C24.5453 67.4238 24.7319 68.0095 25.175 68.3637ZM22.3619 85.4798L22.4103 85.7404C22.5775 86.6436 22.9302 87.4725 23.423 88.1933H15.0575C8.30565 88.1933 2.81249 83.1938 2.81249 77.0483C2.81249 72.8485 5.37898 69.1855 9.15821 67.2862C9.59227 67.6102 10.1334 67.8895 10.7754 68.1149C10.5208 68.5497 10.3434 69.0173 10.3016 69.505C10.2461 70.1534 10.4445 70.7691 10.8607 71.239C11.4106 71.86 12.2548 72.1748 13.3696 72.1748C14.8554 72.1748 16.8048 71.5866 18.5842 70.6015C18.9939 70.3748 19.3812 70.1354 19.7439 69.8853C20.1063 70.1352 20.4937 70.3747 20.9035 70.6017C22.6829 71.5867 24.6323 72.1747 26.1181 72.1748H26.1183C27.2328 72.1748 28.0769 71.86 28.6266 71.2392C29.0431 70.7693 29.2416 70.1536 29.1859 69.505C29.1441 69.0173 28.9668 68.5497 28.7121 68.1149C29.3541 67.8894 29.8954 67.61 30.3295 67.2862C33.3267 68.7925 35.56 71.4083 36.3563 74.5214L26.4104 78.2997C23.4991 79.4059 21.7964 82.4254 22.3619 85.4798ZM74.1406 86.8699C73.4472 87.7001 72.4266 88.1764 71.341 88.1768L69.865 88.1773L68.9429 83.1983C68.8013 82.4346 68.068 81.9297 67.304 82.0716C66.5405 82.213 66.0359 82.9467 66.1773 83.7104L67.0049 88.1783L62.1663 88.1801L61.5429 84.8132C61.4013 84.0495 60.6678 83.5452 59.9039 83.6865C59.1404 83.8279 58.6359 84.5616 58.7773 85.3253L59.306 88.1813L48.0514 88.1856L47.2042 83.6128C47.0625 82.8492 46.3294 82.3448 45.5653 82.4864C44.8016 82.6277 44.2973 83.3616 44.4386 84.1253L45.1911 88.1867L28.7579 88.1931C28.7575 88.1931 28.7571 88.1931 28.7568 88.1931C26.9995 88.1931 25.4935 86.9462 25.1751 85.2276L25.1268 84.967C24.809 83.2502 25.7686 81.552 27.4086 80.9288L32.9355 78.8292L33.3473 81.0514C33.4727 81.7285 34.0637 82.2017 34.7282 82.2017C34.8134 82.2017 34.8996 82.1939 34.9862 82.1779C35.7497 82.0364 36.2541 81.3027 36.1125 80.539L35.6076 77.8141L43.8116 74.6974C44.5376 74.4216 44.9027 73.6094 44.6269 72.8834C44.3511 72.1572 43.5379 71.7923 42.813 72.0682L38.9953 73.5185C37.9243 69.7267 35.173 66.5592 31.5244 64.7446C31.4099 64.0081 30.8851 62.9437 28.9868 62.1941C27.7458 61.7039 26.1254 61.4341 24.4248 61.4341C23.2544 61.4341 22.1367 61.5633 21.1501 61.7986V60.9493C21.1501 60.1726 20.5207 59.543 19.7439 59.543C19.4155 59.543 19.1144 59.6563 18.875 59.8449C18.6532 58.3781 18.529 56.8882 18.5084 55.3773H64.3122C65.089 55.3773 65.7185 54.7477 65.7185 53.9711C65.7185 53.1945 65.089 52.5649 64.3122 52.5649H63.7368C64.6323 50.7206 65.1382 48.6529 65.1382 46.4676C65.1382 45.2269 64.1889 44.2048 62.9791 44.0888C63.5058 43.5921 64.1632 43.2572 64.8959 43.1295C65.1106 43.0922 65.3285 43.0733 65.5437 43.0733C67.3593 43.0733 68.902 44.3721 69.212 46.1612C69.2478 46.3684 69.2661 46.5821 69.2663 46.7968C69.2673 47.5251 69.8241 48.1322 70.5496 48.1959C72.2301 48.3435 73.6051 49.6074 73.8932 51.2694C73.9697 51.7114 73.9602 52.1475 73.8835 52.5649H72.3747C71.5979 52.5649 70.9685 53.1945 70.9685 53.9711C70.9685 54.7477 71.5979 55.3773 72.3747 55.3773H83.3044C83.2695 57.957 82.9373 60.4768 82.3176 62.9216L74.6965 67.4204C74.2304 65.7982 73.147 64.4221 71.6543 63.5866C69.9801 62.6497 67.9906 62.5033 66.1962 63.1848L50.5005 69.1477C49.7743 69.4235 49.4094 70.2357 49.6852 70.9617C49.961 71.6879 50.774 72.0524 51.4991 71.777L53.5668 70.9915L54.2088 74.4578C54.3343 75.1349 54.9253 75.6083 55.59 75.6083C55.6749 75.6083 55.7611 75.6004 55.8478 75.5845C56.6113 75.4431 57.1158 74.7094 56.9744 73.9458L56.2393 69.9764L67.1946 65.8145C68.2098 65.429 69.3344 65.5117 70.2807 66.0414C71.2253 66.5699 71.8797 67.4812 72.0762 68.5409L74.9211 83.8999C75.1172 84.9591 74.8328 86.0415 74.1406 86.8699ZM79.158 75.8626C78.502 75.9831 78.021 76.5479 78.0062 77.2148C77.9916 77.8817 78.4476 78.4671 79.0977 78.6162L89.5676 81.0177L89.3061 82.7725L77.1685 80.5913L75.2712 70.3475L85.8431 64.1068L86.7238 65.6662L77.8067 71.627C77.2523 71.9977 77.0344 72.7068 77.2853 73.3248C77.536 73.9428 78.1866 74.2998 78.8425 74.1792L92.8498 71.6061L93.1618 73.2899L79.158 75.8626Z" fill="#E7E8E7"/>
</g>
</g>
</g>
</g>
<defs>
<clipPath id="clip0_0_1">
<rect width="375" height="812" fill="white" transform="translate(-140 -304)"/>
</clipPath>
</defs>
</svg>
