<svg width="40" height="40" viewBox="0 0 40 40" fill="none" xmlns="http://www.w3.org/2000/svg">
<path d="M20 0C8.9543 0 0 8.9543 0 20C0 31.0457 8.9543 40 20 40C31.0457 40 40 31.0457 40 20C40 8.9543 31.0457 0 20 0ZM20 25.513C16.9601 25.513 14.487 23.0399 14.487 20C14.487 16.9601 16.9601 14.487 20 14.487C23.0399 14.487 25.513 16.9601 25.513 20C25.513 23.0399 23.0399 25.513 20 25.513Z" fill="#FFCE66"/>
<path d="M20 0C8.95453 0 0 8.95453 0 20C0 22.1916 0.3525 24.301 1.00445 26.2745C2.60609 27.8672 4.81211 28.8531 7.24352 28.8531C11.002 28.8531 14.2222 26.4982 15.5034 23.1855C14.8636 22.2858 14.487 21.1855 14.487 20C14.487 16.9602 16.9602 14.487 20 14.487C23.0398 14.487 25.513 16.9602 25.513 20C25.513 21.5163 24.8981 22.8917 23.9034 23.8889V28.6116C23.9034 30.8305 25.7086 32.6358 27.9275 32.6358C29.002 32.6358 30.0128 32.2173 30.7726 31.4567C31.5331 30.697 31.9516 29.6861 31.9516 28.6116V22.4145C31.9516 21.971 32.313 21.6096 32.7565 21.6096C33.0462 21.6096 33.237 21.7577 33.3255 21.8454C33.4132 21.9339 33.5613 22.1247 33.5613 22.4144V24.5874C33.5613 26.8063 35.3665 28.6116 37.5854 28.6116C37.748 28.6116 37.9098 28.6019 38.0699 28.5818C39.307 25.9815 40 23.072 40 20C40 8.95453 31.0455 0 20 0V0Z" fill="#FECE85"/>
<path d="M40 20C40 23.072 39.307 25.9815 38.07 28.5819C37.9098 28.602 37.748 28.6116 37.5855 28.6116C35.3666 28.6116 33.5613 26.8064 33.5613 24.5875V22.4145C33.5613 22.1247 33.4132 21.934 33.3255 21.8455C33.237 21.7577 33.0462 21.6097 32.7566 21.6097C32.3131 21.6097 31.9517 21.9711 31.9517 22.4145V28.6117C31.9517 29.6862 31.5332 30.697 30.7727 31.4568C30.0129 32.2173 29.002 32.6359 27.9276 32.6359C25.7087 32.6359 23.9034 30.8306 23.9034 28.6117V23.889C24.8982 22.8918 25.5131 21.5163 25.5131 20.0001C25.5131 16.9602 23.0399 14.487 20.0001 14.487C16.9602 14.487 14.487 16.9602 14.487 20.0001C14.487 21.1856 14.8637 22.2858 15.5035 23.1856C14.2223 26.4983 11.0021 28.8532 7.24359 28.8532C4.81219 28.8532 2.60617 27.8673 1.00453 26.2745C0.3525 24.301 0 22.1916 0 20C0 8.95453 8.95453 0 20 0C31.0455 0 40 8.95453 40 20Z" fill="#FFCE66"/>
<path d="M40 20V24.5875C40 25.2539 39.7296 25.8575 39.2926 26.2945C39.1663 26.4209 39.027 26.5327 38.8757 26.627C38.5023 26.8652 38.0596 27.002 37.5855 27.002C36.252 27.002 35.1711 25.9212 35.1711 24.5876V22.4145C35.1711 21.7481 34.9007 21.1445 34.4637 20.7075C34.0266 20.2705 33.423 20.0001 32.7566 20.0001C31.423 20.0001 30.3422 21.0809 30.3422 22.4145V28.6117C30.3422 29.2781 30.0718 29.8817 29.6348 30.3187C29.1977 30.7558 28.5941 31.0262 27.9277 31.0262C26.5941 31.0262 25.5133 29.9453 25.5133 28.6117V20C25.5133 16.9602 23.0401 14.487 20.0002 14.487C16.9604 14.487 14.4872 16.9602 14.4872 20C14.4872 24.0008 11.2445 27.2434 7.24375 27.2434C3.24266 27.2434 0 24.0008 0 20C0 8.95453 8.95453 0 20 0C31.0455 0 40 8.95453 40 20Z" fill="#FF9385"/>
<path d="M4.02414 20C4.02414 22.4523 4.46516 24.8016 5.2732 26.9723C2.23016 26.1143 0 23.3175 0 20C0 8.95453 8.95453 0 20 0C20.2543 0 20.5078 0.00484375 20.7605 0.0144531C20.837 0.016875 20.9127 0.0200781 20.9883 0.0241406C21.08 0.028125 21.1718 0.03375 21.2635 0.0394531C21.3472 0.0442969 21.4309 0.0499219 21.5138 0.0563281C21.6804 0.0692188 21.8463 0.0836719 22.012 0.0997656C11.9115 1.10906 4.02414 9.63383 4.02414 20Z" fill="#FE646F"/>
<path d="M4.02414 20C4.02414 9.63383 11.9115 1.10906 22.012 0.0997656C21.3505 0.0338281 20.6793 0 20 0C8.95453 0 0 8.95453 0 20C0 31.0455 8.95453 40 20 40C20.6793 40 21.3505 39.9662 22.0121 39.9002C11.9115 38.8909 4.02414 30.3662 4.02414 20Z" fill="#FFCE66"/>
<path d="M22.0121 0.0997656C21.8463 0.0836719 21.6805 0.0692188 21.5139 0.0563281C21.431 0.0499219 21.3473 0.0442969 21.2636 0.0394531C21.1719 0.0338281 21.0801 0.0282031 20.9884 0.0241406C20.9127 0.0200781 20.837 0.016875 20.7606 0.0144531C20.5078 0.00484375 20.2543 0 20 0C8.95453 0 0 8.95453 0 20C0 23.3175 2.23016 26.1143 5.2732 26.9723C4.46516 24.8016 4.02414 22.4523 4.02414 20C4.02414 9.63383 11.9115 1.10906 22.0121 0.0997656Z" fill="#FF9385"/>
<path d="M3.71541 19.9332C3.38205 19.9332 3.11182 19.6629 3.11182 19.3296V16.9151C3.11182 16.5818 3.38205 16.3115 3.71541 16.3115C4.04877 16.3115 4.319 16.5818 4.319 16.9151V19.3296C4.319 19.6629 4.04877 19.9332 3.71541 19.9332Z" fill="#FFD885"/>
<path d="M35.5333 16.8746C35.1999 16.8746 34.9297 16.6043 34.9297 16.271V13.8565C34.9297 13.5232 35.1999 13.2529 35.5333 13.2529C35.8666 13.2529 36.1369 13.5232 36.1369 13.8565V16.271C36.1369 16.6043 35.8666 16.8746 35.5333 16.8746Z" fill="#FFD885"/>
<path d="M9.07904 14.8416C8.80498 14.8416 8.55701 14.6538 8.49177 14.3755L7.9413 12.0246C7.86536 11.7 8.06685 11.3752 8.39146 11.2992C8.7163 11.2233 9.04083 11.4247 9.11677 11.7493L9.66724 14.1003C9.74318 14.4249 9.54169 14.7497 9.21709 14.8257C9.17091 14.8364 9.12459 14.8416 9.07904 14.8416Z" fill="#FFD885"/>
<path d="M18.4374 11.6053C18.1634 11.6053 17.9154 11.4174 17.8502 11.1392L17.2997 8.78822C17.2238 8.46362 17.4252 8.13885 17.7499 8.06284C18.0745 7.98705 18.3992 8.18838 18.4752 8.51299L19.0256 10.8639C19.1016 11.1885 18.9001 11.5133 18.5755 11.5893C18.5293 11.6001 18.483 11.6053 18.4374 11.6053Z" fill="#FFD885"/>
<path d="M28.5879 9.92542C28.326 9.92542 28.0848 9.75362 28.0083 9.4894C27.9157 9.16917 28.1002 8.83448 28.4204 8.74183L30.7398 8.07073C31.06 7.97831 31.3947 8.16253 31.4874 8.48284C31.58 8.80308 31.3955 9.13776 31.0753 9.23042L28.7559 9.90151C28.7 9.91768 28.6434 9.92542 28.5879 9.92542Z" fill="#FFD885"/>
<path d="M7.64033 23.5931C7.54189 23.5931 7.44212 23.569 7.34978 23.5182C7.05775 23.3574 6.95126 22.9903 7.11204 22.6984L8.27642 20.5832C8.4372 20.2912 8.80416 20.1846 9.09626 20.3455C9.3883 20.5063 9.49478 20.8734 9.334 21.1653L8.16962 23.2805C8.0597 23.4803 7.8533 23.5931 7.64033 23.5931Z" fill="#FFD885"/>
<path d="M29.1647 16.9574C29.0663 16.9574 28.9665 16.9332 28.8742 16.8824C28.5822 16.7217 28.4757 16.3545 28.6365 16.0626L29.8008 13.9474C29.9617 13.6554 30.3288 13.5489 30.6207 13.7097C30.9127 13.8705 31.0192 14.2376 30.8584 14.5295L29.694 16.6447C29.5841 16.8445 29.3777 16.9574 29.1647 16.9574Z" fill="#FFD885"/>
<path d="M12.1544 7.46625C12.0008 7.46625 11.8473 7.40804 11.7295 7.2914C11.4927 7.05672 11.491 6.67453 11.7256 6.43773L13.4251 4.72265C13.6598 4.48593 14.0419 4.48414 14.2788 4.71875C14.5156 4.95343 14.5173 5.33562 14.2827 5.57242L12.5832 7.2875C12.4652 7.40664 12.3098 7.46625 12.1544 7.46625Z" fill="#FFD885"/>
<path d="M24.836 6.4855C24.7079 6.4855 24.5788 6.44487 24.4693 6.36096L22.5529 4.89229C22.2883 4.68948 22.2381 4.31057 22.441 4.04604C22.6438 3.78143 23.0227 3.73136 23.2872 3.93409L25.2036 5.40276C25.4682 5.60557 25.5184 5.98448 25.3156 6.24901C25.1967 6.40401 25.0174 6.4855 24.836 6.4855Z" fill="#FFD885"/>
</svg>
