<svg width="134" height="132" viewBox="0 0 134 132" fill="none" xmlns="http://www.w3.org/2000/svg">
<path opacity="0.15" d="M81.1678 16.9116L16.6328 81.6894C7.44674 90.91 7.44674 105.86 16.6328 115.08C25.8188 124.301 40.7123 124.301 49.8983 115.08L114.433 50.3022C123.619 41.0816 123.619 26.1321 114.433 16.9116C105.247 7.69099 90.3539 7.69099 81.1678 16.9116Z" fill="#D3E9CF"/>
<path d="M117.227 49.3258V90.8052C117.227 92.4366 116.582 94.0014 115.433 95.156C114.285 96.3105 112.727 96.9604 111.102 96.9629L36.1503 97.0101C35.3423 97.0101 34.5423 96.8499 33.7961 96.5387C33.05 96.2274 32.3725 95.7713 31.8025 95.1965C31.2324 94.6217 30.7812 93.9396 30.4745 93.1892C30.1679 92.4388 30.012 91.6351 30.0157 90.8241L30.185 49.6658C30.1925 48.0441 30.8369 46.4908 31.9784 45.3432C33.12 44.1956 34.6664 43.5464 36.282 43.5364L111.055 43.1398C111.866 43.1348 112.67 43.2913 113.42 43.6003C114.171 43.9093 114.853 44.3646 115.427 44.9399C116.001 45.5152 116.455 46.199 116.764 46.9519C117.073 47.7047 117.231 48.5116 117.227 49.3258Z" fill="white"/>
<g opacity="0.3">
<path opacity="0.3" d="M80.184 54.356L65.2368 70.1553L67.2836 72.1063L82.2308 56.3071L80.184 54.356Z" fill="#749F6D"/>
<path opacity="0.3" d="M80.9662 59.9139L71.5209 70.1846L73.595 72.1064L83.0402 61.8357L80.9662 59.9139Z" fill="#749F6D"/>
</g>
<path d="M30.3544 92.4393H115.881C115.881 93.8621 115.318 95.2265 114.316 96.2325C113.314 97.2385 111.954 97.8037 110.537 97.8037H35.6986C34.2812 97.8037 32.9219 97.2385 31.9197 96.2325C30.9174 95.2265 30.3544 93.8621 30.3544 92.4393Z" fill="#D3E9CF"/>
<path d="M82.4703 39.0409C81.2625 39.0409 80.0819 38.6815 79.0778 38.008C78.0736 37.3345 77.2909 36.3772 76.8287 35.2572C76.3665 34.1372 76.2456 32.9048 76.4812 31.7158C76.7168 30.5268 77.2984 29.4347 78.1524 28.5775C79.0064 27.7203 80.0945 27.1365 81.279 26.9C82.4635 26.6635 83.6913 26.7849 84.8071 27.2488C85.9229 27.7127 86.8766 28.4983 87.5476 29.5063C88.2185 30.5143 88.5767 31.6993 88.5767 32.9116C88.5742 34.5364 87.93 36.094 86.7854 37.2429C85.6408 38.3919 84.089 39.0384 82.4703 39.0409ZM82.4703 29.5966C81.8208 29.5966 81.1859 29.7899 80.6459 30.1521C80.1059 30.5143 79.6851 31.0291 79.4365 31.6313C79.188 32.2336 79.123 32.8964 79.2497 33.5357C79.3764 34.1751 79.6891 34.7624 80.1483 35.2234C80.6076 35.6843 81.1927 35.9982 81.8297 36.1254C82.4666 36.2526 83.1269 36.1873 83.7269 35.9379C84.3269 35.6884 84.8398 35.2659 85.2006 34.7239C85.5614 34.1819 85.754 33.5446 85.754 32.8927C85.749 32.0209 85.4012 31.1864 84.7862 30.5709C84.1712 29.9553 83.3388 29.6086 82.4703 29.6061V29.5966Z" fill="#91C788"/>
<path d="M72.4122 38.3524C73.519 38.3524 74.4163 37.4517 74.4163 36.3407C74.4163 35.2297 73.519 34.3291 72.4122 34.3291C71.3053 34.3291 70.4081 35.2297 70.4081 36.3407C70.4081 37.4517 71.3053 38.3524 72.4122 38.3524Z" fill="#91C788"/>
<path d="M39.6409 104.16C40.7478 104.16 41.645 103.259 41.645 102.148C41.645 101.037 40.7478 100.137 39.6409 100.137C38.5341 100.137 37.6368 101.037 37.6368 102.148C37.6368 103.259 38.5341 104.16 39.6409 104.16Z" fill="#D3E9CF"/>
<path d="M49.2663 110.383C48.267 110.383 47.2902 110.086 46.4593 109.529C45.6284 108.971 44.9808 108.179 44.5984 107.253C44.2159 106.326 44.1159 105.306 44.3108 104.322C44.5058 103.339 44.987 102.435 45.6936 101.726C46.4002 101.016 47.3005 100.533 48.2806 100.338C49.2607 100.142 50.2766 100.242 51.1999 100.626C52.1231 101.01 52.9122 101.66 53.4674 102.494C54.0226 103.328 54.3189 104.309 54.3189 105.312C54.3164 106.656 53.7833 107.945 52.8363 108.895C51.8893 109.846 50.6056 110.381 49.2663 110.383ZM49.2663 103.074C48.8253 103.074 48.3942 103.205 48.0275 103.451C47.6608 103.697 47.3749 104.046 47.2062 104.455C47.0374 104.864 46.9932 105.314 47.0793 105.748C47.1653 106.183 47.3777 106.582 47.6895 106.895C48.0014 107.208 48.3987 107.421 48.8313 107.507C49.2639 107.593 49.7122 107.549 50.1197 107.38C50.5271 107.21 50.8754 106.923 51.1204 106.555C51.3655 106.187 51.4962 105.755 51.4962 105.312C51.4962 105.018 51.4386 104.727 51.3265 104.455C51.2144 104.184 51.0502 103.937 50.8431 103.729C50.636 103.521 50.3902 103.356 50.1197 103.244C49.8491 103.131 49.5592 103.074 49.2663 103.074Z" fill="#B2D8AC"/>
<path d="M35.1529 98.4269C34.1604 98.4269 33.1778 98.2299 32.2615 97.8473C31.3452 97.4647 30.5133 96.9039 29.8137 96.1973C29.1141 95.4907 28.5607 94.6522 28.1852 93.7301C27.8097 92.808 27.6196 91.8204 27.6258 90.8242L27.8328 49.666C27.8328 47.6621 28.6258 45.7404 30.0374 44.3235C31.449 42.9065 33.3636 42.1105 35.3599 42.1105L110.132 41.7139C112.129 41.7139 114.043 42.5099 115.455 43.9268C116.867 45.3437 117.66 47.2655 117.66 49.2693V90.8054C117.66 92.8092 116.867 94.7309 115.455 96.1479C114.043 97.5648 112.129 98.3608 110.132 98.3608L35.1717 98.408L35.1529 98.4269ZM110.114 44.5944L35.3505 44.9438C34.1028 44.9438 32.9062 45.4413 32.0239 46.3269C31.1417 47.2125 30.646 48.4136 30.646 49.666L30.4484 90.8337C30.4484 92.0861 30.9441 93.2872 31.8263 94.1728C32.7086 95.0583 33.9052 95.5558 35.1529 95.5558L110.114 95.5086C111.361 95.5086 112.558 95.0111 113.44 94.1255C114.322 93.24 114.818 92.0389 114.818 90.7865V49.326C114.818 48.0736 114.322 46.8725 113.44 45.9869C112.558 45.1013 111.361 44.6038 110.114 44.6038V44.5944Z" fill="#B2D8AC"/>
<path d="M72.6756 81.437C71.3347 81.4401 70.0064 81.1763 68.7677 80.6608C67.529 80.1453 66.4044 79.3883 65.459 78.4337L40.8923 53.7841L42.887 51.7819L67.4537 76.4315C68.8388 77.8214 70.7171 78.6022 72.6756 78.6022C74.6342 78.6022 76.5125 77.8214 77.8976 76.4315L102.464 51.7725L104.459 53.7747L79.8923 78.4337C78.9469 79.3883 77.8223 80.1453 76.5836 80.6608C75.3449 81.1763 74.0166 81.4401 72.6756 81.437Z" fill="#B2D8AC"/>
<path d="M55.6878 65.7956L37.5145 86.6035L39.637 88.4713L57.8103 67.6633L55.6878 65.7956Z" fill="#B2D8AC"/>
<path d="M89.6646 65.784L87.5417 67.6514L105.711 88.4625L107.834 86.5951L89.6646 65.784Z" fill="#B2D8AC"/>
<path d="M110.321 46.7285H108.439V56.9661H110.321V46.7285Z" fill="white"/>
<path d="M110.321 58.4307H108.439V62.8223H110.321V58.4307Z" fill="white"/>
<path d="M110.321 64.2764H108.439V65.7402H110.321V64.2764Z" fill="white"/>
<path d="M111.666 51.4414H109.784V63.4262H111.666V51.4414Z" fill="white"/>
<path d="M111.666 65.1357H109.784V70.2734H111.666V65.1357Z" fill="white"/>
<path d="M111.666 71.9834H109.784V73.6928H111.666V71.9834Z" fill="white"/>
<path d="M109.126 74.3348C122.725 74.3348 133.749 63.2692 133.749 49.6191C133.749 35.9689 122.725 24.9033 109.126 24.9033C95.5268 24.9033 84.5027 35.9689 84.5027 49.6191C84.5027 63.2692 95.5268 74.3348 109.126 74.3348Z" fill="white"/>
<path d="M109.749 70C120.795 70 129.749 61.0457 129.749 50C129.749 38.9543 120.795 30 109.749 30C98.7032 30 89.7489 38.9543 89.7489 50C89.7489 61.0457 98.7032 70 109.749 70Z" fill="#D3E9CF"/>
<path d="M128.249 50C128.249 60.2173 119.966 68.5 109.749 68.5C99.5316 68.5 91.2489 60.2173 91.2489 50C91.2489 39.7827 99.5316 31.5 109.749 31.5C119.966 31.5 128.249 39.7827 128.249 50Z" stroke="#B2D8AC" stroke-width="3"/>
<path fill-rule="evenodd" clip-rule="evenodd" d="M99.7489 50C99.7489 44.477 104.226 40 109.749 40C115.272 40 119.749 44.477 119.749 50C119.749 55.523 115.272 60 109.749 60C104.226 60 99.7489 55.523 99.7489 50ZM113.456 48.707C113.638 48.5184 113.739 48.2658 113.737 48.0036C113.734 47.7414 113.629 47.4906 113.444 47.3052C113.258 47.1198 113.007 47.0146 112.745 47.0123C112.483 47.01 112.231 47.1108 112.042 47.293L108.749 50.586L107.456 49.293C107.267 49.1108 107.015 49.01 106.753 49.0123C106.49 49.0146 106.239 49.1198 106.054 49.3052C105.869 49.4906 105.764 49.7414 105.761 50.0036C105.759 50.2658 105.86 50.5184 106.042 50.707L108.042 52.707C108.229 52.8945 108.484 52.9998 108.749 52.9998C109.014 52.9998 109.268 52.8945 109.456 52.707L113.456 48.707Z" fill="#749F6D"/>
</svg>
