<svg width="112" height="210" viewBox="0 0 112 210" fill="none" xmlns="http://www.w3.org/2000/svg">
<g id="freepik  Device  inject 171">
<path id="Vector" d="M102.011 0.794922H9.97753C7.48644 0.818745 5.10677 1.83085 3.3617 3.60871C1.61662 5.38657 0.648984 7.78467 0.671528 10.2758V199.752C0.650481 202.242 1.6186 204.639 3.36336 206.417C5.10811 208.195 7.48691 209.207 9.97753 209.232H102.011C104.503 209.209 106.884 208.197 108.631 206.419C110.378 204.642 111.348 202.244 111.328 199.752V10.2758C111.349 7.78317 110.38 5.38424 108.632 3.60638C106.885 1.82853 104.504 0.817263 102.011 0.794922ZM105.502 193.863C105.502 198.849 101.769 202.887 97.1663 202.887H14.8279C10.2144 202.887 6.48073 198.855 6.48073 193.863V17.4611C6.48073 7.30912 10.2144 6.80716 14.8279 6.80716H31.3249C32.2837 6.80716 33.0677 7.89568 33.0677 9.24364V9.80764C33.0677 12.9717 34.7992 12.983 36.9198 12.983H75.0631C77.2063 12.983 78.9265 12.983 78.9265 9.80764V9.24364C78.9265 7.89568 79.6992 6.80716 80.6749 6.80716H97.1719C101.774 6.80716 105.508 8.15512 105.508 17.4611L105.502 193.863Z" fill="#3A5036"/>
<path id="Vector_2" d="M105.508 17.6129V194.015C105.508 199.007 101.774 203.039 97.1719 203.039H14.8279C10.2144 203.039 6.48071 199.007 6.48071 194.015V17.6129C6.48071 7.46094 10.2144 6.95898 14.8279 6.95898H31.3249C32.2837 6.95898 33.0677 8.04751 33.0677 9.40111V9.96511C33.0677 13.1291 34.7992 13.1404 36.9198 13.1404H75.0575C77.2007 13.1404 78.9209 13.1404 78.9209 9.96511V9.40111C78.9209 8.04751 79.6936 6.95898 80.6693 6.95898H97.1719C101.774 6.95898 105.508 8.31258 105.508 17.6129Z" fill="white"/>
<path id="Vector_3" opacity="0.1" d="M105.508 40.1396V194.021C105.508 199.007 101.774 203.045 97.1719 203.045H14.8279C10.2144 203.045 6.48071 199.013 6.48071 194.021V78.5593C28.1552 75.7788 49.9087 107.43 70.0886 98.1019C88.5484 89.5517 87.7193 62.5248 94.5719 50.2014C97.0262 45.7476 100.865 42.2152 105.508 40.1396Z" fill="#91C788"/>
<path id="Vector_4" opacity="0.2" d="M105.508 141.457V194.021C105.508 199.007 101.774 203.045 97.1719 203.045H14.8279C10.2144 203.045 6.48071 199.013 6.48071 194.021V125.304C18.2401 145.85 31.3926 151.767 43.3776 148.727C57.049 145.264 76.6198 127.554 95.0344 133.707C99.2497 135.132 102.912 137.842 105.508 141.457Z" fill="#91C788"/>
<path id="Vector_5" d="M61.2001 9.05155H50.7943C50.6238 9.05155 50.4603 8.98381 50.3397 8.86323C50.2191 8.74265 50.1514 8.57911 50.1514 8.40859C50.1514 8.23806 50.2191 8.07452 50.3397 7.95395C50.4603 7.83337 50.6238 7.76562 50.7943 7.76562H61.2001C61.3706 7.76562 61.5342 7.83337 61.6547 7.95395C61.7753 8.07452 61.8431 8.23806 61.8431 8.40859C61.8431 8.57911 61.7753 8.74265 61.6547 8.86323C61.5342 8.98381 61.3706 9.05155 61.2001 9.05155Z" fill="white"/>
<g id="freepik  u5Zjqx  inject 171">
<path id="Vector_6" d="M28.4825 10.7666L28.3245 10.9245L28.2343 11.0148C28.033 10.812 27.7936 10.6511 27.5298 10.5413C27.266 10.4315 26.9831 10.375 26.6974 10.375C26.4117 10.375 26.1288 10.4315 25.865 10.5413C25.6012 10.6511 25.3618 10.812 25.1605 11.0148L25.0759 10.9245L24.918 10.7666L25.121 10.5861C25.2624 10.4696 25.4178 10.3711 25.5835 10.2929C25.7791 10.1935 25.988 10.1232 26.2039 10.0842C26.3054 10.0842 26.4069 10.0842 26.5141 10.0391H26.7792H26.9935C27.1858 10.0641 27.3748 10.1095 27.5575 10.1744C27.6895 10.2254 27.8176 10.2857 27.941 10.3549C28.0723 10.4278 28.1952 10.5148 28.3076 10.6143L28.4768 10.7666H28.4825Z" fill="#A6A6A6"/>
<path id="Vector_7" d="M25.6681 11.5168L25.4143 11.2686C25.6892 10.9873 26.0508 10.8065 26.4408 10.7554C26.7193 10.7122 27.004 10.7357 27.2717 10.824C27.5394 10.9122 27.7823 11.0627 27.9805 11.263L27.7267 11.5168C27.5919 11.3809 27.4316 11.273 27.2549 11.1994C27.0783 11.1258 26.8888 11.0879 26.6974 11.0879C26.506 11.0879 26.3165 11.1258 26.1399 11.1994C25.9632 11.273 25.8029 11.3809 25.6681 11.5168Z" fill="#A6A6A6"/>
<path id="Vector_8" d="M27.4729 11.7704L27.2247 12.0186C27.1556 11.9492 27.0734 11.8941 26.9829 11.8566C26.8924 11.819 26.7954 11.7996 26.6974 11.7996C26.5994 11.7996 26.5024 11.819 26.4119 11.8566C26.3214 11.8941 26.2392 11.9492 26.1701 12.0186L25.9163 11.7704C26.018 11.6674 26.1392 11.5857 26.2728 11.5299C26.4064 11.4741 26.5498 11.4453 26.6946 11.4453C26.8394 11.4453 26.9827 11.4741 27.1163 11.5299C27.2499 11.5857 27.3711 11.6674 27.4729 11.7704Z" fill="#A6A6A6"/>
<path id="Vector_9" d="M26.9202 12.2442C26.9202 12.2888 26.907 12.3324 26.8822 12.3695C26.8574 12.4066 26.8221 12.4355 26.7809 12.4526C26.7397 12.4697 26.6943 12.4741 26.6506 12.4654C26.6068 12.4567 26.5666 12.4352 26.5351 12.4037C26.5035 12.3721 26.482 12.3319 26.4733 12.2882C26.4646 12.2444 26.4691 12.199 26.4862 12.1578C26.5032 12.1166 26.5322 12.0814 26.5693 12.0566C26.6064 12.0318 26.65 12.0186 26.6946 12.0186C26.7242 12.0186 26.7535 12.0244 26.7809 12.0357C26.8083 12.0471 26.8332 12.0637 26.8541 12.0846C26.8751 12.1056 26.8917 12.1305 26.903 12.1578C26.9143 12.1852 26.9202 12.2145 26.9202 12.2442Z" fill="#A6A6A6"/>
</g>
<path id="Vector_10" d="M12.9441 11.2514C12.943 11.1204 12.9809 10.9921 13.053 10.8827C13.1251 10.7733 13.2281 10.6879 13.3489 10.6372C13.4697 10.5866 13.6028 10.5731 13.7313 10.5983C13.8599 10.6236 13.978 10.6866 14.0706 10.7792C14.1632 10.8718 14.2262 10.9899 14.2515 11.1185C14.2767 11.247 14.2632 11.3801 14.2125 11.5009C14.1619 11.6217 14.0765 11.7247 13.9671 11.7968C13.8577 11.8689 13.7293 11.9068 13.5984 11.9057C13.4248 11.9057 13.2584 11.8367 13.1357 11.7141C13.013 11.5914 12.9441 11.4249 12.9441 11.2514Z" fill="#A6A6A6"/>
<path id="Vector_11" d="M15.0083 11.2515C15.0072 11.1207 15.045 10.9926 15.1168 10.8833C15.1886 10.7741 15.2913 10.6886 15.4117 10.6378C15.5322 10.587 15.6651 10.5731 15.7934 10.5979C15.9218 10.6228 16.0399 10.6852 16.1328 10.7772C16.2256 10.8693 16.289 10.9868 16.315 11.115C16.3409 11.2431 16.3282 11.3761 16.2784 11.497C16.2286 11.6179 16.144 11.7213 16.0354 11.7941C15.9268 11.8668 15.799 11.9057 15.6682 11.9057C15.4942 11.9057 15.3272 11.837 15.2036 11.7144C15.08 11.5919 15.0098 11.4255 15.0083 11.2515Z" fill="#A6A6A6"/>
<path id="Vector_12" d="M17.084 11.2514C17.0829 11.1204 17.1208 10.9921 17.1929 10.8827C17.2649 10.7733 17.3679 10.6879 17.4887 10.6372C17.6096 10.5866 17.7427 10.5731 17.8712 10.5983C17.9997 10.6236 18.1178 10.6866 18.2105 10.7792C18.3031 10.8718 18.3661 10.9899 18.3913 11.1185C18.4166 11.247 18.4031 11.3801 18.3524 11.5009C18.3018 11.6217 18.2163 11.7247 18.107 11.7968C17.9976 11.8689 17.8692 11.9068 17.7383 11.9057C17.5647 11.9057 17.3983 11.8367 17.2756 11.7141C17.1529 11.5914 17.084 11.4249 17.084 11.2514Z" fill="#A6A6A6"/>
<path id="Vector_13" d="M19.1426 11.2515C19.1415 11.1207 19.1792 10.9926 19.2511 10.8833C19.3229 10.7741 19.4256 10.6886 19.546 10.6378C19.6665 10.587 19.7994 10.5731 19.9277 10.5979C20.0561 10.6228 20.1742 10.6852 20.2671 10.7772C20.3599 10.8693 20.4233 10.9868 20.4493 11.115C20.4752 11.2431 20.4624 11.3761 20.4127 11.497C20.3629 11.6179 20.2783 11.7213 20.1697 11.7941C20.061 11.8668 19.9332 11.9057 19.8025 11.9057C19.6285 11.9057 19.4615 11.837 19.3379 11.7144C19.2143 11.5919 19.1441 11.4255 19.1426 11.2515Z" fill="#A6A6A6"/>
<path id="Vector_14" d="M21.2124 11.2514C21.2113 11.1204 21.2492 10.9921 21.3213 10.8827C21.3934 10.7733 21.4964 10.6879 21.6172 10.6372C21.738 10.5866 21.8711 10.5731 21.9996 10.5983C22.1282 10.6236 22.2463 10.6866 22.3389 10.7792C22.4315 10.8718 22.4945 10.9899 22.5197 11.1185C22.545 11.247 22.5315 11.3801 22.4808 11.5009C22.4302 11.6217 22.3447 11.7247 22.2354 11.7968C22.126 11.8689 21.9976 11.9068 21.8667 11.9057C21.6931 11.9057 21.5267 11.8367 21.404 11.7141C21.2814 11.5914 21.2124 11.4249 21.2124 11.2514Z" fill="#A6A6A6"/>
<path id="Vector_15" d="M98.0799 12.684H92.7332V10.208H98.0799V12.684ZM93.0039 12.4076H97.7979V10.4787H93.0039V12.4076Z" fill="#A6A6A6"/>
<path id="Vector_16" d="M96.6247 10.625H93.1787V12.2606H96.6247V10.625Z" fill="#A6A6A6"/>
<path id="Vector_17" d="M98.5538 10.7832H98.0801V12.1086H98.5538V10.7832Z" fill="#A6A6A6"/>
<path id="Vector_18" d="M36.9987 54.9781V56.5516H28.3921V54.9781H31.996V44.0872C31.8034 44.3465 31.5667 44.5699 31.2966 44.7471C30.5872 45.2543 29.8033 45.6481 28.973 45.9146C28.6097 46.04 28.2292 46.1085 27.845 46.1176V44.4256C28.2924 44.4122 28.7314 44.3006 29.1309 44.0985C29.5904 43.8803 30.0317 43.6257 30.4506 43.3371C30.8184 43.0861 31.1706 42.813 31.5053 42.5193C31.6917 42.3774 31.8537 42.2059 31.9847 42.0117H33.7613V54.9442L36.9987 54.9781Z" fill="#A6A6A6"/>
<path id="Vector_19" d="M51.7078 49.1073C51.7181 50.1573 51.5542 51.2017 51.2227 52.198C50.9283 53.0832 50.4775 53.9085 49.8917 54.6345C49.3409 55.3066 48.6524 55.8528 47.8726 56.2363C47.0789 56.6106 46.2122 56.8047 45.3346 56.8047C44.457 56.8047 43.5903 56.6106 42.7966 56.2363C42.0148 55.8534 41.3243 55.3072 40.7718 54.6345C40.186 53.9085 39.7352 53.0832 39.4408 52.198C38.7942 50.1902 38.7942 48.03 39.4408 46.0222C39.7339 45.1365 40.1849 44.311 40.7718 43.5857C41.3242 42.9123 42.0121 42.3627 42.7909 41.9727C43.5816 41.5877 44.4495 41.3877 45.3289 41.3877C46.2084 41.3877 47.0763 41.5877 47.867 41.9727C48.6458 42.3627 49.3337 42.9123 49.8861 43.5857C50.473 44.311 50.9239 45.1365 51.2171 46.0222C51.55 47.0164 51.7158 48.0589 51.7078 49.1073ZM49.9537 49.1073C49.9649 48.2656 49.8489 47.4271 49.6097 46.6201C49.411 45.9283 49.088 45.2785 48.6565 44.7025C48.2694 44.1847 47.7725 43.7591 47.2014 43.456C46.6239 43.1605 45.9833 43.0096 45.3346 43.0161C44.6766 43.007 44.0262 43.158 43.4395 43.456C42.8657 43.7573 42.3666 44.1832 41.9788 44.7025C41.5516 45.2812 41.229 45.9302 41.0256 46.6201C40.5668 48.2484 40.5668 49.9718 41.0256 51.6002C41.229 52.2901 41.5516 52.9391 41.9788 53.5178C42.3656 54.0336 42.8653 54.4541 43.4395 54.7473C44.0276 55.0408 44.6773 55.1897 45.3346 55.1816C45.9825 55.1872 46.6225 55.0383 47.2014 54.7473C47.773 54.4524 48.2704 54.0321 48.6565 53.5178C49.088 52.9417 49.411 52.2919 49.6097 51.6002C49.8493 50.7913 49.9653 49.9508 49.9537 49.1073Z" fill="#A6A6A6"/>
<path id="Vector_20" d="M54.7534 45.8808V43.3936H56.2311V45.8808H54.7534ZM54.7534 56.5517V54.0644H56.2311V56.5517H54.7534Z" fill="#A6A6A6"/>
<path id="Vector_21" d="M66.5919 50.5564C67.6453 50.7069 68.6026 51.251 69.2709 52.0792C69.9561 52.9541 70.3115 54.0423 70.2748 55.153C70.2821 55.8736 70.14 56.588 69.8575 57.251C69.5838 57.8741 69.1754 58.4289 68.6618 58.8754C68.117 59.3405 67.4867 59.6949 66.8062 59.9188C66.0326 60.171 65.2229 60.2949 64.4092 60.2854C63.2346 60.3127 62.0716 60.0471 61.0252 59.5127C60.0984 59.0299 59.3365 58.2817 58.8369 57.3638L60.0326 56.2697C60.3843 57.0124 60.95 57.633 61.6569 58.0519C62.4948 58.5192 63.4449 58.7474 64.4036 58.7118C65.4815 58.7737 66.5454 58.4432 67.3984 57.7812C67.7695 57.4509 68.0608 57.0408 68.2503 56.5816C68.4398 56.1224 68.5227 55.6262 68.4926 55.1304C68.5194 54.6143 68.4323 54.0986 68.2373 53.62C68.0424 53.1414 67.7444 52.7116 67.3646 52.3612C66.4282 51.6262 65.2527 51.2645 64.0652 51.346H63.4279V49.8739H64.116C65.1904 49.9444 66.2541 49.6239 67.1108 48.9715C67.4498 48.6827 67.7196 48.3214 67.9002 47.9143C68.0808 47.5072 68.1676 47.0648 68.1542 46.6196C68.1626 46.1548 68.0662 45.6941 67.8722 45.2717C67.6915 44.8923 67.4273 44.5588 67.0995 44.296C66.7519 44.0242 66.3557 43.8213 65.932 43.6981C65.4525 43.5681 64.9566 43.5092 64.46 43.5233C63.5654 43.5044 62.6824 43.7285 61.9051 44.1719C61.1728 44.5825 60.5827 45.206 60.2131 45.9598L59.0851 44.8938C59.2969 44.4423 59.5894 44.0333 59.948 43.6868C60.3258 43.3208 60.7529 43.0095 61.217 42.7619C61.7169 42.4987 62.2473 42.2979 62.7962 42.164C63.3776 42.0214 63.9741 41.9494 64.5728 41.9497C65.3003 41.9408 66.0243 42.0513 66.716 42.2768C67.334 42.4768 67.9082 42.7926 68.408 43.2074C68.8851 43.5959 69.2703 44.0851 69.536 44.64C69.8004 45.2224 69.9333 45.856 69.9251 46.4956C69.9278 46.9914 69.8516 47.4844 69.6996 47.9563C69.5552 48.4076 69.3317 48.8297 69.0397 49.2028C68.7467 49.5691 68.3893 49.8787 67.985 50.1164C67.5542 50.3537 67.0808 50.5032 66.5919 50.5564Z" fill="#A6A6A6"/>
<path id="Vector_22" d="M80.4888 59.7785V55.2665H72.0288V53.7437L81.0528 42.0576H82.2203V53.676H84.4763V55.2496H82.2203V59.7616L80.4888 59.7785ZM73.8562 53.676H80.6637V44.7648L73.8562 53.676Z" fill="#A6A6A6"/>
<path id="Vector_23" d="M34.2972 64.3348H32.4304V69.1231H31.9115V64.3348H30.0559V63.8779H34.3085L34.2972 64.3348Z" fill="#A6A6A6"/>
<path id="Vector_24" d="M35.3912 69.1971C35.2136 69.2109 35.0354 69.1799 34.8728 69.107C34.7102 69.0341 34.5685 68.9216 34.4606 68.7798C34.2273 68.4079 34.1187 67.9712 34.1504 67.5333V65.2773H34.6524V67.4544C34.6524 68.3229 34.9513 68.7629 35.5492 68.7629C35.6968 68.7609 35.8433 68.7362 35.9834 68.6895C36.1257 68.6397 36.259 68.5674 36.3782 68.4752C36.5011 68.3787 36.611 68.2669 36.7054 68.1425C36.8044 68.0084 36.8824 67.8601 36.9366 67.7025V65.2773H37.4386V68.4809C37.4386 68.6162 37.5006 68.6895 37.619 68.6895V69.1295H37.4724H37.3878C37.3336 69.1281 37.2803 69.116 37.2309 69.0937C37.1815 69.0714 37.137 69.0395 37.1002 68.9997C37.0621 68.9569 37.033 68.9069 37.0146 68.8527C36.9962 68.7984 36.9889 68.741 36.993 68.6839V68.244C36.8319 68.5287 36.5984 68.7659 36.3161 68.9313C36.0338 69.0967 35.7128 69.1845 35.3856 69.1859L35.3912 69.1971Z" fill="#A6A6A6"/>
<path id="Vector_25" d="M40.2418 69.1965C39.9828 69.2 39.726 69.1491 39.488 69.0471C39.25 68.9451 39.036 68.7943 38.86 68.6043C38.6866 68.4176 38.5506 68.1994 38.4595 67.9614C38.2638 67.4668 38.2638 66.9162 38.4595 66.4217C38.5511 66.1903 38.685 65.978 38.8543 65.7956C39.0269 65.6137 39.234 65.468 39.4634 65.367C39.7077 65.2627 39.9705 65.209 40.2361 65.209C40.5017 65.209 40.7645 65.2627 41.0088 65.367C41.2363 65.4682 41.44 65.6162 41.6066 65.8013C41.776 65.9836 41.9099 66.1959 42.0014 66.4273C42.0947 66.6684 42.1425 66.9246 42.1424 67.1831V67.2959C42.1468 67.3239 42.1468 67.3524 42.1424 67.3805H38.8487C38.862 67.576 38.9118 67.7672 38.9953 67.9445C39.07 68.1144 39.1751 68.2692 39.3055 68.4013C39.4325 68.5272 39.5816 68.6286 39.7454 68.7002C39.9126 68.773 40.0933 68.8095 40.2756 68.8074C40.3996 68.8075 40.5229 68.7905 40.6422 68.7566C40.7626 68.7249 40.8782 68.6775 40.9862 68.6156C41.0903 68.5587 41.1838 68.4843 41.2626 68.3957C41.3452 68.3159 41.4105 68.2199 41.4544 68.1137L41.8943 68.2321C41.8312 68.3747 41.7455 68.5061 41.6405 68.6213C41.4071 68.8595 41.1154 69.0325 40.7945 69.1232C40.6142 69.1714 40.4284 69.1961 40.2418 69.1965ZM41.6574 66.9969C41.6473 66.8016 41.5995 66.61 41.5164 66.4329C41.4423 66.2677 41.337 66.1183 41.2062 65.993C41.0806 65.8695 40.9334 65.7701 40.7719 65.6997C40.6034 65.6321 40.4234 65.5976 40.2418 65.5982C40.0619 65.596 39.8834 65.6297 39.7168 65.6976C39.5502 65.7654 39.3989 65.8658 39.2717 65.993C39.1403 66.1166 39.0365 66.2665 38.9671 66.4329C38.8872 66.6108 38.8413 66.8021 38.8318 66.9969H41.6574Z" fill="#A6A6A6"/>
<path id="Vector_26" d="M44.1953 69.1967C43.8961 69.1957 43.5989 69.1462 43.3155 69.0501C43.0423 68.9597 42.7908 68.8137 42.5767 68.6214L42.8079 68.283C43.0063 68.4492 43.2288 68.5842 43.4678 68.6835C43.6985 68.7703 43.9432 68.8143 44.1897 68.8132C44.449 68.8262 44.7063 68.7614 44.9285 68.6271C45.0171 68.5694 45.0892 68.4897 45.1377 68.3958C45.1861 68.3018 45.2093 68.1969 45.2049 68.0913C45.2098 67.9955 45.1842 67.9007 45.1316 67.8206C45.0768 67.7402 45.0032 67.6743 44.9173 67.6288C44.8006 67.5684 44.6777 67.5212 44.5507 67.4878C44.4097 67.4427 44.2405 67.4032 44.0487 67.3581C43.8569 67.313 43.6313 67.2509 43.4847 67.1945C43.3431 67.1518 43.2082 67.0892 43.0843 67.0084C42.9833 66.9474 42.9013 66.8595 42.8474 66.7546C42.7919 66.6366 42.7648 66.5071 42.7684 66.3767C42.7655 66.1986 42.8062 66.0224 42.8869 65.8635C42.9614 65.7195 43.0674 65.5942 43.1971 65.4969C43.3354 65.3989 43.4901 65.3263 43.6539 65.2826C43.8374 65.2313 44.0274 65.2067 44.2179 65.2092C44.4932 65.205 44.7669 65.2528 45.0244 65.3502C45.2377 65.4363 45.43 65.5671 45.5884 65.7338L45.3459 66.027C45.201 65.8775 45.0234 65.7636 44.827 65.6943C44.6208 65.62 44.4033 65.5818 44.1841 65.5815C44.0605 65.5815 43.9374 65.5967 43.8175 65.6266C43.7104 65.6501 43.6088 65.6941 43.5185 65.7563C43.4301 65.8099 43.3595 65.8884 43.3155 65.9819C43.2635 66.0809 43.2383 66.1917 43.2422 66.3034C43.2386 66.389 43.256 66.4742 43.2929 66.5516C43.3326 66.6225 43.3912 66.6811 43.4621 66.7208C43.5576 66.7716 43.6577 66.8131 43.7611 66.8449L44.201 66.9577C44.4491 67.0197 44.6635 67.0761 44.8496 67.1381C45.014 67.1846 45.1714 67.2529 45.3177 67.3412C45.4361 67.4115 45.535 67.5104 45.6054 67.6288C45.6712 67.7579 45.7041 67.9013 45.7012 68.0462C45.7092 68.2126 45.6752 68.3784 45.6022 68.5282C45.5293 68.678 45.4198 68.8071 45.2839 68.9034C44.9634 69.1187 44.5806 69.2218 44.1953 69.1967Z" fill="#A6A6A6"/>
<path id="Vector_27" d="M48.104 69.1966C47.8485 69.1986 47.5959 69.1426 47.3651 69.033C47.1511 68.9233 46.9597 68.774 46.8011 68.5931C46.6381 68.4071 46.51 68.1931 46.4233 67.9615C46.3315 67.7219 46.2838 67.4678 46.2823 67.2113C46.2808 66.9477 46.3267 66.6861 46.4176 66.4387C46.4999 66.2056 46.6242 65.9896 46.7842 65.8013C46.9386 65.6174 47.131 65.4693 47.3482 65.367C47.5676 65.2598 47.8091 65.2057 48.0532 65.2091C48.3618 65.2038 48.6647 65.2923 48.9218 65.4629C49.1518 65.6249 49.3442 65.8346 49.4858 66.0777V63.7314H49.9878V68.4747C49.9878 68.6101 50.0498 68.6834 50.1682 68.6834V69.1233C50.1083 69.1299 50.0477 69.1299 49.9878 69.1233C49.8744 69.1226 49.7648 69.0828 49.6776 69.0105C49.6373 68.9765 49.6049 68.9341 49.5826 68.8865C49.5602 68.8388 49.5483 68.7868 49.5478 68.7341V68.3562C49.3961 68.6057 49.1824 68.8117 48.9274 68.9541C48.679 69.1058 48.395 69.1895 48.104 69.1966ZM48.2112 68.7567C48.3458 68.7533 48.4791 68.7285 48.606 68.6834C48.7486 68.6331 48.8835 68.5629 49.0064 68.4747C49.1244 68.3914 49.229 68.2906 49.3166 68.1758C49.3991 68.0666 49.4534 67.9387 49.4745 67.8035V66.6135C49.4265 66.4756 49.3539 66.3476 49.2602 66.2356C49.1671 66.1202 49.059 66.0177 48.9387 65.931C48.8218 65.8431 48.6926 65.7728 48.5552 65.7224C48.4244 65.6771 48.2874 65.6524 48.1491 65.649C47.9527 65.6462 47.7588 65.6928 47.5851 65.7844C47.4191 65.8718 47.2716 65.9905 47.1508 66.1341C47.0308 66.2845 46.9374 66.4542 46.8745 66.636C46.8128 66.8178 46.7804 67.0082 46.7786 67.2C46.7794 67.4027 46.8177 67.6035 46.8914 67.7922C46.9615 67.9733 47.0648 68.1397 47.1959 68.2829C47.3223 68.4232 47.4758 68.5364 47.6471 68.6157C47.8203 68.7041 48.0111 68.7523 48.2055 68.7567H48.2112Z" fill="#A6A6A6"/>
<path id="Vector_28" d="M52.0801 69.1966C51.7426 69.204 51.4152 69.0808 51.1664 68.8525C51.0539 68.742 50.9622 68.612 50.8957 68.469C50.8321 68.3211 50.7995 68.1618 50.7998 68.0009C50.799 67.8373 50.8397 67.6762 50.9183 67.5328C51.0007 67.3874 51.1143 67.2622 51.251 67.1661C51.4076 67.0576 51.581 66.9757 51.7643 66.9236C51.9755 66.8653 52.1938 66.8368 52.4129 66.839C52.6132 66.8394 52.8132 66.8563 53.0107 66.8898C53.2037 66.9198 53.3928 66.9709 53.5747 67.0421V66.6924C53.5886 66.3962 53.4852 66.1065 53.2871 65.8859C53.1823 65.7819 53.0569 65.7011 52.9189 65.6486C52.781 65.5961 52.6336 65.5732 52.4862 65.5813C52.2797 65.5858 52.0755 65.6258 51.8827 65.6998C51.6593 65.7891 51.4473 65.9046 51.251 66.0438L51.0762 65.711C51.497 65.4002 52.0027 65.2251 52.5257 65.2091C52.7312 65.1985 52.9368 65.229 53.1305 65.2987C53.3242 65.3684 53.502 65.476 53.6537 65.6151C53.7973 65.7642 53.9085 65.9414 53.9803 66.1355C54.0522 66.3296 54.083 66.5365 54.071 66.7431V68.4803C54.071 68.6156 54.1331 68.6889 54.2572 68.6889V69.1289C54.1915 69.1351 54.1254 69.1351 54.0598 69.1289C53.9518 69.1337 53.8458 69.0997 53.7608 69.033C53.7254 68.9985 53.6971 68.9573 53.6777 68.9118C53.6584 68.8663 53.6483 68.8174 53.648 68.7679V68.4634C53.475 68.6939 53.2459 68.8764 52.9825 68.9935C52.7011 69.129 52.3924 69.1984 52.0801 69.1966ZM52.1985 68.813C52.4467 68.8146 52.6926 68.7647 52.9205 68.6664C53.1179 68.5809 53.2891 68.4447 53.4168 68.2716C53.4604 68.2325 53.495 68.1844 53.5183 68.1306C53.5396 68.0846 53.5511 68.0346 53.5522 67.9839V67.3579C53.3817 67.2946 53.2062 67.2455 53.0276 67.2113C52.8417 67.1763 52.6528 67.1593 52.4636 67.1605C52.1588 67.1475 51.8569 67.2239 51.5951 67.3805C51.4964 67.4386 51.4141 67.5209 51.3559 67.6195C51.2977 67.7182 51.2655 67.83 51.2623 67.9445C51.2631 68.0593 51.2881 68.1727 51.3356 68.2772C51.3795 68.3801 51.4449 68.4724 51.5274 68.5479C51.6119 68.6273 51.7117 68.6887 51.8207 68.7284C51.9395 68.7822 52.0681 68.811 52.1985 68.813Z" fill="#A6A6A6"/>
<path id="Vector_29" d="M55.2667 70.3076H55.3795H55.4866C55.5578 70.3107 55.6288 70.2992 55.6953 70.2737C55.7595 70.2334 55.812 70.177 55.8476 70.1102C55.9135 69.9946 55.9701 69.8739 56.0168 69.7492C56.0788 69.5913 56.1634 69.377 56.2762 69.1119L54.5842 65.2598H55.0975L56.5244 68.6438L57.8498 65.2598H58.3292L56.3326 70.2286C56.278 70.3751 56.1844 70.5038 56.0619 70.6009C55.9159 70.7145 55.7333 70.7707 55.5487 70.7588H55.4359H55.2779L55.2667 70.3076Z" fill="#A6A6A6"/>
<path id="Vector_30" d="M58.7749 69.7211L58.8989 69.1007H58.7297V68.4014H59.2204V69.1007L59.0343 69.7211H58.7749Z" fill="#A6A6A6"/>
<path id="Vector_31" d="M65.8192 67.3979C65.8159 67.6374 65.7643 67.8738 65.6674 68.0929C65.5705 68.3119 65.4302 68.5091 65.2552 68.6725C65.0847 68.8379 64.8835 68.9682 64.663 69.0561C64.4325 69.152 64.185 69.1999 63.9354 69.1971C63.6737 69.2001 63.4144 69.1482 63.174 69.0448C62.9457 68.9475 62.7416 68.8012 62.5762 68.6162C62.4026 68.4124 62.2704 68.1768 62.187 67.9224C62.091 67.6255 62.0434 67.3151 62.046 67.0031C62.0412 66.535 62.0885 66.0677 62.187 65.61C62.2625 65.2613 62.396 64.9277 62.5818 64.623C62.7378 64.3899 62.9464 64.1966 63.1909 64.059C63.4363 63.931 63.7094 63.8652 63.9862 63.8673C64.3164 63.8639 64.641 63.9538 64.9224 64.1267C65.197 64.2987 65.4148 64.5479 65.5484 64.843L65.227 65.1419C65.1277 64.896 64.9567 64.6857 64.7363 64.5384C64.5159 64.3867 64.2536 64.3078 63.9862 64.3128C63.7787 64.3095 63.5741 64.3621 63.3939 64.4651C63.2086 64.5779 63.0522 64.7324 62.9371 64.9163C62.8022 65.1381 62.7033 65.3799 62.6438 65.6326C62.5681 65.9503 62.5321 66.2761 62.5367 66.6027C62.6437 66.316 62.8418 66.0723 63.1007 65.909C63.3669 65.7347 63.6793 65.6443 63.9974 65.6495C64.4753 65.6443 64.9358 65.8289 65.2777 66.1628C65.4394 66.3254 65.5695 66.5166 65.6612 66.7268C65.7561 66.9384 65.8097 67.1662 65.8192 67.3979ZM63.9692 68.7572C64.1513 68.7564 64.3314 68.72 64.4994 68.65C64.6609 68.5797 64.8081 68.4802 64.9337 68.3567C65.0589 68.2314 65.1602 68.0842 65.2326 67.9224C65.3027 67.7564 65.3392 67.5781 65.3398 67.3979C65.3406 67.2152 65.3021 67.0343 65.227 66.8678C65.1546 66.706 65.0533 66.5588 64.928 66.4335C64.8025 66.3099 64.6553 66.2105 64.4938 66.1402C64.3256 66.0706 64.1456 66.0342 63.9636 66.033C63.7816 66.0338 63.6015 66.0702 63.4334 66.1402C63.2719 66.2105 63.1247 66.3099 62.9992 66.4335C62.8739 66.5588 62.7726 66.706 62.7002 66.8678C62.6296 67.0356 62.5932 67.2158 62.5931 67.3979C62.5929 67.5788 62.6313 67.7576 62.7059 67.9224C62.7798 68.0816 62.8809 68.2267 63.0048 68.3511C63.1311 68.4777 63.2804 68.5792 63.4447 68.65C63.6107 68.7201 63.789 68.7566 63.9692 68.7572Z" fill="#A6A6A6"/>
<path id="Vector_32" d="M73.3317 69.1231V64.8142L71.4197 68.1474H71.1152L69.2032 64.8142V69.1231H68.6843V63.8779H69.2145L71.2618 67.4706L73.3261 63.8779H73.8506V69.1231H73.3317Z" fill="#A6A6A6"/>
<path id="Vector_33" d="M75.9937 69.1966C75.6561 69.204 75.3288 69.0808 75.08 68.8525C74.9675 68.742 74.8758 68.612 74.8093 68.469C74.7457 68.3211 74.7131 68.1618 74.7134 68.0009C74.7125 67.8373 74.7533 67.6762 74.8318 67.5328C74.9142 67.3874 75.0279 67.2622 75.1646 67.1661C75.3212 67.0576 75.4946 66.9757 75.6778 66.9236C75.889 66.8653 76.1074 66.8368 76.3264 66.839C76.5268 66.8394 76.7268 66.8563 76.9243 66.8898C77.1173 66.9198 77.3064 66.9709 77.4883 67.0421V66.6924C77.5021 66.3962 77.3988 66.1065 77.2006 65.8859C77.0959 65.7819 76.9705 65.7011 76.8325 65.6486C76.6946 65.5961 76.5471 65.5732 76.3998 65.5813C76.1933 65.5858 75.9891 65.6258 75.7963 65.6998C75.5729 65.7891 75.3608 65.9046 75.1646 66.0438L74.9898 65.711C75.4106 65.4002 75.9163 65.2251 76.4392 65.2091C76.6448 65.1985 76.8504 65.229 77.0441 65.2987C77.2377 65.3684 77.4156 65.476 77.5672 65.6151C77.7109 65.7642 77.8221 65.9414 77.8939 66.1355C77.9657 66.3296 77.9966 66.5365 77.9846 66.7431V68.4803C77.9846 68.6156 78.0466 68.6889 78.1707 68.6889V69.1289C78.1051 69.1351 78.039 69.1351 77.9733 69.1289C77.8654 69.1337 77.7594 69.0997 77.6744 69.033C77.6389 68.9985 77.6107 68.9573 77.5913 68.9118C77.572 68.8663 77.5619 68.8174 77.5616 68.7679V68.4634C77.3886 68.6939 77.1595 68.8764 76.8961 68.9935C76.6146 69.129 76.306 69.1984 75.9937 69.1966ZM76.1121 68.813C76.3603 68.8146 76.6061 68.7647 76.834 68.6664C77.0324 68.5826 77.2041 68.4461 77.3304 68.2716C77.374 68.2325 77.4086 68.1844 77.4319 68.1306C77.4532 68.0846 77.4647 68.0346 77.4657 67.9839V67.3579C77.2953 67.2946 77.1198 67.2455 76.9412 67.2113C76.7553 67.1763 76.5664 67.1593 76.3772 67.1605C76.0724 67.1475 75.7705 67.2239 75.5086 67.3805C75.41 67.4386 75.3277 67.5209 75.2695 67.6195C75.2113 67.7182 75.1791 67.83 75.1759 67.9445C75.1767 68.0593 75.2017 68.1727 75.2492 68.2772C75.2931 68.3801 75.3585 68.4724 75.441 68.5479C75.5255 68.6273 75.6253 68.6887 75.7342 68.7284C75.8531 68.7822 75.9817 68.811 76.1121 68.813Z" fill="#A6A6A6"/>
<path id="Vector_34" d="M79.1802 70.3076H79.293H79.4002C79.4713 70.3107 79.5424 70.2992 79.6089 70.2737C79.6743 70.235 79.7272 70.1782 79.7612 70.1102C79.8271 69.9946 79.8837 69.8739 79.9303 69.7492C79.9924 69.5913 80.077 69.377 80.1898 69.1119L78.4978 65.2598H79.011L80.4379 68.6438L81.7633 65.2598H82.2428L80.2518 70.2399C80.1972 70.3863 80.1036 70.515 79.9811 70.6121C79.8351 70.7258 79.6525 70.782 79.4679 70.77H79.3269H79.1689L79.1802 70.3076Z" fill="#A6A6A6"/>
<path id="Vector_35" d="M92.6598 193.881C91.8812 193.881 91.11 193.729 90.3905 193.431C89.671 193.133 89.0173 192.697 88.4667 192.146C87.9161 191.596 87.4795 190.942 87.1819 190.222C86.8843 189.503 86.7314 188.732 86.7322 187.953C86.7322 186.381 87.3567 184.873 88.4683 183.762C89.58 182.65 91.0877 182.025 92.6598 182.025C94.231 182.027 95.7372 182.652 96.8477 183.764C97.9581 184.875 98.5818 186.382 98.5818 187.953C98.5826 188.731 98.4299 189.502 98.1327 190.221C97.8354 190.94 97.3993 191.594 96.8493 192.144C96.2993 192.695 95.6462 193.131 94.9274 193.429C94.2085 193.727 93.438 193.881 92.6598 193.881Z" fill="#A6A6A6"/>
<path id="Vector_36" d="M96.2414 186.171H89.0166V190.587H96.2414V186.171Z" fill="white"/>
<path id="Vector_37" d="M94.4252 186.17H90.8325L91.1878 185.324H94.0699L94.4252 186.17Z" fill="white"/>
<path id="Vector_38" d="M94.3068 188.376C94.3068 188.71 94.2076 189.037 94.0217 189.316C93.8358 189.594 93.5715 189.811 93.2623 189.939C92.9532 190.067 92.613 190.1 92.2847 190.035C91.9565 189.97 91.6551 189.809 91.4184 189.572C91.1818 189.335 91.0206 189.034 90.9554 188.706C90.8901 188.377 90.9236 188.037 91.0517 187.728C91.1797 187.419 91.3966 187.155 91.6748 186.969C91.9531 186.783 92.2802 186.684 92.6149 186.684C93.0636 186.684 93.494 186.862 93.8113 187.179C94.1286 187.496 94.3068 187.927 94.3068 188.376Z" fill="#A6A6A6"/>
<path id="Vector_39" d="M93.9289 188.375C93.93 188.633 93.8544 188.886 93.7117 189.101C93.569 189.316 93.3656 189.484 93.1273 189.584C92.889 189.683 92.6266 189.709 92.3733 189.659C92.1201 189.609 91.8874 189.485 91.7048 189.302C91.5223 189.12 91.3981 188.887 91.348 188.634C91.2979 188.38 91.3242 188.118 91.4235 187.88C91.5228 187.642 91.6907 187.438 91.9058 187.295C92.1209 187.153 92.3736 187.077 92.6317 187.078C92.9758 187.078 93.3057 187.215 93.549 187.458C93.7923 187.701 93.9289 188.031 93.9289 188.375Z" fill="white"/>
<path id="Vector_40" d="M95.8182 186.543H95.1245V186.943H95.8182V186.543Z" fill="#A6A6A6"/>
<path id="Vector_41" d="M89.9471 185.844H89.259V186.041H89.9471V185.844Z" fill="white"/>
<path id="Vector_42" d="M18.8717 193.881C18.0931 193.881 17.322 193.729 16.6024 193.431C15.8829 193.133 15.2292 192.697 14.6786 192.146C14.128 191.596 13.6914 190.942 13.3938 190.222C13.0962 189.503 12.9434 188.732 12.9441 187.953C12.9441 186.381 13.5686 184.873 14.6803 183.762C15.7919 182.65 17.2996 182.025 18.8717 182.025C20.4434 182.027 21.9502 182.652 23.0616 183.763C24.1729 184.875 24.7979 186.381 24.7994 187.953C24.7994 189.525 24.1749 191.033 23.0632 192.145C21.9516 193.256 20.4438 193.881 18.8717 193.881Z" fill="#A6A6A6"/>
<path id="Vector_43" d="M20.2874 187.106H17.3828V191.962H20.2874V187.106Z" fill="white"/>
<path id="Vector_44" d="M21.0884 184.856V185.979L20.3495 186.853H17.3208L16.5876 185.979V184.856H21.0884Z" fill="white"/>
<path id="Vector_45" d="M21.0884 183.948H16.5876V184.591H21.0884V183.948Z" fill="white"/>
<path id="Vector_46" d="M55.9491 150.39C61.9889 150.39 66.8851 145.494 66.8851 139.455C66.8851 133.415 61.9889 128.519 55.9491 128.519C49.9094 128.519 45.0132 133.415 45.0132 139.455C45.0132 145.494 49.9094 150.39 55.9491 150.39Z" fill="#91C788"/>
<path id="Vector_47" d="M60.6713 160.724C61.3115 158.119 59.7192 155.489 57.1148 154.849C54.5104 154.209 51.8801 155.801 51.24 158.405C50.5998 161.01 52.1921 163.64 54.7965 164.28C57.4009 164.92 60.0311 163.328 60.6713 160.724Z" fill="#91C788"/>
<path id="Vector_48" d="M58.4758 172.725C58.4758 173.225 58.3276 173.713 58.05 174.129C57.7723 174.544 57.3777 174.868 56.916 175.059C56.4543 175.251 55.9463 175.301 55.4561 175.203C54.966 175.106 54.5158 174.865 54.1624 174.512C53.8091 174.158 53.5684 173.708 53.4709 173.218C53.3734 172.728 53.4235 172.22 53.6147 171.758C53.8059 171.296 54.1298 170.902 54.5453 170.624C54.9608 170.346 55.4493 170.198 55.9491 170.198C56.6192 170.198 57.2619 170.464 57.7357 170.938C58.2096 171.412 58.4758 172.055 58.4758 172.725Z" fill="#91C788"/>
<path id="Vector_49" d="M59.7223 135.721V139.787H58.5943V135.721C58.6234 135.359 58.5772 134.995 58.4588 134.652C58.3403 134.309 58.1521 133.995 57.906 133.728C57.6599 133.461 57.3612 133.248 57.0288 133.103C56.6964 132.957 56.3374 132.882 55.9745 132.882C55.6116 132.882 55.2526 132.957 54.9202 133.103C54.5878 133.248 54.2891 133.461 54.043 133.728C53.7969 133.995 53.6087 134.309 53.4902 134.652C53.3718 134.995 53.3256 135.359 53.3547 135.721V139.787H52.2267V135.721C52.1921 135.205 52.2639 134.687 52.4377 134.199C52.6116 133.712 52.8836 133.265 53.2371 132.887C53.5906 132.509 54.018 132.208 54.4928 132.002C54.9675 131.796 55.4795 131.689 55.9971 131.689C56.5146 131.689 57.0266 131.796 57.5013 132.002C57.9761 132.208 58.4035 132.509 58.757 132.887C59.1105 133.265 59.3826 133.712 59.5564 134.199C59.7302 134.687 59.802 135.205 59.7674 135.721H59.7223Z" fill="white"/>
<path id="Vector_50" d="M50.7097 137.227V146.172H61.1945V137.227H50.7097ZM56.8347 143.848H54.9679L55.4078 141.767C55.2745 141.682 55.1645 141.566 55.0877 141.428C55.0108 141.29 54.9697 141.135 54.9679 140.977C54.9862 140.742 55.0925 140.523 55.2655 140.363C55.4385 140.202 55.6656 140.114 55.9013 140.114C56.1371 140.114 56.3641 140.202 56.5372 140.363C56.7102 140.523 56.8165 140.742 56.8347 140.977C56.833 141.135 56.7918 141.29 56.715 141.428C56.6382 141.566 56.5281 141.682 56.3948 141.767L56.8347 143.848Z" fill="white"/>
</g>
</svg>
