<svg width="156" height="120" viewBox="0 0 156 120" fill="none" xmlns="http://www.w3.org/2000/svg">
<g id="freepik  cooking pots  inject 81">
<path id="Vector" d="M63.4363 103.805L91.1061 105.531V99.6988L63.4363 99.6367V103.805Z" fill="#DBDBDB"/>
<path id="Vector_2" d="M9.16821 99.6482C9.16821 99.6482 11.3001 111.312 15.564 111.306H61.248C65.5231 111.306 67.6381 99.6426 67.6381 99.6426L9.16821 99.6482Z" fill="#91C788"/>
<g id="Group" opacity="0.5">
<path id="Vector_3" opacity="0.5" d="M147.28 14.4841C146.716 19.0863 143.378 22.6677 139.52 24.9519C137.264 26.2886 134.387 26.7342 132.346 28.3754C130.422 29.9208 129.757 32.5264 130.033 34.8952C130.642 40.1461 135.425 43.9531 139.012 47.3427C144.539 52.5653 151.482 60.7151 147.01 68.7747C144.917 72.5366 140.806 75.0238 136.925 76.5692C132.577 78.295 127.901 79 123.243 79.2256C117.857 79.4794 111.839 78.7124 108.398 83.8166C105.319 88.3681 105.612 91.7126 107.27 96.6194C107.27 96.6194 105.894 96.9634 105.787 96.8224C104.208 94.7582 102.16 90.6184 101.218 88.2045C99.1148 83.2751 98.5677 78.0807 102.848 73.783C105.353 71.2676 108.708 69.8745 111.574 67.8385C115.29 65.2102 117.129 61.5611 115.719 57.004C114.264 52.2946 110.541 48.8373 108.246 44.5622C107.18 42.6874 106.599 40.5757 106.558 38.4193C106.517 36.263 107.015 34.1305 108.009 32.2162C109.802 28.6647 112.604 25.7217 116.063 23.7562C119.983 21.5002 124.218 21.0998 128.651 20.987C133.66 20.846 139.683 20.5584 142.751 15.9448C145.769 11.4328 144.613 5.68004 143.355 0.795796C143.304 0.626597 143.569 0.536352 143.643 0.694272C145.628 4.99195 147.878 9.59983 147.28 14.4841Z" fill="white"/>
</g>
<path id="Vector_4" d="M152.554 89.1123H132.707V90.8043H152.554V89.1123Z" fill="#DBDBDB"/>
<path id="Vector_5" d="M138.273 92.6035H155.927V87.3076H138.273V92.6035Z" fill="#91C788"/>
<path id="Vector_6" d="M77.9536 83.4277C77.9536 83.4277 79.8599 111.306 88.7599 111.306H135.865C144.765 111.306 146.671 83.4277 146.671 83.4277H77.9536Z" fill="#3A5036"/>
<path id="Vector_7" d="M93.1533 89.1689H73.3062V90.7538H93.1533V89.1689Z" fill="#DBDBDB"/>
<path id="Vector_8" d="M87.5868 92.6094H69.9336V87.3135H87.5868V92.6094Z" fill="#91C788"/>
<path id="Vector_9" d="M76.239 119.066H77.7449L80.971 112.648H144.883L148.115 119.066H149.621L145.718 111.306H80.1475L76.239 119.066Z" fill="#455A64"/>
<path id="Vector_10" d="M87.6658 119.066H89.0871L91.2923 112.648H134.562L136.773 119.066H138.195L135.984 112.648L135.521 111.306H90.3391L89.8767 112.648L87.6658 119.066Z" fill="#455A64"/>
<path id="Vector_11" d="M0.561523 119.066H2.07304L5.29912 112.648H69.206L72.4377 119.066H73.9436L70.0407 111.306H4.47004L0.561523 119.066Z" fill="#455A64"/>
<path id="Vector_12" d="M11.9883 119.066H13.4096L15.6148 112.648H58.8905L61.0958 119.066H62.517L60.3118 112.648L59.8437 111.306H14.6616L14.1992 112.648L11.9883 119.066Z" fill="#455A64"/>
</g>
</svg>
