<svg width="142" height="202" viewBox="0 0 142 202" fill="none" xmlns="http://www.w3.org/2000/svg">
<g id="freepik  Character  inject 86">
<path id="Vector" d="M82.9117 201.648H33.9001C32.3547 185.033 30.8037 168.005 29.5742 154.43C29.5347 153.979 29.4896 153.528 29.4501 153.082C28.0627 137.724 27.1208 127.11 27.1208 127.11H73.3688C73.3721 127.157 73.3721 127.204 73.3688 127.251C73.7128 129.766 78.4222 166.471 82.9117 201.648Z" fill="#37474F"/>
<path id="Vector_2" d="M41.328 201.648H40.544C38.4064 183.656 36.6693 165.631 35.0901 147.583C34.9999 146.504 34.9059 145.423 34.8081 144.34C34.4923 140.634 34.1764 136.912 33.8719 133.201C33.8719 133.088 34.0355 133.088 34.0524 133.201C34.3983 136.491 34.7329 139.773 35.0563 143.048C35.059 143.058 35.059 143.067 35.0563 143.077C35.1691 144.272 35.2932 145.462 35.4116 146.664C36.6693 159.117 37.9158 171.559 39.2806 183.995C39.9311 189.887 40.6136 195.771 41.328 201.648Z" fill="#3A5036"/>
<path id="Vector_3" d="M66.691 127.11L60.487 168.124L60.2671 169.511L59.7031 173.205L59.6579 173.465L59.5113 174.457L55.3828 201.648H29.0553C26.3538 186.42 23.5902 170.808 21.3003 157.853C21.2496 157.56 21.1988 157.289 21.148 156.996C18.063 139.563 15.8577 127.104 15.8577 127.104L66.691 127.11Z" fill="#3A5036"/>
<path id="Vector_4" d="M73.4139 127.07C73.4139 127.07 73.4139 127.127 73.3857 127.251C73.0191 129.642 69.0373 155.287 62.4216 172.117C62.3764 172.258 62.3257 172.388 62.2636 172.534C62.2636 172.534 61.3331 172.822 59.6523 173.487C58.9981 173.747 58.2198 174.051 57.3399 174.446L56.3811 174.875C54.441 175.743 52.0891 176.883 49.4045 178.338C49.145 178.473 48.8912 178.614 48.6374 178.755C48.6374 178.755 48.6374 178.862 48.6374 179.06C48.5021 180.825 47.814 189.883 46.9454 201.62H0.776367C4.32957 164.999 8.23245 127.042 8.23245 127.042L73.4139 127.07Z" fill="#37474F"/>
<path id="Vector_5" d="M13.3987 134.205C12.0845 151.384 10.8268 168.564 9.45066 185.721C9.02202 191.03 8.5821 196.339 8.1309 201.648H7.4541C9.40554 179.171 11.2611 156.693 13.0208 134.216C13.0321 133.968 13.4156 133.968 13.3987 134.205Z" fill="#3A5036"/>
<path id="Vector_6" d="M64.5986 171.327C59.0731 173.338 53.7326 175.826 48.6374 178.761C48.6156 178.771 48.5958 178.784 48.5793 178.802C48.5628 178.819 48.5499 178.839 48.5413 178.861C48.5326 178.884 48.5284 178.907 48.529 178.931C48.5295 178.955 48.5347 178.979 48.5444 179.001C48.554 179.022 48.5678 179.042 48.5851 179.059C48.6024 179.075 48.6227 179.088 48.6449 179.097C48.6672 179.105 48.691 179.11 48.7148 179.109C48.7387 179.108 48.7622 179.103 48.7841 179.094C54.159 176.781 59.6411 174.582 64.8863 171.97C64.9715 171.932 65.0381 171.862 65.0715 171.774C65.1048 171.687 65.1021 171.59 65.0639 171.505C65.0258 171.42 64.9553 171.353 64.8681 171.32C64.7808 171.286 64.6839 171.289 64.5986 171.327Z" fill="#3A5036"/>
<path id="Vector_7" d="M66.3075 134.43C66.3075 134.244 65.9635 134.205 65.9692 134.43C66.0086 140.815 65.6025 146.427 65.0667 152.394C64.8129 155.163 62.5852 170.47 57.7855 169.353C56.979 169.167 56.5673 168.378 56.4432 167.165C56.2909 165.71 56.838 163.922 57.0805 162.472C57.6445 159.263 58.0449 156.049 58.3157 152.817C58.8752 146.79 58.8109 140.721 58.1239 134.707C58.117 134.671 58.0977 134.638 58.0694 134.615C58.0411 134.591 58.0055 134.579 57.9688 134.579C57.9321 134.579 57.8965 134.591 57.8682 134.615C57.8399 134.638 57.8206 134.671 57.8137 134.707C57.8137 143.071 57.5994 151.418 56.3473 159.703C55.7495 163.685 53.7416 169.68 57.9096 170.29C62.0775 170.899 64.8919 160.876 65.4108 158.13C66.8546 150.459 66.911 142.185 66.3075 134.43Z" fill="#3A5036"/>
<path id="Vector_8" d="M57.9096 169.742C57.4833 170.777 57.1235 171.837 56.8323 172.918C56.5217 173.751 56.3686 174.634 56.3811 175.523C56.3882 175.559 56.4055 175.591 56.4308 175.617C56.4561 175.643 56.4883 175.661 56.5236 175.669C56.5589 175.676 56.5956 175.674 56.6294 175.661C56.6632 175.648 56.6926 175.626 56.7139 175.597C57.2158 174.813 57.5961 173.957 57.8419 173.059C58.2085 172.077 58.592 171.102 58.9304 170.109C58.9386 169.987 58.9067 169.865 58.8396 169.763C58.7724 169.66 58.6737 169.582 58.5583 169.541C58.4429 169.499 58.3172 169.496 58.2002 169.533C58.0831 169.569 57.9811 169.643 57.9096 169.742Z" fill="#3A5036"/>
<path id="Vector_9" d="M36.1787 139.439C36.1877 138.771 36.1196 138.105 35.9756 137.453C35.9703 137.431 35.9577 137.412 35.9398 137.398C35.9219 137.383 35.8997 137.376 35.877 137.376C35.8542 137.376 35.832 137.383 35.8141 137.398C35.7962 137.412 35.7836 137.431 35.7782 137.453C35.644 138.008 35.5703 138.575 35.5583 139.145C35.4906 139.805 35.4004 140.46 35.3327 141.119C35.1888 142.467 34.9533 143.803 34.6277 145.118C34.0216 147.606 32.755 149.884 30.9617 151.711C29.1781 153.462 27.0709 154.849 24.7577 155.795C22.1802 156.889 19.4617 157.295 16.7996 158.079C16.6868 158.107 16.7207 158.271 16.7996 158.276C19.7559 158.269 22.6833 157.694 25.4232 156.584C27.8438 155.674 30.0474 154.268 31.8923 152.456C33.7439 150.587 35.0471 148.246 35.6598 145.688C35.9679 144.372 36.1418 143.029 36.1787 141.678C36.2233 140.932 36.2233 140.184 36.1787 139.439Z" fill="#3A5036"/>
<path id="Vector_10" d="M53.5893 67.9799C57.3061 76.3046 84.3612 114.871 106.103 119.53C109.769 120.314 121.145 123.912 127.727 114.51C136.621 101.814 142.295 77.5003 141.049 64.5339C140.017 53.8179 110.717 61.8549 108.991 67.9574C107.688 72.5766 105.37 87.7312 104.423 87.4887C98.2638 85.8982 79.9168 70.0047 61.632 60.2193C53.155 55.6509 50.7299 61.5447 53.5893 67.9799Z" fill="#AD6359"/>
<path id="Vector_11" d="M102.624 94.0763C102.75 93.128 102.925 92.1868 103.148 91.2563C103.614 89.4631 104.245 87.7167 105.032 86.0393C105.066 85.966 105.201 86.0111 105.173 86.0957C104.609 87.8272 104.197 89.6263 103.735 91.3916C103.509 92.2715 103.295 93.1457 103.097 94.0312C102.9 94.9166 102.652 95.8359 102.499 96.7496C102.499 96.8004 102.398 96.7947 102.404 96.7496C102.466 95.8416 102.499 94.9618 102.624 94.0763Z" fill="#3A5036"/>
<path id="Vector_12" d="M141.184 66.5136C141.184 66.5136 140.699 52.47 135.663 43.1301C132.183 36.6723 123.04 23.4691 101.163 22.6231C95.974 22.4257 88.4333 25.821 96.7918 29.2219C102.731 31.6414 107.226 31.382 110.424 33.418C110.424 33.418 101.349 38.8776 101.349 44.0833C101.349 46.4126 101.005 51.4548 101.828 56.3841C101.828 56.3841 103.447 57.7998 104.885 57.7377C104.885 57.7377 105.043 62.6107 110.525 67.6416L141.184 66.5136Z" fill="#AD6359"/>
<path id="Vector_13" d="M74.384 37.2137C71.7219 39.0073 70.2668 43.2429 72.41 47.2699C74.5532 51.2968 79.9789 50.7836 82.562 49.0183C85.1451 47.253 87.3278 42.8481 85.1225 39.0919C83.2557 35.8319 79.0708 34.0723 74.384 37.2137Z" fill="#91C788"/>
<path id="Vector_14" opacity="0.1" d="M74.384 37.2137C71.7219 39.0073 70.2668 43.2429 72.41 47.2699C74.5532 51.2968 79.9789 50.7836 82.562 49.0183C85.1451 47.253 87.3278 42.8481 85.1225 39.0919C83.2557 35.8319 79.0708 34.0723 74.384 37.2137Z" fill="black"/>
<path id="Vector_15" d="M75.1962 38.2684C73.0248 39.7291 71.8404 43.1921 73.5888 46.4802C75.3372 49.7683 79.7928 49.351 81.8909 47.9071C83.989 46.4633 85.7881 42.8706 83.989 39.7968C82.4323 37.1347 79.0145 35.7022 75.1962 38.2684Z" fill="#91C788"/>
<path id="Vector_16" d="M79.742 40.0958C79.9338 40.2481 80.6219 39.6728 80.244 39.4021C79.8661 39.1314 79.4939 39.9041 79.742 40.0958Z" fill="white"/>
<path id="Vector_17" d="M81.3494 43.8689C81.2535 44.0889 81.9811 44.6134 82.1503 44.1791C82.3195 43.7449 81.4791 43.5757 81.3494 43.8689Z" fill="white"/>
<path id="Vector_18" d="M82.9625 42.4026C83.002 42.6395 83.8987 42.6789 83.8028 42.2221C83.707 41.7653 82.9117 42.0867 82.9625 42.4026Z" fill="white"/>
<path id="Vector_19" d="M79.6969 38.4432C79.9338 38.4037 79.9789 37.5126 79.522 37.6028C79.0652 37.6931 79.3811 38.494 79.6969 38.4432Z" fill="white"/>
<path id="Vector_20" d="M75.4048 41.5678C75.4669 41.3366 74.666 40.9305 74.5645 41.3873C74.463 41.8442 75.3202 41.878 75.4048 41.5678Z" fill="white"/>
<path id="Vector_21" d="M77.3224 46.5479C77.125 46.4069 76.4652 47.0104 76.8543 47.2642C77.2435 47.518 77.5819 46.7397 77.3224 46.5479Z" fill="white"/>
<path id="Vector_22" d="M78.896 46.249C78.6591 46.2096 78.332 47.0443 78.7945 47.1007C79.257 47.1571 79.2119 46.2998 78.896 46.249Z" fill="white"/>
<path id="Vector_23" d="M77.2435 42.7185C77.4127 42.5493 76.9164 41.7991 76.6062 42.1545C76.296 42.5098 77.0179 42.9441 77.2435 42.7185Z" fill="white"/>
<path id="Vector_24" d="M72.4157 43.3387C72.4157 43.3387 76.7867 42.8537 77.3619 43.7392C77.9372 44.6247 74.8296 48.5163 74.3163 48.1722C73.8031 47.8282 71.9419 44.8164 72.4157 43.3387Z" fill="#91C788"/>
<path id="Vector_25" opacity="0.1" d="M72.4157 43.3387C72.4157 43.3387 76.7867 42.8537 77.3619 43.7392C77.9372 44.6247 74.8296 48.5163 74.3163 48.1722C73.8031 47.8282 71.9419 44.8164 72.4157 43.3387Z" fill="black"/>
<path id="Vector_26" d="M79.8886 49.1367C79.8886 49.1367 78.5971 44.9293 79.3641 44.2017C80.1311 43.4741 84.5247 45.7978 84.2878 46.3675C84.0509 46.9371 81.4284 49.3228 79.8886 49.1367Z" fill="#91C788"/>
<path id="Vector_27" opacity="0.1" d="M79.8886 49.1367C79.8886 49.1367 78.5971 44.9293 79.3641 44.2017C80.1311 43.4741 84.5247 45.7978 84.2878 46.3675C84.0509 46.9371 81.4284 49.3228 79.8886 49.1367Z" fill="black"/>
<path id="Vector_28" d="M85.4553 41.3873C85.4553 41.3873 81.1802 42.4251 80.4978 41.6185C79.8153 40.812 82.3985 36.5425 82.9512 36.8358C83.5039 37.1291 85.7317 39.8589 85.4553 41.3873Z" fill="#91C788"/>
<path id="Vector_29" opacity="0.1" d="M85.4553 41.3873C85.4553 41.3873 81.1802 42.4251 80.4978 41.6185C79.8153 40.812 82.3985 36.5425 82.9512 36.8358C83.5039 37.1291 85.7317 39.8589 85.4553 41.3873Z" fill="black"/>
<path id="Vector_30" d="M78.2079 36.2718C78.2079 36.2718 79.2513 40.5469 78.4448 41.2294C77.6383 41.9118 73.3688 39.3287 73.6565 38.776C73.9441 38.2233 76.6851 35.9898 78.2079 36.2718Z" fill="#91C788"/>
<path id="Vector_31" opacity="0.1" d="M78.2079 36.2718C78.2079 36.2718 79.2513 40.5469 78.4448 41.2294C77.6383 41.9118 73.3688 39.3287 73.6565 38.776C73.9441 38.2233 76.6851 35.9898 78.2079 36.2718Z" fill="black"/>
<path id="Vector_32" d="M87.1924 43.4403C85.1338 44.2243 75.2808 46.187 75.2808 46.187L75.4725 45.7189L86.0362 42.4307C86.1123 42.4015 86.1744 42.3444 86.21 42.2712C86.2456 42.1979 86.252 42.1138 86.228 42.0359C86.2159 41.995 86.1956 41.957 86.1683 41.9242C86.1411 41.8913 86.1075 41.8643 86.0695 41.8448C86.0316 41.8253 85.9901 41.8137 85.9475 41.8107C85.905 41.8077 85.8622 41.8133 85.8219 41.8273L75.9463 44.5344L76.2565 43.7843L87.0627 40.2537C87.1083 40.2455 87.1517 40.2277 87.1899 40.2015C87.2281 40.1754 87.2603 40.1414 87.2844 40.1018C87.3085 40.0622 87.3239 40.018 87.3296 39.972C87.3353 39.926 87.3312 39.8794 87.3175 39.8351C87.3038 39.7909 87.2809 39.75 87.2502 39.7153C87.2196 39.6805 87.1819 39.6527 87.1397 39.6336C87.0975 39.6146 87.0517 39.6047 87.0054 39.6046C86.959 39.6045 86.9132 39.6143 86.871 39.6333L76.7584 42.5774L77.0574 41.8611L88.1118 38.0597C88.1532 38.0482 88.1918 38.0284 88.2253 38.0014C88.2587 37.9744 88.2864 37.9409 88.3064 37.9029C88.3265 37.8649 88.3386 37.8231 88.3419 37.7803C88.3453 37.7374 88.3399 37.6943 88.3261 37.6537C88.3146 37.613 88.2949 37.575 88.2682 37.5422C88.2415 37.5094 88.2084 37.4824 88.1709 37.4629C88.1334 37.4433 88.0923 37.4317 88.0501 37.4286C88.0079 37.4255 87.9656 37.4311 87.9256 37.445L77.548 40.6654L77.8018 40.0563C77.8018 40.0563 88.202 36.0406 89.4315 35.8037C91.648 35.3695 90.3114 42.2559 87.1924 43.4403Z" fill="#455A64"/>
<path id="Vector_33" d="M89.4823 37.744C90.9261 37.0841 96.8538 34.4728 97.5531 34.202C98.3653 33.8862 127.09 22.7134 128.235 22.6795C129.38 22.6457 128.861 26.5768 128.201 27.4059C127.541 28.2349 100.328 35.7305 97.587 36.8134C94.7162 37.9414 89.3187 40.1974 89.3187 40.1974L89.4823 37.744Z" fill="#455A64"/>
<path id="Vector_34" d="M134.089 42.4026C130.97 40.1466 124.27 35.5162 117.468 33.6211C109.916 31.5174 94.8008 29.5039 93.3062 35.0932C92.2064 39.1934 97.9141 40.4737 97.9141 40.4737C97.9141 40.4737 91.4902 40.9531 91.3097 44.8729C91.1461 48.4487 95.613 49.1706 95.613 49.1706C95.613 49.1706 91.7665 50.135 92.2741 53.6093C92.8832 57.7829 100.841 55.0757 105.111 58.7755C106.07 59.6046 134.089 42.4026 134.089 42.4026Z" fill="#AD6359"/>
<path id="Vector_35" d="M116.577 41.9739C113.3 40.344 104.891 38.5561 98.0269 40.344C97.869 40.3834 97.8182 40.5244 97.9648 40.5188C104.207 40.2645 110.457 40.772 116.577 42.0303C116.599 42.036 116.616 41.9908 116.577 41.9739Z" fill="#3A5036"/>
<path id="Vector_36" d="M114.236 49.5372C111.258 48.4092 102.511 46.9654 95.6242 49.0296C95.4663 49.0747 95.4268 49.2157 95.5735 49.2044C101.786 48.6323 108.043 48.7666 114.225 49.6049C114.259 49.6162 114.27 49.5485 114.236 49.5372Z" fill="#3A5036"/>
<path id="Vector_37" d="M72.2408 95.96L100.892 80.67C100.892 80.67 72.4946 63.3665 59.3929 58.392C45.7384 53.1863 40.5722 57.0158 52.8674 71.9618C64.9765 86.6597 72.2408 95.96 72.2408 95.96Z" fill="#91C788"/>
<path id="Vector_38" d="M98.5401 79.26C97.9922 79.4055 97.4566 79.5941 96.9383 79.824C96.1688 80.1569 95.4493 80.5954 94.8008 81.1268C95.6292 81.0035 96.4361 80.7643 97.1978 80.4162C97.7942 80.1598 98.3614 79.8402 98.8898 79.463C98.7714 79.4066 98.636 79.3333 98.5401 79.26ZM68.3548 83.5295C67.5847 83.858 66.8666 84.2969 66.2229 84.8323C67.0497 84.707 67.8547 84.4659 68.6143 84.116C69.386 83.7896 70.106 83.3527 70.7518 82.8188C69.9223 82.9369 69.1147 83.1764 68.3548 83.5295ZM81.9247 86.1013C81.596 85.3325 81.1592 84.6146 80.6275 83.9694C80.749 84.7982 80.9883 85.6053 81.3381 86.3664C81.6647 87.1345 82.1017 87.8509 82.6353 88.4927C82.5157 87.6653 82.2763 86.8598 81.9247 86.1013ZM57.464 73.761C57.1311 72.9949 56.6926 72.2792 56.1612 71.6347C56.2854 72.4618 56.5265 73.2669 56.8775 74.0261C57.2026 74.7967 57.6397 75.5151 58.1746 76.158C58.0531 75.3292 57.8139 74.5221 57.464 73.761ZM50.696 62.0072C49.9189 61.7036 49.1021 61.5136 48.2708 61.4432C48.9421 61.9418 49.6808 62.3425 50.4648 62.6333C51.2428 62.9337 52.0592 63.1235 52.89 63.1973C52.2187 62.6987 51.48 62.298 50.696 62.0072ZM70.3965 70.4672C69.6189 70.154 68.8002 69.9546 67.9657 69.875C68.6381 70.3764 69.3788 70.779 70.1653 71.0707C70.9434 71.3711 71.7597 71.561 72.5905 71.6347C71.9323 71.1365 71.207 70.7339 70.436 70.439L70.3965 70.4672ZM63.4311 60.084C63.1318 60.8331 62.9419 61.6214 62.8671 62.4246C63.342 61.7912 63.722 61.092 63.9951 60.3491L63.4311 60.084ZM82.9568 74.8834C82.6564 75.6614 82.4665 76.4778 82.3928 77.3086C83.3769 75.9497 83.9893 74.3575 84.1694 72.6894C83.6643 73.3541 83.256 74.0871 82.9568 74.8664V74.8834Z" fill="white"/>
<path id="Vector_39" d="M71.564 89.976C72.2014 89.5361 72.912 89.1807 73.5832 88.7972C74.2543 88.4137 74.9706 88.0133 75.6643 87.6185C77.0743 86.8232 78.4843 86.0505 79.9169 85.2835C82.7369 83.7551 85.5964 82.2097 88.4671 80.732C89.2567 80.3203 90.0463 79.9198 90.8472 79.5307C91.6481 79.1415 92.5392 78.7749 93.3965 78.3689C93.406 78.368 93.4155 78.3701 93.4237 78.375C93.432 78.3799 93.4384 78.3872 93.4422 78.396C93.4459 78.4048 93.4468 78.4145 93.4447 78.4238C93.4425 78.4331 93.4375 78.4415 93.4303 78.4478C92.7422 78.8483 92.0767 79.3107 91.3886 79.7112C90.7005 80.1116 89.9617 80.5346 89.2454 80.9294C87.8317 81.7077 86.4085 82.4729 84.976 83.2249C82.156 84.7139 79.336 86.2141 76.516 87.641L74.102 88.848C73.273 89.2653 72.4495 89.7335 71.581 90.0719C71.564 90.0888 71.4964 90.0267 71.564 89.976Z" fill="#3A5036"/>
<path id="Vector_40" d="M52.8674 71.9279C64.9765 86.654 72.2408 95.9487 72.2408 95.9487L81.3945 91.0644L46.9905 56.9875C44.6161 58.8093 46.0768 63.6766 52.8674 71.9279Z" fill="#3A5036"/>
<path id="Vector_41" d="M78.7663 152.151L2.82935 156.945C2.82935 156.945 9.86242 83.7719 36.2858 57.2131C39.5514 53.9363 47.3966 54.1393 52.6418 56.3502C54.5199 57.1342 61.6207 65.8536 64.0233 74.3982C66.426 82.9428 78.9524 151.881 78.7663 152.151Z" fill="#91C788"/>
<path id="Vector_42" d="M28.8354 78.696C28.0652 79.0254 27.3456 79.4621 26.6978 79.9932C27.5287 79.8688 28.3365 79.6217 29.0948 79.26C29.8665 78.9336 30.5866 78.4966 31.2324 77.9628C30.4027 78.0925 29.5956 78.3394 28.8354 78.696ZM66.3132 84.7872C66.2807 84.8085 66.2504 84.833 66.2229 84.8605C66.2548 84.8637 66.2869 84.8637 66.3188 84.8605C66.3188 84.8605 66.3132 84.7759 66.3132 84.759V84.7872ZM47.312 97.4321C46.5414 97.7607 45.8217 98.1974 45.1745 98.7293C46.0028 98.6059 46.8097 98.3667 47.5715 98.0186C48.3405 97.6905 49.0585 97.2536 49.7034 96.7214C48.8757 96.8395 48.0699 97.0789 47.312 97.4321ZM38.9648 129.546C38.1958 129.877 37.4779 130.316 36.8329 130.849C37.6622 130.73 38.4698 130.491 39.2299 130.138C39.9982 129.806 40.7159 129.368 41.3618 128.836C40.533 128.957 39.7259 129.196 38.9648 129.546ZM20.2062 108.678C19.4391 109.01 18.7217 109.447 18.0742 109.975C18.9036 109.857 19.7111 109.617 20.4712 109.265C21.2394 108.935 21.9571 108.498 22.6032 107.968C21.773 108.098 20.9658 108.347 20.2062 108.706V108.678ZM7.38645 153.42C6.61696 153.748 5.89887 154.185 5.25452 154.718C6.08386 154.599 6.89139 154.359 7.65152 154.007C8.42051 153.676 9.1384 153.238 9.78345 152.704C8.95217 152.833 8.14447 153.084 7.38645 153.449V153.42ZM40.7527 148.564C39.9835 148.892 39.2654 149.329 38.6208 149.862C39.4495 149.74 40.2567 149.501 41.0178 149.151C41.7857 148.818 42.5032 148.38 43.1497 147.848C42.318 147.975 41.51 148.226 40.7527 148.593V148.564ZM78.332 149.32C77.7984 149.465 77.2777 149.653 76.7754 149.884C76.0088 150.217 75.2915 150.653 74.6435 151.181C75.4726 151.062 76.28 150.822 77.0405 150.471C77.512 150.261 77.9681 150.018 78.4053 149.743C78.3715 149.596 78.332 149.455 78.332 149.32ZM61.1808 127.285C60.41 127.615 59.6903 128.054 59.0432 128.587C59.8621 128.462 60.6595 128.223 61.412 127.877C62.1835 127.548 62.9034 127.109 63.5496 126.574C62.7262 126.695 61.9247 126.935 61.1695 127.285H61.1808ZM35.9192 66.4516C35.5899 65.6819 35.1511 64.9638 34.6164 64.3196C34.7397 65.1462 34.979 65.9512 35.327 66.711C35.6563 67.4824 36.0951 68.2024 36.6298 68.8486C36.51 68.0194 36.2706 67.212 35.9192 66.4516ZM24.5659 152.49C24.2386 151.719 23.8017 150.999 23.2687 150.352C23.3886 151.181 23.6279 151.989 23.9793 152.749C24.3079 153.52 24.7447 154.24 25.2765 154.887C25.1619 154.056 24.9223 153.248 24.5659 152.49ZM19.9016 131.537C19.5689 130.77 19.1283 130.054 18.5931 129.411C18.7173 130.237 18.9565 131.042 19.3038 131.802C19.6338 132.573 20.0747 133.291 20.6122 133.934C20.4877 133.106 20.2486 132.299 19.9016 131.537ZM48.0001 117.144C47.6685 116.375 47.232 115.655 46.7029 115.006C46.8202 115.836 47.0596 116.644 47.4135 117.403C47.7399 118.175 48.1769 118.895 48.7107 119.541C48.5874 118.713 48.3482 117.906 48.0001 117.144ZM36.0658 90.6359C35.7353 89.8651 35.2966 89.1454 34.763 88.4983C34.8803 89.328 35.1197 90.1358 35.4736 90.8953C35.8029 91.6668 36.2417 92.3867 36.7765 93.0329C36.654 92.2134 36.4146 91.4157 36.0658 90.6641V90.6359ZM53.9616 151.638C54.0625 152.332 54.2521 153.011 54.5256 153.657L55.2024 153.612C54.8747 152.913 54.4576 152.259 53.9616 151.666V151.638ZM74.4912 134.532C74.1598 133.762 73.7191 133.044 73.1827 132.4C73.3103 133.226 73.5494 134.03 73.8933 134.791C74.2248 135.56 74.6634 136.278 75.1962 136.923C75.0766 136.097 74.8391 135.291 74.4912 134.532ZM57.464 73.761C57.1311 72.9949 56.6926 72.2792 56.1612 71.6347C56.2854 72.4618 56.5265 73.2669 56.8775 74.0261C57.2026 74.7967 57.6397 75.5151 58.1746 76.158C58.0532 75.3292 57.8139 74.5221 57.464 73.761ZM50.696 62.0072C49.9189 61.7036 49.1021 61.5136 48.2708 61.4432C48.9421 61.9418 49.6808 62.3425 50.4648 62.6333C51.2428 62.9337 52.0592 63.1236 52.89 63.1973C52.2187 62.6987 51.48 62.298 50.696 62.0072ZM29.4332 120.46C28.6585 120.144 27.8412 119.944 27.008 119.868C27.6811 120.368 28.4216 120.771 29.2076 121.064C29.9863 121.362 30.8023 121.552 31.6328 121.628C30.9678 121.135 30.2344 120.741 29.4558 120.46H29.4332ZM11.0468 141.486C10.269 141.173 9.45039 140.974 8.61596 140.894C9.97618 141.879 11.5706 142.492 13.2408 142.671C12.5762 142.176 11.8452 141.777 11.0694 141.486H11.0468ZM62.7036 143.178C61.9258 142.865 61.1072 142.666 60.2727 142.586C61.633 143.571 63.2273 144.184 64.8975 144.363C64.2323 143.869 63.5015 143.47 62.7261 143.178H62.7036ZM59.0883 111.899C58.3119 111.593 57.4948 111.403 56.6631 111.335C57.3331 111.835 58.0721 112.236 58.8571 112.525C59.6344 112.833 60.4505 113.032 61.2823 113.117C60.6222 112.606 59.8906 112.196 59.1109 111.899H59.0883ZM52.185 85.5937C51.4088 85.2871 50.5916 85.0971 49.7598 85.0297C50.4299 85.5286 51.1689 85.9276 51.9537 86.2141C52.7296 86.5267 53.5463 86.7261 54.3789 86.8063C53.7188 86.2974 52.9871 85.8887 52.2075 85.5937H52.185ZM21.368 94.9448C21.0624 95.7213 20.8723 96.5384 20.804 97.37C21.7809 96.0051 22.3925 94.4131 22.5806 92.7452C22.0698 93.4144 21.6612 94.1557 21.368 94.9448ZM49.3481 137.081C49.0425 137.858 48.8525 138.675 48.784 139.506C49.2844 138.835 49.6869 138.097 49.9797 137.313C50.2775 136.534 50.4673 135.718 50.5437 134.887C50.0441 135.557 49.645 136.296 49.3593 137.081H49.3481ZM62.3539 97.5054C62.0482 98.2857 61.8582 99.1066 61.7899 99.9419C62.7742 98.5789 63.3865 96.983 63.5665 95.3114C63.0632 95.9815 62.6586 96.7204 62.3652 97.5054H62.3539ZM30.4146 140.533C30.1089 141.311 29.9189 142.13 29.8506 142.964C30.3479 142.288 30.7484 141.545 31.0406 140.759C31.3417 139.981 31.5315 139.164 31.6046 138.333C31.1078 139.006 30.7108 139.747 30.4258 140.533H30.4146ZM9.30968 120.641C9.0086 121.42 8.81873 122.239 8.74568 123.072C9.2474 122.4 9.64832 121.659 9.93572 120.872C10.2423 120.096 10.4324 119.279 10.4997 118.447C10.0083 119.121 9.6117 119.859 9.32096 120.641H9.30968ZM35.468 107.139C35.1598 107.916 34.9697 108.735 34.904 109.569C35.8872 108.208 36.4994 106.614 36.6806 104.945C36.171 105.612 35.7624 106.352 35.468 107.139ZM43.4091 75.656C43.1119 76.437 42.9222 77.2548 42.8451 78.0869C43.3464 77.4164 43.7491 76.6776 44.0408 75.8929C44.3412 75.1129 44.5311 74.2947 44.6048 73.4621C44.1076 74.1342 43.707 74.8727 43.4148 75.656H43.4091Z" fill="white"/>
<path id="Vector_43" d="M37.3856 59.3225C39.2364 63.5542 42.1724 67.2218 45.8964 69.9539C47.7144 71.3545 49.8419 72.2984 52.1004 72.7062C53.2883 72.9406 54.5191 72.8169 55.6366 72.3509C56.674 71.7881 57.5498 70.9686 58.1803 69.9708C58.913 68.8669 59.4722 67.6572 59.8384 66.3838C60.268 64.9597 60.5941 63.5065 60.8142 62.0354C60.8116 62.0285 60.8108 62.0212 60.8117 62.014C60.8126 62.0068 60.8153 61.9999 60.8194 61.9939C60.8236 61.9879 60.8291 61.983 60.8356 61.9797C60.842 61.9763 60.8492 61.9745 60.8565 61.9745C60.8637 61.9745 60.8709 61.9763 60.8774 61.9797C60.8838 61.983 60.8893 61.9879 60.8935 61.9939C60.8977 61.9999 60.9003 62.0068 60.9012 62.014C60.9021 62.0212 60.9013 62.0285 60.8988 62.0354C60.6957 63.4285 60.6055 64.8554 60.2953 66.209C60.04 67.432 59.6227 68.6156 59.0545 69.7283C58.5091 70.7973 57.7396 71.736 56.7985 72.4806C55.785 73.2252 54.5467 73.5995 53.2904 73.541C50.8417 73.4268 48.4756 72.6211 46.466 71.2173C44.4668 69.9003 42.6856 68.2789 41.187 66.412C39.4861 64.2951 38.1517 61.9083 37.239 59.3507C37.2352 59.3313 37.2394 59.3111 37.2505 59.2948C37.2616 59.2784 37.2787 59.267 37.2982 59.2633C37.3176 59.2596 37.3378 59.2637 37.3542 59.2748C37.3705 59.2859 37.3819 59.3031 37.3856 59.3225Z" fill="#3A5036"/>
<path id="Vector_44" d="M53.9672 70.1627C49.5229 70.9072 42.4447 63.7218 39.8334 58.1044C39.6586 57.7209 40.482 53.8349 41.266 49.0804C41.7284 46.1871 42.1796 42.9553 42.394 39.9774C42.4334 39.3627 60.7804 45.7415 60.7804 45.7415C60.7804 45.7415 58.5244 51.8665 58.2198 57.061C58.2019 57.4715 58.2189 57.8828 58.2706 58.2905C58.274 58.3581 58.274 58.4259 58.2706 58.4935C58.4849 60.8341 58.2649 69.4351 53.9672 70.1627Z" fill="#AD6359"/>
<path id="Vector_45" d="M56.336 58.4653C56.9759 58.5211 57.6194 58.5211 58.2592 58.4653C58.2592 58.3863 58.2592 58.3186 58.2592 58.2622C58.2039 57.8549 58.1888 57.4431 58.2141 57.0327C58.5243 51.8383 60.7634 45.7189 60.7634 45.7189C60.7634 45.7189 45.8738 40.5357 42.8959 39.9604C43.2399 43.4572 45.338 57.4952 56.336 58.4653Z" fill="#3A5036"/>
<path id="Vector_46" d="M39.7319 19.5944C37.7804 26.244 41.5085 45.42 46.2799 49.6105C53.1945 55.7299 64.4069 56.1924 69.5787 47.9185C74.5927 39.8871 69.2911 15.0373 63.9726 11.2134C56.1443 5.5621 42.6083 9.75263 39.7319 19.5944Z" fill="#AD6359"/>
<path id="Vector_47" d="M57.949 31.2297C57.949 31.1789 57.8644 31.3087 57.8757 31.3594C58.1577 32.6454 58.2705 34.1794 57.1876 34.8111C57.1538 34.8111 57.1876 34.8957 57.1876 34.8788C58.592 34.4107 58.4284 32.3972 57.949 31.2297Z" fill="#3A5036"/>
<path id="Vector_48" d="M56.5447 30.1017C54.441 30.3386 55.067 34.5291 57.0184 34.3092C58.9699 34.0892 58.31 29.9043 56.5447 30.1017Z" fill="#3A5036"/>
<path id="Vector_49" d="M65.8902 29.8649C65.8902 29.8141 66.003 29.91 66.0086 29.9607C66.1609 31.2692 66.5726 32.7356 67.7965 32.9894C67.836 32.9894 67.8417 33.0627 67.7965 33.0627C66.3301 33.0797 65.8281 31.1226 65.8902 29.8649Z" fill="#3A5036"/>
<path id="Vector_50" d="M66.849 28.3307C68.9132 27.8626 69.7028 32.0249 67.7908 32.4649C65.8789 32.9048 65.1175 28.7255 66.849 28.3307Z" fill="#3A5036"/>
<path id="Vector_51" d="M54.6045 28.4323C55.1292 28.1855 55.6412 27.9126 56.1386 27.6145C56.7196 27.4032 57.215 27.0069 57.5486 26.4865C57.6215 26.3023 57.6317 26.0992 57.5777 25.9086C57.5237 25.718 57.4084 25.5504 57.2497 25.4318C56.5334 24.9694 55.7213 25.1837 54.9937 25.539C54.2505 25.8762 53.6608 26.48 53.3412 27.231C53.2816 27.4047 53.2731 27.5918 53.3167 27.7701C53.3604 27.9485 53.4543 28.1106 53.5874 28.2371C53.7204 28.3636 53.887 28.4493 54.0673 28.4839C54.2476 28.5185 54.4341 28.5006 54.6045 28.4323Z" fill="#3A5036"/>
<path id="Vector_52" d="M68.18 25.9789C67.6001 25.9495 67.0221 25.8893 66.4486 25.7984C65.8314 25.8172 65.2251 25.633 64.7227 25.2739C64.5855 25.1308 64.5 24.9461 64.4795 24.749C64.4591 24.5519 64.505 24.3535 64.6099 24.1854C65.1006 23.4917 65.9353 23.3845 66.7362 23.4409C67.5474 23.4793 68.3162 23.8145 68.8963 24.3828C69.0192 24.5209 69.0995 24.6916 69.1276 24.8743C69.1558 25.057 69.1304 25.244 69.0547 25.4127C68.9791 25.5813 68.8562 25.7245 68.701 25.825C68.5458 25.9254 68.3649 25.9789 68.18 25.9789Z" fill="#3A5036"/>
<path id="Vector_53" d="M58.592 43.023C58.9474 43.2768 59.3252 43.6491 59.799 43.6209C60.2809 43.5386 60.7401 43.3561 61.147 43.0851C61.1551 43.0788 61.1651 43.0755 61.1754 43.0757C61.1856 43.0759 61.1955 43.0795 61.2034 43.0861C61.2113 43.0927 61.2167 43.1018 61.2188 43.1118C61.2208 43.1219 61.2193 43.1323 61.2146 43.1415C61.0675 43.4254 60.8461 43.6641 60.5739 43.832C60.3017 43.9998 59.989 44.0906 59.6693 44.0946C59.3942 44.0652 59.1341 43.9545 58.9222 43.7768C58.7103 43.599 58.5561 43.3621 58.4792 43.0964C58.4398 43.0287 58.5356 42.9835 58.592 43.023Z" fill="#3A5036"/>
<path id="Vector_54" d="M59.3703 38.9283C59.7766 39.3939 60.2751 39.7702 60.8343 40.0333C61.3935 40.2964 62.0012 40.4406 62.619 40.4567C63.1582 40.476 63.6974 40.419 64.2207 40.2875C64.3208 40.2706 64.419 40.2442 64.514 40.2086C64.6099 40.2086 64.6945 40.1578 64.796 40.124C64.8632 40.0996 64.9205 40.0538 64.9592 39.9937C64.9979 39.9336 65.0159 39.8625 65.0103 39.7912C65.0051 39.7466 64.9937 39.703 64.9765 39.6615V39.5487C64.8524 38.5448 64.5253 37.0389 64.5253 37.0389C64.9201 37.163 66.9054 37.727 66.7813 37.2081C65.8789 32.9217 64.875 28.1841 63.0645 24.0838C63.0555 24.0532 63.0348 24.0273 63.0067 24.012C62.9787 23.9966 62.9457 23.9931 62.9151 24.002C62.8844 24.011 62.8586 24.0318 62.8432 24.0598C62.8279 24.0879 62.8243 24.1208 62.8333 24.1515C63.5383 28.3025 64.9708 32.3069 65.7492 36.4636C65.0399 36.2564 64.3054 36.1482 63.5665 36.1421C63.4311 36.2042 64.2489 39.0411 64.2658 39.4979C64.2695 39.5147 64.2695 39.532 64.2658 39.5487C62.619 40.0112 61.2766 39.6953 59.4775 38.8099C59.3647 38.7365 59.2801 38.8381 59.3703 38.9283Z" fill="#3A5036"/>
<path id="Vector_55" d="M63.5552 39.8703C63.1114 40.6673 62.4706 41.3372 61.694 41.816C61.2631 42.0617 60.7661 42.1662 60.2728 42.115C59.1955 42.0022 59.032 41.0546 59.0996 40.2086C59.1379 39.761 59.2308 39.3197 59.376 38.8945C60.6291 39.6577 62.0937 39.9997 63.5552 39.8703Z" fill="#3A5036"/>
<path id="Vector_56" d="M61.694 41.816C61.2631 42.0617 60.7661 42.1662 60.2728 42.1149C59.1955 42.0021 59.032 41.0546 59.0996 40.2086C60.2276 40.1578 61.4402 40.7444 61.694 41.816Z" fill="#FF97B8"/>
<path id="Vector_57" d="M61.412 15.7197C60.8697 16.8117 60.0579 17.7474 59.0532 18.4382C58.0486 19.1291 56.8843 19.5522 55.6705 19.6677C53.2622 19.8707 50.5663 18.8442 49.1732 16.8082C49.1337 16.7462 49.0379 16.8082 49.0773 16.8703C50.5663 19.0473 53.0253 20.5362 55.71 20.2542C56.9885 20.0929 58.2024 19.5992 59.2306 18.8223C60.2588 18.0455 61.0654 17.0127 61.5699 15.8269C61.6038 15.6915 61.4571 15.6182 61.412 15.7197Z" fill="#3A5036"/>
<path id="Vector_58" d="M51.0626 2.41493C47.9888 2.30213 45.135 4.42841 43.9731 7.20329C43.3126 8.86565 43.0874 10.6691 43.3189 12.4429C43.3189 12.4578 43.3248 12.4722 43.3354 12.4827C43.346 12.4933 43.3603 12.4993 43.3753 12.4993C43.3902 12.4993 43.4046 12.4933 43.4152 12.4827C43.4257 12.4722 43.4317 12.4578 43.4317 12.4429C43.2963 9.62286 44.3679 6.4419 46.6239 4.61453C47.6362 3.7323 48.8984 3.18757 50.2348 3.05616C51.5711 2.92475 52.9152 3.21318 54.08 3.88133C55.3713 4.63211 56.3665 5.80249 56.9 7.19766C56.9143 7.22541 56.9382 7.24705 56.9672 7.25861C56.9963 7.27017 57.0285 7.27087 57.058 7.26058C57.0875 7.25029 57.1123 7.22971 57.1278 7.20261C57.1433 7.1755 57.1485 7.14371 57.1425 7.11306C56.7369 5.79878 55.9351 4.64196 54.8467 3.80096C53.7584 2.95995 52.4367 2.47585 51.0626 2.41493Z" fill="#3A5036"/>
<path id="Vector_59" d="M74.384 4.08434C73.2941 2.36577 71.6322 1.08739 69.6915 0.474738C67.0012 -0.382541 64.4181 0.474739 61.8689 1.40534C61.8012 1.40534 61.8407 1.53506 61.9083 1.5125C64.0797 0.739821 66.3245 0.0799385 68.6368 0.615738C70.5392 1.05527 72.231 2.13927 73.4252 3.6839C74.6093 5.28177 75.1774 7.25313 75.0251 9.23609C74.8728 11.219 74.0103 13.0805 72.5961 14.4789C71.7603 15.2617 70.7734 15.8657 69.696 16.2536C68.6185 16.6415 67.4731 16.8053 66.3301 16.7349C66.2399 16.7349 66.206 16.8646 66.3019 16.8702C67.8639 17.0254 69.4382 16.743 70.8489 16.0546C72.2596 15.3661 73.4509 14.2988 74.2896 12.972C75.1283 11.6452 75.5813 10.1112 75.598 8.54156C75.6146 6.97197 75.1943 5.42869 74.384 4.08434Z" fill="#3A5036"/>
<path id="Vector_60" d="M39.3427 21.3033C39.3427 21.3033 38.3726 15.6182 39.4329 13.5652C40.4932 11.5123 43.6122 10.373 43.6122 10.373C43.6122 10.373 44.3961 5.1842 48.8517 3.82496C52.8505 2.60672 56.4319 5.55644 56.4319 5.55644C56.4319 5.55644 60.7634 -1.33564 67.9318 0.356355C74.7337 1.95248 76.1098 11.4333 70.8872 15.7705C67.2212 18.8161 60.6619 16.515 60.6619 16.515C60.1373 16.7236 55.3885 21.4387 49.9459 17.502C49.9459 17.502 46.8326 21.3597 44.1536 19.758C44.1705 19.7805 41.5648 21.8504 39.3427 21.3033Z" fill="#3A5036"/>
<path id="Vector_61" opacity="0.2" d="M42.456 14.5748C42.9128 17.4907 44.148 25.8097 43.4994 27.8458C42.8508 29.8818 41.4521 35.1326 40.5215 35.6966C39.2073 29.4926 38.7449 22.9559 39.7319 19.5944C40.2772 17.7484 41.2054 16.0381 42.456 14.5748Z" fill="#3A5036"/>
<path id="Vector_62" d="M43.1384 34.9859C43.1384 34.9859 38.6264 28.9285 35.8459 30.5585C33.0654 32.1885 36.6242 41.0771 39.9688 42.1995C40.3868 42.374 40.8359 42.4619 41.2889 42.4579C41.742 42.4539 42.1895 42.358 42.6044 42.1762C43.0193 41.9943 43.393 41.7301 43.7029 41.3997C44.0128 41.0692 44.2525 40.6794 44.4074 40.2537L43.1384 34.9859Z" fill="#AD6359"/>
<path id="Vector_63" d="M36.9231 33.0796C36.9111 33.0796 36.8997 33.0843 36.8912 33.0928C36.8827 33.1013 36.878 33.1127 36.878 33.1247C36.878 33.1367 36.8827 33.1482 36.8912 33.1566C36.8997 33.1651 36.9111 33.1698 36.9231 33.1698C39.2637 34.0328 40.5553 36.1421 41.4746 38.3417C40.7639 37.507 39.8108 37.0671 38.6884 37.9244C38.6264 37.9695 38.6884 38.0597 38.7561 38.0428C39.1589 37.9009 39.5957 37.8871 40.0067 38.0032C40.4176 38.1193 40.7826 38.3597 41.0516 38.6914C41.4898 39.2518 41.8679 39.8567 42.1796 40.4962C42.2924 40.6992 42.6646 40.5808 42.58 40.3439C42.5791 40.3251 42.5791 40.3063 42.58 40.2875C42.5293 37.3378 40.1041 33.277 36.9231 33.0796Z" fill="#3A5036"/>
<path id="Vector_64" d="M90.9205 101.374C87.9144 101.938 88.7153 97.9622 85.9291 97.7028C83.143 97.4434 82.3083 100.523 80.5937 100.083C78.8791 99.643 80.1087 96.5692 76.6965 96.541C73.2843 96.5128 72.5059 101.211 70.4417 102.294C68.3775 103.377 63.9388 101.538 63.4086 105.3C62.8785 109.062 70.4981 110.314 75.9689 112.948C81.4397 115.582 87.356 119.586 92.291 119.304C97.5814 118.971 99.8825 115.525 103.932 114.978C107.982 114.431 117.288 116.935 121.252 113.388C125.217 109.84 131.619 106.981 131.715 103.134C131.81 99.2876 126.757 100.98 125.138 100.794C123.52 100.607 123.672 96.3605 120.559 95.7683C117.445 95.1761 116.678 97.105 113.971 97.2967C111.264 97.4885 110.102 92.2207 106.306 93.1682C102.511 94.1158 103.486 96.259 101.845 97.1952C100.204 98.1314 97.0117 96.0052 94.7952 96.9809C92.5787 97.9566 93.5995 100.895 90.9205 101.374Z" fill="#455A64"/>
<path id="Vector_65" d="M103.187 103.895C106.323 104.048 105.004 100.224 107.812 99.609C110.621 98.9943 111.862 101.95 113.559 101.301C115.257 100.652 113.605 97.7591 117.079 97.291C120.553 96.8229 121.946 101.397 124.191 102.203C126.436 103.01 130.728 100.624 131.754 104.29C132.781 107.956 125.155 110.167 119.91 113.478C114.665 116.788 109.143 121.515 104.067 121.836C98.6304 122.18 95.8386 119.05 91.6593 119.016C87.4801 118.982 78.2812 122.66 73.7862 119.642C69.2911 116.625 62.4046 114.611 61.8124 110.81C61.2202 107.009 66.5952 108.035 68.2195 107.646C69.8438 107.257 69.1557 103.061 72.2521 102.079C75.3484 101.098 76.3806 102.908 79.1667 102.756C81.9529 102.604 82.4661 97.2402 86.4592 97.6801C90.4524 98.1201 89.7192 100.387 91.5352 101.104C93.3513 101.82 96.3179 99.3101 98.698 99.9756C101.078 100.641 100.396 103.76 103.187 103.895Z" fill="#37474F"/>
<path id="Vector_66" d="M68.7948 103.709C66.1327 105.503 64.6776 109.739 66.8208 113.765C68.964 117.792 74.3897 117.279 76.9728 115.514C79.5559 113.749 81.7386 109.344 79.5334 105.587C77.644 102.328 73.4591 100.568 68.7948 103.709Z" fill="#91C788"/>
<path id="Vector_67" opacity="0.1" d="M68.7948 103.709C66.1327 105.503 64.6776 109.739 66.8208 113.765C68.964 117.792 74.3897 117.279 76.9728 115.514C79.5559 113.749 81.7386 109.344 79.5334 105.587C77.644 102.328 73.4591 100.568 68.7948 103.709Z" fill="black"/>
<path id="Vector_68" d="M69.5844 104.764C67.413 106.225 66.2004 109.688 67.977 112.976C69.7536 116.264 74.181 115.847 76.2791 114.403C78.3771 112.959 80.1763 109.366 78.3771 106.292C76.8205 103.63 73.4027 102.198 69.5844 104.764Z" fill="#91C788"/>
<path id="Vector_69" d="M74.1302 106.591C74.322 106.744 75.0101 106.168 74.6322 105.898C74.2543 105.627 73.8821 106.4 74.1302 106.591Z" fill="white"/>
<path id="Vector_70" d="M75.7376 110.365C75.6417 110.584 76.3693 111.109 76.5385 110.675C76.7077 110.24 75.8673 110.071 75.7376 110.365Z" fill="white"/>
<path id="Vector_71" d="M77.3507 108.898C77.3901 109.135 78.2869 109.175 78.191 108.718C78.0951 108.261 77.2999 108.588 77.3507 108.898Z" fill="white"/>
<path id="Vector_72" d="M74.0851 104.939C74.322 104.899 74.3671 104.008 73.9102 104.098C73.4534 104.189 73.7692 104.99 74.0851 104.939Z" fill="white"/>
<path id="Vector_73" d="M69.7931 108.063C69.8551 107.832 69.0543 107.426 68.9527 107.883C68.8512 108.34 69.7085 108.374 69.7931 108.063Z" fill="white"/>
<path id="Vector_74" d="M71.7106 113.049C71.5132 112.908 70.8534 113.512 71.2425 113.765C71.6317 114.019 71.9701 113.235 71.7106 113.049Z" fill="white"/>
<path id="Vector_75" d="M73.2842 112.745C73.0473 112.705 72.7202 113.54 73.1827 113.596C73.6452 113.653 73.6 112.795 73.2842 112.745Z" fill="white"/>
<path id="Vector_76" d="M71.6317 109.214C71.8009 109.045 71.3046 108.295 70.9944 108.65C70.6842 109.005 71.4061 109.44 71.6317 109.214Z" fill="white"/>
<path id="Vector_77" d="M66.8038 109.834C66.8038 109.834 71.1748 109.349 71.7501 110.235C72.3254 111.12 69.2178 115.012 68.7045 114.668C68.1913 114.324 66.3301 111.312 66.8038 109.834Z" fill="#91C788"/>
<path id="Vector_78" opacity="0.1" d="M66.8038 109.834C66.8038 109.834 71.1748 109.349 71.7501 110.235C72.3254 111.12 69.2178 115.012 68.7045 114.668C68.1913 114.324 66.3301 111.312 66.8038 109.834Z" fill="black"/>
<path id="Vector_79" d="M74.2768 115.632C74.2768 115.632 72.9853 111.425 73.7523 110.697C74.5193 109.97 78.9129 112.293 78.676 112.863C78.4391 113.433 75.8165 115.818 74.2768 115.632Z" fill="#91C788"/>
<path id="Vector_80" opacity="0.1" d="M74.2768 115.632C74.2768 115.632 72.9853 111.425 73.7523 110.697C74.5193 109.97 78.9129 112.293 78.676 112.863C78.4391 113.433 75.8165 115.818 74.2768 115.632Z" fill="black"/>
<path id="Vector_81" d="M79.8435 107.883C79.8435 107.883 75.5684 108.921 74.886 108.114C74.2035 107.308 76.7866 103.038 77.3393 103.331C77.8921 103.625 80.1198 106.332 79.8435 107.883Z" fill="#91C788"/>
<path id="Vector_82" opacity="0.1" d="M79.8435 107.883C79.8435 107.883 75.5684 108.921 74.886 108.114C74.2035 107.308 76.7866 103.038 77.3393 103.331C77.8921 103.625 80.1198 106.332 79.8435 107.883Z" fill="black"/>
<path id="Vector_83" d="M72.5961 102.767C72.5961 102.767 73.6395 107.043 72.833 107.725C72.0265 108.407 67.757 105.824 68.0446 105.272C68.3323 104.719 71.0733 102.485 72.5961 102.767Z" fill="#91C788"/>
<path id="Vector_84" opacity="0.1" d="M72.5961 102.767C72.5961 102.767 73.6395 107.043 72.833 107.725C72.0265 108.407 67.757 105.824 68.0446 105.272C68.3323 104.719 71.0733 102.485 72.5961 102.767Z" fill="black"/>
<path id="Vector_85" d="M91.744 93.7774C88.6081 93.0893 84.5417 94.9618 83.1091 99.2933C81.6766 103.625 85.7938 107.189 88.8676 107.855C91.9414 108.52 96.6169 107.043 97.8182 102.852C98.856 99.2256 97.2373 94.9843 91.744 93.7774Z" fill="#91C788"/>
<path id="Vector_86" opacity="0.1" d="M91.744 93.7774C88.6081 93.0893 84.5417 94.9618 83.1091 99.2933C81.6766 103.625 85.7938 107.189 88.8676 107.855C91.9414 108.52 96.6169 107.043 97.8182 102.852C98.856 99.2256 97.2373 94.9843 91.744 93.7774Z" fill="black"/>
<path id="Vector_87" d="M91.5296 95.0519C88.9747 94.4879 85.6527 96.022 84.4796 99.5639C83.3065 103.106 86.6735 106.022 89.1833 106.557C91.6931 107.093 95.5171 105.898 96.5153 102.474C97.3444 99.5244 96.019 96.0615 91.5296 95.0519Z" fill="#91C788"/>
<path id="Vector_88" d="M93.3457 99.626C93.3457 99.8685 94.2593 99.97 94.1973 99.5076C94.1353 99.0451 93.3118 99.3102 93.3457 99.626Z" fill="white"/>
<path id="Vector_89" d="M91.7327 103.394C91.5014 103.478 91.6255 104.364 92.0541 104.189C92.4828 104.014 92.0259 103.286 91.7327 103.394Z" fill="white"/>
<path id="Vector_90" d="M93.904 103.546C93.7574 103.743 94.344 104.414 94.609 104.031C94.8741 103.647 94.0902 103.292 93.904 103.546Z" fill="white"/>
<path id="Vector_91" d="M94.5076 98.4359C94.6993 98.5882 95.3818 98.0016 94.9982 97.7366C94.6147 97.4715 94.2538 98.2554 94.5076 98.4359Z" fill="white"/>
<path id="Vector_92" d="M89.2849 97.5053C89.4993 97.3869 89.2342 96.5296 88.8393 96.7721C88.4445 97.0146 89.0086 97.6576 89.2849 97.5053Z" fill="white"/>
<path id="Vector_93" d="M87.0063 102.339C86.9725 102.096 86.0758 102.034 86.1604 102.491C86.245 102.948 87.0458 102.649 87.0063 102.339Z" fill="white"/>
<path id="Vector_94" d="M88.3092 103.264C88.1738 103.061 87.3448 103.405 87.6211 103.777C87.8975 104.149 88.484 103.512 88.3092 103.264Z" fill="white"/>
<path id="Vector_95" d="M89.7192 99.6316C89.9617 99.6316 90.1591 98.7574 89.7192 98.7687C89.2793 98.7799 89.4034 99.6259 89.7192 99.6316Z" fill="white"/>
<path id="Vector_96" d="M85.9404 96.5635C85.9404 96.5635 89.3244 99.3835 89.0706 100.421C88.8168 101.459 83.8649 101.888 83.7577 101.279C83.6506 100.669 84.536 97.2459 85.9404 96.5635Z" fill="#91C788"/>
<path id="Vector_97" opacity="0.1" d="M85.9404 96.5635C85.9404 96.5635 89.3244 99.3835 89.0706 100.421C88.8168 101.459 83.8649 101.888 83.7577 101.279C83.6506 100.669 84.536 97.2459 85.9404 96.5635Z" fill="black"/>
<path id="Vector_98" d="M86.9105 105.977C86.9105 105.977 89.0593 102.136 90.114 102.187C91.1687 102.237 92.5223 107.026 91.947 107.263C91.3717 107.499 87.8354 107.223 86.9105 105.977Z" fill="#91C788"/>
<path id="Vector_99" opacity="0.1" d="M86.9105 105.977C86.9105 105.977 89.0593 102.136 90.114 102.187C91.1687 102.237 92.5223 107.026 91.947 107.263C91.3717 107.499 87.8354 107.223 86.9105 105.977Z" fill="black"/>
<path id="Vector_100" d="M96.38 104.64C96.38 104.64 92.6746 102.26 92.7874 101.211C92.9002 100.162 97.7618 99.0958 97.9423 99.6824C98.1228 100.269 97.6547 103.8 96.38 104.64Z" fill="#91C788"/>
<path id="Vector_101" opacity="0.1" d="M96.38 104.64C96.38 104.64 92.6746 102.26 92.7874 101.211C92.9002 100.162 97.7618 99.0958 97.9423 99.6824C98.1228 100.269 97.6547 103.8 96.38 104.64Z" fill="black"/>
<path id="Vector_102" d="M95.0546 95.8754C95.0546 95.8754 92.6802 99.5808 91.6311 99.468C90.5821 99.3552 89.5161 94.4992 90.1027 94.3131C90.6893 94.127 94.203 94.5782 95.0546 95.8754Z" fill="#91C788"/>
<path id="Vector_103" opacity="0.1" d="M95.0546 95.8754C95.0546 95.8754 92.6802 99.5808 91.6311 99.468C90.5821 99.3552 89.5161 94.4992 90.1027 94.3131C90.6893 94.127 94.203 94.5782 95.0546 95.8754Z" fill="black"/>
<path id="Vector_104" d="M100.587 114.431C102.951 116.602 107.406 117.025 110.824 114.002C114.242 110.979 112.471 105.819 110.147 103.709C107.824 101.6 103.035 100.517 99.8937 103.535C97.1753 106.151 96.4421 110.63 100.587 114.431Z" fill="#91C788"/>
<path id="Vector_105" opacity="0.1" d="M100.587 114.431C102.951 116.602 107.406 117.025 110.824 114.002C114.242 110.979 112.471 105.819 110.147 103.709C107.824 101.6 103.035 100.517 99.8937 103.535C97.1753 106.151 96.4421 110.63 100.587 114.431Z" fill="black"/>
<path id="Vector_106" d="M101.422 113.416C103.351 115.187 106.995 115.531 109.786 113.066C112.578 110.601 111.134 106.383 109.222 104.651C107.31 102.92 103.413 102.046 100.847 104.51C98.6361 106.648 98.0382 110.308 101.422 113.416Z" fill="#91C788"/>
<path id="Vector_107" d="M102.144 108.588C102.246 108.368 101.524 107.832 101.349 108.261C101.174 108.689 102.02 108.859 102.144 108.588Z" fill="white"/>
<path id="Vector_108" d="M105.432 106.123C105.669 106.168 105.996 105.339 105.545 105.272C105.094 105.204 105.116 106.067 105.432 106.123Z" fill="white"/>
<path id="Vector_109" d="M103.627 104.899C103.853 104.809 103.684 103.929 103.261 104.127C102.838 104.324 103.34 105.023 103.627 104.899Z" fill="white"/>
<path id="Vector_110" d="M100.542 109.005C100.452 108.78 99.5723 108.943 99.764 109.366C99.9558 109.789 100.666 109.293 100.542 109.005Z" fill="white"/>
<path id="Vector_111" d="M104.586 112.446C104.344 112.446 104.141 113.309 104.586 113.303C105.032 113.297 104.902 112.451 104.586 112.446Z" fill="white"/>
<path id="Vector_112" d="M108.985 109.411C108.895 109.637 109.634 110.139 109.792 109.705C109.95 109.27 109.104 109.118 108.985 109.411Z" fill="white"/>
<path id="Vector_113" d="M108.32 107.956C108.32 108.199 109.228 108.317 109.172 107.855C109.115 107.392 108.297 107.64 108.32 107.956Z" fill="white"/>
<path id="Vector_114" d="M105.274 110.387C105.066 110.263 104.456 110.923 104.868 111.143C105.28 111.363 105.551 110.551 105.274 110.387Z" fill="white"/>
<path id="Vector_115" d="M107.006 114.939C107.006 114.939 105.511 110.799 106.239 110.032C106.966 109.265 111.473 111.38 111.264 111.955C111.055 112.53 108.557 115.051 107.006 114.939Z" fill="#91C788"/>
<path id="Vector_116" opacity="0.1" d="M107.006 114.939C107.006 114.939 105.511 110.799 106.239 110.032C106.966 109.265 111.473 111.38 111.264 111.955C111.055 112.53 108.557 115.051 107.006 114.939Z" fill="black"/>
<path id="Vector_117" d="M110.897 106.332C110.897 106.332 107.107 108.588 106.222 107.996C105.336 107.404 106.566 102.604 107.175 102.705C107.784 102.807 110.717 104.77 110.897 106.332Z" fill="#91C788"/>
<path id="Vector_118" opacity="0.1" d="M110.897 106.332C110.897 106.332 107.107 108.588 106.222 107.996C105.336 107.404 106.566 102.604 107.175 102.705C107.784 102.807 110.717 104.77 110.897 106.332Z" fill="black"/>
<path id="Vector_119" d="M102.059 102.717C102.059 102.717 104.067 106.631 103.447 107.482C102.827 108.334 98.0833 106.811 98.2187 106.213C98.354 105.616 100.514 102.801 102.059 102.717Z" fill="#91C788"/>
<path id="Vector_120" opacity="0.1" d="M102.059 102.717C102.059 102.717 104.067 106.631 103.447 107.482C102.827 108.334 98.0833 106.811 98.2187 106.213C98.354 105.616 100.514 102.801 102.059 102.717Z" fill="black"/>
<path id="Vector_121" d="M98.777 110.951C98.777 110.951 102.697 108.943 103.548 109.569C104.4 110.195 102.877 114.933 102.274 114.798C101.67 114.662 98.8616 112.502 98.777 110.951Z" fill="#91C788"/>
<path id="Vector_122" opacity="0.1" d="M98.777 110.951C98.777 110.951 102.697 108.943 103.548 109.569C104.4 110.195 102.877 114.933 102.274 114.798C101.67 114.662 98.8616 112.502 98.777 110.951Z" fill="black"/>
<path id="Vector_123" d="M117.812 107.342C120.175 109.513 124.631 109.93 128.049 106.907C131.466 103.884 129.696 98.7293 127.372 96.6143C125.048 94.4993 120.26 93.422 117.118 96.4394C114.428 99.0564 113.667 103.512 117.812 107.342Z" fill="#91C788"/>
<path id="Vector_124" opacity="0.1" d="M117.812 107.342C120.175 109.513 124.631 109.93 128.049 106.907C131.466 103.884 129.696 98.7293 127.372 96.6143C125.048 94.4993 120.26 93.422 117.118 96.4394C114.428 99.0564 113.667 103.512 117.812 107.342Z" fill="black"/>
<path id="Vector_125" d="M118.647 106.332C120.576 108.103 124.219 108.447 127.011 105.977C129.803 103.506 128.359 99.2933 126.447 97.5674C124.535 95.8416 120.638 94.9561 118.071 97.4264C115.861 99.564 115.263 103.213 118.647 106.332Z" fill="#91C788"/>
<path id="Vector_126" d="M119.369 101.476C119.47 101.256 118.748 100.726 118.573 101.154C118.399 101.583 119.233 101.764 119.369 101.476Z" fill="white"/>
<path id="Vector_127" d="M122.657 99.0339C122.894 99.0733 123.221 98.2442 122.77 98.1822C122.318 98.1202 122.324 99 122.657 99.0339Z" fill="white"/>
<path id="Vector_128" d="M120.852 97.8099C121.078 97.7141 120.908 96.8342 120.485 97.0316C120.062 97.229 120.564 97.934 120.852 97.8099Z" fill="white"/>
<path id="Vector_129" d="M117.767 101.91C117.677 101.685 116.797 101.854 116.989 102.271C117.18 102.689 117.891 102.204 117.767 101.91Z" fill="white"/>
<path id="Vector_130" d="M121.811 105.351C121.568 105.351 121.365 106.219 121.811 106.208C122.256 106.197 122.127 105.362 121.811 105.351Z" fill="white"/>
<path id="Vector_131" d="M126.21 102.322C126.12 102.548 126.859 103.05 127.017 102.61C127.174 102.17 126.328 102.029 126.21 102.322Z" fill="white"/>
<path id="Vector_132" d="M125.544 100.861C125.544 101.104 126.452 101.222 126.396 100.765C126.34 100.308 125.522 100.545 125.544 100.861Z" fill="white"/>
<path id="Vector_133" d="M122.499 103.298C122.29 103.174 121.681 103.828 122.093 104.053C122.505 104.279 122.775 103.461 122.499 103.298Z" fill="white"/>
<path id="Vector_134" d="M124.23 107.844C124.23 107.844 122.736 103.704 123.463 102.942C124.191 102.181 128.697 104.285 128.489 104.866C128.28 105.447 125.781 107.956 124.23 107.844Z" fill="#91C788"/>
<path id="Vector_135" opacity="0.1" d="M124.23 107.844C124.23 107.844 122.736 103.704 123.463 102.942C124.191 102.181 128.697 104.285 128.489 104.866C128.28 105.447 125.781 107.956 124.23 107.844Z" fill="black"/>
<path id="Vector_136" d="M128.122 99.2199C128.122 99.2199 124.332 101.476 123.446 100.912C122.561 100.348 123.79 95.52 124.399 95.6159C125.009 95.7118 127.964 97.6802 128.122 99.2199Z" fill="#91C788"/>
<path id="Vector_137" opacity="0.1" d="M128.122 99.2199C128.122 99.2199 124.332 101.476 123.446 100.912C122.561 100.348 123.79 95.52 124.399 95.6159C125.009 95.7118 127.964 97.6802 128.122 99.2199Z" fill="black"/>
<path id="Vector_138" d="M119.284 95.616C119.284 95.616 121.292 99.5301 120.672 100.382C120.051 101.233 115.308 99.7163 115.443 99.1128C115.579 98.5093 117.739 95.7062 119.284 95.616Z" fill="#91C788"/>
<path id="Vector_139" opacity="0.1" d="M119.284 95.616C119.284 95.616 121.292 99.5301 120.672 100.382C120.051 101.233 115.308 99.7163 115.443 99.1128C115.579 98.5093 117.739 95.7062 119.284 95.616Z" fill="black"/>
<path id="Vector_140" d="M116.002 103.862C116.002 103.862 119.921 101.854 120.773 102.474C121.625 103.095 120.102 107.838 119.498 107.702C118.895 107.567 116.086 105.413 116.002 103.862Z" fill="#91C788"/>
<path id="Vector_141" opacity="0.1" d="M116.002 103.862C116.002 103.862 119.921 101.854 120.773 102.474C121.625 103.095 120.102 107.838 119.498 107.702C118.895 107.567 116.086 105.413 116.002 103.862Z" fill="black"/>
<path id="Vector_142" d="M60.2896 111.086L76.8035 133.584L119.927 130.866L133.486 106.473L60.2896 111.086Z" fill="#EBEBEB"/>
<path id="Vector_143" d="M25.8405 73.5185C15.5249 100.968 7.08752 130.872 13.472 136.839C18.627 141.65 61.4402 148.683 70.8082 148.045C74.7901 147.786 78.8339 117.025 71.9362 115.948C69.9735 115.644 39.2242 114.939 38.9197 114.256C37.9101 112.147 38.7166 97.2347 39.0945 79.463C39.5683 56.621 30.2059 61.9001 25.8405 73.5185Z" fill="#AD6359"/>
<path id="Vector_144" d="M68.6876 147.786C79.8379 149.106 93.639 151.429 105.24 146.336C106.542 145.801 107.627 144.843 108.32 143.618C113.559 141.43 114.101 138.294 114.101 138.294C118.353 134.758 118.466 131.481 118.466 131.481C118.466 131.481 124.586 128.841 123.604 124.876C122.516 120.421 114.129 125 107.982 124.701C93.8815 124.008 71.9645 118.966 67.9375 118.362L68.6876 147.786Z" fill="#AD6359"/>
<path id="Vector_145" d="M92.7197 134.335C96.8707 134.453 100.948 134.684 105.094 134.239C109.645 133.754 113.943 132.547 118.348 131.385C118.362 131.38 118.376 131.379 118.39 131.38C118.405 131.381 118.419 131.385 118.432 131.391C118.444 131.398 118.456 131.407 118.465 131.418C118.474 131.429 118.482 131.442 118.486 131.455C118.49 131.469 118.492 131.484 118.491 131.498C118.49 131.512 118.486 131.526 118.479 131.539C118.473 131.552 118.464 131.563 118.453 131.573C118.442 131.582 118.429 131.589 118.415 131.594C110.768 134.921 100.931 135.897 92.7084 134.521C92.511 134.493 92.511 134.329 92.7197 134.335Z" fill="#3A5036"/>
<path id="Vector_146" d="M91.0671 142.783C95.111 142.676 102.223 142.445 114.073 138.147C114.112 138.147 114.146 138.192 114.107 138.215C106.775 142.028 99.2451 143.443 91.0728 142.975C90.819 142.958 90.7964 142.789 91.0671 142.783Z" fill="#3A5036"/>
<path id="Vector_147" d="M90.2606 147.335C97.1358 146.895 101.411 145.744 108.309 143.578C108.342 143.578 108.376 143.629 108.337 143.646C100.762 146.934 97.6208 147.267 90.2437 147.594C89.9899 147.583 89.9899 147.352 90.2606 147.335Z" fill="#3A5036"/>
<path id="Vector_148" d="M91.0502 122.789C89.2511 121.972 89.6628 121.024 93.0806 120.189C96.4985 119.355 110.711 118.943 110.147 113.985C109.583 109.028 89.753 110.838 83.9551 111.729C77.8715 112.761 72.1082 115.184 67.1141 118.808C71.0508 119.428 83.3403 121.492 91.0502 122.789Z" fill="#AD6359"/>
<path id="Vector_149" d="M39.7826 107.686L9.78345 114.363C9.78345 114.363 20.0426 82.7512 26.7035 70.4221C33.6971 57.5742 40.1154 57.1174 40.544 76.44C40.9219 95.5257 39.7826 107.686 39.7826 107.686Z" fill="#91C788"/>
<path id="Vector_150" d="M13.6468 108.447C14.38 108.199 15.1583 108.052 15.9028 107.883L18.2265 107.319C19.8001 106.941 21.3793 106.591 22.9585 106.247C26.1112 105.565 29.2696 104.866 32.4337 104.234C33.3079 104.065 34.1764 103.89 35.0506 103.743C35.9248 103.597 36.9062 103.489 37.8255 103.331C37.8819 103.331 37.8876 103.405 37.8255 103.416C37.0472 103.608 36.2858 103.867 35.5075 104.065C34.7292 104.262 33.917 104.459 33.1161 104.629C31.5369 104.982 29.9577 105.326 28.3785 105.661C25.2652 106.309 22.1745 106.975 19.0274 107.556L16.4048 108.041C15.4967 108.21 14.5718 108.436 13.6468 108.52C13.6186 108.532 13.5961 108.464 13.6468 108.447Z" fill="#3A5036"/>
<path id="Vector_151" d="M16.6192 96.2194C17.3411 94.1834 18.0009 92.1361 18.6947 90.0944C19.4786 87.7763 20.1893 85.4357 20.9507 83.1064C20.9507 83.05 20.8661 83.0162 20.8435 83.0726C19.9016 85.5542 16.6925 93.8224 16.1849 95.2268C14.7016 99.3158 13.2182 103.405 11.7688 107.505C10.9566 109.806 10.0768 112.463 9.27588 114.764C9.21948 114.933 11.6278 114.279 12.8911 113.901C12.9588 113.901 13.0039 113.647 12.9193 113.67C11.7236 113.94 10.0993 114.115 9.91884 114.16C11.4586 110.269 12.9362 106.349 14.3857 102.418C15.1415 100.357 15.886 98.2912 16.6192 96.2194Z" fill="#3A5036"/>
<path id="Vector_152" d="M35.468 107.138C35.2632 107.662 35.1028 108.201 34.9886 108.752L35.4793 108.644C35.7004 108.233 35.8981 107.809 36.0715 107.375C36.37 106.597 36.5597 105.781 36.6355 104.95C36.1422 105.619 35.749 106.356 35.468 107.138ZM21.368 94.9448C21.0624 95.7212 20.8723 96.5383 20.804 97.37C21.7809 96.0051 22.3925 94.4131 22.5806 92.7452C22.0698 93.4144 21.6612 94.1556 21.368 94.9448ZM36.032 90.664C35.7014 89.8933 35.2627 89.1735 34.7292 88.5265C34.8464 89.3562 35.0859 90.1639 35.4398 90.9235C35.7691 91.6949 36.2079 92.4148 36.7426 93.061C36.6335 92.2336 36.4056 91.4263 36.0658 90.664H36.032ZM35.8854 66.4515C35.556 65.6818 35.1172 64.9638 34.5825 64.3196C34.7059 65.1461 34.9451 65.9512 35.2932 66.7109C35.6224 67.4824 36.0612 68.2023 36.596 68.8485C36.4869 68.0211 36.2589 67.2138 35.9192 66.4515H35.8854ZM20.1723 108.706C19.4053 109.038 18.6879 109.475 18.0404 110.004C18.8698 109.885 19.6773 109.645 20.4374 109.293C21.2055 108.963 21.9233 108.526 22.5693 107.996C21.7521 108.12 20.9566 108.36 20.2062 108.706H20.1723ZM28.8354 78.6959C28.0652 79.0253 27.3456 79.4621 26.6978 79.9931C27.5287 79.8687 28.3365 79.6216 29.0948 79.2599C29.8665 78.9335 30.5866 78.4966 31.2324 77.9627C30.4027 78.0925 29.5956 78.3393 28.8354 78.6959Z" fill="white"/>
</g>
</svg>
