<svg width="40" height="40" viewBox="0 0 40 40" fill="none" xmlns="http://www.w3.org/2000/svg">
<g id="Foods">
<path id="Vector" d="M3.08615 5.11621H7.34845V20.8977H3.08615V5.11621Z" fill="#FFCE66"/>
<path id="Vector_2" d="M30.854 5.11621H37.2632V20.8977H30.854V5.11621Z" fill="#FFB61A"/>
<path id="Vector_3" d="M7.34863 2.6416H11.6197V23.8134H7.34863V2.6416Z" fill="#FFB61A"/>
<path id="Vector_4" d="M28.7184 2.64062H32.9904V23.8136H28.7184V2.64062Z" fill="#FFCE66"/>
<path id="Vector_5" d="M15.9037 1.19922H20.1751V22.3722H15.9037V1.19922Z" fill="#FFB61A"/>
<path id="Vector_6" d="M24.4469 1.19922H28.7183V22.3722H24.4469V1.19922Z" fill="#FFB61A"/>
<path id="Vector_7" d="M20.1753 3.27734H24.4467V22.3713H20.1753V3.27734Z" fill="#FFCE66"/>
<path id="Vector_8" d="M11.6208 0H15.8922V22.3714H11.6208V0Z" fill="#FFCE66"/>
<path id="Vector_9" d="M7.80328 40.0004H32.1967C32.851 39.9998 33.4841 39.7895 33.9846 39.4067C34.4852 39.0238 34.8211 38.4928 34.9333 37.9071L40 11.2695H33.176C32.3679 13.8795 30.6432 16.1781 28.2647 17.8152C25.8861 19.4524 22.9839 20.3384 20 20.3384C17.0161 20.3384 14.1139 19.4524 11.7353 17.8152C9.35676 16.1781 7.63213 13.8795 6.82404 11.2695H0L5.06667 37.9071C5.17889 38.4928 5.51481 39.0238 6.01535 39.4067C6.51589 39.7895 7.14898 39.9998 7.80328 40.0004Z" fill="#FF4C33"/>
<path id="Vector_10" d="M25.4855 29.9175C25.4854 28.9317 25.1636 27.9681 24.5608 27.1485C23.958 26.3289 23.1012 25.6901 22.0989 25.3129C21.0965 24.9357 19.9936 24.8371 18.9296 25.0294C17.8655 25.2218 16.8881 25.6965 16.121 26.3936C15.3539 27.0907 14.8315 27.9788 14.6199 28.9457C14.4083 29.9125 14.5169 30.9147 14.9321 31.8254C15.3473 32.7362 16.0504 33.5146 16.9525 34.0622C17.8545 34.6099 18.9151 34.9022 20 34.9022C20.7204 34.9022 21.4337 34.7733 22.0993 34.5228C22.7648 34.2723 23.3696 33.9051 23.879 33.4422C24.3883 32.9793 24.7924 32.4298 25.068 31.825C25.3437 31.2203 25.4855 30.5721 25.4855 29.9175Z" fill="#FFD885"/>
</g>
</svg>
