<svg width="60" height="36" viewBox="0 0 60 36" fill="none" xmlns="http://www.w3.org/2000/svg">
<g id="freepik  Bowl  inject 86">
<path id="Vector" d="M9.57236 22.399C10.274 22.3945 10.9599 22.1907 11.5501 21.8112C12.1403 21.4318 12.6104 20.8923 12.9056 20.2557C12.9056 20.2557 14.4058 21.7165 16.8536 20.7069C19.3014 19.6974 21.8619 13.5498 20.0458 8.43429C18.2298 3.3188 13.4583 2.11184 9.61748 6.11061C4.42304 4.20993 0.649884 7.39653 1.29284 12.7884C1.9358 18.1802 6.94412 22.5794 9.57236 22.399Z" fill="#91C788"/>
<path id="Vector_2" d="M5.21264 0.279239C6.55653 0.675669 7.76628 1.43236 8.71077 2.46732C9.65525 3.50228 10.2984 4.77602 10.5706 6.15047C10.8188 7.41383 8.87864 7.8763 8.60792 6.60166C8.18492 4.46975 6.35192 3.52223 4.2764 2.90183C3.0356 2.52959 3.9662 -0.0930004 5.21264 0.279239Z" fill="#37474F"/>
<path id="Vector_3" d="M9.25635 7.44742C9.25635 7.44742 9.63423 1.56489 15.2968 0.797852C15.053 2.37644 14.3503 3.84849 13.2763 5.03081C12.2023 6.21313 10.8043 7.05353 9.25635 7.44742Z" fill="#37474F"/>
<path id="Vector_4" d="M28.5621 21.4007C29.0026 21.9494 29.5907 22.3608 30.2571 22.5866C30.9235 22.8124 31.6406 22.8432 32.3239 22.6754C32.3239 22.6754 32.104 24.7622 34.4107 26.0594C36.7175 27.3566 43.1358 25.5687 46.0348 20.9834C48.9337 16.3981 46.9315 11.8973 41.4156 11.3446C39.7236 6.08814 34.8619 5.08985 31.0211 8.92505C27.1803 12.7602 26.7855 19.4267 28.5621 21.4007Z" fill="#91C788"/>
<path id="Vector_5" d="M43.26 4.30041C43.7788 5.60163 43.9317 7.02002 43.7021 8.40192C43.4724 9.78382 42.869 11.0765 41.9571 12.14C41.1168 13.1214 39.5432 11.8636 40.3892 10.8823C41.8049 9.22976 41.4213 7.21063 40.6204 5.18587C40.141 3.98455 42.7806 3.09345 43.26 4.30041Z" fill="#37474F"/>
<path id="Vector_6" d="M40.1411 11.8924C40.1411 11.8924 45.0028 8.55349 49.1031 12.5353C47.7106 13.3182 46.1188 13.6747 44.5255 13.5604C42.9321 13.4461 41.4075 12.866 40.1411 11.8924Z" fill="#37474F"/>
<path id="Vector_7" d="M24.8397 25.0329C24.1479 24.917 23.5032 24.6068 22.981 24.1385C22.4587 23.6701 22.0804 23.063 21.89 22.3878C21.89 22.3878 20.198 23.5947 17.9082 22.2129C15.6183 20.8311 14.1012 14.3508 16.7012 9.58495C19.3013 4.81914 24.2024 4.38487 27.3665 8.93635C32.7978 7.88731 36.0182 11.6323 34.5293 16.8324C33.0403 22.0325 27.4285 25.6251 24.8397 25.0329Z" fill="#91C788"/>
<path id="Vector_8" opacity="0.1" d="M24.8397 25.0329C24.1479 24.917 23.5032 24.6068 22.981 24.1385C22.4587 23.6701 22.0804 23.063 21.89 22.3878C21.89 22.3878 20.198 23.5947 17.9082 22.2129C15.6183 20.8311 14.1012 14.3508 16.7012 9.58495C19.3013 4.81914 24.2024 4.38487 27.3665 8.93635C32.7978 7.88731 36.0182 11.6323 34.5293 16.8324C33.0403 22.0325 27.4285 25.6251 24.8397 25.0329Z" fill="black"/>
<path id="Vector_9" d="M32.6454 3.87764C31.2584 4.0599 29.9475 4.61744 28.8542 5.49012C27.7609 6.3628 26.9266 7.51749 26.4414 8.82956C25.9958 10.0365 27.857 10.8036 28.3082 9.58532C29.0584 7.54928 31.0154 6.90067 33.1699 6.61867C34.4389 6.44947 33.9313 3.70844 32.6454 3.87764Z" fill="#37474F"/>
<path id="Vector_10" d="M27.5244 10.2681C27.5244 10.2681 28.0884 4.40252 22.612 2.75C22.6022 4.34704 23.0628 5.91162 23.9364 7.24858C24.81 8.58555 26.0579 9.63572 27.5244 10.2681Z" fill="#37474F"/>
<path id="Vector_11" d="M54.6698 24.0235C53.9967 24.2236 53.2805 24.2286 52.6046 24.0379C51.9288 23.8472 51.3208 23.4687 50.8515 22.9463C50.8515 22.9463 49.8476 24.7849 47.2025 24.5367C44.5573 24.2886 40.3217 19.1562 40.5642 13.7305C40.8067 8.30483 45.0141 5.76119 49.8589 8.45711C54.2694 5.12387 58.8096 7.06967 59.7684 12.4051C60.7272 17.7405 57.2529 23.42 54.6698 24.0235Z" fill="#91C788"/>
<path id="Vector_12" opacity="0.1" d="M54.6698 24.0235C53.9967 24.2236 53.2805 24.2286 52.6046 24.0379C51.9288 23.8472 51.3208 23.4687 50.8515 22.9463C50.8515 22.9463 49.8476 24.7849 47.2025 24.5367C44.5573 24.2886 40.3217 19.1562 40.5642 13.7305C40.8067 8.30483 45.0141 5.76119 49.8589 8.45711C54.2694 5.12387 58.8096 7.06967 59.7684 12.4051C60.7272 17.7405 57.2529 23.42 54.6698 24.0235Z" fill="black"/>
<path id="Vector_13" d="M52.3686 1.59293C51.2043 2.36816 50.2738 3.44659 49.6775 4.71186C49.0811 5.97713 48.8416 7.38121 48.9846 8.77264C49.1144 10.0586 51.1222 9.90063 50.9925 8.63164C50.7725 6.47152 52.2445 5.03332 54.055 3.82636C55.1153 3.11008 53.4515 0.876655 52.3686 1.59293Z" fill="#37474F"/>
<path id="Vector_14" d="M50.592 9.60178C50.592 9.60178 48.5109 4.08585 42.8708 5.01081C43.5659 6.44886 44.6684 7.6508 46.0412 8.46708C47.4141 9.28337 48.9966 9.67797 50.592 9.60178Z" fill="#37474F"/>
<path id="Vector_15" d="M59.6668 16.3193C59.6668 16.3193 54.5062 35.6476 47.7551 35.6476H12.0201C5.25205 35.6476 0.114014 16.3193 0.114014 16.3193H59.6668Z" fill="#EBEBEB"/>
</g>
</svg>
