<svg width="38" height="36" viewBox="0 0 38 36" fill="none" xmlns="http://www.w3.org/2000/svg">
<g id="freepik  speech bubble  inject 86">
<path id="Vector" d="M37.8637 19.7243C37.5469 22.8536 36.3641 25.8327 34.4481 28.327C32.5321 30.8214 29.9588 32.7323 27.017 33.8453C24.0752 34.9583 20.8814 35.2293 17.7942 34.6278C14.7069 34.0263 11.8484 32.5762 9.5396 30.4403L1.07959 31.6868L5.32087 24.3548C4.25888 21.7739 3.85948 18.9684 4.15903 16.1937C4.67545 11.762 6.91797 7.71259 10.4003 4.92342C13.8827 2.13426 18.3241 0.830219 22.7616 1.29408C27.199 1.75794 31.2748 3.95229 34.105 7.40133C36.9353 10.8504 38.2919 15.276 37.8806 19.7187L37.8637 19.7243Z" fill="white"/>
<path id="Vector_2" d="M37.8638 19.724C37.5363 22.8488 36.3537 25.8229 34.446 28.3194C33.968 28.9394 33.4539 29.5308 32.9062 30.0903C32.3418 30.6303 31.7447 31.1351 31.1183 31.6018C29.8677 32.5416 28.4912 33.301 27.0293 33.8578C25.5663 34.4308 24.0307 34.7971 22.4666 34.9464C21.6827 35.0149 20.895 35.03 20.1091 34.9915C19.3218 34.973 18.5372 34.8919 17.7628 34.749C14.6368 34.1719 11.733 32.7366 9.37613 30.6036L9.57916 30.6656L1.11915 31.9684L0.504395 32.0643L0.814605 31.5003L5.03332 24.1683V24.456C4.03524 22.0288 3.60725 19.4051 3.78227 16.7866C3.95729 14.1682 4.73066 11.6247 6.04288 9.35203C7.3647 7.09638 9.17892 5.16841 11.3501 3.71203C13.5218 2.27572 15.9902 1.34906 18.5706 1.00136C21.151 0.65366 23.7766 0.893927 26.251 1.70419C28.7028 2.53802 30.9378 3.90792 32.7934 5.71423C34.6435 7.51363 36.061 9.70942 36.9393 12.1362C37.8176 14.5629 38.1337 17.1573 37.8638 19.724ZM37.8638 19.724C38.1331 17.1716 37.8132 14.5915 36.9289 12.1821C36.0446 9.77268 34.6193 7.59828 32.7627 5.82616C30.9062 4.05405 28.6678 2.73145 26.2199 1.96013C23.772 1.18882 21.1798 0.98935 18.6427 1.37707C16.1277 1.75638 13.7322 2.70341 11.6378 4.14631C9.56386 5.59986 7.83166 7.48796 6.56177 9.67915C5.3111 11.8771 4.57451 14.3299 4.40728 16.8532C4.25016 19.3725 4.6587 21.8951 5.60296 24.236L5.66501 24.3883L5.5804 24.5236L1.31656 31.8556L1.01201 31.4101L9.50585 30.22H9.62429L9.70889 30.299C11.9729 32.4198 14.7835 33.8671 17.8249 34.4782C18.5835 34.6314 19.3528 34.7257 20.126 34.7602C22.4539 34.9209 24.7891 34.5785 26.9729 33.7563C28.4372 33.2293 29.8152 32.4881 31.062 31.5567C32.3318 30.6497 33.4558 29.5542 34.3952 28.3081C36.3236 25.8229 37.5244 22.8512 37.8638 19.724Z" fill="#3A5036"/>
<path id="Vector_3" d="M28.1911 21.1569C26.2911 23.7137 23.8612 25.8299 21.0678 27.3609C18.2767 25.8288 15.8489 23.7127 13.9501 21.1569C11.4459 17.8406 11.57 12.6461 15.1514 11.5237C19.0994 10.2829 21.0678 16.2501 21.0678 16.2501C21.0678 16.2501 23.0474 10.2435 26.9898 11.5237C30.5599 12.6856 30.684 17.8406 28.1911 21.1569Z" fill="#91C788"/>
</g>
</svg>
