<svg width="282" height="282" viewBox="0 0 282 282" fill="none" xmlns="http://www.w3.org/2000/svg">
<path d="M44.4771 0H43.9131V76.4389H44.4771V0Z" fill="#C7C7C7"/>
<path d="M70.7367 102.027L68.6048 106.72H19.7794L17.6531 102.027L38.4365 87.6396H49.9534L70.7367 102.027Z" fill="#EBEBEB"/>
<path d="M51.3972 73.7769L49.9534 87.64H38.4365L36.9927 73.7769H51.3972Z" fill="#DBDBDB"/>
<path d="M70.7368 102.028L68.5992 106.72H19.7794L17.6475 102.028H70.7368Z" fill="#DBDBDB"/>
<path d="M101.469 0H100.905V61.3012H101.469V0Z" fill="#C7C7C7"/>
<path d="M127.729 86.8842L125.597 91.5824H76.7715L74.6453 86.8842L95.4287 72.4966H106.946L127.729 86.8842Z" fill="#EBEBEB"/>
<path d="M108.389 58.6392L106.946 72.4966H95.4287L93.9849 58.6392H108.389Z" fill="#DBDBDB"/>
<path d="M127.729 86.8896L125.591 91.5821H76.7716L74.6396 86.8896H127.729Z" fill="#DBDBDB"/>
<path d="M27.3538 125.964L21.7872 134.937L24.5508 136.629C24.9381 136.881 25.2483 137.235 25.4474 137.652C25.6464 138.069 25.7265 138.533 25.6788 138.992C25.6335 139.504 25.6165 140.018 25.628 140.532C25.6438 141 25.5299 141.463 25.299 141.87C25.0681 142.277 24.7291 142.612 24.3195 142.839L21.4995 144.367L26.5078 153.696L29.3278 152.167C29.7291 151.952 30.1817 151.851 30.6363 151.876C31.091 151.901 31.53 152.05 31.9053 152.308C32.3659 152.63 32.8442 152.925 33.3379 153.194C33.7388 153.414 34.0705 153.742 34.2956 154.141C34.5207 154.539 34.6305 154.992 34.6125 155.45L34.511 158.681L45.0691 159.008L45.165 155.765C45.1798 155.307 45.3216 154.862 45.5745 154.48C45.8275 154.097 46.1816 153.793 46.5975 153.6C46.8457 153.481 47.0882 153.357 47.3307 153.227C47.5732 153.098 47.8101 152.962 48.0414 152.821C48.4306 152.582 48.8787 152.455 49.3357 152.455C49.7928 152.455 50.2408 152.582 50.6301 152.821L53.3994 154.513L58.9604 145.54L56.1912 143.82C55.8034 143.569 55.4927 143.215 55.2937 142.798C55.0946 142.38 55.0148 141.916 55.0632 141.457C55.1083 140.947 55.1253 140.435 55.1139 139.923C55.0987 139.454 55.2134 138.991 55.4453 138.584C55.6773 138.177 56.0174 137.842 56.428 137.616L59.248 136.088L54.2566 126.782L51.4028 128.31C50.9888 128.527 50.5227 128.624 50.0567 128.591C49.5906 128.558 49.1428 128.396 48.7633 128.124C48.3403 127.831 47.9004 127.56 47.4548 127.317C47.044 127.103 46.7012 126.778 46.465 126.38C46.2288 125.981 46.1087 125.525 46.1181 125.061L46.2478 121.824L35.6954 121.491L35.5939 124.734C35.5748 125.197 35.4277 125.646 35.1688 126.03C34.9099 126.415 34.5494 126.72 34.1275 126.911C33.8906 127.018 33.6594 127.137 33.4281 127.261C33.1969 127.385 32.9713 127.515 32.7513 127.65C32.3552 127.894 31.8993 128.022 31.4344 128.022C30.9694 128.022 30.5136 127.894 30.1174 127.65L27.3538 125.964ZM35.3288 133.228C36.7975 132.174 38.5594 131.607 40.367 131.606C42.1746 131.605 43.9372 132.17 45.4072 133.222C46.8771 134.274 47.9807 135.76 48.5629 137.471C49.1451 139.183 49.1766 141.033 48.6532 142.763C48.1297 144.494 47.0774 146.016 45.6441 147.118C44.2109 148.219 42.4686 148.844 40.662 148.905C38.8554 148.965 37.0752 148.458 35.5714 147.455C34.0676 146.452 32.9157 145.004 32.2776 143.312C31.605 141.53 31.5395 139.576 32.0912 137.752C32.6429 135.929 33.7809 134.339 35.3288 133.228Z" fill="#EBEBEB"/>
<path d="M258.876 38.352C258.639 38.2135 258.446 38.012 258.318 37.7699C258.189 37.5279 258.131 37.2549 258.148 36.9815C258.148 36.8292 258.148 36.6769 258.148 36.5247C258.148 36.3724 258.148 36.2145 258.148 36.0622C258.131 35.7887 258.189 35.5158 258.318 35.2737C258.446 35.0317 258.639 34.8302 258.876 34.6917L260.528 33.7385L257.426 28.3523L255.751 29.328C255.513 29.4647 255.242 29.5318 254.968 29.5218C254.694 29.5119 254.428 29.4252 254.2 29.2716C253.941 29.1081 253.676 28.9501 253.399 28.8091C253.155 28.6866 252.95 28.4991 252.806 28.2672C252.661 28.0353 252.584 27.7681 252.582 27.495V25.5718H246.378V27.4725C246.371 27.743 246.29 28.0066 246.144 28.2343C245.998 28.4621 245.792 28.6453 245.549 28.764C245.272 28.905 244.985 29.0629 244.748 29.2265C244.52 29.3801 244.254 29.4667 243.98 29.4767C243.706 29.4867 243.435 29.4195 243.197 29.2829L241.544 28.3297L238.437 33.7159L240.095 34.6747C240.336 34.8128 240.533 35.0165 240.662 35.2621C240.792 35.5078 240.85 35.7852 240.828 36.0622C240.828 36.2145 240.828 36.3667 240.828 36.519C240.828 36.6713 240.828 36.8236 240.828 36.9759C240.846 37.2508 240.787 37.5253 240.658 37.7685C240.528 38.0117 240.333 38.2138 240.095 38.352L238.437 39.3052L241.544 44.6914L243.191 43.7382C243.429 43.602 243.7 43.5346 243.974 43.5436C244.248 43.5526 244.514 43.6375 244.742 43.789C245.002 43.9603 245.271 44.1166 245.549 44.2571C245.792 44.3799 245.997 44.5676 246.14 44.7996C246.283 45.0315 246.36 45.2986 246.361 45.5712V47.4719H252.565V45.5656C252.567 45.2925 252.644 45.0253 252.789 44.7934C252.933 44.5615 253.138 44.374 253.383 44.2515C253.659 44.1097 253.929 43.9535 254.189 43.7833C254.416 43.6318 254.681 43.5467 254.954 43.5377C255.228 43.5288 255.498 43.5962 255.734 43.7326L257.387 44.6857L260.489 39.2995L258.876 38.352ZM249.491 41.6176C248.487 41.6176 247.506 41.3199 246.671 40.7621C245.836 40.2044 245.185 39.4116 244.801 38.4841C244.417 37.5566 244.317 36.5359 244.512 35.5513C244.708 34.5666 245.192 33.6622 245.902 32.9523C246.612 32.2424 247.516 31.759 248.501 31.5631C249.485 31.3673 250.506 31.4678 251.433 31.852C252.361 32.2362 253.154 32.8868 253.711 33.7215C254.269 34.5562 254.567 35.5376 254.567 36.5416C254.566 37.2091 254.434 37.87 254.177 38.4863C253.921 39.1026 253.545 39.6622 253.072 40.1332C252.599 40.6042 252.038 40.9772 251.42 41.231C250.803 41.4847 250.142 41.6142 249.474 41.6119L249.491 41.6176Z" fill="#EBEBEB"/>
<path d="M118.959 179.837C118.738 179.708 118.554 179.523 118.426 179.302C118.297 179.081 118.228 178.83 118.226 178.574C118.226 178.32 118.226 178.072 118.226 177.818C118.198 177.563 118.213 177.306 118.271 177.057C118.333 176.807 118.462 176.579 118.643 176.397C118.834 176.229 119.047 176.087 119.275 175.974L120.589 175.207V175.235L117.453 169.866H117.526L115.8 170.881C115.483 171.039 115.12 171.083 114.774 171.005C114.448 170.903 114.138 170.755 113.855 170.565L113.426 170.322C113.268 170.24 113.125 170.131 113.003 170.001C112.753 169.741 112.601 169.402 112.574 169.042V167.04L112.704 167.17L106.5 167.226L106.692 167.04V169.048C106.674 169.336 106.583 169.615 106.427 169.857C106.271 170.1 106.055 170.299 105.801 170.435L105.378 170.689L104.955 170.937C104.791 171.04 104.612 171.116 104.425 171.163C104.045 171.246 103.648 171.201 103.297 171.033L101.548 170.035L101.887 169.945L98.8015 175.342L98.6999 174.964L100.448 175.968C100.694 176.137 100.894 176.365 101.029 176.631C101.164 176.897 101.23 177.193 101.221 177.491V177.987V178.478C101.224 178.669 101.198 178.859 101.142 179.042C101.025 179.423 100.78 179.751 100.448 179.972L98.6999 180.976L98.7958 180.621L101.875 186.019L101.559 185.934L103.313 184.947C103.665 184.782 104.063 184.74 104.441 184.828C104.623 184.876 104.795 184.95 104.955 185.048L105.383 185.302L105.806 185.55C105.97 185.641 106.119 185.757 106.246 185.894C106.5 186.172 106.652 186.528 106.675 186.904V188.917L106.523 188.765L112.727 188.827L112.636 188.917V186.915C112.663 186.564 112.811 186.234 113.054 185.979C113.31 185.754 113.594 185.565 113.9 185.415C114.182 185.23 114.487 185.084 114.808 184.981C115.144 184.9 115.498 184.942 115.806 185.099L117.538 186.103H117.498L120.623 180.728L118.959 179.837ZM118.959 179.837L120.611 180.785L117.526 186.176V186.205L115.789 185.218C115.495 185.075 115.16 185.039 114.842 185.116C114.516 185.214 114.208 185.363 113.928 185.556C113.634 185.705 113.362 185.895 113.121 186.12C112.903 186.356 112.773 186.661 112.755 186.983V188.98V189.07H112.665L106.461 189.132H106.314V188.94V186.949C106.291 186.655 106.167 186.379 105.964 186.165C105.862 186.06 105.744 185.97 105.615 185.9L105.175 185.652L104.735 185.404C104.611 185.329 104.476 185.276 104.334 185.246C104.051 185.183 103.754 185.218 103.494 185.347L101.802 186.357L101.605 186.475L101.486 186.272L98.3559 180.903L98.2262 180.677L98.4518 180.548L100.144 179.549C100.369 179.395 100.534 179.168 100.612 178.906C100.65 178.775 100.669 178.638 100.668 178.5V177.993V177.485C100.669 177.348 100.65 177.211 100.612 177.079C100.533 176.819 100.365 176.596 100.138 176.447L98.4461 175.444L98.2036 175.308L98.3446 175.071L101.469 169.702L101.599 169.482L101.813 169.606L103.505 170.604C103.757 170.729 104.044 170.762 104.317 170.7C104.456 170.671 104.587 170.618 104.707 170.542L105.146 170.294L105.592 170.046C105.717 169.98 105.831 169.894 105.93 169.792C106.13 169.584 106.25 169.313 106.269 169.025V167.046V166.848H106.455L112.659 166.905H112.8V167.034V169.025C112.821 169.336 112.946 169.63 113.155 169.86C113.392 170.085 113.66 170.274 113.95 170.424C114.216 170.614 114.509 170.762 114.819 170.864C115.128 170.937 115.452 170.903 115.738 170.768L117.481 169.792L117.526 169.764V169.809L120.611 175.207L119.292 175.962C119.065 176.072 118.854 176.213 118.666 176.38C118.485 176.556 118.356 176.778 118.293 177.023C118.234 177.27 118.217 177.525 118.243 177.778C118.243 178.032 118.243 178.286 118.243 178.534C118.237 178.795 118.3 179.053 118.426 179.282C118.551 179.511 118.735 179.702 118.959 179.837Z" fill="#EBEBEB"/>
<path d="M109.574 183.103C108.71 183.099 107.86 182.882 107.101 182.47C106.342 182.058 105.696 181.465 105.221 180.743C104.747 180.021 104.459 179.193 104.382 178.332C104.306 177.472 104.443 176.606 104.783 175.811C105.122 175.017 105.653 174.319 106.328 173.78C107.003 173.241 107.801 172.877 108.651 172.721C109.5 172.565 110.375 172.622 111.198 172.886C112.02 173.151 112.764 173.614 113.364 174.236C114.334 175.25 114.861 176.607 114.83 178.01C114.785 179.369 114.214 180.657 113.238 181.604C112.262 182.551 110.956 183.082 109.596 183.086L109.574 183.103ZM109.574 183.103C110.234 183.102 110.888 182.969 111.496 182.712C112.105 182.456 112.655 182.08 113.116 181.607C113.577 181.134 113.939 180.573 114.18 179.958C114.421 179.344 114.537 178.687 114.52 178.027C114.482 176.738 113.944 175.516 113.019 174.617C112.095 173.719 110.857 173.217 109.568 173.216C108.255 173.216 106.995 173.737 106.067 174.666C105.138 175.595 104.616 176.854 104.616 178.168C104.616 179.481 105.138 180.74 106.067 181.669C106.995 182.598 108.255 183.119 109.568 183.119L109.574 183.103Z" fill="#EBEBEB"/>
<path d="M17.3486 246.896L48.2615 246.761L79.1743 246.71L141 246.62L202.826 246.71L233.739 246.761L264.651 246.896L233.739 247.037L202.826 247.088L141 247.178L79.1743 247.088L48.2615 247.037L17.3486 246.896Z" fill="#3A5036"/>
<path d="M259.598 50.7656H166.087V145.281H259.598V50.7656Z" fill="#EBEBEB"/>
<path d="M209.081 45.0633C212.199 41.403 217.541 40.5231 222.707 41.5665C227.873 42.6099 234.06 45.2156 234.624 53.8561C235.087 60.8723 232.932 67.7136 232.932 75.5419C232.932 83.3702 241.793 102.439 227.614 111.745C214.873 120.104 189.059 112.427 188.263 95.2199C187.637 81.5823 203.813 68.9713 205.516 63.5738C207.219 58.1763 205.663 49.0677 209.081 45.0633Z" fill="#3A5036"/>
<path d="M206.751 52.7622C206.655 56.6651 206.091 60.6131 204.495 64.296C204.081 65.2288 203.54 66.0999 202.888 66.8848C202.262 67.6744 201.596 68.4188 200.93 69.1408C199.588 70.6015 198.263 72.051 196.982 73.5569C194.44 76.5072 192.338 79.811 190.745 83.3648C189.216 86.9354 188.376 90.7625 188.269 94.6448C188.11 92.6854 188.168 90.7145 188.444 88.768C188.748 86.8115 189.253 84.8913 189.949 83.0377C191.419 79.3238 193.5 75.8826 196.108 72.8575C197.389 71.3291 198.748 69.8683 200.101 68.4245C201.455 66.9806 202.826 65.6045 203.666 63.9125C204.528 62.1826 205.185 60.3579 205.623 58.4755C206.118 56.5965 206.495 54.6883 206.751 52.7622Z" fill="#3A5036"/>
<path d="M234.269 59.75C234.173 63.7318 233.919 67.708 234.026 71.6617C234.072 73.6308 234.238 75.5952 234.522 77.5442C234.816 79.4618 235.391 81.3794 235.87 83.3196C236.35 85.2597 236.778 87.2281 237.094 89.2134C237.4 91.2078 237.528 93.2254 237.478 95.2425C237.386 97.2694 237.006 99.2729 236.35 101.193C235.593 103.08 234.463 104.795 233.028 106.235C234.285 104.689 235.242 102.922 235.848 101.024C236.374 99.1361 236.636 97.1849 236.626 95.2256C236.466 91.2816 235.849 87.3695 234.788 83.5677C234.336 81.6332 233.761 79.7156 233.485 77.6796C233.226 75.6847 233.124 73.6725 233.18 71.6617C233.299 67.6726 233.663 63.6946 234.269 59.75Z" fill="#3A5036"/>
<path d="M213.756 93.2349C200.784 107.515 190.198 114.374 179.764 114.374C169.843 114.374 148.648 90.2852 147.091 87.1099C145.749 84.3689 163.148 69.3721 165.822 71.2389C170.334 74.3635 184.806 92.451 186.34 92.5356C187.874 92.6202 193.525 88.8865 207.135 82.5133C215.403 78.6499 222.78 83.3367 213.756 93.2349Z" fill="#EB9481"/>
<path d="M149.11 89.4839C147.204 87.4197 139.201 77.1154 137.616 73.7539C136.031 70.3925 132.19 60.3871 134.644 58.9151C137.097 57.443 138.451 60.28 138.451 60.28C138.451 60.28 137.498 55.8018 140.103 54.5441C142.709 53.2864 144.672 57.7702 144.672 57.7702C144.672 57.7702 144.029 53.1003 146.713 52.0287C149.398 50.9571 150.627 55.8074 150.627 55.8074C150.627 55.8074 149.838 51.5605 152.421 51.6113C155.529 51.6733 156.098 59.6652 158.123 63.2466C158.58 64.0588 168.608 79.0386 168.608 79.0386L149.11 89.4839Z" fill="#EB9481"/>
<path d="M150.52 55.396C150.955 61.2672 152.162 63.7658 155.596 68.43C155.664 68.5203 155.546 68.6387 155.467 68.5541C151.671 64.2903 149.708 61.3801 150.221 55.4017C150.261 55.1084 150.498 55.114 150.52 55.396Z" fill="#3A5036"/>
<path d="M144.655 57.3082C145.636 63.3712 146.911 66.0897 150.176 71.239C150.221 71.3124 150.103 71.397 150.052 71.3293C146.437 66.5409 144.542 63.5912 144.356 57.4041C144.345 57.1221 144.61 57.0262 144.655 57.3082Z" fill="#3A5036"/>
<path d="M138.631 60.5399C140.007 66.3435 141.288 69.3835 145.089 73.9744C145.179 74.0872 145.027 74.2282 144.931 74.1267C140.6 69.8177 138.975 66.0333 138.462 60.5907C138.428 60.2297 138.547 60.1733 138.631 60.5399Z" fill="#3A5036"/>
<path d="M173.08 80.4713C173.08 80.4713 172.951 73.0886 172.178 69.8569C171.405 66.6251 164.124 55.6497 161.637 57.0935C158.461 58.9547 161.428 66.1175 163.329 69.4451C163.329 69.4451 155.997 73.7541 156.995 79.3603C157.993 84.9664 173.08 80.4713 173.08 80.4713Z" fill="#EB9481"/>
<path d="M160.932 57.8888C159.24 61.6789 162.06 65.8807 163.667 69.2365C163.693 69.2848 163.707 69.3385 163.708 69.3933C163.709 69.4481 163.697 69.5022 163.672 69.5513C163.648 69.6004 163.612 69.643 163.568 69.6756C163.524 69.7081 163.473 69.7297 163.419 69.7385C160.453 71.7519 156.86 75.4461 156.815 79.2249C156.815 79.2474 156.806 79.2689 156.79 79.2848C156.774 79.3006 156.753 79.3095 156.73 79.3095C156.708 79.3095 156.686 79.3006 156.67 79.2848C156.654 79.2689 156.646 79.2474 156.646 79.2249C156.144 75.1641 159.375 71.2387 162.759 69.2478C161.067 65.8243 158.433 61.4928 160.898 57.855L160.932 57.8888Z" fill="#3A5036"/>
<path d="M191.388 88.3845L201.81 107.831C201.81 107.831 215.944 94.1091 218.2 88.3845C220.456 82.6599 218.025 78.5032 207.969 81.5657C202.224 83.2683 196.668 85.5531 191.388 88.3845Z" fill="#91C788"/>
<path d="M204.219 103.776C203.705 102.721 203.254 101.632 202.718 100.583C202.183 99.5344 201.647 98.4966 201.088 97.4702C199.96 95.3946 198.832 93.3135 197.659 91.2662C196.994 90.1382 196.294 88.9763 195.567 87.8822C195.539 87.8314 195.443 87.8822 195.471 87.9216C197.383 92.2024 199.701 96.3027 202.013 100.375C202.685 101.554 203.446 102.676 204.145 103.838C204.168 103.866 204.247 103.815 204.219 103.776Z" fill="#3A5036"/>
<path d="M218.2 88.3842C215.944 94.1088 201.81 107.831 201.81 107.831L194.789 94.7518L217.952 81.9434C219.283 83.3308 219.266 85.6827 218.2 88.3842Z" fill="#3A5036"/>
<path d="M193.762 121.124C193.762 121.124 188.032 134.841 190.057 145.275H253.236C251.183 116.911 237.044 92.5352 228.691 84.6449C221.957 78.283 214.867 78.8526 209.932 82.1069C208.77 82.8796 195.951 100.595 194.563 103.398C189.058 114.458 193.762 121.124 193.762 121.124Z" fill="#91C788"/>
<path d="M210.372 81.2724C210.372 81.2724 206.424 92.6257 208.714 93.2179C214.41 94.6843 222.052 85.384 222.509 84.4364C222.622 84.1939 223.13 77.8376 223.508 72.8914C223.75 69.7104 223.936 67.1104 223.936 67.1104L209.881 71.9326L210.332 80.6464L210.372 81.2724Z" fill="#EB9481"/>
<path d="M209.859 71.9326L210.31 80.6463C213.169 80.2459 219.458 78.6949 223.485 72.8914C223.727 69.7104 223.914 67.1104 223.914 67.1104L222.154 67.6744L209.859 71.9326Z" fill="#3A5036"/>
<path d="M199.391 59.7331C199.222 64.1605 199.662 67.7419 200.739 70.122C201.662 72.1549 203.13 73.8922 204.981 75.1407C206.832 76.3893 208.993 77.1002 211.224 77.1946C212.916 77.2566 217.789 76.811 221.314 74.1264C224.055 72.0396 225.707 68.2777 226.643 61.662C228.787 46.5355 221.866 41.4483 215.048 40.8391C208.229 40.23 199.955 44.4713 199.391 59.7331Z" fill="#EB9481"/>
<path d="M203.299 56.3608C203.655 56.3101 203.982 56.2085 204.326 56.1296C204.7 56.0959 205.054 55.9438 205.335 55.6953C205.406 55.5987 205.444 55.4822 205.444 55.3625C205.444 55.2429 205.406 55.1264 205.335 55.0298C205.16 54.8666 204.944 54.7529 204.71 54.7004C204.476 54.6479 204.233 54.6584 204.004 54.7309C203.518 54.8082 203.078 55.0635 202.769 55.4471C202.696 55.536 202.652 55.6449 202.643 55.7594C202.634 55.8739 202.66 55.9884 202.718 56.0878C202.775 56.1871 202.862 56.2665 202.966 56.3153C203.07 56.3641 203.186 56.38 203.299 56.3608Z" fill="#3A5036"/>
<path d="M213.265 56.7384C212.919 56.6774 212.577 56.5983 212.239 56.5015C211.865 56.4703 211.511 56.3156 211.235 56.0616C211.164 55.965 211.126 55.8485 211.126 55.7288C211.126 55.6092 211.164 55.4927 211.235 55.3961C211.412 55.2333 211.629 55.1208 211.864 55.0702C212.099 55.0196 212.343 55.0328 212.572 55.1084C213.062 55.1868 213.505 55.4465 213.812 55.836C213.883 55.9262 213.925 56.0358 213.931 56.1502C213.938 56.2646 213.91 56.3783 213.851 56.4763C213.791 56.5743 213.703 56.6519 213.599 56.6987C213.494 56.7455 213.378 56.7594 213.265 56.7384Z" fill="#3A5036"/>
<path d="M210.773 60.5508C210.773 60.5113 210.852 60.6015 210.852 60.6466C210.767 61.6788 210.852 62.9026 211.771 63.2749C211.771 63.2749 211.771 63.3369 211.771 63.3313C210.62 63.117 210.53 61.5152 210.773 60.5508Z" fill="#3A5036"/>
<path d="M211.754 59.5073C213.446 59.4622 213.401 62.818 211.844 62.8631C210.287 62.9082 210.372 59.5468 211.754 59.5073Z" fill="#3A5036"/>
<path d="M212.414 59.6939C212.701 59.8857 212.978 60.2241 213.339 60.2579C213.7 60.2918 214.061 59.9534 214.331 59.615C214.359 59.5811 214.388 59.615 214.388 59.6544C214.388 60.2974 214.14 60.9573 213.446 61.0475C212.752 61.1378 212.374 60.5512 212.216 59.9195C212.188 59.7842 212.295 59.615 212.414 59.6939Z" fill="#3A5036"/>
<path d="M205.217 60.1113C205.217 60.0719 205.138 60.1621 205.138 60.2016C205.138 61.245 205.031 62.4576 204.089 62.7847C204.061 62.7847 204.061 62.8467 204.089 62.8411C205.245 62.6832 205.414 61.0927 205.217 60.1113Z" fill="#3A5036"/>
<path d="M204.292 59.0227C202.6 58.893 202.482 62.2488 204.033 62.3672C205.584 62.4857 205.691 59.1355 204.292 59.0227Z" fill="#3A5036"/>
<path d="M203.604 59.2199C203.333 59.3891 203.04 59.6993 202.741 59.7106C202.442 59.7219 202.115 59.344 201.895 58.9887C201.895 58.9492 201.844 58.9887 201.839 59.0225C201.799 59.6655 201.98 60.3366 202.594 60.4889C203.209 60.6412 203.587 60.0885 203.762 59.4568C203.773 59.3327 203.689 59.1522 203.604 59.2199Z" fill="#3A5036"/>
<path d="M210.671 68.6275C210.428 68.8813 210.192 69.2253 209.819 69.2704C209.432 69.2733 209.049 69.1985 208.691 69.0505C208.685 69.0445 208.676 69.0414 208.667 69.0419C208.658 69.0425 208.649 69.0465 208.643 69.0533C208.637 69.06 208.634 69.0688 208.635 69.0778C208.635 69.0868 208.639 69.0952 208.646 69.1012C208.803 69.3003 209.01 69.4535 209.246 69.5448C209.482 69.6361 209.739 69.6621 209.988 69.6201C210.197 69.555 210.382 69.4308 210.521 69.2626C210.66 69.0944 210.747 68.8894 210.772 68.6726C210.776 68.6597 210.774 68.6461 210.768 68.6342C210.763 68.6223 210.753 68.6128 210.741 68.6074C210.728 68.602 210.715 68.6011 210.702 68.6047C210.689 68.6084 210.678 68.6164 210.671 68.6275Z" fill="#3A5036"/>
<path d="M206.424 64.7752C206.424 64.7752 206.176 66.3262 206.164 67.0594C206.164 67.1271 206.339 67.161 206.587 67.1835C206.587 67.1835 206.587 67.1835 206.616 67.1835C207.238 67.3066 207.883 67.2571 208.479 67.0404C209.075 66.8237 209.601 66.448 210 65.954C210.05 65.8863 209.96 65.8074 209.892 65.8525C208.945 66.4698 207.824 66.7664 206.695 66.6985C206.65 66.4898 207.208 64.059 207.089 64.0477C206.512 64.0835 205.943 64.1993 205.397 64.3917C205.82 61.1487 206.757 58.0016 207.123 54.7699C207.123 54.6571 206.971 54.6176 206.937 54.7191C205.719 57.9452 205.155 61.6676 204.63 65.0008C204.585 65.4238 206.108 64.8993 206.424 64.7752Z" fill="#3A5036"/>
<path d="M207.056 66.8002C207.417 67.353 207.914 67.8036 208.499 68.1087C208.822 68.2625 209.184 68.3137 209.537 68.2553C210.31 68.1143 210.383 67.4206 210.293 66.8171C210.238 66.4959 210.147 66.1819 210.022 65.8809C209.157 66.4961 208.117 66.8182 207.056 66.8002Z" fill="#3A5036"/>
<path d="M208.5 68.1088C208.822 68.2626 209.184 68.3138 209.537 68.2554C210.31 68.1144 210.383 67.4207 210.293 66.8172C209.892 66.7993 209.497 66.917 209.172 67.1514C208.846 67.3858 208.61 67.7231 208.5 68.1088Z" fill="#FF98B9"/>
<path d="M226.367 60.3029C224.703 60.3536 219.983 56.2026 219.125 48.2276C219.125 48.2276 220.394 55.334 221.026 56.3323C221.658 57.3306 218.386 53.9917 217.603 47.5734C217.603 47.5734 214.275 50.4724 211.308 51.6004C208.342 52.7284 206.486 52.875 206.232 52.672C205.978 52.4689 210.338 50.6528 211.421 49.1526C211.421 49.1526 203.677 53.6646 199.978 54.2737C199.549 54.3414 200.271 47.6806 205.691 43.3942C211.111 39.1078 218.561 40.1794 221.235 42.3226C221.235 42.3226 224.156 42.4748 227.676 46.451C231.195 50.4272 228.155 60.2465 226.367 60.3029Z" fill="#3A5036"/>
<path d="M224.173 62.7396C224.173 62.7396 227.269 57.8159 229.486 58.8988C231.702 59.9817 229.542 67.0035 227.055 68.0694C226.745 68.2294 226.407 68.3249 226.059 68.3503C225.712 68.3757 225.363 68.3303 225.033 68.217C224.704 68.1036 224.401 67.9246 224.142 67.6909C223.884 67.4571 223.676 67.1734 223.53 66.8568L224.173 62.7396Z" fill="#EB9481"/>
<path d="M228.815 60.9121C228.86 60.9121 228.866 60.9629 228.815 60.9798C227.072 61.7863 226.22 63.484 225.645 65.2267C226.147 64.5386 226.846 64.1438 227.76 64.7304C227.805 64.7586 227.76 64.8376 227.715 64.8263C227.401 64.7495 227.071 64.7699 226.769 64.8847C226.467 64.9995 226.207 65.2034 226.023 65.4692C225.719 65.9252 225.462 66.4108 225.256 66.9187C225.183 67.0823 224.889 67.0146 224.946 66.8285C224.943 66.8135 224.943 66.7983 224.946 66.7834C224.788 64.5048 226.395 61.2449 228.815 60.9121Z" fill="#3A5036"/>
<path d="M233.581 87.7415C239.83 94.9551 257.348 121.068 253.287 128.124C249.39 134.892 240.552 136.798 235.464 127.707C231.804 121.204 225.651 101.802 224.122 92.4961C222.882 84.961 227.805 81.0694 233.581 87.7415Z" fill="#EB9481"/>
<path d="M227.743 110.86L248.453 103.252C248.453 103.252 236.829 87.3412 231.477 84.3125C226.125 81.2838 221.669 83.1112 223.305 93.4944C224.185 99.4198 225.672 105.239 227.743 110.86Z" fill="#91C788"/>
<path d="M244.776 100.296C243.648 100.663 242.52 100.956 241.392 101.34C240.264 101.723 239.181 102.112 238.087 102.524C235.871 103.348 233.66 104.171 231.466 105.056C230.236 105.553 229.007 106.089 227.805 106.653C227.749 106.653 227.772 106.771 227.805 106.754C232.317 105.457 236.694 103.731 241.048 102.011C242.311 101.509 243.524 100.883 244.77 100.381C244.855 100.358 244.816 100.279 244.776 100.296Z" fill="#3A5036"/>
<path d="M228.911 110.375C228.501 110.465 228.099 110.59 227.709 110.747C227.145 109.523 225.809 104.142 225.498 102.761C224.878 100.008 224.37 97.2277 223.722 94.4754C223.722 94.3965 223.57 94.419 223.581 94.4754C223.773 96.0039 224.01 97.5267 224.275 99.0382C223.993 98.3163 223.711 97.5887 223.491 96.8499C223.493 96.8447 223.494 96.8391 223.493 96.8335C223.493 96.8279 223.491 96.8225 223.488 96.8178C223.485 96.8131 223.481 96.8092 223.476 96.8066C223.471 96.8039 223.465 96.8025 223.46 96.8025C223.454 96.8025 223.448 96.8039 223.444 96.8066C223.439 96.8092 223.434 96.8131 223.431 96.8178C223.428 96.8225 223.426 96.8279 223.426 96.8335C223.425 96.8391 223.426 96.8447 223.429 96.8499C223.685 97.7676 224 98.6681 224.37 99.5458C224.59 102.366 227.157 111.328 227.23 111.294C227.81 111.031 228.375 110.735 228.922 110.408C228.984 110.425 228.984 110.369 228.911 110.375Z" fill="#3A5036"/>
<path d="M218.668 57.2853L212.775 82.4453C212.521 83.1842 212.899 83.7764 213.621 83.7651L224.872 86.0549C225.267 86.0188 225.642 85.8714 225.956 85.6297C226.27 85.388 226.508 85.0621 226.643 84.69L232.537 59.53C232.791 58.7912 232.413 58.199 231.691 58.2159L220.439 55.9204C220.045 55.9565 219.669 56.104 219.356 56.3457C219.042 56.5873 218.804 56.9132 218.668 57.2853Z" fill="#A6A6A6"/>
<path d="M219.633 57.4264L213.756 82.5865C213.502 83.3253 213.88 83.9175 214.602 83.9062L225.854 86.1961C226.247 86.1604 226.623 86.0138 226.936 85.7732C227.25 85.5325 227.489 85.2078 227.625 84.8368L233.496 59.6768C233.75 58.9323 233.372 58.3457 232.65 58.357L221.404 56.0615C221.01 56.0996 220.635 56.2478 220.322 56.4892C220.009 56.7306 219.77 57.0554 219.633 57.4264Z" fill="#DBDBDB"/>
<path d="M223.197 58.5095C223.203 58.7351 223.141 58.9572 223.019 59.1471C222.897 59.337 222.72 59.4858 222.513 59.5745C222.305 59.6632 222.076 59.6875 221.854 59.6444C221.633 59.6013 221.429 59.4928 221.27 59.3327C221.111 59.1727 221.003 58.9687 220.961 58.7469C220.919 58.5251 220.945 58.2959 221.035 58.0888C221.124 57.8816 221.274 57.7062 221.465 57.5852C221.655 57.4641 221.878 57.403 222.103 57.4097C222.394 57.4112 222.672 57.5277 222.877 57.7338C223.082 57.9399 223.197 58.2188 223.197 58.5095Z" fill="#3A5036"/>
<path d="M238.47 129.985C242.131 136.753 251.82 132.895 253.287 128.124C256.727 116.929 254.595 98.3166 252.542 87.9221C251.882 84.5776 229.164 87.9221 229.3 91.5373C229.458 95.9083 231.296 116.675 238.47 129.985Z" fill="#EB9481"/>
<path d="M252.288 92.891C253.433 87.959 253.502 82.8384 252.491 77.8773C251.296 72.4685 247.387 60.9968 231.674 55.8813C227.946 54.663 221.77 55.5711 227.162 59.7672C230.975 62.7508 234.291 63.4896 236.186 65.6328C236.186 65.6328 228.471 67.7196 227.399 71.4984C226.461 74.8061 225.758 78.1759 225.295 81.5828C225.9 81.8092 226.518 81.9976 227.145 82.1468C226.814 85.4369 227.579 88.7442 229.322 91.5543L252.288 92.891Z" fill="#EB9481"/>
<path d="M250.523 72.8973C248.188 71.2053 243.191 67.607 238.064 66.1293C232.379 64.4373 220.992 62.8017 219.808 67.0035C218.939 70.0886 223.231 71.1094 223.231 71.1094C223.231 71.1094 218.381 71.414 218.206 74.3693C218.048 77.0652 221.415 77.6574 221.415 77.6574C221.415 77.6574 218.505 78.3455 218.849 80.9738C219.266 84.1265 225.307 82.1638 228.493 84.9951C229.209 85.6155 250.523 72.8973 250.523 72.8973Z" fill="#EB9481"/>
<path d="M237.309 72.4065C234.85 71.1432 228.521 69.7163 223.321 71.0078C223.203 71.0078 223.163 71.1375 223.276 71.1375C227.986 71.0105 232.694 71.4536 237.297 72.4573C237.325 72.4686 237.337 72.4178 237.309 72.4065Z" fill="#3A5036"/>
<path d="M235.47 78.0916C233.214 77.223 226.643 76.0386 221.421 77.5276C221.302 77.5614 221.269 77.6686 221.381 77.6629C226.085 77.2873 230.815 77.45 235.481 78.148C235.489 78.1465 235.495 78.1421 235.5 78.1357C235.504 78.1294 235.505 78.1216 235.504 78.1141C235.502 78.1067 235.498 78.1001 235.492 78.0959C235.485 78.0916 235.478 78.0901 235.47 78.0916Z" fill="#3A5036"/>
<path d="M236.395 125.27C236.226 124.706 236.062 124.142 235.882 123.629C235.509 122.501 235.188 121.373 234.861 120.245C234.195 117.989 233.558 115.699 233 113.398C231.885 108.811 231.04 104.164 230.467 99.4784C230.309 98.1812 230.174 96.884 230.033 95.5868C229.892 94.2896 229.847 92.9417 229.599 91.6388C229.599 91.5712 228.939 90.5785 228.679 90.0878C228.41 89.5774 228.175 89.0499 227.974 88.5086C227.553 87.4043 227.267 86.2528 227.123 85.0795C227.12 85.0722 227.115 85.0659 227.108 85.0615C227.102 85.0571 227.094 85.0547 227.086 85.0547C227.078 85.0547 227.07 85.0571 227.064 85.0615C227.057 85.0659 227.052 85.0722 227.049 85.0795C226.976 86.4147 227.144 87.7521 227.546 89.0275C227.893 90.0944 228.493 91.0618 229.294 91.8475C229.294 92.0167 229.334 94.1035 229.401 95.271C229.469 96.4385 229.576 97.606 229.706 98.7678C229.971 101.103 230.298 103.432 230.71 105.75C231.515 110.439 232.634 115.069 234.06 119.608C234.06 119.681 234.111 119.754 234.133 119.828C234.133 119.997 234.133 120.166 234.133 120.335C234.142 120.752 234.176 121.169 234.235 121.582C234.35 122.403 234.553 123.211 234.838 123.99C234.836 123.997 234.835 124.004 234.836 124.011C234.837 124.018 234.839 124.025 234.844 124.031C234.848 124.037 234.853 124.042 234.86 124.046C234.866 124.049 234.873 124.051 234.881 124.051C234.888 124.051 234.895 124.049 234.901 124.046C234.908 124.042 234.913 124.037 234.918 124.031C234.922 124.025 234.924 124.018 234.925 124.011C234.926 124.004 234.925 123.997 234.923 123.99C234.723 123.175 234.587 122.345 234.517 121.508L234.415 120.651C234.725 121.565 235.053 122.478 235.374 123.386C235.6 124.018 235.831 124.633 236.09 125.248C236.35 125.862 236.553 126.46 236.857 127.03C236.857 127.075 236.948 127.03 236.936 126.996C236.795 126.393 236.57 125.84 236.395 125.27Z" fill="#3A5036"/>
<path d="M166.087 145.275V130.115L148.856 145.275H166.087Z" fill="#EBEBEB"/>
<path d="M77.5332 177.418C82.4964 199.013 92.7612 224.901 97.1435 229.103C102.688 234.416 139.365 244.161 141.192 244.359C145.704 244.816 154.801 212.211 149.973 211.506C142.641 210.446 115.93 208.996 114.334 207.355C112.738 205.714 101.402 191.422 89.8172 175.365C81.8196 164.271 74.4482 164.017 77.5332 177.418Z" fill="#AD6359"/>
<path d="M137.56 242.599C138.095 242.87 145.76 246.728 150.498 248.098C154.034 249.125 164.288 251.804 165.805 248.019C166.843 245.447 160.994 243.163 156.899 241.454C154.739 240.552 152.077 238.296 152.714 236.908C153.842 234.483 159.386 236.908 163.041 239.04C170.108 243.146 179.521 250.54 183.836 246.936C185.466 245.583 183.571 243.112 180.802 240.693C185.314 243.513 190.096 245.825 191.963 244.393C193.04 243.575 193.091 242.452 192.493 241.178C193.881 241.629 195.105 241.539 195.962 240.614C197.423 239.08 196.712 236.824 195.11 234.506C195.385 234.477 195.649 234.384 195.881 234.233C196.112 234.082 196.305 233.877 196.441 233.637C199.538 228.916 184.033 215.364 178.681 214.095C162.917 210.344 146.302 211.043 146.302 211.043C140.109 216.012 137.543 242.588 137.56 242.599Z" fill="#AD6359"/>
<path d="M160.74 228.087C164.493 228.673 168.079 230.052 171.259 232.131C175.257 234.771 177.908 237.861 181.258 240.969C181.272 240.987 181.278 241.008 181.278 241.03C181.277 241.052 181.268 241.073 181.254 241.09C181.239 241.107 181.219 241.118 181.198 241.121C181.176 241.125 181.153 241.121 181.134 241.11C179.538 239.632 172.917 234.071 171.208 232.808C168.117 230.482 164.537 228.889 160.74 228.149C160.689 228.144 160.701 228.076 160.74 228.087Z" fill="#3A5036"/>
<path d="M163.679 221.393C167.824 222.521 172.071 223.649 175.917 225.634C180.125 227.777 183.419 231.274 186.633 234.658C188.581 236.677 190.482 238.745 192.335 240.862C192.409 240.952 192.29 241.093 192.211 241.003C188.925 237.529 185.541 234.145 182.059 230.851C178.837 227.792 175.042 225.4 170.892 223.812C168.523 222.904 166.087 222.188 163.65 221.466C163.617 221.455 163.634 221.381 163.679 221.393Z" fill="#3A5036"/>
<path d="M168.106 215.544C172.133 216.373 175.646 217.078 179.211 219.233C183.932 222.092 188.489 226.903 190.085 228.612C191.85 230.496 193.553 232.436 195.223 234.404C195.291 234.483 195.155 234.607 195.082 234.528C191.256 230.213 187.155 226.149 182.804 222.363C180.757 220.53 178.44 219.023 175.934 217.896C173.394 216.899 170.773 216.121 168.1 215.572C168.1 215.572 168.072 215.538 168.106 215.544Z" fill="#3A5036"/>
<path d="M143.764 209.746L132.484 245.481C132.484 245.481 101.943 236.762 96.3876 230.744C90.8322 224.726 80.5053 193.65 77.4766 178.585C74.448 163.521 82.062 163.921 89.0612 173.391C96.0604 182.86 113.488 205.905 114.441 206.407C115.394 206.909 143.764 209.746 143.764 209.746Z" fill="#91C788"/>
<path opacity="0.1" d="M143.764 209.746L132.484 245.481C132.484 245.481 101.943 236.762 96.3876 230.744C90.8322 224.726 80.5053 193.65 77.4766 178.585C74.448 163.521 82.062 163.921 89.0612 173.391C96.0604 182.86 113.488 205.905 114.441 206.407C115.394 206.909 143.764 209.746 143.764 209.746Z" fill="black"/>
<path d="M129.551 229.604C130.921 225.391 132.32 221.19 133.527 216.926C134.215 214.506 134.915 212.081 135.58 209.656C135.608 209.56 135.456 209.509 135.422 209.599C133.882 213.773 132.348 217.963 131 222.205C129.652 226.446 128.282 230.665 126.996 234.878C126.268 237.292 125.609 239.717 125.028 242.17C125.028 242.216 125.095 242.244 125.112 242.199C126.793 238.076 128.175 233.846 129.551 229.604Z" fill="#3A5036"/>
<path d="M117.081 240.569L115.727 240.095C113.184 239.187 110.589 238.211 108.147 237.213C107.831 237.089 107.521 236.959 107.216 236.829C106.726 236.626 106.235 236.418 105.761 236.209L105.051 235.899L104.797 235.786L104.064 235.447C103.094 235.002 102.174 234.556 101.317 234.105L100.753 233.789C99.4129 233.1 98.15 232.27 96.9855 231.313C96.8783 231.217 96.7712 231.122 96.6753 231.026C96.5794 230.93 96.4779 230.834 96.3933 230.744C90.8097 224.726 80.5111 193.649 77.4824 178.585L77.3809 178.066V177.953C77.1778 176.825 76.9973 175.393 76.8507 173.859C76.4277 166.363 79.9753 165.139 84.3575 168.433C95.2822 191.878 112.016 230.62 117.081 240.569Z" fill="#3A5036"/>
<path d="M101.238 246.569L34.686 246.919C34.7424 245.487 44.2176 203.581 51.7527 188.116C61.414 168.286 66.4167 166.684 69.3664 165.624C73.1734 164.259 79.9527 164.936 81.5601 165.697C83.3874 166.549 89.1966 176.69 91.2778 184.129C95.4401 199.092 102.174 245.656 101.238 246.569Z" fill="#EBEBEB"/>
<path d="M65.9542 167.192C65.9542 167.192 74.4142 198.522 74.8372 200.603C75.4745 203.626 79.6932 246.761 79.6932 246.761L33.3042 246.919C33.3042 246.919 43.428 206.988 50.963 189.504C59.1862 170.328 65.9542 167.192 65.9542 167.192Z" fill="#91C788"/>
<g opacity="0.1">
<path opacity="0.1" d="M65.9542 167.192C65.9542 167.192 74.4142 198.522 74.8372 200.603C75.4745 203.626 79.6932 246.761 79.6932 246.761L33.3042 246.919C33.3042 246.919 43.428 206.988 50.963 189.504C59.1862 170.328 65.9542 167.192 65.9542 167.192Z" fill="black"/>
</g>
<path d="M82.1692 166.183C82.4173 167.181 90.2175 192.634 90.7589 198.979C91.3624 206.018 96.6978 246.919 96.6978 246.919H103.466C103.466 246.919 93.6692 188.156 90.9789 181.946C85.4742 169.273 82.1692 166.183 82.1692 166.183Z" fill="#91C788"/>
<path opacity="0.1" d="M82.1692 166.183C82.4173 167.181 90.2175 192.634 90.7589 198.979C91.3624 206.018 96.6978 246.919 96.6978 246.919H103.466C103.466 246.919 93.6692 188.156 90.9789 181.946C85.4742 169.273 82.1692 166.183 82.1692 166.183Z" fill="black"/>
<path d="M57.1952 174.518C46.0506 186.458 18.956 231.759 27.5514 240.021C36.1467 248.284 83.8668 237.162 97.2674 230.772C101.255 228.877 86.1059 204.016 81.419 203.435C77.5161 202.955 57.5731 212.075 56.9922 210.93C56.3436 209.633 59.5133 200.062 64.3242 182.73C69.8457 162.753 62.1246 169.239 57.1952 174.518Z" fill="#AD6359"/>
<path d="M101.227 195.415C110.916 194.061 113.635 195.206 121.187 189.724C126.156 186.125 130.589 187.755 127.752 193.469C123.116 202.82 110.978 207.185 106.32 207.49L101.227 195.415Z" fill="#AD6359"/>
<path d="M75.4858 204.732C75.4858 204.732 86.3767 198.686 96.5625 196.227C103.601 194.535 119.337 192.533 134.396 208.071C137.966 211.754 140.442 219.537 132.427 215.64C126.731 212.871 123.967 209.396 120.352 208.387C120.352 208.387 122.326 218.657 118.496 222.092C115.149 225.094 111.593 227.853 107.854 230.349C107.239 229.77 106.662 229.153 106.128 228.499C106.128 228.499 102.248 231.37 94.9495 230.67L75.4858 204.732Z" fill="#AD6359"/>
<path d="M103.545 195.708C106.929 197.462 113.984 201.303 118.677 206.458C123.894 212.188 132.393 224.619 128.124 228.454C124.999 231.246 121.356 226.762 121.356 226.762C121.356 226.762 123.787 232.644 120.408 234.545C117.335 236.282 114.706 232.661 114.706 232.661C114.706 232.661 115.569 236.48 112.281 237.579C108.333 238.899 107.171 230.676 102.011 228.555C100.832 228.048 103.545 195.708 103.545 195.708Z" fill="#AD6359"/>
<path d="M111.712 210.936C114.605 213.107 119.918 219.723 121.384 226.576C121.418 226.734 121.322 226.841 121.26 226.705C118.712 221.097 115.493 215.819 111.672 210.987C111.627 210.936 111.672 210.936 111.712 210.936Z" fill="#3A5036"/>
<path d="M106.083 216.368C108.39 218.499 113.562 225.561 114.808 232.56C114.836 232.718 114.729 232.819 114.678 232.678C112.42 226.947 109.519 221.491 106.032 216.413C105.998 216.379 106.032 216.339 106.083 216.368Z" fill="#3A5036"/>
<path d="M120.352 208.319C123.51 209.25 125.563 210.801 128.248 212.651C129.555 213.584 130.912 214.445 132.314 215.228C133.6 215.922 135.501 216.971 136.866 215.882C137.633 215.279 137.622 214.19 137.43 213.305C137.044 212.023 136.458 210.81 135.693 209.712C135.693 209.667 135.732 209.616 135.766 209.656C136.505 210.656 137.14 211.73 137.661 212.859C138.003 213.633 138.103 214.492 137.949 215.324C137.481 217.061 135.428 217.292 134.001 216.813C133.136 216.495 132.305 216.093 131.519 215.612C130.752 215.172 130.008 214.698 129.263 214.202C127.763 213.186 126.325 212.087 124.836 211.054C123.389 210.083 121.882 209.205 120.324 208.426C120.312 208.42 120.302 208.411 120.297 208.399C120.291 208.387 120.29 208.374 120.294 208.361C120.297 208.348 120.305 208.337 120.315 208.329C120.326 208.322 120.339 208.318 120.352 208.319Z" fill="#3A5036"/>
<path d="M126.968 219.43C126.15 217.631 121.723 210.13 120.29 208.392C120.285 208.384 120.283 208.374 120.284 208.364C120.285 208.353 120.289 208.344 120.297 208.337C120.304 208.33 120.313 208.325 120.323 208.324C120.333 208.323 120.343 208.325 120.352 208.33C122.817 210.665 126.77 216.864 127.684 218.849C128.598 220.834 129.647 223.321 129.647 225.504C129.647 228.804 127.459 229.452 126.652 229.593C125.687 229.768 124.691 229.605 123.832 229.131C122.827 228.517 121.959 227.703 121.283 226.739C121.249 226.694 121.311 226.632 121.35 226.677C122.478 227.98 124.396 229.26 126.184 229.024C126.58 228.986 126.965 228.869 127.316 228.681C127.667 228.492 127.976 228.234 128.226 227.924C128.714 227.13 128.902 226.188 128.756 225.267C128.492 223.235 127.888 221.261 126.968 219.43Z" fill="#3A5036"/>
<path d="M75.4859 204.732L90.759 236.88C90.759 236.88 31.0201 250.292 25.8651 239.892C20.7102 229.492 43.9131 188.794 54.3641 176.938C66.4844 163.199 68.0298 167.875 65.3621 180.052C62.5421 192.798 57.1671 211.23 57.1671 211.23L75.4859 204.732Z" fill="#91C788"/>
<path opacity="0.1" d="M75.4859 204.732L90.759 236.88C90.759 236.88 31.0201 250.292 25.8651 239.892C20.7102 229.492 43.9131 188.794 54.3641 176.938C66.4844 163.199 68.0298 167.875 65.3621 180.052C62.5421 192.798 57.1671 211.23 57.1671 211.23L75.4859 204.732Z" fill="black"/>
<path d="M39.0119 219.785C44.5221 215.959 50.5729 212.976 56.964 210.936C58.7744 210.372 60.6018 209.837 62.4292 209.312C62.4856 209.312 62.5081 209.385 62.4292 209.402C59.242 210.434 56.1178 211.65 53.0724 213.046C50.0306 214.399 47.0226 215.807 44.0484 217.27C42.3564 218.099 40.7095 219.007 39.0514 219.893C39.0402 219.89 39.0299 219.885 39.0213 219.878C39.0127 219.87 39.0062 219.861 39.0022 219.85C38.9983 219.839 38.9971 219.828 38.9988 219.816C39.0005 219.805 39.005 219.795 39.0119 219.785Z" fill="#3A5036"/>
<path d="M75.3279 204.648C75.029 204.727 58.6899 210.124 58.1541 210.372C58.2218 210.124 61.1546 201.438 61.5945 200.164C61.634 200.04 61.6735 199.91 61.7186 199.786C62.0119 199.222 62.3164 198.658 62.5928 198.094C62.9425 197.355 63.2922 196.605 63.6362 195.838H63.6024L62.4744 198.021C62.2995 198.353 62.136 198.697 61.9724 199.041C62.26 198.145 62.5364 197.242 62.8128 196.334C63.2527 194.896 63.6475 193.441 64.0366 191.986C64.0366 191.935 63.9803 191.924 63.9633 191.986C63.0948 194.518 62.1472 197.022 61.273 199.555C60.3988 202.087 57.0374 211.399 57.0656 211.399C57.0938 211.399 75.0572 205.048 75.4069 204.907C75.4239 204.902 75.4398 204.893 75.4535 204.882C75.4673 204.871 75.4787 204.857 75.4871 204.841C75.4954 204.825 75.5006 204.808 75.5024 204.79C75.5041 204.773 75.5023 204.755 75.4971 204.738C75.4919 204.721 75.4835 204.705 75.4721 204.691C75.4608 204.677 75.4469 204.666 75.4312 204.658C75.4155 204.649 75.3983 204.644 75.3806 204.642C75.3629 204.641 75.345 204.642 75.3279 204.648Z" fill="#3A5036"/>
<path d="M76.4277 225.6C74.7357 222.019 73.0945 218.415 71.284 214.884C70.2519 212.882 69.2311 210.874 68.182 208.883C68.1425 208.81 68.0072 208.883 68.041 208.945C69.5864 212.611 71.143 216.277 72.8576 219.881C74.5721 223.485 76.2416 227.044 77.9843 230.597C78.977 232.616 80.0317 234.604 81.1484 236.559C81.1484 236.598 81.2386 236.559 81.2217 236.559C79.8004 232.825 78.1253 229.221 76.4277 225.6Z" fill="#3A5036"/>
<path d="M91.5316 237.377C90.9338 236.384 90.178 234.963 89.5407 233.993C89.3715 233.739 89.1741 233.789 89.3095 234.055C89.7663 234.957 90.1442 235.967 90.5897 236.875C89.755 237.044 88.8977 237.19 88.0743 237.365C87.1042 237.568 86.1398 237.777 85.1697 237.974C83.2671 238.35 81.3646 238.726 79.462 239.102C75.6043 239.821 71.7315 240.452 67.8436 240.997C60.0549 242.138 52.2123 242.874 44.3474 243.203C42.1478 243.282 39.9425 243.321 37.7429 243.293C35.5732 243.298 33.4046 243.193 31.2457 242.977C31.1836 242.977 31.1724 243.073 31.2457 243.084C33.1034 243.477 34.9893 243.722 36.8857 243.817C38.8766 243.913 40.8732 243.958 42.8697 243.936C46.8177 243.891 50.8052 243.631 54.7588 243.27C62.5984 242.548 70.4155 241.488 78.1648 240.118C80.3381 239.742 82.5057 239.334 84.6677 238.894C85.7619 238.674 86.8504 238.454 87.9389 238.211C89.0275 237.969 91.6331 237.546 91.5316 237.377Z" fill="#3A5036"/>
<path d="M82.1806 177.874C78.2326 178.963 71.1657 173.125 68.278 168.286C68.0806 167.954 68.4698 164.367 68.7348 159.984C68.8871 157.328 68.9886 154.344 68.8871 151.648C68.8871 151.084 86.0497 155.156 86.0497 155.156C86.0497 155.156 84.5832 160.898 84.7863 165.624C84.8042 166.004 84.8571 166.382 84.9442 166.752C84.9598 166.812 84.9711 166.872 84.978 166.933C85.401 169.025 85.9989 176.82 82.1806 177.874Z" fill="#AD6359"/>
<path d="M69.936 151.716C70.8948 156.273 74.1548 167.243 83.2352 167.113C83.8175 167.108 84.3984 167.055 84.9723 166.956C84.9794 166.894 84.9794 166.831 84.9723 166.769C84.8886 166.398 84.8339 166.021 84.8087 165.641C84.6113 160.909 86.0721 155.162 86.0721 155.162C86.0721 155.162 73.6528 152.23 69.936 151.716Z" fill="#3A5036"/>
<path d="M88.0969 143.51C87.9051 147.672 90.7139 151.18 94.3686 151.349C98.0233 151.518 101.137 148.27 101.323 144.107C101.509 139.945 98.7001 136.437 95.051 136.274C91.4019 136.11 88.283 139.347 88.0969 143.51Z" fill="#455A64"/>
<path d="M100.652 144.338C100.861 139.707 97.7368 135.805 93.6729 135.621C89.6091 135.437 86.1448 139.042 85.9354 143.672C85.7259 148.302 88.8506 152.205 92.9145 152.389C96.9783 152.572 100.443 148.968 100.652 144.338Z" fill="#C7C7C7"/>
<path d="M71.1261 130.053C68.1708 135.625 67.9847 153.34 71.4589 157.976C76.4954 164.688 86.3936 167.153 92.4961 160.74C98.435 154.502 98.2658 131.412 94.2332 127.03C88.3056 120.561 75.4915 121.824 71.1261 130.053Z" fill="#AD6359"/>
<path d="M85.8578 143.747C85.8578 143.702 85.7619 143.809 85.7675 143.859C85.8296 145.05 85.7055 146.426 84.6395 146.843C84.6057 146.843 84.6113 146.916 84.6395 146.911C85.9593 146.696 86.1059 144.869 85.8578 143.747Z" fill="#3A5036"/>
<path d="M84.7636 142.529C82.8404 142.427 82.7784 146.279 84.555 146.37C86.3316 146.46 86.3767 142.613 84.7636 142.529Z" fill="#3A5036"/>
<path d="M92.5356 143.894C92.5356 143.849 92.6258 143.956 92.6258 144.001C92.5694 145.197 92.7047 146.573 93.7538 146.984C93.7876 146.984 93.7538 147.058 93.7538 147.052C92.4509 146.843 92.2874 145.016 92.5356 143.894Z" fill="#3A5036"/>
<path d="M93.6241 142.692C95.5416 142.574 95.6319 146.426 93.8496 146.533C92.0674 146.64 92.011 142.76 93.6241 142.692Z" fill="#3A5036"/>
<path d="M83.0378 139.449C83.6018 139.421 84.0699 139.303 84.6057 139.224C85.171 139.213 85.7166 139.014 86.1567 138.66C86.2748 138.524 86.3444 138.353 86.3546 138.173C86.3648 137.993 86.315 137.815 86.2131 137.667C85.9665 137.407 85.6552 137.218 85.3112 137.119C84.9672 137.02 84.603 137.015 84.2561 137.103C83.5211 137.161 82.8348 137.493 82.3328 138.034C82.2277 138.163 82.162 138.32 82.1437 138.486C82.1254 138.652 82.1552 138.819 82.2295 138.968C82.3039 139.118 82.4196 139.242 82.563 139.328C82.7063 139.413 82.8711 139.455 83.0378 139.449Z" fill="#3A5036"/>
<path d="M95.4347 139.872C94.9198 139.759 94.4114 139.618 93.9119 139.449C93.3571 139.382 92.8398 139.134 92.4398 138.744C92.3387 138.595 92.2899 138.417 92.3011 138.237C92.3124 138.058 92.383 137.887 92.5019 137.751C92.7777 137.52 93.1101 137.367 93.4649 137.306C93.8197 137.246 94.1842 137.281 94.521 137.407C95.2422 137.559 95.8814 137.973 96.3145 138.569C96.3989 138.711 96.4413 138.874 96.4366 139.038C96.4319 139.203 96.3805 139.363 96.2882 139.5C96.1959 139.637 96.0667 139.744 95.9155 139.81C95.7644 139.876 95.5976 139.897 95.4347 139.872Z" fill="#3A5036"/>
<path d="M83.6808 154.807C83.9628 155.089 84.2448 155.478 84.6735 155.523C85.117 155.519 85.5549 155.423 85.9594 155.241C85.9675 155.239 85.9759 155.24 85.9837 155.242C85.9915 155.245 85.9984 155.25 86.0036 155.256C86.0089 155.263 86.0123 155.271 86.0134 155.279C86.0146 155.287 86.0134 155.295 86.0101 155.303C85.8372 155.536 85.604 155.717 85.3357 155.827C85.0674 155.938 84.7741 155.973 84.4873 155.929C84.2449 155.861 84.0278 155.723 83.8633 155.533C83.6988 155.342 83.5941 155.107 83.5624 154.857C83.5455 154.79 83.6357 154.761 83.6808 154.807Z" fill="#3A5036"/>
<path d="M84.9948 151.254C85.2893 151.73 85.6794 152.141 86.1405 152.459C86.6016 152.778 87.1237 152.997 87.6738 153.104C88.1536 153.206 88.6456 153.238 89.1346 153.199C89.2291 153.196 89.3233 153.187 89.4166 153.171L89.676 153.132C89.7399 153.121 89.7986 153.09 89.8434 153.043C89.8882 152.997 89.9165 152.937 89.9242 152.872C89.927 152.831 89.927 152.79 89.9242 152.748V152.641C89.9637 151.722 89.9242 150.323 89.9242 150.323C90.257 150.498 91.9602 151.299 91.9377 150.819C91.7685 146.838 91.5767 142.416 90.5672 138.496C90.5615 138.471 90.5475 138.449 90.5275 138.433C90.5075 138.417 90.4827 138.408 90.4572 138.408C90.4316 138.408 90.4068 138.417 90.3868 138.433C90.3668 138.449 90.3529 138.471 90.3472 138.496C90.3472 142.326 91.0465 146.127 91.1199 149.973C90.5159 149.681 89.8744 149.474 89.2135 149.359C89.0838 149.398 89.3884 152.06 89.3376 152.472C89.339 152.487 89.339 152.502 89.3376 152.517C87.7866 152.686 86.6304 152.201 85.1527 151.141C85.0174 151.079 84.9215 151.152 84.9948 151.254Z" fill="#3A5036"/>
<path d="M88.5988 152.72C88.086 153.369 87.4136 153.874 86.6474 154.186C86.2245 154.343 85.7634 154.365 85.3276 154.248C84.3801 153.978 84.3688 153.12 84.555 152.359C84.6589 151.967 84.8085 151.588 85.0005 151.231C86.0108 152.098 87.2714 152.62 88.5988 152.72Z" fill="#3A5036"/>
<path d="M86.6474 154.186C86.2245 154.343 85.7634 154.364 85.3276 154.248C84.3801 153.978 84.3688 153.12 84.555 152.359C85.5758 152.483 86.5741 153.194 86.6474 154.186Z" fill="#FF98B9"/>
<path opacity="0.2" d="M68.9097 142.563C70.0715 142.376 72.8577 138.445 74.0364 136.883C75.2152 135.321 75.8976 126.945 76.0048 125.039C73.9364 126.209 72.2427 127.942 71.1205 130.036C69.8008 132.54 69.0394 137.464 68.9097 142.563Z" fill="#3A5036"/>
<path d="M90.415 131.976C89.7263 132.731 88.8561 133.298 87.8868 133.623C86.9175 133.948 85.8814 134.019 84.8766 133.831C83.8512 133.643 82.8911 133.195 82.0875 132.53C81.284 131.866 80.6637 131.007 80.2856 130.036C80.2856 129.974 80.1728 130.007 80.1954 130.064C80.5003 131.122 81.0886 132.077 81.8967 132.826C82.7048 133.574 83.702 134.088 84.7807 134.311C85.8524 134.473 86.9478 134.349 87.9567 133.953C88.9656 133.557 89.8524 132.902 90.5278 132.055C90.5317 132.04 90.531 132.025 90.5258 132.011C90.5207 131.997 90.5113 131.985 90.499 131.976C90.4867 131.967 90.4721 131.963 90.457 131.963C90.442 131.963 90.4274 131.967 90.415 131.976Z" fill="#3A5036"/>
<path d="M84.6847 116.962C81.2048 116.929 77.9562 118.75 76.6082 121.074C75.8595 122.398 75.5812 123.937 75.8186 125.439C75.8186 125.501 75.9483 125.49 75.9427 125.439C75.9134 124.115 76.241 122.807 76.8909 121.653C77.5409 120.499 78.4894 119.541 79.6369 118.88C80.8934 118.11 82.3114 117.642 83.7793 117.513C85.2473 117.384 86.7252 117.597 88.0969 118.135C89.4338 118.63 90.5499 119.586 91.244 120.831C91.3117 120.961 91.5711 120.888 91.5204 120.758C90.6405 118.547 87.8262 116.991 84.6847 116.962Z" fill="#3A5036"/>
<path d="M104.622 125.135C104.106 123.402 102.996 121.906 101.486 120.911C99.3939 119.523 96.9743 119.642 94.583 119.811C94.5695 119.811 94.5566 119.816 94.5471 119.826C94.5376 119.835 94.5322 119.848 94.5322 119.862C94.5322 119.875 94.5376 119.888 94.5471 119.897C94.5566 119.907 94.5695 119.912 94.583 119.912C96.6247 119.777 98.7058 119.754 100.544 120.775C102.075 121.604 103.271 122.937 103.928 124.548C104.554 126.201 104.562 128.024 103.951 129.682C103.34 131.34 102.15 132.722 100.601 133.572C99.6974 134.039 98.7081 134.316 97.6936 134.387C96.6792 134.458 95.661 134.321 94.7014 133.984C94.6225 133.956 94.5661 134.063 94.6394 134.097C95.9355 134.608 97.3483 134.748 98.7195 134.501C100.091 134.255 101.366 133.632 102.404 132.702C103.441 131.772 104.199 130.571 104.593 129.235C104.986 127.899 105.001 126.479 104.633 125.135H104.622Z" fill="#3A5036"/>
<path d="M69.8684 133.465C69.8684 133.465 66.789 127.131 69.6767 123.635C71.3123 121.655 76.4898 122.106 76.4898 122.106C76.4898 122.106 78.2664 119.19 82.5979 118.361C86.9294 117.532 92.0393 120.245 92.0393 120.245C92.0393 120.245 96.2467 118.04 100.026 120.386C105.299 123.657 104.329 131.83 98.8129 134.266C94.9439 135.958 89.9017 132.427 89.9017 132.427C89.3998 132.478 84.1997 135.355 80.5224 130.679C80.5224 130.679 77.2963 133.341 74.5609 131.294C74.0956 132.093 73.3959 132.73 72.5566 133.118C71.7172 133.507 70.7789 133.628 69.8684 133.465Z" fill="#3A5036"/>
<path d="M72.0849 144.706C72.0849 144.706 69.1578 138.502 66.3998 139.427C63.6418 140.352 65.1703 148.936 67.9339 150.549C68.2749 150.78 68.6591 150.94 69.0635 151.019C69.4679 151.098 69.8842 151.095 70.2872 151.009C70.6902 150.923 71.0717 150.756 71.4087 150.519C71.7458 150.282 72.0314 149.98 72.2485 149.629L72.0849 144.706Z" fill="#AD6359"/>
<path d="M66.8962 141.869C66.8511 141.869 66.8286 141.925 66.8962 141.948C68.8251 143.143 69.5865 145.258 70.0039 147.385C69.5245 146.51 68.7518 145.946 67.6012 146.499C67.5893 146.507 67.5802 146.518 67.5752 146.532C67.5701 146.545 67.5695 146.56 67.5732 146.573C67.577 146.587 67.585 146.599 67.5961 146.608C67.6072 146.617 67.6208 146.622 67.6351 146.623C68.0202 146.571 68.4121 146.639 68.7573 146.817C69.1025 146.996 69.3842 147.277 69.5639 147.621C69.8563 148.201 70.0869 148.81 70.252 149.438C70.3197 149.641 70.6694 149.595 70.6355 149.37C70.6382 149.353 70.6382 149.336 70.6355 149.319C71.1093 146.685 69.6937 142.63 66.8962 141.869Z" fill="#3A5036"/>
<path d="M78.4639 157.198L72.9085 154.801L68.4417 149.24L69.2989 148.546L73.5966 153.899L78.9038 156.189L78.4639 157.198Z" fill="#C7C7C7"/>
<path d="M77.8717 156.313C78.4357 154.694 82.9476 155.292 82.1298 157.739C81.312 160.187 77.3246 157.92 77.8717 156.313Z" fill="#37474F"/>
<path d="M66.3153 139.257C66.3153 139.257 65.7118 130.16 68.3739 125.157C71.3406 119.568 83.6358 114.25 92.0619 120.256C92.0619 120.256 78.3736 117.808 71.9948 125.558C69.3102 128.818 69.3778 139.511 69.3778 139.511L66.3153 139.257Z" fill="#C7C7C7"/>
<path d="M67.5566 152.323C71.6245 152.283 74.8847 148.493 74.8386 143.858C74.7925 139.223 71.4575 135.499 67.3897 135.54C63.3218 135.58 60.0615 139.37 60.1077 144.005C60.1538 148.639 63.4888 152.364 67.5566 152.323Z" fill="#C7C7C7"/>
<path d="M72.6884 143.617C72.7279 147.785 69.8007 151.192 66.146 151.225C62.4913 151.259 59.4908 147.915 59.4513 143.747C59.4118 139.579 62.339 136.172 65.9937 136.138C69.6484 136.105 72.6489 139.449 72.6884 143.617Z" fill="#455A64"/>
<path d="M84.9103 166.651L80.9341 176.69L68.4246 164.067L64.9165 168.151C64.9165 168.151 77.1835 188.235 77.2568 187.327L81.3458 178.669L87.3355 184.653L86.7715 169.572L84.9103 166.651Z" fill="#EBEBEB"/>
<path d="M87.4822 177.18C87.3074 174.693 87.2058 172.183 86.9182 169.707C86.9182 169.623 86.7716 169.583 86.749 169.707C86.264 172.116 86.9802 181.619 86.9802 183.903H86.952C86.7039 183.644 81.4023 178.641 81.3515 178.72C80.466 180.096 77.4599 186.396 77.2569 186.972C75.3167 183.779 67.1049 171.208 64.7925 168.19C64.7813 168.171 64.7628 168.157 64.7411 168.151C64.7194 168.145 64.6963 168.148 64.6769 168.159C64.6574 168.17 64.6432 168.189 64.6374 168.211C64.6316 168.232 64.6346 168.255 64.6459 168.275C66.3379 171.659 76.9974 188.246 77.1441 188.201C78.7265 185.227 80.1553 182.174 81.4248 179.053C82.3216 180.141 87.6683 185.793 87.6852 185.421C87.7632 182.672 87.6954 179.922 87.4822 177.18Z" fill="#3A5036"/>
<path d="M221.562 140.256H204.117C202.426 140.254 200.804 139.582 199.608 138.386C198.412 137.19 197.74 135.568 197.738 133.877C197.738 132.185 198.41 130.563 199.607 129.366C200.803 128.17 202.425 127.498 204.117 127.498H221.562C223.253 127.498 224.876 128.17 226.072 129.366C227.268 130.563 227.94 132.185 227.94 133.877C227.94 134.715 227.775 135.544 227.455 136.318C227.134 137.092 226.664 137.795 226.072 138.387C225.48 138.98 224.777 139.45 224.003 139.77C223.229 140.091 222.399 140.256 221.562 140.256Z" fill="#455A64"/>
<path d="M207.929 133.764C207.941 133.562 208.008 133.368 208.121 133.2L208.279 132.969L208.612 132.636L209.001 132.354C209.537 132.013 210.135 131.781 210.76 131.672C212.203 131.384 213.689 131.384 215.131 131.672C215.749 131.777 216.34 132.006 216.869 132.343C217.004 132.433 217.139 132.535 217.269 132.631L217.596 132.958C217.682 133.081 217.761 133.209 217.833 133.341C217.888 133.477 217.933 133.616 217.968 133.759H215.109C215.087 133.761 215.064 133.757 215.045 133.746C215.025 133.735 215.01 133.717 215.002 133.697C214.924 133.545 214.807 133.417 214.663 133.324C214.52 133.232 214.354 133.18 214.184 133.172C213.352 133.118 212.517 133.118 211.685 133.172C211.516 133.179 211.352 133.231 211.209 133.322C211.067 133.413 210.951 133.54 210.873 133.691C210.873 133.73 210.834 133.759 210.777 133.759H207.929V133.764Z" fill="white"/>
<path d="M207.93 135.36V134.317H210.75C210.75 134.379 210.75 134.447 210.75 134.52V135.36C210.757 135.409 210.753 135.46 210.738 135.507C210.723 135.554 210.696 135.597 210.661 135.633C210.626 135.668 210.583 135.694 210.535 135.71C210.488 135.725 210.438 135.729 210.389 135.721H208.285C208.236 135.729 208.186 135.725 208.139 135.71C208.092 135.695 208.049 135.668 208.014 135.633C207.979 135.597 207.953 135.554 207.939 135.507C207.924 135.459 207.921 135.409 207.93 135.36Z" fill="white"/>
<path d="M215.132 135.394C215.132 135.039 215.132 134.684 215.132 134.334H217.924V134.396C217.924 134.723 217.924 135.056 217.924 135.383C217.929 135.43 217.924 135.478 217.908 135.523C217.893 135.568 217.867 135.609 217.833 135.642C217.8 135.676 217.759 135.701 217.714 135.717C217.669 135.733 217.621 135.738 217.574 135.733H215.448C215.404 135.735 215.36 135.727 215.319 135.71C215.279 135.694 215.242 135.668 215.212 135.636C215.182 135.604 215.159 135.566 215.146 135.524C215.132 135.482 215.127 135.438 215.132 135.394Z" fill="white"/>
<path d="M149.99 247.596H146.121V250.123H149.99V247.596Z" fill="#455A64"/>
<path d="M155.004 247.427H151.135V249.953H155.004V247.427Z" fill="#455A64"/>
<path d="M160.024 247.258H156.155V249.785H160.024V247.258Z" fill="#455A64"/>
<path d="M165.043 247.094H161.174V249.621H165.043V247.094Z" fill="#455A64"/>
<path d="M170.063 246.925H166.194V249.452H170.063V246.925Z" fill="#455A64"/>
<path d="M175.082 246.761H171.213V249.288H175.082V246.761Z" fill="#455A64"/>
<path d="M180.102 246.592H176.233V249.119H180.102V246.592Z" fill="#455A64"/>
<path d="M185.122 246.423H181.252V248.95H185.122V246.423Z" fill="#455A64"/>
<path d="M190.136 246.259H186.267V248.786H190.136V246.259Z" fill="#455A64"/>
<path d="M191.089 251.572H145.168V248.499L191.089 247.218V251.572Z" fill="#37474F"/>
<path d="M235.904 239.452H160.103L172.155 183.018H247.957L235.904 239.452Z" fill="#455A64"/>
<path d="M238.707 239.452H162.906L174.958 183.018H250.76L238.707 239.452Z" fill="#37474F"/>
<path d="M211.638 211.134C213.694 209.234 214.045 206.269 212.422 204.512C210.798 202.755 207.815 202.871 205.758 204.772C203.702 206.672 203.351 209.637 204.974 211.394C206.598 213.151 209.581 213.035 211.638 211.134Z" fill="#3A5036"/>
<path d="M217.27 254.189H179.989V251.29L217.27 250.089V254.189Z" fill="#455A64"/>
<path d="M227.405 254.184H207.388L195.33 222.56H215.346L227.405 254.184Z" fill="#455A64"/>
<path d="M230.698 254.184H210.682L198.629 222.56H218.646L230.698 254.184Z" fill="#3A5036"/>
<path d="M143.752 254.956H105.316C102.039 254.956 106.782 245.616 118.756 242.035C130.73 238.454 147.531 251.454 143.752 254.956Z" fill="#37474F"/>
<path d="M128.671 254.956C128.702 253.892 128.878 252.837 129.195 251.82C129.505 250.796 129.939 249.813 130.487 248.893C131.039 247.969 131.727 247.135 132.529 246.417C133.322 245.697 134.236 245.124 135.23 244.725C134.819 245.063 134.35 245.289 133.972 245.667L133.408 246.169L132.844 246.733C132.132 247.476 131.507 248.3 130.983 249.186C130.451 250.073 129.994 251.003 129.618 251.967C129.236 252.941 128.919 253.939 128.671 254.956Z" fill="#3A5036"/>
<path d="M133.222 246.067C135.505 246.823 137.666 247.908 139.635 249.288C140.63 249.976 141.531 250.791 142.314 251.713C142.699 252.184 143.03 252.697 143.301 253.241C143.569 253.785 143.723 254.379 143.752 254.984C143.618 254.41 143.383 253.864 143.059 253.371C142.752 252.877 142.392 252.418 141.987 252.001C141.165 251.168 140.268 250.413 139.308 249.745C138.355 249.057 137.345 248.442 136.336 247.833C135.828 247.528 135.309 247.235 134.79 246.953C134.271 246.671 133.747 246.355 133.222 246.067Z" fill="#3A5036"/>
<path d="M146.505 126.838C146.173 129.983 144.974 132.975 143.041 135.479C141.109 137.983 138.518 139.901 135.559 141.018C132.6 142.136 129.389 142.41 126.283 141.809C123.178 141.208 120.3 139.756 117.972 137.616L109.416 138.89L113.691 131.508C112.623 128.907 112.22 126.08 112.518 123.284C112.737 121.043 113.397 118.866 114.461 116.881C115.525 114.895 116.971 113.14 118.716 111.715C120.461 110.291 122.47 109.226 124.629 108.581C126.787 107.937 129.051 107.726 131.292 107.96C133.532 108.194 135.704 108.869 137.682 109.947C139.66 111.024 141.406 112.482 142.818 114.236C144.231 115.991 145.282 118.008 145.912 120.17C146.542 122.333 146.737 124.599 146.488 126.838H146.505Z" fill="white"/>
<path d="M146.505 126.838C146.176 129.986 144.984 132.982 143.059 135.495C142.58 136.12 142.064 136.715 141.513 137.277C140.942 137.82 140.339 138.328 139.708 138.8C138.452 139.757 137.066 140.53 135.591 141.096C134.118 141.673 132.57 142.041 130.995 142.19C130.205 142.264 129.412 142.279 128.62 142.235C127.827 142.217 127.037 142.136 126.257 141.993C123.104 141.414 120.175 139.969 117.797 137.819L118 137.881L109.467 139.195L108.852 139.308L109.162 138.744L113.415 131.339V131.632C112.417 129.206 111.986 126.584 112.154 123.967C112.321 121.349 113.084 118.804 114.384 116.525C115.684 114.247 117.486 112.295 119.654 110.818C121.821 109.341 124.298 108.378 126.894 108.002C129.49 107.626 132.137 107.847 134.635 108.648C137.133 109.45 139.415 110.811 141.307 112.627C143.2 114.443 144.653 116.667 145.557 119.13C146.46 121.592 146.79 124.229 146.522 126.838H146.505ZM146.505 126.838C146.772 124.267 146.448 121.67 145.556 119.245C144.664 116.819 143.228 114.63 141.359 112.846C139.489 111.061 137.236 109.729 134.772 108.951C132.308 108.172 129.698 107.969 127.143 108.356C124.609 108.734 122.195 109.687 120.087 111.142C118.002 112.609 116.259 114.51 114.977 116.714C113.716 118.929 112.972 121.401 112.8 123.945C112.642 126.493 113.057 129.044 114.013 131.412L114.075 131.564L113.99 131.7L109.692 139.071L109.388 138.62L117.938 137.424H118.057L118.141 137.503C120.423 139.639 123.255 141.098 126.319 141.716C127.083 141.87 127.858 141.964 128.637 141.998C129.415 142.052 130.195 142.052 130.972 141.998C132.533 141.879 134.069 141.541 135.535 140.994C137.009 140.462 138.396 139.715 139.652 138.778C140.281 138.31 140.884 137.807 141.457 137.272C142.009 136.716 142.527 136.126 143.008 135.507C144.954 132.997 146.165 129.996 146.505 126.838Z" fill="#3A5036"/>
<path d="M139.043 125.58C139.044 125.989 138.924 126.39 138.697 126.731C138.47 127.073 138.147 127.339 137.769 127.496C137.391 127.654 136.975 127.696 136.573 127.616C136.171 127.537 135.802 127.34 135.512 127.051C135.222 126.762 135.024 126.393 134.944 125.991C134.863 125.59 134.904 125.173 135.06 124.795C135.217 124.416 135.482 124.093 135.823 123.865C136.163 123.637 136.564 123.516 136.973 123.516C137.245 123.515 137.514 123.568 137.765 123.671C138.016 123.775 138.244 123.926 138.436 124.118C138.629 124.31 138.781 124.538 138.885 124.789C138.989 125.039 139.043 125.308 139.043 125.58Z" fill="#3A5036"/>
<path d="M131.632 125.58C131.633 125.99 131.512 126.391 131.285 126.732C131.058 127.073 130.735 127.339 130.357 127.497C129.978 127.654 129.562 127.696 129.16 127.616C128.758 127.536 128.388 127.339 128.098 127.049C127.809 126.759 127.611 126.39 127.532 125.988C127.452 125.586 127.493 125.169 127.651 124.791C127.808 124.412 128.074 124.089 128.416 123.862C128.757 123.635 129.158 123.515 129.568 123.516C130.115 123.516 130.64 123.733 131.027 124.12C131.414 124.507 131.632 125.032 131.632 125.58Z" fill="#3A5036"/>
<path d="M124.227 125.58C124.228 125.989 124.107 126.39 123.881 126.731C123.654 127.072 123.331 127.339 122.953 127.496C122.575 127.654 122.158 127.696 121.756 127.616C121.355 127.537 120.985 127.34 120.695 127.051C120.405 126.762 120.207 126.393 120.127 125.991C120.047 125.59 120.087 125.173 120.244 124.795C120.4 124.416 120.666 124.093 121.006 123.865C121.347 123.637 121.747 123.516 122.157 123.516C122.705 123.516 123.23 123.733 123.618 124.12C124.006 124.507 124.225 125.032 124.227 125.58Z" fill="#3A5036"/>
<path d="M153.741 38.2789C154.073 41.4244 155.271 44.416 157.204 46.9202C159.136 49.4244 161.726 51.3428 164.684 52.4615C167.643 53.5802 170.854 53.8554 173.959 53.2562C177.065 52.6571 179.944 51.2072 182.274 49.0682L190.813 50.3203L186.543 42.9375C187.522 40.5334 187.94 37.9378 187.766 35.3478C187.591 32.7579 186.829 30.2418 185.536 27.9908C184.243 25.7398 182.454 23.8131 180.305 22.3572C178.156 20.9012 175.704 19.9543 173.134 19.5885C170.564 19.2226 167.944 19.4474 165.474 20.2457C163.004 21.0441 160.749 22.395 158.879 24.1958C157.01 25.9966 155.575 28.1999 154.685 30.6382C153.794 33.0766 153.472 35.6858 153.741 38.2676V38.2789Z" fill="white"/>
<path d="M158.851 24.173C160.711 22.3387 162.967 20.9565 165.446 20.1331C167.925 19.3097 170.56 19.0671 173.148 19.4241C175.754 19.7678 178.247 20.7035 180.435 22.1595C183.75 24.3724 186.198 27.6632 187.365 31.4745C188.532 35.2858 188.345 39.3832 186.836 43.0726V42.7793L191.078 50.1959L191.388 50.7599L190.773 50.664L182.234 49.3556L182.437 49.2935C180.06 51.4434 177.13 52.8886 173.977 53.4671C173.197 53.6101 172.407 53.6912 171.614 53.7096C170.824 53.751 170.033 53.7359 169.245 53.6645C166.082 53.3629 163.064 52.1917 160.526 50.2805C159.895 49.8087 159.292 49.3002 158.721 48.7577C158.171 48.1944 157.655 47.5993 157.176 46.9755C154.619 43.6351 153.376 39.4731 153.683 35.2779C153.99 31.0826 155.824 27.1455 158.839 24.2124L158.851 24.173ZM157.238 46.8965C157.718 47.5143 158.236 48.1019 158.789 48.6562C159.359 49.1948 159.961 49.6977 160.593 50.1621C161.849 51.1041 163.239 51.8531 164.716 52.3842C166.181 52.9284 167.715 53.2663 169.273 53.3882C170.053 53.4417 170.835 53.4417 171.614 53.3882C172.391 53.3537 173.164 53.2594 173.926 53.1062C176.991 52.4883 179.822 51.0294 182.104 48.8931L182.189 48.8141H182.307L190.858 50.0098L190.553 50.461L186.255 43.0895L186.171 42.9485L186.233 42.7962C187.19 40.4379 187.601 37.8933 187.434 35.3535C187.267 32.8138 186.527 30.3448 185.268 28.1322C183.988 25.9269 182.245 24.0257 180.159 22.5599C178.052 21.1057 175.64 20.1527 173.109 19.7738C169.762 19.2571 166.338 19.7584 163.28 21.2126C160.222 22.6668 157.672 25.0068 155.961 27.9287C154.249 30.8505 153.456 34.2194 153.684 37.5978C153.912 40.9762 155.15 44.2081 157.238 46.874V46.8965Z" fill="#3A5036"/>
<path d="M172.246 38.5885V40.7205C172.25 40.9328 172.212 41.1439 172.133 41.341C172.054 41.5381 171.935 41.7172 171.785 41.8674C171.635 42.0175 171.456 42.1358 171.259 42.2149C171.062 42.2941 170.851 42.3325 170.638 42.3279C170.212 42.3264 169.804 42.1565 169.503 41.8554C169.202 41.5543 169.032 41.1463 169.031 40.7205V37.3365C169.031 37.3026 169.065 37.3026 169.065 37.2688C169.065 37.2349 169.031 37.2349 169.031 37.2067C169.042 36.784 169.215 36.3818 169.514 36.0828C169.813 35.7837 170.216 35.6107 170.638 35.5993C171.144 35.639 171.652 35.5737 172.131 35.4075C172.61 35.2413 173.05 34.9777 173.422 34.6334C173.795 34.2891 174.092 33.8715 174.295 33.4068C174.498 32.9422 174.603 32.4405 174.603 31.9333C174.603 31.4262 174.498 30.9245 174.295 30.4598C174.092 29.9952 173.795 29.5776 173.422 29.2333C173.05 28.889 172.61 28.6254 172.131 28.4592C171.652 28.293 171.144 28.2277 170.638 28.2673C170.001 28.2648 169.375 28.4303 168.822 28.7472C168.27 29.064 167.811 29.5211 167.491 30.0721C167.381 30.2588 167.236 30.4216 167.062 30.5513C166.889 30.6809 166.691 30.7747 166.481 30.8272C166.271 30.8797 166.053 30.8899 165.839 30.8571C165.625 30.8243 165.42 30.7492 165.235 30.6361C165.053 30.5291 164.894 30.3872 164.768 30.2186C164.641 30.05 164.548 29.858 164.496 29.6536C164.444 29.4492 164.432 29.2364 164.462 29.0276C164.492 28.8187 164.563 28.6179 164.671 28.4365C165.242 27.4462 166.05 26.6133 167.022 26.0128C167.995 25.4124 169.102 25.0633 170.243 24.997C171.384 24.9306 172.524 25.1492 173.559 25.6328C174.595 26.1165 175.494 26.8502 176.176 27.7678C176.857 28.6854 177.3 29.7581 177.464 30.8893C177.628 32.0205 177.508 33.1748 177.114 34.2481C176.721 35.3213 176.067 36.28 175.211 37.0377C174.356 37.7954 173.325 38.3283 172.212 38.5885H172.246ZM172.246 45.7683V46.3323C172.251 46.5448 172.213 46.7563 172.134 46.9537C172.055 47.1512 171.937 47.3306 171.787 47.4809C171.637 47.6313 171.457 47.7495 171.26 47.8284C171.062 47.9072 170.851 47.9451 170.638 47.9397C170.212 47.9397 169.803 47.7703 169.502 47.4689C169.2 47.1674 169.031 46.7586 169.031 46.3323V45.7683C169.037 45.3438 169.208 44.9383 169.508 44.6381C169.808 44.3379 170.214 44.1667 170.638 44.1609C170.85 44.1586 171.06 44.1986 171.256 44.2786C171.452 44.3586 171.63 44.4769 171.78 44.6266C171.93 44.7763 172.048 44.9544 172.128 45.1505C172.208 45.3465 172.248 45.5565 172.246 45.7683Z" fill="#91C788"/>
</svg>
