<svg width="40" height="40" viewBox="0 0 40 40" fill="none" xmlns="http://www.w3.org/2000/svg">
<path d="M16.5255 5.27051V34.7289C16.5255 35.9128 15.5077 36.889 14.1959 37.0194C14.0966 37.0307 13.9956 37.0355 13.8927 37.0355C11.4326 37.0355 9.20583 36.1623 7.59272 34.749C5.98149 33.3374 4.98384 31.3857 4.98384 29.2303V10.7691C4.98384 6.4584 8.97247 2.96387 13.8927 2.96387C13.9956 2.96387 14.0966 2.96871 14.1959 2.97996C14.8995 3.04996 15.5177 3.36309 15.9412 3.82098C16.3068 4.21691 16.5255 4.7216 16.5255 5.27051Z" fill="#D8AD8F"/>
<path d="M15.1732 8.5682C14.4392 9.19836 14.0304 10.0507 14.0239 10.9674C14.0175 11.8841 14.4125 12.7397 15.1373 13.3779C15.5369 13.7304 16.01 13.996 16.5254 14.1634V31.2773C16.1303 31.5486 15.6453 31.6959 15.1346 31.6959C14.5292 31.6959 13.9587 31.489 13.5297 31.1132L10.5865 28.5345C10.0077 28.0266 9.78723 27.2766 10.0114 26.5764C10.1675 26.087 10.0095 25.5591 9.59801 25.1985C9.29393 24.9321 8.88883 24.7848 8.45893 24.7848C8.311 24.7848 8.16494 24.8026 8.02262 24.8372C7.81868 24.8871 7.60833 24.9128 7.39797 24.9128C6.78804 24.9128 6.21753 24.7068 5.7904 24.3325L4.98384 23.6259V10.8306L12.8619 3.92758C13.2909 3.5525 13.8605 3.3457 14.4668 3.3457C15.0143 3.3457 15.5306 3.51391 15.9411 3.82133C16.3067 4.21727 16.5254 4.72195 16.5254 5.27086V7.7875C16.4464 7.83016 16.3628 7.86875 16.2774 7.90336C15.8695 8.06516 15.4984 8.28891 15.1732 8.5682Z" fill="#D8AD8F"/>
<path d="M16.5255 8.9525V32.5815C15.6684 32.8616 14.7553 33.0073 13.8459 33.0073C13.314 33.0073 12.7784 32.959 12.2548 32.8616C10.2421 32.4905 8.51506 31.4547 7.39248 29.9448C6.26901 28.4358 5.88406 26.633 6.30851 24.8704C6.64656 23.4635 7.46319 22.2217 8.65282 21.2769C8.00883 20.1276 7.81408 18.8157 8.1219 17.5368C8.50774 15.9304 9.63299 14.5727 11.2112 13.7541C11.18 13.3436 11.2131 12.9291 11.3105 12.5243C11.8084 10.4527 13.9221 8.94922 16.3363 8.94922C16.3996 8.9493 16.4621 8.95008 16.5255 8.9525Z" fill="#D8AD8F"/>
<path d="M16.5253 5.27102V34.7294C16.5253 35.9133 15.5075 36.8895 14.1957 37.0199C14.0882 36.6199 14.0312 36.2022 14.0312 35.7741V4.22633C14.0312 3.79813 14.0882 3.38047 14.1957 2.98047C15.5074 3.11078 16.5253 4.08711 16.5253 5.27102Z" fill="#D8AD8F"/>
<path d="M35.482 10.7691V29.2303C35.482 33.541 31.4934 37.0355 26.5732 37.0355C26.4703 37.0355 26.3692 37.0307 26.27 37.0194C25.5563 36.9486 24.9288 36.6267 24.5063 36.1575C24.1516 35.7647 23.9404 35.2681 23.9404 34.7289V5.27051C23.9404 4.0866 24.9582 3.11035 26.27 2.97996C26.3692 2.96871 26.4703 2.96387 26.5732 2.96387C29.0332 2.96387 31.26 3.83707 32.8731 5.25035C34.4843 6.66199 35.482 8.61371 35.482 10.7691Z" fill="#D8AD8F"/>
<path d="M35.4821 15.7268V26.1919C35.358 26.1654 35.2304 26.1517 35.1009 26.1517C34.671 26.1517 34.2668 26.2989 33.9627 26.5654C33.5512 26.9259 33.3932 27.4547 33.5502 27.9456C33.7725 28.6458 33.5521 29.3951 32.9733 29.9021L26.4694 35.5996C26.0413 35.9754 25.4708 36.1822 24.8646 36.1822C24.7433 36.1822 24.6239 36.1742 24.5063 36.1573C24.1516 35.7646 23.9404 35.2679 23.9404 34.7287V8.40441C24.3675 8.03582 24.9316 7.83301 25.5324 7.83301C26.1386 7.83301 26.7082 8.03981 27.1372 8.41488L35.4821 15.7268Z" fill="#D8AD8F"/>
<path d="M30.9954 19.0623C31.6394 20.2124 31.8342 21.5235 31.5264 22.8023C31.1396 24.4087 30.0153 25.7665 28.4361 26.5851C28.4673 26.9955 28.4352 27.41 28.3379 27.8148C27.8832 29.7037 26.0845 31.1211 23.9404 31.3552V7.53563C24.5494 7.40125 25.1768 7.33203 25.8025 7.33203C26.3344 7.33203 26.8689 7.38109 27.3935 7.47766C29.4053 7.84867 31.1323 8.88453 32.2558 10.3944C33.3784 11.9034 33.7632 13.7063 33.3397 15.4688C33.0017 16.8756 32.1841 18.1175 30.9954 19.0623Z" fill="#D8AD8F"/>
<path d="M26.4344 4.22633V35.774C26.4344 36.2022 26.3774 36.6198 26.27 37.0198C24.9582 36.8895 23.9404 35.9132 23.9404 34.7293V5.27102C23.9404 4.08711 24.9582 3.11086 26.27 2.98047C26.3775 3.38047 26.4344 3.79813 26.4344 4.22633Z" fill="#D8AD8F"/>
<path d="M39.7382 22.2685L38.6965 23.182L36.7949 24.8472C36.5625 25.0508 36.2245 25.12 35.9075 25.042C34.9025 24.7957 33.7781 25.0194 32.9881 25.7132C32.1972 26.4062 31.9418 27.3905 32.2229 28.2718C32.3111 28.5478 32.2312 28.8456 31.9987 29.0492L25.4949 34.7474C25.1476 35.0524 24.5826 35.0524 24.2345 34.7474L22.9539 33.6255V19.8316C22.998 19.4863 22.998 19.137 22.9539 18.7917V10.9768L24.3998 9.71078L24.9023 9.26977C25.2504 8.96477 25.8145 8.96477 26.1627 9.26977L39.7381 21.1635C40.0873 21.4685 40.0873 21.9627 39.7382 22.2685Z" fill="#FFBC2E"/>
<path d="M30.9955 19.0629C31.6395 20.213 31.8342 21.5241 31.5264 22.8029C31.1397 24.4093 30.0153 25.767 28.4362 26.5856C28.4674 26.9961 28.4353 27.4105 28.3379 27.8154C27.8391 29.887 25.7254 31.3905 23.3112 31.3905C23.1927 31.3905 23.0724 31.3864 22.9539 31.3792V19.8316C22.998 19.4862 22.998 19.137 22.9539 18.7917V10.9768L24.3998 9.71078L24.9023 9.26977C25.2504 8.96477 25.8145 8.96477 26.1627 9.26977L33.3215 15.5418C32.9733 16.9188 32.164 18.1341 30.9955 19.0629Z" fill="#FFBC2E"/>
<path d="M29.3977 28.3789C29.2214 28.3789 29.0451 28.3199 28.9106 28.2021C28.6415 27.9663 28.6415 27.5842 28.9106 27.3484L29.0329 27.2412C29.302 27.0055 29.7382 27.0055 30.0073 27.2412C30.2764 27.477 30.2764 27.8591 30.0073 28.0949L29.885 28.2021C29.7504 28.32 29.5741 28.3789 29.3977 28.3789Z" fill="#D17D00"/>
<path d="M27.6345 19.0049C27.4582 19.0049 27.2818 18.9459 27.1474 18.8281C26.8782 18.5923 26.8782 18.2102 27.1474 17.9743L27.2697 17.8671C27.5387 17.6315 27.975 17.6315 28.2441 17.8671C28.5132 18.1029 28.5132 18.485 28.2441 18.7209L28.1217 18.8281C27.9872 18.9459 27.8109 19.0049 27.6345 19.0049Z" fill="#E21717"/>
<path d="M25.8048 13.415C25.6285 13.415 25.4521 13.3561 25.3176 13.2382C25.0485 13.0025 25.0485 12.6204 25.3176 12.3845L25.44 12.2773C25.709 12.0417 26.1452 12.0417 26.4143 12.2773C26.6835 12.5131 26.6835 12.8952 26.4143 13.1311L26.292 13.2382C26.1573 13.3561 25.9811 13.415 25.8048 13.415Z" fill="#E21717"/>
<path d="M28.1054 21.3653C27.929 21.3653 27.7527 21.3063 27.6182 21.1884C27.3492 20.9526 27.3493 20.5704 27.6184 20.3347L27.7408 20.2275C28.0099 19.9918 28.4461 19.9919 28.7152 20.2276C28.9842 20.4634 28.9841 20.8456 28.715 21.0814L28.5926 21.1886C28.458 21.3064 28.2817 21.3653 28.1054 21.3653Z" fill="#E21717"/>
<path d="M34.1506 20.835C33.9743 20.835 33.798 20.776 33.6635 20.6582C33.3944 20.4224 33.3944 20.0403 33.6635 19.8044L33.7858 19.6972C34.0549 19.4616 34.4911 19.4616 34.7602 19.6972C35.0293 19.933 35.0293 20.3151 34.7602 20.551L34.6379 20.6582C34.5033 20.7761 34.327 20.835 34.1506 20.835Z" fill="#D17D00"/>
<path d="M18.425 15.558V27.9283L18.0153 28.2873L15.7647 30.2591C15.4174 30.5649 14.8534 30.5649 14.5043 30.2591L11.561 27.6804C11.3287 27.4768 11.2487 27.1806 11.3379 26.903C11.6189 26.0225 11.3635 25.0373 10.5727 24.3445C9.78173 23.6515 8.65826 23.4286 7.65241 23.6748C7.35475 23.7465 7.03695 23.6902 6.80724 23.513C6.79253 23.5018 6.7788 23.4905 6.76498 23.4784L0.261093 17.7802C-0.0870311 17.4752 -0.0870311 16.981 0.261093 16.6752L13.8365 4.78148C14.1846 4.47648 14.7496 4.47648 15.0978 4.78148L15.9658 5.54289C16.4059 5.92758 16.2718 6.57953 15.7068 6.80484C15.1657 7.01977 14.6577 7.3207 14.2094 7.70547C13.3772 8.42016 12.8765 9.32641 12.7093 10.272C12.4613 11.6724 12.9436 13.1573 14.1607 14.2294C15.2208 15.163 16.6236 15.6129 18.0153 15.5815C18.1521 15.5782 18.289 15.5709 18.425 15.558Z" fill="#FFBC2E"/>
<path d="M18.0153 15.5809V28.2868L15.7647 30.2586C15.4175 30.5645 14.8535 30.5645 14.5044 30.2586L11.5611 27.6799C11.3287 27.4763 11.2488 27.1802 11.3379 26.9025C11.619 26.022 11.3636 25.0369 10.5727 24.344C9.7818 23.651 8.65833 23.4281 7.65248 23.6744C7.35482 23.746 7.03702 23.6897 6.80731 23.5126C7.23819 22.6619 7.86283 21.9038 8.6528 21.2768C8.0088 20.1275 7.81405 18.8156 8.12187 17.5367C8.50772 15.9303 9.63297 14.5726 11.2112 13.754C11.18 13.3435 11.2131 12.9291 11.3105 12.5242C11.5208 11.6486 12.0205 10.8735 12.7096 10.2715C12.4616 11.6719 12.9438 13.1568 14.161 14.2288C15.2209 15.1624 16.6236 15.6123 18.0153 15.5809Z" fill="#FFBC2E"/>
<path d="M8.34106 21.9102C8.16477 21.9102 7.98839 21.8512 7.85392 21.7334L7.73158 21.6262C7.46246 21.3904 7.46246 21.0083 7.73158 20.7724C8.00061 20.5368 8.43683 20.5368 8.70595 20.7724L8.82829 20.8796C9.09741 21.1154 9.09741 21.4975 8.82829 21.7334C8.69365 21.8512 8.51735 21.9102 8.34106 21.9102Z" fill="#D17D00"/>
<path d="M9.64415 13.6055C9.46786 13.6055 9.29148 13.5465 9.15701 13.4287L9.03466 13.3215C8.76554 13.0857 8.76554 12.7036 9.03466 12.4677C9.30369 12.2321 9.73992 12.2321 10.009 12.4677L10.1314 12.5749C10.4005 12.8107 10.4005 13.1928 10.1314 13.4287C9.99682 13.5465 9.82053 13.6055 9.64415 13.6055Z" fill="#D17D00"/>
<path d="M7.41835 19.4551C7.24206 19.4551 7.06568 19.3961 6.93121 19.2783L6.80886 19.1711C6.53975 18.9353 6.53975 18.5532 6.80886 18.3173C7.07789 18.0817 7.51412 18.0817 7.78324 18.3173L7.90558 18.4245C8.1747 18.6603 8.1747 19.0424 7.90558 19.2783C7.77102 19.3962 7.59464 19.4551 7.41835 19.4551Z" fill="#D17D00"/>
<path d="M16.3463 20.7783C16.17 20.7783 15.9936 20.7193 15.8591 20.6015L15.7368 20.4943C15.4677 20.2586 15.4677 19.8764 15.7368 19.6406C16.0058 19.405 16.4421 19.405 16.7112 19.6406L16.8335 19.7478C17.1026 19.9836 17.1026 20.3657 16.8335 20.6015C16.699 20.7193 16.5227 20.7783 16.3463 20.7783Z" fill="#E21717"/>
<path d="M16.9517 26.0742C16.7754 26.0742 16.5991 26.0153 16.4647 25.8975L16.3422 25.7903C16.0731 25.5546 16.073 25.1725 16.3421 24.9366C16.6111 24.7009 17.0473 24.7008 17.3164 24.9364L17.4389 25.0436C17.708 25.2793 17.7081 25.6615 17.439 25.8974C17.3045 26.0153 17.1281 26.0742 16.9517 26.0742Z" fill="#E21717"/>
<path d="M31.9911 15.2197C31.6227 16.7505 30.5654 17.9972 29.1644 18.7682C30.0923 19.7984 30.5111 21.1682 30.1777 22.5525C29.7955 24.1437 28.5131 25.3646 26.8964 25.8974C27.0847 26.4205 27.1279 26.9911 26.9891 27.5658C26.8862 27.9907 26.6951 28.3795 26.4343 28.72C25.6911 29.693 24.3876 30.2693 23.0097 30.1719V9.11191C24.044 8.66363 25.2235 8.46004 26.4343 8.56707C26.6585 8.58637 26.8835 8.61699 27.1095 8.65879C30.5249 9.28894 32.7113 12.2266 31.9911 15.2197Z" fill="#72B766"/>
<path d="M26.4343 8.56707V28.72C25.6911 29.693 24.3876 30.2693 23.0097 30.1719V9.11191C24.044 8.66363 25.2236 8.46004 26.4343 8.56707Z" fill="#72B766"/>
<path d="M16.6372 10.1678V31.2278C15.838 31.5739 14.9506 31.775 14.0311 31.7992C13.5406 31.8121 13.0399 31.7742 12.5384 31.6817C9.12204 31.0506 6.93663 28.1131 7.65589 25.1199C8.02425 23.5899 9.08156 22.3424 10.4834 21.5714C9.55559 20.5412 9.13675 19.1714 9.46927 17.7871C9.85235 16.1967 11.1338 14.975 12.7506 14.4422C12.5623 13.9191 12.52 13.3485 12.6579 12.7738C12.849 11.9794 13.3523 11.313 14.0312 10.8518C14.755 10.3594 15.6782 10.1002 16.6372 10.1678Z" fill="#72B766"/>
<path d="M16.6375 10.1678V31.2278C15.8382 31.5739 14.9509 31.775 14.0314 31.7992V10.8519C14.7553 10.3594 15.6785 10.1002 16.6375 10.1678Z" fill="#72B766"/>
<path d="M20.2328 40C17.5686 40 15.4089 38.1077 15.4089 35.7736V4.22641C15.4089 1.89227 17.5686 0 20.2328 0C22.8971 0 25.0568 1.89227 25.0568 4.22641V35.7736C25.0568 38.1077 22.897 40 20.2328 40Z" fill="#FF4C33"/>
<path d="M25.0567 4.22617V35.7738C25.0567 38.1078 22.897 40 20.233 40C19.9721 40 19.7167 39.9815 19.4668 39.9469C21.7671 39.6258 23.5244 37.8793 23.5244 35.7738V4.22617C23.5244 3.05914 22.9843 2.00242 22.1116 1.23781C21.4097 0.622969 20.492 0.196406 19.4668 0.053125C19.7167 0.0185156 19.9721 0 20.233 0C21.565 0 22.7712 0.473203 23.6439 1.23781C24.5165 2.00242 25.0567 3.05914 25.0567 4.22617Z" fill="#FF4C33"/>
<path d="M19.7951 35.8557C19.6188 35.8557 19.4424 35.7967 19.308 35.6789C18.7651 35.2032 18.4661 34.5708 18.4661 33.8981C18.4661 33.2254 18.7651 32.593 19.308 32.1174L20.1832 31.3505C20.4658 31.1029 20.6215 30.7737 20.6215 30.4235C20.6215 30.0733 20.4659 29.744 20.1832 29.4965L19.308 28.7297C18.1873 27.7477 18.1873 26.1501 19.308 25.1681L20.1832 24.4012C20.4659 24.1537 20.6215 23.8244 20.6215 23.4742C20.6215 23.124 20.4658 22.7947 20.1832 22.5472L19.308 21.7804C18.1873 20.7985 18.1873 19.2008 19.308 18.2189L20.1832 17.452C20.4658 17.2044 20.6215 16.8751 20.6215 16.525C20.6215 16.1747 20.4659 15.8455 20.1832 15.5979L19.308 14.8312C18.1873 13.8492 18.1873 12.2515 19.308 11.2696L20.1832 10.5027C20.4659 10.2551 20.6215 9.92592 20.6215 9.57568C20.6215 9.22553 20.4658 8.89623 20.1832 8.64865L19.308 7.88186C18.765 7.40615 18.4661 6.77373 18.4661 6.10107C18.4661 5.42834 18.7651 4.796 19.308 4.32029C19.5771 4.08459 20.0132 4.08467 20.2824 4.32037C20.5514 4.55607 20.5514 4.93826 20.2824 5.17404C19.9997 5.42162 19.8441 5.75084 19.8441 6.10107C19.8441 6.45131 19.9997 6.78053 20.2824 7.02818L21.1575 7.7949C21.7004 8.27061 21.9994 8.90303 21.9994 9.57568C21.9994 10.2484 21.7004 10.8808 21.1575 11.3565L20.2823 12.1233C19.6988 12.6344 19.6988 13.4662 20.2823 13.9775L21.1574 14.7442C21.7004 15.2199 21.9993 15.8522 21.9993 16.525C21.9993 17.1976 21.7004 17.8301 21.1574 18.3058L20.2822 19.0726C19.6987 19.5837 19.6987 20.4154 20.2822 20.9267L21.1573 21.6934C21.7003 22.1691 21.9993 22.8015 21.9993 23.4742C21.9993 24.1469 21.7003 24.7793 21.1573 25.255L20.2821 26.0218C19.6986 26.5329 19.6986 27.3647 20.2821 27.876L21.1572 28.6427C21.7002 29.1184 21.9992 29.7508 21.9992 30.4235C21.9992 31.0962 21.7002 31.7286 21.1572 32.2043L20.282 32.9711C19.9993 33.2187 19.8437 33.5479 19.8437 33.8981C19.8437 34.2483 19.9993 34.5776 20.282 34.8251C20.551 35.0608 20.5511 35.443 20.282 35.6788C20.1478 35.7967 19.9715 35.8557 19.7951 35.8557Z" fill="#F9E8D4"/>
</svg>
