<svg width="39" height="38" viewBox="0 0 39 38" fill="none" xmlns="http://www.w3.org/2000/svg">
<g id="freepik  Jars  inject 81">
<path id="Vector" d="M38.4797 9.84269V33.9368C38.4797 35.657 37.8424 37.067 37.0528 37.067H27.7806H18.5028C17.7132 37.067 17.0815 35.6739 17.0815 33.9537V9.84269C17.0815 8.11685 17.7132 6.72377 18.5028 6.72377H19.3545V4.46777H27.7806H36.2011V6.72377H37.0528C37.8424 6.72377 38.4797 8.11685 38.4797 9.84269Z" fill="#91C788"/>
<path id="Vector_2" d="M36.7879 0.762695H18.7568V4.81784H36.7879V0.762695Z" fill="#37474F"/>
<path id="Vector_3" d="M38.4797 14.9473H17.0815V30.1696H38.4797V14.9473Z" fill="#EBEBEB"/>
<path id="Vector_4" d="M14.7016 32.8208C14.7016 35.9792 13.5172 37.0678 12.9137 37.0678H7.60644H2.63196C2.02284 37.0678 0.832788 35.9849 0.827148 32.8265C0.827148 29.0759 3.50615 26.8312 3.50615 24.7838C3.50615 23.4472 2.21459 19.3018 2.76731 19.3018H12.7219C13.2859 19.3018 12 23.4472 12 24.7782C12.0056 26.8368 14.6959 29.0759 14.7016 32.8208Z" fill="#EBEBEB"/>
<path id="Vector_5" d="M3.529 16.5481L11.927 16.5364C12.2486 16.5359 12.5572 16.6633 12.7849 16.8904C13.0126 17.1174 13.1408 17.4257 13.1413 17.7473L13.1447 20.212C13.1447 20.2344 13.1358 20.256 13.12 20.2718C13.1042 20.2877 13.0827 20.2967 13.0602 20.2967L2.40626 20.3116C2.38382 20.3116 2.3623 20.3027 2.34641 20.2869C2.33052 20.271 2.32157 20.2495 2.32154 20.2271L2.3181 17.7624C2.31765 17.4408 2.44498 17.1322 2.67207 16.9045C2.89916 16.6768 3.2074 16.5486 3.529 16.5481Z" fill="#37474F"/>
</g>
</svg>
