<svg width="46" height="57" viewBox="0 0 46 57" fill="none" xmlns="http://www.w3.org/2000/svg">
<g id="freepik  Oil  inject 86">
<path id="Vector" d="M40.2447 32.6845C45.6084 25.9165 45.4335 24.546 45.3602 23.9482C45.3602 23.7902 42.5684 8.02643 37.5657 8.02643H27.7239C27.7577 6.1314 27.8142 4.67628 27.8593 4.34916C28.0567 2.90532 28.7504 1.52916 29.8558 1.52916C30.9613 1.52916 30.9838 0.169922 29.8558 0.169922H9.30931C8.20951 0.169922 8.20951 1.52916 9.30931 1.52916C10.4091 1.52916 14.515 3.11401 15.1298 3.91489C15.7446 4.71577 15.9194 16.5992 15.7671 19.2952C15.6148 21.9911 3.19554 28.9283 1.42458 37.0555C-0.346376 45.1827 3.97387 56.7617 21.7906 56.7617C39.6074 56.7617 43.922 45.1827 42.1623 37.0555C41.7871 35.4964 41.1378 34.0164 40.2447 32.6845ZM27.8367 19.3121C27.6901 18.2292 27.6619 14.8452 27.6901 11.5627H37.3852C38.9588 12.7866 41.4348 21.5173 41.8465 24.1681C41.5137 25.0367 39.8217 27.4732 38.0564 29.7686C33.832 24.9352 28.0567 21.1056 27.8142 19.3121H27.8367Z" fill="white"/>
<path id="Vector_2" d="M40.2452 32.6845C41.2378 31.4155 42.2135 30.1296 43.1216 28.7986C43.5728 28.133 44.0127 27.4562 44.4018 26.7569C44.822 26.0732 45.1305 25.3268 45.3155 24.546C45.3509 24.1476 45.3127 23.7461 45.2027 23.3616L44.9546 22.1828C44.7854 21.3932 44.5974 20.6093 44.3906 19.8309C43.9901 18.2743 43.5276 16.729 42.9918 15.2118C42.4678 13.6932 41.7932 12.2309 40.9784 10.8464C40.5756 10.1599 40.076 9.53499 39.495 8.99088C39.2169 8.71687 38.8874 8.50055 38.5254 8.3544C38.1634 8.20824 37.7761 8.13512 37.3857 8.13923H27.7187H27.589V8.0095L27.6736 5.67455L27.7131 4.51271C27.7388 4.11792 27.8127 3.72775 27.933 3.35087C28.0454 2.96514 28.2146 2.59827 28.435 2.26234C28.6566 1.90535 28.9867 1.62866 29.3769 1.47274C29.4766 1.43567 29.581 1.41289 29.6871 1.40507H29.9747C30.1363 1.39138 30.2879 1.32153 30.4034 1.20766C30.4521 1.15225 30.4877 1.08657 30.5075 1.01549C30.5273 0.944418 30.5309 0.86979 30.5179 0.797159C30.5049 0.724528 30.4756 0.655762 30.4324 0.595986C30.3891 0.536211 30.3329 0.486963 30.268 0.451905C29.9215 0.345135 29.5568 0.310587 29.1964 0.350389H25.7165H21.0692H11.7744H9.45641C9.08417 0.350389 8.76833 0.44062 8.68373 0.72826C8.66628 0.798445 8.66437 0.871603 8.67816 0.9426C8.69194 1.0136 8.72107 1.08072 8.76351 1.13928C8.80595 1.19784 8.86067 1.24641 8.92386 1.28161C8.98704 1.3168 9.05715 1.33776 9.12928 1.34302C9.27028 1.34302 9.5128 1.34302 9.69328 1.39942C9.87376 1.45582 10.0824 1.47838 10.2573 1.5235C10.6408 1.62502 11.013 1.73783 11.3853 1.86755C12.1242 2.11988 12.8491 2.4117 13.5567 2.74174C13.9145 2.91051 14.2629 3.09879 14.6001 3.30574C14.7762 3.4134 14.9439 3.53407 15.102 3.66671C15.194 3.74675 15.2689 3.84458 15.322 3.95434C15.3652 4.05394 15.3973 4.15797 15.4179 4.26455C15.5629 5.03603 15.659 5.8159 15.7055 6.5995C15.8183 8.1505 15.8747 9.69588 15.9198 11.2469C15.965 12.7979 15.9932 14.3489 15.9988 15.8999C15.9988 16.6726 15.9988 17.4509 15.9988 18.2292C15.9988 18.6183 15.9988 18.9906 15.9537 19.4079C15.8657 19.8262 15.6715 20.2146 15.3897 20.5359C14.3731 21.7238 13.2581 22.8238 12.0564 23.8241C10.8946 24.8506 9.73277 25.8714 8.61041 26.9317C6.38261 29.058 4.22249 31.3196 2.75609 34.0212C2.01106 35.3592 1.53764 36.8312 1.36301 38.3527C1.15729 39.8736 1.17439 41.4164 1.41376 42.9324L1.49273 43.4964C1.53221 43.6825 1.58297 43.8686 1.62809 44.0604L1.90444 45.1884L2.31052 46.2656L2.51357 46.8014L2.77301 47.3147L3.30317 48.3355C3.50621 48.657 3.73744 48.9672 3.95176 49.283C4.3865 49.9145 4.87526 50.5071 5.41252 51.054C5.67332 51.3336 5.9542 51.5937 6.25289 51.8323L7.12709 52.5768C7.77569 52.9885 8.39608 53.4454 9.0616 53.8232C9.72712 54.2011 10.4265 54.5339 11.1428 54.8102C11.859 55.0866 12.5866 55.3742 13.3254 55.566C16.3098 56.3581 19.3928 56.7152 22.4792 56.6263L24.7916 56.5361C25.5586 56.4628 26.3256 56.3443 27.087 56.2484C27.8479 56.1436 28.6014 55.991 29.343 55.7916C29.7153 55.7014 30.0988 55.628 30.471 55.5152L31.5596 55.1317C34.4936 54.1554 37.1076 52.401 39.1228 50.0557C39.371 49.7624 39.5684 49.4297 39.794 49.1195C40.0299 48.8145 40.2393 48.49 40.42 48.1494L40.984 47.1286C41.1556 46.7833 41.3044 46.4272 41.4296 46.0626C41.9914 44.6189 42.3263 43.0968 42.4222 41.5506C42.5253 40.0069 42.4153 38.4564 42.0951 36.9427C41.7274 35.4277 41.1016 33.9872 40.2452 32.6845ZM40.2452 32.6845C41.1135 33.9727 41.7563 35.3993 42.1458 36.9032C42.4809 38.4206 42.6061 39.9767 42.5181 41.528C42.4317 43.082 42.1064 44.6133 41.5537 46.0682C41.4344 46.4379 41.2873 46.798 41.1137 47.1455L40.5497 48.1832C40.369 48.5261 40.1616 48.8543 39.9293 49.1646C39.7037 49.4804 39.5063 49.8188 39.2525 50.1178C37.2445 52.5209 34.6115 54.3225 31.6442 55.3235L30.5444 55.7126C30.1721 55.8254 29.7886 55.8988 29.4164 55.9946C28.6741 56.1945 27.9208 56.3508 27.1604 56.4628C26.3877 56.5586 25.6207 56.6827 24.848 56.756L22.5187 56.8576C19.4051 56.9538 16.2939 56.6024 13.2803 55.8142C12.5358 55.5942 11.8083 55.3066 11.0694 55.0528C10.3306 54.799 9.65944 54.3872 8.95444 54.0545C8.24944 53.7217 7.64032 53.2141 6.98044 52.7968L6.08933 52.0354C5.782 51.7945 5.49352 51.5306 5.22641 51.2458C4.67775 50.6863 4.17598 50.0826 3.72617 49.4409C3.50621 49.1195 3.27496 48.8036 3.06628 48.4765L2.50228 47.4331L2.23157 46.9142L2.02289 46.3502L1.61117 45.2561L1.31789 44.1281C1.27277 43.9363 1.21637 43.7502 1.17689 43.5641L1.09792 43.0001C0.847095 41.4532 0.824296 39.878 1.03025 38.3245C1.20883 36.759 1.69163 35.2435 2.45152 33.8633C3.20136 32.4924 4.09977 31.2081 5.13052 30.0337C6.14418 28.8485 7.22111 27.7188 8.3566 26.6497C9.4846 25.5781 10.6465 24.5516 11.8027 23.5195C12.979 22.5348 14.0713 21.4538 15.0682 20.2878C15.2947 20.0184 15.455 19.6997 15.5363 19.3572C15.5702 19.0019 15.5702 18.5958 15.5814 18.2292C15.5814 17.4565 15.5814 16.6838 15.5814 15.9112C15.5814 14.3658 15.5815 12.8148 15.5194 11.2694C15.4574 9.72406 15.4235 8.17871 15.3164 6.63899C15.2742 5.88228 15.1857 5.12886 15.0513 4.38299C15.0513 4.28711 15.0005 4.20815 14.978 4.13483C14.9422 4.07318 14.8965 4.0179 14.8426 3.97126C14.7037 3.85384 14.5567 3.74642 14.4027 3.64979C14.0764 3.45415 13.7394 3.27715 13.3931 3.11963C12.6982 2.79296 11.9866 2.50303 11.2612 2.25107C10.5468 1.9738 9.79678 1.7991 9.03341 1.73218C8.91521 1.71544 8.8015 1.67542 8.69888 1.61443C8.59626 1.55344 8.50676 1.4727 8.43557 1.37687C8.36082 1.27744 8.31061 1.16174 8.28905 1.03923C8.26748 0.916713 8.27518 0.790852 8.31149 0.671874C8.34863 0.555792 8.41011 0.448961 8.4918 0.358513C8.5735 0.268066 8.67353 0.196068 8.78525 0.14734C8.98761 0.0669571 9.20525 0.0322945 9.42257 0.0458245H11.7462H21.041H25.6883H29.7491C29.968 0.0335556 30.1862 0.0802988 30.3808 0.181179C30.4865 0.23796 30.5777 0.318421 30.6471 0.416259C30.7166 0.514098 30.7625 0.626664 30.7813 0.745179C30.8 0.8625 30.7914 0.982576 30.7562 1.09604C30.721 1.20951 30.6601 1.31332 30.5782 1.39942C30.4192 1.56298 30.2074 1.6649 29.9804 1.68707C29.7894 1.6843 29.5992 1.71092 29.4164 1.76602C29.0807 1.89729 28.7974 2.13505 28.6098 2.44283C28.4044 2.75618 28.2467 3.09831 28.1417 3.45802C27.9483 4.19384 27.8609 4.9535 27.8823 5.71402L27.7977 8.02079L27.668 7.89107H37.3349C38.178 7.88635 38.9888 8.21472 39.5909 8.80475C40.1871 9.36473 40.6982 10.0089 41.1081 10.7167C41.9186 12.118 42.5856 13.5976 43.099 15.1328C43.6292 16.6613 44.0747 18.2123 44.4639 19.7802C44.6557 20.5585 44.8361 21.3481 45.0279 22.1377L45.2648 23.3221C45.3731 23.7166 45.4056 24.1281 45.3607 24.5347C45.1729 25.3236 44.8566 26.0763 44.4244 26.7625C44.024 27.4675 43.5784 28.1387 43.1216 28.7986C42.2305 30.1465 41.2491 31.4211 40.2452 32.6845Z" fill="#3A5036"/>
<path id="Vector_3" d="M27.8147 19.3125C27.7357 18.6696 27.7188 18.0266 27.6906 17.378L27.6455 15.4379V11.5632V11.5237H27.685L37.3801 11.4053H37.4422L37.476 11.4391L37.7975 11.7606C37.8877 11.879 37.9667 12.0031 38.0513 12.1215C38.2107 12.36 38.3576 12.6066 38.4912 12.8604C38.7506 13.368 38.9762 13.8869 39.1962 14.4057C39.6192 15.4548 39.9914 16.5208 40.3242 17.5924C40.657 18.664 40.9954 19.7412 41.2774 20.8297C41.5594 21.9182 41.8414 23.018 42.0106 24.1404V24.1911V24.2363C41.7685 24.7608 41.4837 25.2644 41.1589 25.7421C40.8487 26.2159 40.5216 26.6784 40.1888 27.1409C39.5271 28.0545 38.8465 28.9569 38.1472 29.8481L38.0513 29.9665L37.9498 29.8537C36.3389 28.0116 34.6154 26.2712 32.7892 24.6423C31.8811 23.8189 30.9618 23.0067 30.0707 22.1664C29.6251 21.7434 29.1852 21.3204 28.7791 20.8579C28.3324 20.4324 28.0006 19.9008 27.8147 19.3125ZM27.8147 19.3125C28.0025 19.8967 28.3342 20.4242 28.7791 20.8466C29.1909 21.3035 29.6364 21.7265 30.082 22.1438C30.9844 22.9729 31.9093 23.7794 32.823 24.5859C34.6921 26.1702 36.4644 27.8652 38.1303 29.6619H37.9329C38.6097 28.7595 39.2677 27.8459 39.9068 26.9209C40.2227 26.4528 40.5385 25.9847 40.8374 25.5165C41.1466 25.0579 41.4182 24.575 41.6496 24.0727V24.1686C41.4578 23.0801 41.1815 21.9915 40.8882 20.9087C40.5949 19.8258 40.2847 18.7542 39.952 17.6826C39.6192 16.611 39.2526 15.5563 38.824 14.5185C38.6209 13.9997 38.3953 13.4921 38.1528 12.9901C37.9313 12.5003 37.6302 12.0505 37.2617 11.6591L37.3576 11.6929L27.6624 11.5745L27.7019 11.535C27.6794 12.8284 27.6794 14.12 27.7019 15.4097V17.3498C27.7301 18.021 27.7414 18.6696 27.8147 19.3125Z" fill="#3A5036"/>
<path id="Vector_4" d="M21.3512 54.0323C6.37133 54.0323 2.73917 44.2977 4.22249 37.4733C5.70581 30.6489 18.3225 23.001 18.0574 20.7845C18.0123 20.3502 17.9784 11.659 17.9615 10.751H25.4233C25.4233 11.6985 25.4797 20.3954 25.5304 20.7845C25.8293 22.9954 36.9853 30.632 38.5024 37.4733C40.0196 44.3146 36.331 54.0323 21.3512 54.0323Z" fill="#91C788"/>
</g>
</svg>
