<svg width="40" height="40" viewBox="0 0 40 40" fill="none" xmlns="http://www.w3.org/2000/svg">
<g id="Foods">
<path id="Vector" d="M32.6593 19.5313V28.125C32.6593 28.988 31.8722 29.6875 30.9011 29.6875C30.5805 29.6875 30.2808 29.61 30.022 29.4768V32.8125C30.022 33.6755 29.2348 34.375 28.2637 34.375C27.2926 34.375 26.5055 33.6755 26.5055 32.8125V24.2188C26.5055 23.3558 27.2926 22.6563 28.2637 22.6563C28.5843 22.6563 28.884 22.7338 29.1428 22.867V19.5313C29.1428 18.6683 29.93 17.9688 30.9011 17.9688C31.8722 17.9688 32.6593 18.6683 32.6593 19.5313Z" fill="#FFD885"/>
<path id="Vector_2" d="M7.16483 16.4062C8.13591 16.4062 8.92308 17.1058 8.92308 17.9688V21.3045C9.18189 21.1713 9.48158 21.0938 9.8022 21.0938C10.7733 21.0938 11.5604 21.7934 11.5604 22.6563V31.2501C11.5604 32.1131 10.7733 32.8126 9.8022 32.8126C8.83112 32.8126 8.04395 32.1131 8.04395 31.2501V27.9144C7.78514 28.0476 7.48545 28.1251 7.16483 28.1251C6.19376 28.1251 5.40659 27.4256 5.40659 26.5626V17.9688C5.40659 17.1058 6.19376 16.4062 7.16483 16.4062Z" fill="#FFD885"/>
<path id="Vector_3" d="M37.1678 6.28803C37.6355 6.70413 38.08 7.13304 38.5017 7.57358C39.4674 8.58265 39.6105 10.0291 38.8735 11.1822L20.712 39.6023C20.3731 40.1326 19.5179 40.1326 19.179 39.6023L1.12551 11.3514C0.394347 10.2073 0.531842 8.77546 1.47681 7.76436C2.07698 7.12218 2.72534 6.50382 3.42248 5.91343C12.9033 -2.11587 27.9101 -1.94673 37.1678 6.28803Z" fill="#FFD885"/>
<path id="Vector_4" d="M21.9112 37.7258L5.53123 12.0936C4.32455 10.2054 4.55137 7.84246 6.11101 6.17371C7.10152 5.11387 8.1715 4.0934 9.32209 3.11895C10.0397 2.51113 10.7768 1.93215 11.531 1.38129C20.1554 -1.50848 30.2613 0.144804 37.1678 6.28817C37.6355 6.70426 38.0801 7.13317 38.5017 7.57371C39.4673 8.58278 39.6104 10.0292 38.8736 11.1823L21.9112 37.7258Z" fill="#FFD885"/>
<path id="Vector_5" d="M39.517 11.5634L39.264 11.9593C38.9444 12.4594 38.1573 12.51 37.7578 12.0577C37.653 11.9391 37.547 11.8212 37.4396 11.7043C35.1231 9.17953 32.4521 7.26476 29.598 5.96109C29.128 6.605 28.3125 7.03125 27.3846 7.03125C25.928 7.03125 24.7472 5.98195 24.7472 4.6875C24.7472 4.57976 24.7561 4.47398 24.7719 4.37008C21.4924 3.6789 18.1064 3.71773 14.8365 4.49125C14.9904 4.7889 15.0769 5.11976 15.0769 5.46875C15.0769 6.7632 13.8962 7.8125 12.4395 7.8125C11.2908 7.8125 10.3141 7.15961 9.95243 6.24883C7.50821 7.45258 5.20711 9.1139 3.16017 11.238C2.84641 11.5636 2.54303 11.8963 2.24931 12.2354C1.853 12.6929 1.06039 12.6432 0.739599 12.1412L0.482193 11.7384C-0.273851 10.5552 -0.131785 9.07461 0.845533 8.02906C1.46619 7.365 2.13661 6.72554 2.85749 6.115C12.6613 -2.18805 28.1798 -2.01305 37.753 6.50242C38.2367 6.93265 38.6964 7.37625 39.1324 7.8318C40.131 8.87523 40.279 10.3709 39.517 11.5634Z" fill="#D7A251"/>
<path id="Vector_6" d="M4.82358 9.66172C4.25303 10.1558 3.6976 10.6807 3.16011 11.2384C2.84635 11.564 2.54297 11.8967 2.24925 12.2358C1.85295 12.6933 1.06033 12.6436 0.739538 12.1416L0.482132 11.7388C-0.273912 10.5556 -0.131846 9.075 0.845473 8.02946C1.34182 7.49836 1.87167 6.98375 2.43211 6.48633C2.94402 7.61039 3.75642 8.67625 4.82358 9.66172Z" fill="#D7A251"/>
<path id="Vector_7" d="M11.5604 11.9426C10.0306 11.0756 8.70967 9.9475 7.67407 8.62352C6.87231 7.55477 7.0309 6.13172 8.05288 5.22352C9.18677 4.21586 11.0252 4.21586 12.1591 5.22352L12.3267 5.3725C12.531 5.55406 12.8624 5.55406 13.0667 5.3725L13.2343 5.22352C14.3682 4.21586 16.2066 4.21586 17.3405 5.22352C18.3625 6.13172 18.5211 7.55484 17.7193 8.62352C16.6837 9.9475 15.3628 11.0756 13.833 11.9426L12.978 12.4272C12.8064 12.5245 12.5869 12.5245 12.4153 12.4272L11.5604 11.9426ZM20.8571 27.8798C19.7232 26.8721 17.8848 26.8721 16.7509 27.8798L16.5832 28.0288C16.3789 28.2103 16.0476 28.2103 15.8433 28.0288L15.6756 27.8798C14.5418 26.8721 12.7033 26.8721 11.5694 27.8798C10.5475 28.788 10.3889 30.2111 11.1906 31.2798C12.2262 32.6038 13.5472 33.7319 15.077 34.5988L15.932 35.0835C16.1036 35.1807 16.323 35.1807 16.4946 35.0835L17.3497 34.5988C18.8794 33.7319 20.2004 32.6038 21.236 31.2798C22.0377 30.211 21.8792 28.788 20.8571 27.8798ZM34.4085 18.7246C33.2746 17.717 31.4362 17.717 30.3023 18.7246L30.1346 18.8736C29.9303 19.0552 29.599 19.0552 29.3947 18.8736L29.227 18.7246C28.0931 17.717 26.2547 17.717 25.1208 18.7246C24.0988 19.6328 23.9403 21.0559 24.742 22.1246C25.7776 23.4486 27.0986 24.5767 28.6283 25.4437L29.4834 25.9283C29.655 26.0256 29.8744 26.0256 30.046 25.9283L30.901 25.4437C32.4308 24.5767 33.7518 23.4485 34.7874 22.1246C35.5891 21.0559 35.4305 19.6328 34.4085 18.7246Z" fill="#FF4C33"/>
<path id="Vector_8" d="M11.5604 11.9424C10.0306 11.0755 8.70967 9.94729 7.67407 8.62338C6.87231 7.55463 7.0309 6.13158 8.05288 5.22338C8.94149 4.43369 10.2627 4.26307 11.3385 4.71111C11.1301 4.83768 10.9314 4.98221 10.7463 5.14666C9.29851 6.4333 9.07389 8.44924 10.2096 9.96315C10.9244 10.877 11.736 11.7244 12.6301 12.4958C12.555 12.4873 12.4816 12.4646 12.4153 12.427L11.5604 11.9424ZM13.7262 32.6194C12.5905 31.1054 12.8151 29.0895 14.2629 27.8029C14.4479 27.6385 14.6466 27.4939 14.8551 27.3674C13.7793 26.9193 12.4581 27.0899 11.5694 27.8796C10.5475 28.7879 10.3889 30.211 11.1906 31.2796C12.2262 32.6035 13.5472 33.7317 15.077 34.5987L15.932 35.0832C15.9983 35.1208 16.0718 35.1435 16.1468 35.1521C15.2525 34.3807 14.441 33.5332 13.7262 32.6194ZM27.2776 23.4642C26.1418 21.9503 26.3665 19.9343 27.8143 18.6478C27.9992 18.4834 28.198 18.3388 28.4065 18.2122C27.3307 17.7642 26.0094 17.9348 25.1208 18.7245C24.0989 19.6327 23.9403 21.0558 24.742 22.1245C25.7776 23.4485 27.0986 24.5766 28.6283 25.4435L29.4834 25.9281C29.5497 25.9657 29.6231 25.9883 29.6981 25.9969C28.8039 25.2255 27.9925 24.3781 27.2776 23.4642Z" fill="#FF4C33"/>
<path id="Vector_9" d="M19.4725 21.875C19.4725 22.738 18.6854 23.4375 17.7143 23.4375C16.7432 23.4375 15.956 22.738 15.956 21.875C15.956 21.012 16.7432 20.3125 17.7143 20.3125C18.6854 20.3125 19.4725 21.012 19.4725 21.875ZM12.4396 15.625C11.4685 15.625 10.6813 16.3245 10.6813 17.1875C10.6813 18.0505 11.4685 18.75 12.4396 18.75C13.4106 18.75 14.1978 18.0505 14.1978 17.1875C14.1978 16.3245 13.4106 15.625 12.4396 15.625ZM29.1428 10.9375C28.1718 10.9375 27.3846 11.637 27.3846 12.5C27.3846 13.363 28.1718 14.0625 29.1428 14.0625C30.1139 14.0625 30.9011 13.363 30.9011 12.5C30.9011 11.637 30.1139 10.9375 29.1428 10.9375ZM21.2308 10.9375C19.7741 10.9375 18.5934 11.9868 18.5934 13.2813C18.5934 14.5757 19.7741 15.625 21.2308 15.625C22.6874 15.625 23.8681 14.5757 23.8681 13.2813C23.8681 11.9868 22.6874 10.9375 21.2308 10.9375Z" fill="#7CBC71"/>
</g>
</svg>
