<svg width="52" height="83" viewBox="0 0 52 83" fill="none" xmlns="http://www.w3.org/2000/svg">
<g id="freepik  Plant  inject 171">
<path id="Vector" d="M24.034 40.0237C20.43 32.6183 14.1245 28.817 7.01812 30.915C-0.0882768 33.0131 -1.15988 42.9283 4.11916 45.4268C9.3982 47.9253 14.728 40.6271 17.5311 39.1213C20.3342 37.6154 24.034 40.0237 24.034 40.0237Z" fill="#91C788"/>
<path id="Vector_2" d="M27.5252 59.7412C27.5252 58.8445 27.4688 57.9533 27.4406 57.0622C27.3729 55.28 27.3165 53.4978 27.2489 51.7155C27.1248 48.4556 26.7751 45.2521 25.4271 42.2459C24.2371 39.5125 22.2421 37.2066 19.7082 35.6359C18.7704 35.0715 17.7613 34.6353 16.7077 34.3387C15.7486 33.3723 14.5302 32.7043 13.1996 32.4154C11.5542 32.081 9.86263 32.039 8.20258 32.2913C8.14054 32.2913 8.14054 32.3929 8.20258 32.3816C9.78676 32.1802 11.3951 32.2952 12.9345 32.72C13.5917 32.9007 14.2286 33.1483 14.8352 33.4588C15.2256 33.6679 15.6024 33.9015 15.9632 34.1582C14.529 33.863 13.0482 33.8783 11.6204 34.2033C11.1052 34.3252 10.6013 34.4913 10.1145 34.6996C9.72606 34.613 9.32771 34.5788 8.93014 34.5981C8.41039 34.6147 7.89405 34.6885 7.39043 34.8181C6.36165 35.1089 5.37699 35.5377 4.46327 36.0927C4.44906 36.0949 4.43632 36.1027 4.42786 36.1144C4.41939 36.126 4.4159 36.1405 4.41814 36.1548C4.42039 36.169 4.42818 36.1817 4.43982 36.1902C4.45145 36.1986 4.46597 36.2021 4.48018 36.1999C5.37562 35.7074 6.33651 35.3447 7.33402 35.1226C7.81677 35.0146 8.30695 34.9429 8.80043 34.9083C9.07284 34.8942 9.34581 34.8942 9.61822 34.9083C7.59889 35.8472 5.97809 37.472 5.04418 39.4936C5.04418 39.55 5.10059 39.5952 5.12879 39.5388C5.68844 38.3664 6.50558 37.3355 7.51926 36.5229C8.53294 35.7104 9.717 35.1373 10.9831 34.8463C11.141 34.8068 11.2989 34.7842 11.4569 34.7504C11.4191 34.9876 11.3946 35.2267 11.3835 35.4667C11.3328 35.8276 11.2707 36.1886 11.2031 36.5439C11.0581 37.2764 10.8698 37.9996 10.6391 38.7097C10.4007 39.4301 10.1124 40.1331 9.77614 40.8134C9.45876 41.536 9.05541 42.2177 8.57483 42.8438C8.56851 42.8486 8.56342 42.8548 8.55995 42.862C8.55649 42.8691 8.55475 42.877 8.55488 42.8849C8.555 42.8929 8.55699 42.9007 8.56068 42.9077C8.56437 42.9147 8.56967 42.9208 8.57613 42.9254C8.58259 42.9301 8.59005 42.9331 8.5979 42.9343C8.60575 42.9355 8.61377 42.9349 8.62132 42.9324C8.62888 42.93 8.63575 42.9257 8.64139 42.9202C8.64703 42.9146 8.65127 42.9077 8.65379 42.9002C9.07679 42.229 9.57875 41.6143 9.96791 40.9149C10.3408 40.2528 10.6614 39.5627 10.9267 38.8507C11.1988 38.1284 11.4119 37.3852 11.564 36.6285C11.643 36.2337 11.705 35.8276 11.7501 35.4272C11.796 35.1838 11.8112 34.9355 11.7953 34.6883C12.63 34.5643 13.4772 34.5473 14.3163 34.6376C14.0005 36.4029 13.6621 38.2472 12.6751 39.7813C12.6691 39.7917 12.6675 39.8042 12.6707 39.8158C12.6739 39.8274 12.6816 39.8373 12.692 39.8433C12.7025 39.8493 12.7149 39.8509 12.7265 39.8477C12.7382 39.8445 12.7481 39.8369 12.7541 39.8264C13.2097 39.0221 13.6092 38.1873 13.9497 37.3279C14.2757 36.4829 14.4808 35.5962 14.5589 34.694C16.0262 34.8914 17.4425 35.366 18.7325 36.0927C21.1596 37.5053 23.0963 39.627 24.2822 42.1726C25.5359 44.9052 26.2356 47.8592 26.3408 50.8639C26.5777 54.6483 26.6285 58.461 27.0063 62.2341C27.0063 62.4823 27.4237 62.5612 27.4688 62.2849C27.5701 61.4408 27.589 60.5889 27.5252 59.7412Z" fill="#3A5036"/>
<path id="Vector_3" d="M19.195 35.0716C18.9573 34.7843 18.6823 34.5301 18.3772 34.3158C18.0839 34.0733 17.7793 33.8364 17.4635 33.6221C16.8378 33.1944 16.1462 32.8724 15.4162 32.6689C15.3541 32.6689 15.3316 32.7479 15.4162 32.7648C16.1513 32.9505 16.8393 33.2887 17.4353 33.7575C17.7342 33.9774 17.9993 34.2143 18.3095 34.4568C18.5583 34.7202 18.8343 34.9565 19.1329 35.1618C19.1442 35.1844 19.2344 35.1223 19.195 35.0716Z" fill="#3A5036"/>
<path id="Vector_4" d="M7.69503 37.7509C7.09796 38.4442 6.54598 39.1752 6.04251 39.9392C5.54868 40.7161 5.13664 41.5421 4.81299 42.4039C4.81299 42.4039 4.84683 42.4434 4.85811 42.4039C5.68154 40.7902 6.65397 39.257 7.76271 37.8242C7.80219 37.7678 7.73451 37.7058 7.69503 37.7509Z" fill="#3A5036"/>
<path id="Vector_5" d="M15.4499 37.0175C15.3721 37.4811 15.2337 37.9324 15.0382 38.3598C14.8416 38.7717 14.6135 39.1677 14.3557 39.5442C14.3557 39.5442 14.3557 39.595 14.3952 39.5724C15.013 38.8582 15.4054 37.977 15.5232 37.0401C15.5458 36.9837 15.4555 36.9555 15.4499 37.0175Z" fill="#3A5036"/>
<path id="Vector_6" d="M27.04 40.204C27.04 40.204 32.1442 33.797 41.9917 36.0699C51.3541 38.23 55.6687 55.3925 46.2104 57.4455C36.7521 59.4984 38.4216 43.6162 34.9755 40.9203C32.4262 38.9406 28.7884 39.3693 27.04 40.204Z" fill="#91C788"/>
<path id="Vector_7" d="M49.6 45.4382C48.9612 44.8757 48.2847 44.3575 47.5752 43.8872C46.9057 43.4297 46.1772 43.0654 45.4095 42.8043C45.0266 42.2208 44.5985 41.6683 44.1292 41.1518C43.2606 40.2177 42.2568 39.4192 41.1513 38.783H41.4446C41.9668 38.7548 42.4902 38.7548 43.0125 38.783C44.0613 38.8496 45.0893 39.1057 46.0468 39.5388C46.1032 39.5388 46.1427 39.4767 46.0863 39.4541C45.1133 39.0326 44.0952 38.7242 43.052 38.5348C42.5454 38.4464 42.0321 38.403 41.5179 38.4051C41.2396 38.4051 40.9633 38.422 40.6888 38.4559H40.5309C39.6345 37.9999 38.6882 37.6498 37.7109 37.4125C37.7996 37.3828 37.89 37.3583 37.9816 37.3391C38.4635 37.2305 38.9512 37.1495 39.4424 37.0966C40.4235 36.9847 41.4149 36.9999 42.3921 37.1418C42.4485 37.1418 42.4654 37.0572 42.3921 37.0515C41.4043 36.9314 40.4085 36.8899 39.4142 36.9274C38.5785 36.9536 37.7473 37.0612 36.9326 37.2489C36.3404 37.1383 35.741 37.0704 35.139 37.0459C31.7043 36.8992 27.965 38.1739 25.85 40.9939C23.735 43.8139 23.3232 47.587 22.9454 50.9936C22.3705 55.7427 22.2458 60.5354 22.5731 65.3079C22.5731 65.5899 22.9905 65.5392 22.9961 65.2684C23.1258 61.2246 23.2668 57.175 23.656 53.1424C23.8365 51.2756 24.0339 49.4031 24.3441 47.5532C24.5679 45.9587 25.0259 44.406 25.7033 42.9453C26.4343 41.4537 27.5901 40.2115 29.0253 39.3752C30.468 38.5485 32.0768 38.0533 33.7347 37.9257C35.2195 37.8016 36.7145 37.941 38.1508 38.3374C38.1054 38.6271 38.1054 38.922 38.1508 39.2116C38.1797 39.5779 38.2516 39.9395 38.3651 40.2889C38.4742 40.618 38.612 40.937 38.7768 41.242C38.9573 41.5804 39.1886 41.8793 39.3916 42.2065C39.4254 42.2572 39.5044 42.2065 39.4706 42.1501C39.0655 41.5729 38.8027 40.908 38.7035 40.2099C38.6415 39.8783 38.6019 39.5429 38.5851 39.206C38.5851 38.9522 38.5851 38.6984 38.5851 38.4446C40.1465 38.9204 41.6044 39.6857 42.8828 40.7006C43.1253 40.8924 43.3565 41.0954 43.5821 41.3041C43.2575 41.6057 42.9765 41.9512 42.7474 42.3305C42.4075 42.8236 42.113 43.3465 41.8676 43.8928C41.4128 44.9881 41.1074 46.1396 40.9595 47.3163C40.9595 47.3783 41.0441 47.3953 41.0498 47.3163C41.2323 46.1756 41.6141 45.076 42.1778 44.0677C42.4353 43.5685 42.7275 43.0879 43.052 42.6295C43.2155 42.3926 43.3904 42.1557 43.5652 41.9301C43.6611 41.806 43.7682 41.6819 43.8585 41.5522C45.0272 42.6889 45.9823 44.0261 46.6785 45.5002C46.2209 45.9928 45.8406 46.5519 45.5505 47.1584C45.1614 47.8046 44.8184 48.4774 44.524 49.1719C44.0512 50.4852 43.6594 51.8262 43.3509 53.1876C43.3509 53.2496 43.4298 53.2665 43.4411 53.1876C43.7404 51.8182 44.2103 50.4918 44.8398 49.2396C45.1331 48.6267 45.4433 48.0176 45.7704 47.4122C46.1129 46.8676 46.4218 46.3025 46.6954 45.7202C47.355 47.1566 47.7377 48.7046 47.8234 50.283C47.8234 50.345 47.9249 50.3337 47.9193 50.283C47.7384 47.8076 46.9813 45.4088 45.7084 43.2781C46.3119 43.5375 46.9154 43.7857 47.4963 44.0959C48.2346 44.4903 48.9221 44.9733 49.5436 45.5341C49.5605 45.551 49.6 45.4777 49.6 45.4382Z" fill="#3A5036"/>
<path id="Vector_8" d="M42.3527 45.7881C42.0594 46.7581 41.6872 47.7057 41.4165 48.687C41.1481 49.6288 41.0021 50.6012 40.9822 51.5803C40.9822 51.6085 41.0273 51.6085 41.0329 51.5803C41.2983 49.6146 41.771 47.6825 42.4429 45.8162C42.4448 45.8103 42.4455 45.8041 42.4449 45.7979C42.4443 45.7917 42.4426 45.7857 42.4397 45.7802C42.4368 45.7747 42.4329 45.7698 42.4281 45.7659C42.4233 45.7619 42.4178 45.7589 42.4119 45.757C42.406 45.7552 42.3998 45.7545 42.3936 45.7551C42.3874 45.7556 42.3814 45.7574 42.3759 45.7603C42.3704 45.7632 42.3655 45.7671 42.3615 45.7719C42.3575 45.7766 42.3545 45.7821 42.3527 45.7881Z" fill="#3A5036"/>
<path id="Vector_9" d="M48.5905 43.3911C48.2041 43.0188 47.7651 42.7052 47.2877 42.4605C46.8009 42.2296 46.2952 42.041 45.7761 41.8965C45.7197 41.8965 45.7028 41.9754 45.7761 41.9924C46.2863 42.1239 46.776 42.325 47.2313 42.5902C47.6968 42.8309 48.1436 43.1062 48.568 43.4136C48.5733 43.412 48.5781 43.4091 48.5821 43.4052C48.586 43.4012 48.5889 43.3964 48.5905 43.3911Z" fill="#3A5036"/>
<path id="Vector_10" d="M31.8679 31.6432C31.8679 31.6432 32.8098 20.1263 41.377 16.4152C48.5285 13.2963 52.6231 21.3333 47.581 26.2514C43.475 30.205 36.9157 28.4115 31.8679 31.6432Z" fill="#91C788"/>
<path id="Vector_11" d="M45.9792 18.6198C44.6752 19.1445 43.4039 19.7472 42.1723 20.4246C41.1474 21.017 40.1604 21.6725 39.2169 22.3874C39.3579 22.0941 39.482 21.7895 39.623 21.5075C39.8486 21.062 40.0855 20.6277 40.3505 20.2047C40.8875 19.3307 41.5317 18.5273 42.2681 17.8133C42.3076 17.7738 42.2681 17.7062 42.2005 17.7513C41.476 18.466 40.812 19.2394 40.2152 20.0637C39.919 20.4827 39.646 20.9176 39.3974 21.3665C39.1513 21.7813 38.9616 22.227 38.8334 22.6919L38.7375 22.7596C37.2427 23.9528 35.8726 25.2944 34.6485 26.764C34.6485 26.6512 34.6992 26.5384 34.7274 26.4312C34.8854 25.8672 35.0602 25.3032 35.2463 24.7392C35.612 23.5488 36.1315 22.4112 36.7917 21.3552C36.8255 21.3045 36.7409 21.2594 36.7127 21.3101C36.0392 22.3592 35.4399 23.4542 34.9192 24.587C34.6797 25.1353 34.4817 25.7009 34.327 26.279C34.2033 26.6565 34.1091 27.0431 34.045 27.4351C33.6728 27.9089 33.3062 28.3827 32.9621 28.879C29.2849 34.1073 27.4406 40.441 26.995 46.7747C26.8672 48.6631 26.8352 50.5569 26.8991 52.4485C26.9164 54.3576 27.0842 56.2623 27.4011 58.1449C27.4092 58.169 27.4256 58.1893 27.4473 58.2024C27.4691 58.2155 27.4947 58.2205 27.5198 58.2164C27.5448 58.2123 27.5676 58.1995 27.5841 58.1803C27.6006 58.161 27.6097 58.1365 27.6098 58.1111C27.5703 56.4473 27.3955 54.7891 27.3616 53.1253C27.3278 51.4615 27.3616 49.7865 27.5252 48.1227C27.7935 44.7977 28.4194 41.5112 29.392 38.3204C30.3873 35.053 31.8541 31.9483 33.7461 29.1046C34.1071 29.0369 34.468 28.9354 34.8177 28.8451C35.1674 28.7549 35.675 28.6252 36.1036 28.5067C36.925 28.2923 37.7239 27.9995 38.4893 27.6326C38.4998 27.6258 38.5072 27.6152 38.5098 27.603C38.5125 27.5909 38.5102 27.5782 38.5034 27.5677C38.4967 27.5572 38.4861 27.5499 38.4739 27.5472C38.4618 27.5446 38.449 27.5469 38.4386 27.5536C37.6835 27.9632 36.866 28.2452 36.019 28.3883C35.3478 28.518 34.6541 28.6083 33.983 28.7606C34.6013 27.8547 35.2658 26.9812 35.9739 26.1436C37.6051 26.292 39.2497 26.1701 40.8412 25.7826C41.6899 25.5771 42.5245 25.3171 43.3397 25.0043C44.197 24.6715 45.0317 24.2485 45.8552 23.8763C45.9172 23.8763 45.8552 23.7579 45.8157 23.7917C44.2822 24.6301 42.6074 25.1788 40.875 25.4104C39.3473 25.6547 37.803 25.7811 36.2559 25.7883C36.865 25.0946 37.4911 24.4121 38.1622 23.7748C40.4182 21.6316 43.0859 19.6632 46.0582 18.6367C46.0639 18.7157 46.0357 18.5973 45.9792 18.6198Z" fill="#3A5036"/>
<path id="Vector_12" d="M39.0138 18.6535C38.6272 19.1419 38.2748 19.6563 37.9591 20.1932C37.6395 20.7563 37.3859 21.3543 37.2034 21.9755C37.2034 21.9755 37.2034 22.0093 37.2428 21.9755C37.5248 21.4115 37.7674 20.8474 38.055 20.2834C38.3388 19.7283 38.683 19.2063 39.0815 18.7268C39.121 18.676 39.0476 18.6084 39.0138 18.6535Z" fill="#3A5036"/>
<path id="Vector_13" d="M25.2128 29.5673C25.1564 30.0693 23.9156 25.3881 16.6738 21.2314C10.1202 17.4583 2.25235 7.64467 8.69887 1.44631C13.9046 -3.55638 27.6041 7.35138 25.2128 29.5673Z" fill="#91C788"/>
<path id="Vector_14" d="M30.1984 56.4021C30.0963 51.5306 29.7197 46.6687 29.0704 41.8396C28.4978 37.4017 27.4716 33.0341 26.0079 28.8055C25.4721 27.2884 24.8799 25.7881 24.1862 24.2935C24.2277 23.7204 24.2183 23.1448 24.158 22.5733C24.1242 21.8345 24.0565 21.1013 23.9888 20.3625C23.9211 19.6236 23.8478 18.896 23.7576 18.1628C23.6673 17.4296 23.515 16.6965 23.4868 15.9633C23.4895 15.9556 23.4903 15.9474 23.4892 15.9394C23.488 15.9314 23.485 15.9238 23.4803 15.9172C23.4756 15.9106 23.4694 15.9052 23.4622 15.9015C23.455 15.8977 23.447 15.8958 23.4389 15.8958C23.4308 15.8958 23.4228 15.8977 23.4156 15.9015C23.4084 15.9052 23.4022 15.9106 23.3975 15.9172C23.3928 15.9238 23.3898 15.9314 23.3887 15.9394C23.3875 15.9474 23.3883 15.9556 23.391 15.9633C23.5395 16.7315 23.6262 17.5105 23.6504 18.2926C23.7068 19.0032 23.7463 19.7139 23.7688 20.4245C23.7688 21.1408 23.7688 21.8514 23.7688 22.5621C23.7688 22.8215 23.7688 23.0922 23.7688 23.3686C23.092 21.9304 22.3589 20.5147 21.5693 19.1329C22.0599 16.1324 21.4226 12.991 20.8078 10.0582C20.8078 9.99613 20.7063 10.0243 20.7233 10.0582C21.0221 11.5916 21.1807 13.149 21.197 14.7112C21.197 15.9407 21.197 17.1759 21.1632 18.4054C20.9883 18.1121 20.8191 17.8414 20.6387 17.5255C19.7024 15.9915 18.7004 14.4875 17.6325 13.0135C17.7154 12.3014 17.6907 11.5808 17.5592 10.876C17.4434 10.0837 17.2681 9.30129 17.0347 8.53537C16.8035 7.76833 16.5384 7.01821 16.2338 6.27937C15.9292 5.54053 15.5006 4.80169 15.2017 4.02337C15.2017 3.96133 15.0776 4.02337 15.1171 4.06285C15.4991 4.77979 15.8016 5.53627 16.0195 6.31885C16.2504 7.05946 16.4387 7.8127 16.5835 8.57485C16.7414 9.33626 16.8655 10.1033 16.9727 10.8703C17.0403 11.3836 17.0855 11.9081 17.1757 12.427C15.6237 10.3425 13.9275 8.36929 12.0997 6.52189C12.0546 6.48241 11.9925 6.52189 12.032 6.58957C14.7941 9.6916 17.2601 13.0451 19.3978 16.6062L19.6291 17.0123C19.2287 16.7585 18.7718 16.5611 18.3996 16.3524C17.6946 15.9633 16.9896 15.5741 16.2846 15.1962L14.2316 14.0682C13.8819 13.8708 13.5379 13.6678 13.1769 13.5042C12.75 13.3126 12.3405 13.0842 11.9531 12.8218C11.8967 12.7823 11.8403 12.8669 11.8967 12.8951C12.596 13.2786 13.2108 13.8483 13.8819 14.2769C14.5531 14.7055 15.2468 15.1285 15.9518 15.5177C17.2377 16.2396 18.6364 16.7529 19.8998 17.4973C20.7796 19.0389 21.5937 20.6144 22.3419 22.2237C21.5674 21.7273 20.7834 21.2573 19.9901 20.8137C19.4768 20.526 18.9579 20.2497 18.4391 19.9677C17.921 19.7295 17.431 19.4344 16.9783 19.0878C16.9332 19.0483 16.8711 19.116 16.9163 19.1555C17.7587 19.9427 18.6966 20.621 19.7081 21.1746C20.6386 21.7386 21.5805 22.2462 22.5281 22.72C23.3064 24.4157 24.0057 26.1435 24.6261 27.9031C27.6717 36.5323 28.7941 45.6917 29.3299 54.7947C29.4878 57.5075 29.5724 60.2147 29.6063 62.9332C29.6401 65.6517 29.4934 68.3532 29.4991 71.0661C29.4991 71.145 29.6345 71.1676 29.6457 71.0661C29.9672 68.6634 30.0236 66.2157 30.1308 63.7905C30.2379 61.3653 30.2492 58.8668 30.1984 56.4021Z" fill="#3A5036"/>
<path id="Vector_15" d="M17.0405 17.3285C15.7161 16.7477 14.4311 16.0808 13.194 15.3319C11.941 14.6265 10.7267 13.8546 9.55619 13.0195C9.55619 13.0195 9.51107 13.0195 9.55619 13.0534C10.6691 13.9516 11.8432 14.7714 13.0699 15.5068C14.345 16.2237 15.6635 16.8604 17.0179 17.4131C17.0517 17.4357 17.0969 17.3511 17.0405 17.3285Z" fill="#3A5036"/>
<path id="Vector_16" d="M19.1442 7.57709C19.037 7.15409 18.9016 6.74236 18.7606 6.33064C18.7666 6.32353 18.7699 6.31455 18.7699 6.30527C18.7699 6.29598 18.7666 6.287 18.7606 6.27989C18.6704 6.04865 18.5745 5.81741 18.4786 5.58617L18.4448 5.50157L18.394 5.36621C18.394 5.36621 18.4448 5.52413 18.4674 5.60309C18.4779 5.64893 18.4911 5.69413 18.5068 5.73845C18.9825 7.34974 19.3406 8.99341 19.5784 10.6565C19.5784 10.7073 19.6687 10.7073 19.663 10.6565C19.589 9.61581 19.4152 8.5846 19.1442 7.57709Z" fill="#3A5036"/>
<path id="Vector_17" d="M37.8465 58.1504L37.3332 64.2754L35.7484 82.9551H18.8058L17.221 64.2754L16.7078 58.1504H37.8465Z" fill="#37474F"/>
<path id="Vector_18" d="M37.8465 58.1504L37.3332 64.2754H17.221L16.7078 58.1504H37.8465Z" fill="#3A5036"/>
<path id="Vector_19" d="M39.5103 55.6914H15.0439V61.5683H39.5103V55.6914Z" fill="#37474F"/>
</g>
</svg>
