<svg width="166" height="176" viewBox="0 0 166 176" fill="none" xmlns="http://www.w3.org/2000/svg">
<mask id="mask0_36_365" style="mask-type:alpha" maskUnits="userSpaceOnUse" x="7" y="25" width="152" height="151">
<path d="M82.9709 175.999C124.629 175.999 158.399 142.229 158.399 100.571C158.399 58.9126 124.629 25.1421 82.9709 25.1421C41.3129 25.1421 7.54236 58.9126 7.54236 100.571C7.54236 142.229 41.3129 175.999 82.9709 175.999Z" fill="white"/>
</mask>
<g mask="url(#mask0_36_365)">
<path d="M82.9709 175.999C124.629 175.999 158.399 142.229 158.399 100.571C158.399 58.9126 124.629 25.1421 82.9709 25.1421C41.3129 25.1421 7.54236 58.9126 7.54236 100.571C7.54236 142.229 41.3129 175.999 82.9709 175.999Z" fill="#E6E6E6"/>
<path d="M158.399 25.1421H7.54236V175.999H158.399V25.1421Z" fill="#D3E9CF"/>
</g>
<mask id="mask1_36_365" style="mask-type:alpha" maskUnits="userSpaceOnUse" x="0" y="0" width="166" height="176">
<path d="M7.54286 100.571C7.54286 142.229 41.3134 176 82.9714 176C124.629 176 158.4 142.229 158.4 100.571H165.943V0H0V100.571H7.54286Z" fill="white"/>
</mask>
<g mask="url(#mask1_36_365)">
<mask id="mask2_36_365" style="mask-type:alpha" maskUnits="userSpaceOnUse" x="20" y="22" width="126" height="154">
<path d="M98.0571 113.527V125.086H100.571C125.566 125.086 145.829 145.348 145.829 170.343V176H20.1143V170.343C20.1143 145.348 40.3766 125.086 65.3714 125.086H67.8857V113.527C57.0508 108.38 49.2625 97.8603 47.9632 85.4109C44.3019 84.8933 41.4857 81.7469 41.4857 77.9427V69.1427C41.4857 65.4052 44.204 62.3026 47.7714 61.7041V57.8284C47.7714 38.388 63.531 22.6284 82.9714 22.6284C102.412 22.6284 118.171 38.388 118.171 57.8284V61.7041C121.739 62.3026 124.457 65.4052 124.457 69.1427V77.9427C124.457 81.7469 121.641 84.8933 117.98 85.4109C116.68 97.8603 108.892 108.38 98.0571 113.527Z" fill="white"/>
</mask>
<g mask="url(#mask2_36_365)">
<path d="M98.0571 113.527V125.086H100.571C125.566 125.086 145.829 145.348 145.829 170.343V176H20.1143V170.343C20.1143 145.348 40.3766 125.086 65.3714 125.086H67.8857V113.527C57.0508 108.38 49.2625 97.8603 47.9632 85.4109C44.3019 84.8933 41.4857 81.7469 41.4857 77.9427V69.1427C41.4857 65.4052 44.204 62.3026 47.7714 61.7041V57.8284C47.7714 38.388 63.531 22.6284 82.9714 22.6284C102.412 22.6284 118.171 38.388 118.171 57.8284V61.7041C121.739 62.3026 124.457 65.4052 124.457 69.1427V77.9427C124.457 81.7469 121.641 84.8933 117.98 85.4109C116.68 97.8603 108.892 108.38 98.0571 113.527Z" fill="#D0C6AC"/>
<path d="M186.057 22.6284H20.1143V198.628H186.057V22.6284Z" fill="#EDB98A"/>
<path fill-rule="evenodd" clip-rule="evenodd" d="M118.171 72.2861V86.7433C118.171 106.184 102.412 121.943 82.9715 121.943C63.5311 121.943 47.7715 106.184 47.7715 86.7433V72.2861V81.7147C47.7715 101.155 63.5311 116.915 82.9715 116.915C102.412 116.915 118.171 101.155 118.171 81.7147V72.2861Z" fill="black" fill-opacity="0.1"/>
</g>
<mask id="mask3_36_365" style="mask-type:alpha" maskUnits="userSpaceOnUse" x="20" y="125" width="126" height="52">
<path fill-rule="evenodd" clip-rule="evenodd" d="M104.318 125.272C127.56 127.177 145.829 146.643 145.829 170.376V176.001H20.1143V170.376C20.1143 146.428 38.7149 126.825 62.2571 125.225C62.2381 125.459 62.2285 125.696 62.2285 125.934C62.2285 133.391 71.6562 139.435 83.2857 139.435C94.9152 139.435 104.343 133.391 104.343 125.934C104.343 125.712 104.334 125.491 104.318 125.272Z" fill="white"/>
</mask>
<g mask="url(#mask3_36_365)">
<path fill-rule="evenodd" clip-rule="evenodd" d="M104.318 125.272C127.56 127.177 145.829 146.643 145.829 170.376V176.001H20.1143V170.376C20.1143 146.428 38.7149 126.825 62.2571 125.225C62.2381 125.459 62.2285 125.696 62.2285 125.934C62.2285 133.391 71.6562 139.435 83.2857 139.435C94.9152 139.435 104.343 133.391 104.343 125.934C104.343 125.712 104.334 125.491 104.318 125.272Z" fill="#E6E6E6"/>
<path d="M165.943 106.858H0V176.001H165.943V106.858Z" fill="#663B35"/>
<g opacity="0.6">
<g opacity="0.6">
<path opacity="0.6" d="M83.2856 143.793C97.0449 143.793 108.199 136.219 108.199 126.876C108.199 117.533 97.0449 109.959 83.2856 109.959C69.5262 109.959 58.3721 117.533 58.3721 126.876C58.3721 136.219 69.5262 143.793 83.2856 143.793Z" fill="black" fill-opacity="0.16"/>
</g>
</g>
</g>
<path fill-rule="evenodd" clip-rule="evenodd" d="M63.3504 125.162C39.2934 126.219 20.1143 146.057 20.1143 170.375H20.1143V176H63.713C61.5753 168.406 60.3428 159.474 60.3428 149.914C60.3428 140.908 61.4365 132.459 63.3504 125.162ZM102.858 176H145.829V170.375C145.829 146.272 126.987 126.571 103.229 125.195C105.138 132.484 106.229 140.922 106.229 149.914C106.229 159.474 104.996 168.406 102.858 176Z" fill="#663B35"/>
<path fill-rule="evenodd" clip-rule="evenodd" d="M113.771 160.914L119.778 156.409C120.685 155.729 121.935 155.74 122.83 156.436L126.971 159.657L113.771 160.914Z" fill="#E6E6E6"/>
<path fill-rule="evenodd" clip-rule="evenodd" d="M63.4857 124.457C60.9714 136.609 62.019 153.79 66.6285 175.999H56.5714L47.7714 153.371L51.5428 147.714L47.7714 143.942L59.7142 125.085C60.9887 124.689 62.2459 124.479 63.4857 124.457Z" fill="#663B35"/>
<path fill-rule="evenodd" clip-rule="evenodd" d="M102.457 124.457C104.971 136.609 103.923 153.79 99.3139 175.999H109.371L118.171 153.371L114.4 147.714L118.171 143.942L106.228 125.085C104.954 124.689 103.696 124.479 102.457 124.457Z" fill="#663B35"/>
<path fill-rule="evenodd" clip-rule="evenodd" d="M74.1711 93.6558C74.1711 98.5159 78.111 102.456 82.9711 102.456C87.8312 102.456 91.7711 98.5159 91.7711 93.6558" fill="black" fill-opacity="0.7"/>
<path fill-rule="evenodd" clip-rule="evenodd" d="M75.4282 81.7139C75.4282 84.4911 78.8053 86.7424 82.9711 86.7424C87.1369 86.7424 90.5139 84.4911 90.5139 81.7139" fill="black" fill-opacity="0.16"/>
<path d="M66.6287 74.1713C68.7116 74.1713 70.4002 72.4828 70.4002 70.3998C70.4002 68.3169 68.7116 66.6284 66.6287 66.6284C64.5458 66.6284 62.8573 68.3169 62.8573 70.3998C62.8573 72.4828 64.5458 74.1713 66.6287 74.1713Z" fill="black" fill-opacity="0.6"/>
<path d="M99.3142 74.1698C101.397 74.1698 103.086 72.4813 103.086 70.3984C103.086 68.3155 101.397 66.627 99.3142 66.627C97.2313 66.627 95.5427 68.3155 95.5427 70.3984C95.5427 72.4813 97.2313 74.1698 99.3142 74.1698Z" fill="black" fill-opacity="0.6"/>
<path d="M57.5958 62.3276C60.0566 58.865 66.8029 56.9233 72.6141 58.3504C73.2884 58.5159 73.9692 58.1036 74.1348 57.4293C74.3004 56.755 73.888 56.0742 73.2138 55.9086C66.465 54.2513 58.653 56.4997 55.5464 60.8711C55.1442 61.437 55.2769 62.2219 55.8428 62.6241C56.4088 63.0263 57.1936 62.8935 57.5958 62.3276Z" fill="black" fill-opacity="0.6"/>
<path d="M108.347 62.3276C105.886 58.865 99.1399 56.9233 93.3287 58.3504C92.6545 58.5159 91.9736 58.1036 91.8081 57.4293C91.6425 56.755 92.0548 56.0742 92.7291 55.9086C99.4778 54.2513 107.29 56.4997 110.397 60.8711C110.799 61.437 110.666 62.2219 110.1 62.6241C109.534 63.0263 108.749 62.8935 108.347 62.3276Z" fill="black" fill-opacity="0.6"/>
<mask id="mask4_36_365" style="mask-type:alpha" maskUnits="userSpaceOnUse" x="0" y="0" width="166" height="176">
<path d="M165.943 0H0V176H165.943V0Z" fill="white"/>
</mask>
<g mask="url(#mask4_36_365)">
<mask id="mask5_36_365" style="mask-type:alpha" maskUnits="userSpaceOnUse" x="31" y="13" width="107" height="163">
<path fill-rule="evenodd" clip-rule="evenodd" d="M40.8836 48.4464C44.4271 28.4143 61.9224 13.1992 82.9714 13.1992C106.578 13.1992 125.714 32.3358 125.714 55.9421V75.2713C126.264 81.4334 126.779 85.7503 127.258 88.2219C128.124 92.6873 130.837 91.2146 130.837 97.5662C130.837 103.918 128.117 106.052 128.105 111.7C128.093 117.348 137.783 121.839 137.783 129.009C137.783 136.179 133.336 170.013 88.9916 170.013C79.5188 170.013 71.45 167.318 64.7852 161.928C65.2145 166.007 65.6194 170.698 66 175.999H36.4571C37.0432 161.057 31.8784 152.702 31.8784 136.051C31.8784 119.4 40.4502 95.1823 40.2286 89.2564C40.2411 88.8904 40.2541 88.4571 40.2676 87.9565C40.2417 87.3454 40.2286 86.731 40.2286 86.1135V55.9421C40.2286 53.4429 40.4431 50.9939 40.8546 48.6123C40.8555 48.5414 40.8563 48.4703 40.8571 48.3992C40.866 48.4149 40.8748 48.4306 40.8836 48.4464ZM82.6571 33.3135C63.7374 33.3135 48.4 48.651 48.4 67.5706V82.0278C48.4 100.947 63.7374 116.285 82.6571 116.285H83.2857C102.205 116.285 117.543 100.947 117.543 82.0278V67.5706C117.543 48.651 102.205 33.3135 83.2857 33.3135H82.6571Z" fill="white"/>
</mask>
<g mask="url(#mask5_36_365)">
<path fill-rule="evenodd" clip-rule="evenodd" d="M40.8836 48.4464C44.4271 28.4143 61.9224 13.1992 82.9714 13.1992C106.578 13.1992 125.714 32.3358 125.714 55.9421V75.2713C126.264 81.4334 126.779 85.7503 127.258 88.2219C128.124 92.6873 130.837 91.2146 130.837 97.5662C130.837 103.918 128.117 106.052 128.105 111.7C128.093 117.348 137.783 121.839 137.783 129.009C137.783 136.179 133.336 170.013 88.9916 170.013C79.5188 170.013 71.45 167.318 64.7852 161.928C65.2145 166.007 65.6194 170.698 66 175.999H36.4571C37.0432 161.057 31.8784 152.702 31.8784 136.051C31.8784 119.4 40.4502 95.1823 40.2286 89.2564C40.2411 88.8904 40.2541 88.4571 40.2676 87.9565C40.2417 87.3454 40.2286 86.731 40.2286 86.1135V55.9421C40.2286 53.4429 40.4431 50.9939 40.8546 48.6123C40.8555 48.5414 40.8563 48.4703 40.8571 48.3992C40.866 48.4149 40.8748 48.4306 40.8836 48.4464ZM82.6571 33.3135C63.7374 33.3135 48.4 48.651 48.4 67.5706V82.0278C48.4 100.947 63.7374 116.285 82.6571 116.285H83.2857C102.205 116.285 117.543 100.947 117.543 82.0278V67.5706C117.543 48.651 102.205 33.3135 83.2857 33.3135H82.6571Z" fill="#1E63C1"/>
<path d="M165.314 0H-0.628662V176H165.314V0Z" fill="#FF9385"/>
<path fill-rule="evenodd" clip-rule="evenodd" d="M44.6754 65.9752C44.232 63.6414 44 61.2335 44 58.7719C44 37.4221 61.4481 20.1147 82.9714 20.1147C104.495 20.1147 121.943 37.4221 121.943 58.7719C121.943 61.2335 121.711 63.6414 121.267 65.9752C120.272 45.6868 103.507 29.5433 82.9714 29.5433C62.436 29.5433 45.6712 45.6868 44.6754 65.9752Z" fill="white" fill-opacity="0.5"/>
<path opacity="0.9" fill-rule="evenodd" clip-rule="evenodd" d="M117.498 65.8091C117.94 68.0042 118.171 70.2753 118.171 72.6005V87.0577C118.171 105.977 102.834 121.315 83.9143 121.315H82.0286C63.1089 121.315 47.7715 105.977 47.7715 87.0577V72.6005C47.7715 70.2753 48.0031 68.0042 48.4446 65.8091C48.415 66.393 48.4001 66.9807 48.4001 67.572V82.0291C48.4001 100.949 63.7375 116.286 82.6572 116.286H83.2858C102.205 116.286 117.543 100.949 117.543 82.0291V67.572C117.543 66.9807 117.528 66.393 117.498 65.8091ZM71.1335 130.112C75.2094 133.246 84.6457 134.331 95.1686 132.476C105.692 130.621 114.187 126.373 116.946 122.034C116.989 122.193 117.025 122.353 117.053 122.516C118.128 128.61 108.734 135.361 96.0709 137.593C83.4082 139.826 72.2719 136.696 71.1973 130.602C71.1686 130.439 71.1474 130.276 71.1335 130.112H71.1335ZM78.5932 148.294C83.7428 151.848 93.9223 152.017 104.408 148.2C114.894 144.384 122.583 137.711 124.244 131.679C124.333 131.88 124.416 132.085 124.492 132.294C127.338 140.112 119.415 150.172 106.797 154.765C94.1793 159.357 81.6438 156.743 78.7984 148.926C78.7224 148.717 78.654 148.506 78.5933 148.294H78.5932Z" fill="black" fill-opacity="0.16"/>
</g>
</g>
</g>
<circle cx="139" cy="153" r="13" fill="#FF9385" stroke="white" stroke-width="2"/>
<path d="M133.479 155.469H144.511L144.479 155.789C144.381 156.578 143.819 157.039 143.249 157.039H134.741C134.096 157.039 133.592 156.484 133.511 155.795C133.511 155.787 133.515 155.831 133.479 155.469Z" fill="white"/>
<path d="M144.992 150.648L144.582 154.766H133.409L133.008 150.735C132.9 149.79 133.92 149.353 134.391 149.894C135.523 151.2 135.644 151.457 136.025 151.412C136.168 151.395 136.27 151.331 136.355 151.252C138.66 149.041 138.509 149.184 138.533 149.165C138.843 148.926 139.242 148.966 139.476 149.16C141.805 151.118 141.697 151.032 141.749 151.061C141.967 151.186 142.223 151.17 142.443 150.955C143.737 149.683 143.655 149.763 143.679 149.743C144.271 149.282 145.087 149.818 144.992 150.648Z" fill="white"/>
</svg>
