<svg width="212" height="224" viewBox="0 0 212 224" fill="none" xmlns="http://www.w3.org/2000/svg">
<g id="Group 36225">
<g id="Circle">
<mask id="mask0_13_1017" style="mask-type:alpha" maskUnits="userSpaceOnUse" x="9" y="32" width="193" height="192">
<g id="react-mask-4">
<path id="Vector" d="M105.6 224C158.619 224 201.6 181.019 201.6 128C201.6 74.9807 158.619 32 105.6 32C52.5803 32 9.59961 74.9807 9.59961 128C9.59961 181.019 52.5803 224 105.6 224Z" fill="white"/>
</g>
</mask>
<g mask="url(#mask0_13_1017)">
<path id="Circle-Background" d="M105.6 224C158.619 224 201.6 181.019 201.6 128C201.6 74.9807 158.619 32 105.6 32C52.5803 32 9.59961 74.9807 9.59961 128C9.59961 181.019 52.5803 224 105.6 224Z" fill="#E6E6E6"/>
<g id="Color/Palette/Blue-01">
<path id="&#240;&#159;&#150;&#141;Color" d="M201.6 32H9.59961V224H201.6V32Z" fill="#D3E9CF"/>
</g>
</g>
</g>
<mask id="mask1_13_1017" style="mask-type:alpha" maskUnits="userSpaceOnUse" x="0" y="0" width="212" height="224">
<g id="react-mask-5">
<path id="Vector_2" d="M9.6 128C9.6 181.019 52.5807 224 105.6 224C158.619 224 201.6 181.019 201.6 128H211.2V0H0V128H9.6Z" fill="white"/>
</g>
</mask>
<g mask="url(#mask1_13_1017)">
<g id="Body">
<mask id="mask2_13_1017" style="mask-type:alpha" maskUnits="userSpaceOnUse" x="25" y="28" width="161" height="196">
<g id="react-mask-6">
<path id="Vector_3" d="M124.8 144.489V159.2H128C159.812 159.2 185.6 184.988 185.6 216.8V224H25.6001V216.8C25.6001 184.988 51.3885 159.2 83.2001 159.2H86.4001V144.489C72.6102 137.938 62.6979 124.549 61.0442 108.705C56.3843 108.046 52.8001 104.041 52.8001 99.1998V87.9998C52.8001 83.243 56.2598 79.2943 60.8001 78.5325V73.5998C60.8001 48.8575 80.8577 28.7998 105.6 28.7998C130.342 28.7998 150.4 48.8575 150.4 73.5998V78.5325C154.94 79.2943 158.4 83.243 158.4 87.9998V99.1998C158.4 104.041 154.816 108.046 150.156 108.705C148.502 124.549 138.59 137.938 124.8 144.489Z" fill="white"/>
</g>
</mask>
<g mask="url(#mask2_13_1017)">
<path id="Vector_4" d="M124.8 144.489V159.2H128C159.812 159.2 185.6 184.988 185.6 216.8V224H25.6001V216.8C25.6001 184.988 51.3885 159.2 83.2001 159.2H86.4001V144.489C72.6102 137.938 62.6979 124.549 61.0442 108.705C56.3843 108.046 52.8001 104.041 52.8001 99.1998V87.9998C52.8001 83.243 56.2598 79.2943 60.8001 78.5325V73.5998C60.8001 48.8575 80.8577 28.7998 105.6 28.7998C130.342 28.7998 150.4 48.8575 150.4 73.5998V78.5325C154.94 79.2943 158.4 83.243 158.4 87.9998V99.1998C158.4 104.041 154.816 108.046 150.156 108.705C148.502 124.549 138.59 137.938 124.8 144.489Z" fill="#D0C6AC"/>
<g id="Skin/&#240;&#159;&#145;&#182;&#240;&#159;&#143;&#189;-03-Brown">
<g id="Color">
<path id="Vector_5" d="M236.8 28.7998H25.6001V252.8H236.8V28.7998Z" fill="#EDB98A"/>
</g>
</g>
<path id="Neck-Shadow" fill-rule="evenodd" clip-rule="evenodd" d="M150.4 92V110.4C150.4 135.142 130.342 155.2 105.6 155.2C80.8574 155.2 60.7998 135.142 60.7998 110.4V92V104C60.7998 128.742 80.8574 148.8 105.6 148.8C130.342 148.8 150.4 128.742 150.4 104V92Z" fill="black" fill-opacity="0.1"/>
</g>
</g>
<g id="Clothing/Blazer-+-Shirt">
<g id="Shirt">
<mask id="mask3_13_1017" style="mask-type:alpha" maskUnits="userSpaceOnUse" x="25" y="159" width="161" height="66">
<g id="react-mask-8">
<path id="Vector_6" fill-rule="evenodd" clip-rule="evenodd" d="M132.768 159.436C162.349 161.86 185.6 186.636 185.6 216.842V224H25.6001V216.842C25.6001 186.362 49.2737 161.412 79.2364 159.376C79.2123 159.675 79.2001 159.976 79.2001 160.278C79.2001 169.769 91.1989 177.462 106 177.462C120.801 177.462 132.8 169.769 132.8 160.278C132.8 159.996 132.789 159.715 132.768 159.436Z" fill="white"/>
</g>
</mask>
<g mask="url(#mask3_13_1017)">
<path id="Clothes" fill-rule="evenodd" clip-rule="evenodd" d="M132.768 159.436C162.349 161.86 185.6 186.636 185.6 216.842V224H25.6001V216.842C25.6001 186.362 49.2737 161.412 79.2364 159.376C79.2123 159.675 79.2001 159.976 79.2001 160.278C79.2001 169.769 91.1989 177.462 106 177.462C120.801 177.462 132.8 169.769 132.8 160.278C132.8 159.996 132.789 159.715 132.768 159.436Z" fill="#E6E6E6"/>
<g id="Color/Palette/Black">
<g id="&#240;&#159;&#150;&#141;Color_2">
<path id="Vector_7" d="M211.2 136H0V224H211.2V136Z" fill="#3A5036"/>
</g>
</g>
<g id="Shadowy" opacity="0.6">
<g id="Hola-&#240;&#159;&#145;&#139;&#240;&#159;&#143;&#188;" opacity="0.6">
<path id="Vector_8" opacity="0.6" d="M106 183.009C123.512 183.009 137.708 173.37 137.708 161.478C137.708 149.587 123.512 139.947 106 139.947C88.4882 139.947 74.292 149.587 74.292 161.478C74.292 173.37 88.4882 183.009 106 183.009Z" fill="black" fill-opacity="0.16"/>
</g>
</g>
</g>
</g>
<g id="Blazer">
<path id="Saco" fill-rule="evenodd" clip-rule="evenodd" d="M80.6279 159.298C50.0099 160.643 25.6001 185.892 25.6001 216.841H25.6001V224H81.0894C78.3687 214.336 76.8001 202.967 76.8001 190.8C76.8001 179.338 78.1921 168.585 80.6279 159.298ZM130.911 224H185.6V216.841C185.6 186.165 161.62 161.09 131.383 159.339C133.812 168.617 135.2 179.355 135.2 190.8C135.2 202.967 133.631 214.336 130.911 224Z" fill="#3A5036"/>
<path id="Pocket-hanky" fill-rule="evenodd" clip-rule="evenodd" d="M144.8 204.8L152.444 199.067C153.599 198.201 155.19 198.215 156.329 199.101L161.6 203.2L144.8 204.8Z" fill="#E6E6E6"/>
<path id="Wing" fill-rule="evenodd" clip-rule="evenodd" d="M80.7998 158.4C77.5998 173.867 78.9331 195.733 84.7998 224H71.9998L60.7998 195.2L65.5998 188L60.7998 183.2L75.9998 159.2C77.6219 158.695 79.2219 158.429 80.7998 158.4Z" fill="#3A5036"/>
<path id="Wing_2" fill-rule="evenodd" clip-rule="evenodd" d="M130.4 158.4C133.6 173.867 132.266 195.733 126.4 224H139.2L150.4 195.2L145.6 188L150.4 183.2L135.2 159.2C133.578 158.695 131.978 158.429 130.4 158.4Z" fill="#3A5036"/>
</g>
</g>
<g id="Face">
<g id="Mouth/Default">
<path id="Mouth" fill-rule="evenodd" clip-rule="evenodd" d="M94.3997 119.2C94.3997 125.386 99.4141 130.4 105.6 130.4C111.785 130.4 116.8 125.386 116.8 119.2" fill="black" fill-opacity="0.7"/>
</g>
<g id="Nose/Default">
<path id="Nose" fill-rule="evenodd" clip-rule="evenodd" d="M95.9995 104C95.9995 107.535 100.298 110.4 105.6 110.4C110.901 110.4 115.2 107.535 115.2 104" fill="black" fill-opacity="0.16"/>
</g>
<g id="Eyes/Default-&#240;&#159;&#152;&#128;">
<path id="Eye" d="M84.8002 94.4008C87.4512 94.4008 89.6002 92.2518 89.6002 89.6008C89.6002 86.9498 87.4512 84.8008 84.8002 84.8008C82.1493 84.8008 80.0002 86.9498 80.0002 89.6008C80.0002 92.2518 82.1493 94.4008 84.8002 94.4008Z" fill="black" fill-opacity="0.6"/>
<path id="Eye_2" d="M126.4 94.4008C129.051 94.4008 131.2 92.2518 131.2 89.6008C131.2 86.9498 129.051 84.8008 126.4 84.8008C123.749 84.8008 121.6 86.9498 121.6 89.6008C121.6 92.2518 123.749 94.4008 126.4 94.4008Z" fill="black" fill-opacity="0.6"/>
</g>
<g id="Eyebrow/Outline/Default">
<g id="I-Browse">
<path id="Eyebrow" d="M73.3037 79.3272C76.4357 74.9202 85.0219 72.449 92.418 74.2652C93.2761 74.476 94.1426 73.9511 94.3534 73.093C94.5641 72.2348 94.0393 71.3683 93.1811 71.1576C84.5918 69.0483 74.6492 71.9099 70.6953 77.4734C70.1835 78.1937 70.3524 79.1926 71.0727 79.7045C71.793 80.2164 72.7918 80.0475 73.3037 79.3272Z" fill="black" fill-opacity="0.6"/>
<path id="Eyebrow_2" d="M137.896 79.3272C134.764 74.9202 126.178 72.449 118.782 74.2652C117.924 74.476 117.057 73.9511 116.846 73.093C116.636 72.2348 117.16 71.3683 118.019 71.1576C126.608 69.0483 136.55 71.9099 140.504 77.4734C141.016 78.1937 140.847 79.1926 140.127 79.7045C139.407 80.2164 138.408 80.0475 137.896 79.3272Z" fill="black" fill-opacity="0.6"/>
</g>
</g>
</g>
<g id="Top">
<mask id="mask4_13_1017" style="mask-type:alpha" maskUnits="userSpaceOnUse" x="0" y="0" width="212" height="224">
<g id="react-mask-26">
<path id="Vector_9" d="M211.2 0H0V224H211.2V0Z" fill="white"/>
</g>
</mask>
<g mask="url(#mask4_13_1017)">
<g id="Top/Accesories/Hijab">
<g id="Group">
<mask id="mask5_13_1017" style="mask-type:alpha" maskUnits="userSpaceOnUse" x="40" y="16" width="136" height="208">
<g id="react-mask-27">
<path id="Vector_10" fill-rule="evenodd" clip-rule="evenodd" d="M52.0335 61.6598C56.5434 36.1645 78.8101 16.7998 105.6 16.7998C135.644 16.7998 160 41.1555 160 71.1998V95.8006C160.7 103.643 161.355 109.138 161.965 112.283C163.066 117.966 166.52 116.092 166.52 124.176C166.52 132.26 163.057 134.976 163.042 142.164C163.027 149.352 175.36 155.069 175.36 164.194C175.36 173.319 169.701 216.381 113.262 216.381C101.206 216.381 90.9361 212.951 82.4537 206.091C83 211.283 83.5153 217.253 83.9997 224H46.3997C47.1457 204.983 40.5723 194.349 40.5723 173.156C40.5723 151.964 51.4818 121.142 51.1997 113.6C51.2157 113.134 51.2323 112.583 51.2494 111.945C51.2164 111.168 51.1997 110.386 51.1997 109.6V71.1998C51.1997 68.0191 51.4727 64.9021 51.9965 61.871C51.9976 61.7807 51.9987 61.6903 51.9997 61.5998C52.011 61.6198 52.0222 61.6398 52.0335 61.6598ZM105.2 42.3998C81.1201 42.3998 61.5997 61.9202 61.5997 85.9998V104.4C61.5997 128.479 81.1201 148 105.2 148H106C130.079 148 149.6 128.479 149.6 104.4V85.9998C149.6 61.9202 130.079 42.3998 106 42.3998H105.2Z" fill="white"/>
</g>
</mask>
<g mask="url(#mask5_13_1017)">
<path id="Hijab-Mask" fill-rule="evenodd" clip-rule="evenodd" d="M52.0335 61.6598C56.5434 36.1645 78.8101 16.7998 105.6 16.7998C135.644 16.7998 160 41.1555 160 71.1998V95.8006C160.7 103.643 161.355 109.138 161.965 112.283C163.066 117.966 166.52 116.092 166.52 124.176C166.52 132.26 163.057 134.976 163.042 142.164C163.027 149.352 175.36 155.069 175.36 164.194C175.36 173.319 169.701 216.381 113.262 216.381C101.206 216.381 90.9361 212.951 82.4537 206.091C83 211.283 83.5153 217.253 83.9997 224H46.3997C47.1457 204.983 40.5723 194.349 40.5723 173.156C40.5723 151.964 51.4818 121.142 51.1997 113.6C51.2157 113.134 51.2323 112.583 51.2494 111.945C51.2164 111.168 51.1997 110.386 51.1997 109.6V71.1998C51.1997 68.0191 51.4727 64.9021 51.9965 61.871C51.9976 61.7807 51.9987 61.6903 51.9997 61.5998C52.011 61.6198 52.0222 61.6398 52.0335 61.6598ZM105.2 42.3998C81.1201 42.3998 61.5997 61.9202 61.5997 85.9998V104.4C61.5997 128.479 81.1201 148 105.2 148H106C130.079 148 149.6 128.479 149.6 104.4V85.9998C149.6 61.9202 130.079 42.3998 106 42.3998H105.2Z" fill="#1E63C1"/>
<g id="Color/Palette/Gray-01">
<path id="&#240;&#159;&#150;&#141;Color_3" d="M210.4 0H-0.800049V224H210.4V0Z" fill="#91C788"/>
</g>
<path id="Band" fill-rule="evenodd" clip-rule="evenodd" d="M56.8596 83.9674C56.2952 80.9971 56 77.9326 56 74.7996C56 47.6272 78.2067 25.5996 105.6 25.5996C132.993 25.5996 155.2 47.6272 155.2 74.7996C155.2 77.9326 154.905 80.9971 154.34 83.9674C153.073 58.1458 131.736 37.5996 105.6 37.5996C79.4641 37.5996 58.1269 58.1458 56.8596 83.9674Z" fill="white" fill-opacity="0.5"/>
<path id="Shadows" opacity="0.9" fill-rule="evenodd" clip-rule="evenodd" d="M149.543 83.7559C150.105 86.5497 150.4 89.4402 150.4 92.3995V110.8C150.4 134.879 130.879 154.4 106.8 154.4H104.4C80.3202 154.4 60.7998 134.879 60.7998 110.8V92.3995C60.7998 89.4402 61.0946 86.5497 61.6565 83.7559C61.6189 84.499 61.5998 85.247 61.5998 85.9995V104.4C61.5998 128.479 81.1202 148 105.2 148H106C130.079 148 149.6 128.479 149.6 104.4V85.9995C149.6 85.247 149.581 84.499 149.543 83.7559ZM90.5333 165.596C95.7208 169.584 107.731 170.966 121.123 168.605C134.516 166.243 145.329 160.837 148.84 155.315C148.894 155.517 148.94 155.721 148.977 155.929C150.344 163.685 138.388 172.276 122.272 175.118C106.156 177.959 91.9821 173.976 90.6145 166.22C90.578 166.012 90.5509 165.804 90.5333 165.596H90.5333ZM100.028 188.737C106.581 193.26 119.537 193.475 132.883 188.617C146.228 183.76 156.015 175.267 158.128 167.59C158.242 167.846 158.348 168.107 158.445 168.373C162.066 178.323 151.983 191.127 135.924 196.972C119.864 202.817 103.91 199.49 100.289 189.54C100.192 189.275 100.105 189.007 100.028 188.737H100.028Z" fill="black" fill-opacity="0.16"/>
</g>
</g>
</g>
</g>
</g>
</g>
</g>
</svg>
