<svg width="96" height="96" viewBox="0 0 96 96" fill="none" xmlns="http://www.w3.org/2000/svg">
<rect width="96" height="96" fill="#E5E5E5"/>
<g id="Favorites - No Recipes" clip-path="url(#clip0_0_1)">
<rect width="375" height="812" transform="translate(-139 -304)" fill="white"/>
<g id="Group 36271">
<g id="Group">
<g id="Group_2">
<path id="Vector" d="M94.4 60.8022H1.60004C0.71686 60.8022 0 61.5174 0 62.4022C0 80.9274 15.0721 96 33.6 96H62.4C80.9264 96 96 80.9274 96 62.4022C96 61.5174 95.2848 60.8022 94.4 60.8022ZM62.4 92.8001H33.6C17.3743 92.8001 4.07671 80.0233 3.24153 64.0019H92.7583C91.9233 80.0233 78.6257 92.8001 62.4 92.8001Z" fill="#E7E8E7"/>
</g>
</g>
<g id="Group_3">
<g id="Group_4">
<path id="Vector_2" d="M81.6065 22.4145C81.6065 22.2977 81.6048 22.1809 81.5937 22.0033C81.3473 19.3507 79.5234 17.1716 77.1154 16.3541L78.9266 14.543C82.0674 11.4665 82.3826 6.54522 79.6337 3.07028C76.6897 -0.507032 71.384 -1.01591 67.808 1.92634C67.6047 2.09434 67.408 2.27191 67.2112 2.46878L65.2432 4.46547C64.4176 2.07034 62.2336 0.259281 59.5425 0.00971823C55.9985 -0.183782 52.9985 2.53591 52.8081 6.05885C52.8018 6.17566 52.8001 6.29247 52.8001 6.4076V8.86029C51.8593 8.31466 50.7697 8.00116 49.6065 7.99947C49.4914 7.99947 49.3729 8.00266 49.1953 8.01222C45.7745 8.3306 43.1426 11.2697 43.2002 14.6773V16.8532C42.2401 16.298 41.1458 16.0005 40.0067 15.9988C39.8915 15.9988 39.7747 16.002 39.5971 16.0115C36.1747 16.3299 33.5427 19.269 33.6003 22.6768V46.4032C33.6003 47.2881 34.3172 48.0032 35.2003 48.0032H62.4003C65.9299 48.0032 68.8003 45.1329 68.7986 41.6068C68.7986 40.4421 68.4866 39.3493 67.9394 38.4071H70.1011C73.5378 38.5014 76.4771 35.8312 76.7987 32.3482C76.8675 31.0459 76.541 29.814 75.9235 28.7677C77.3603 28.6078 78.6899 27.9725 79.7267 26.939C80.9359 25.7327 81.6048 24.1264 81.6065 22.4145ZM77.4671 24.6735C76.8624 25.275 76.0608 25.6063 75.2048 25.6063C75.2031 25.6063 75.2016 25.6063 75.1999 25.6063H70.4C69.5151 25.6063 68.7999 26.3231 68.7999 27.2062C68.7999 28.0894 69.5151 28.8062 70.4 28.8062L70.5761 28.811C72.3392 28.9054 73.6961 30.4157 73.6064 32.1148C73.4433 33.8779 71.9473 35.2427 70.1281 35.2057H62.4001C61.5153 35.2057 60.8001 35.9226 60.8001 36.8057C60.8001 37.6888 61.5153 38.4056 62.4001 38.4056C64.165 38.4056 65.6002 39.8407 65.6002 41.6055C65.6002 43.3702 64.165 44.8054 62.4001 44.8054H36.8V22.6496C36.7696 20.8785 38.1297 19.3635 39.8304 19.2034L40.0048 19.1985C41.7665 19.2 43.1983 20.6336 43.2 22.3935V22.4047C43.2 23.2879 43.9152 24.0047 44.7983 24.0047C44.8 24.0047 44.8 24.0047 44.8 24.0047C45.6832 24.0047 46.3984 23.2895 46.4001 22.4064V22.4049V14.6501C46.3697 12.879 47.7297 11.364 49.4305 11.2038L49.6034 11.199C51.3665 11.2022 52.7986 12.6356 52.8003 14.3972V14.4067C52.8003 15.2899 53.5154 16.0067 54.3986 16.0067C54.4003 16.0067 54.4003 16.0067 54.4003 16.0067C55.2835 16.0067 55.9987 15.2915 56.0003 14.4084V14.4067V6.40741L56.0052 6.22985C56.098 4.46828 57.5732 3.11172 59.3077 3.19966C61.0741 3.36447 62.4324 4.87947 62.3988 6.68097V8.00885C62.3988 8.65685 62.7909 9.24241 63.3925 9.48879C63.9893 9.73516 64.6837 9.59435 65.138 9.13047L69.4787 4.72591C69.5971 4.6091 69.7188 4.49866 69.8451 4.39478C72.0595 2.57416 75.3411 2.89084 77.1459 5.07953C78.8547 7.24254 78.6578 10.3271 76.6772 12.2679L72.4692 16.4756C72.0117 16.9331 71.874 17.621 72.1219 18.2195C72.3683 18.8164 72.9539 19.2067 73.6003 19.2067H74.9282C74.9618 19.2067 74.9858 19.2067 75.013 19.2067C76.7602 19.2067 78.2449 20.5539 78.4017 22.2369L78.4066 22.413C78.4047 23.2672 78.0721 24.0703 77.4671 24.6735Z" fill="#E7E8E7"/>
</g>
</g>
<g id="Group_5">
<g id="Group_6">
<path id="Vector_3" d="M69.2693 10.0695L24.4717 54.8672L26.7343 57.1298L71.5319 12.3321L69.2693 10.0695Z" fill="#E7E8E7"/>
</g>
</g>
<g id="Group_7">
<g id="Group_8">
<path id="Vector_4" d="M62.3969 12.8149H59.1968V20.8144H62.3969V12.8149Z" fill="#E7E8E7"/>
</g>
</g>
<g id="Group_9">
<g id="Group_10">
<path id="Vector_5" d="M52.7968 20.8145H49.5967V30.4139H52.7968V20.8145Z" fill="#E7E8E7"/>
</g>
</g>
<g id="Group_11">
<g id="Group_12">
<path id="Vector_6" d="M43.1967 28.7979H39.9966V39.997H43.1967V28.7979Z" fill="#E7E8E7"/>
</g>
</g>
<g id="Group_13">
<g id="Group_14">
<path id="Vector_7" d="M68.7969 19.2148H60.7969V22.4145H68.7969V19.2148Z" fill="#E7E8E7"/>
</g>
</g>
<g id="Group_15">
<g id="Group_16">
<path id="Vector_8" d="M60.7969 28.7979H51.1968V31.9975H60.7969V28.7979Z" fill="#E7E8E7"/>
</g>
</g>
<g id="Group_17">
<g id="Group_18">
<path id="Vector_9" d="M52.7971 38.3975H41.5972V41.5973H52.7971V38.3975Z" fill="#E7E8E7"/>
</g>
</g>
<g id="Group_19">
<g id="Group_20">
<path id="Vector_10" d="M29.864 7.40093C29.8625 7.39774 29.8591 7.39455 29.8576 7.39137C27.6 4.01074 23.0112 3.09236 19.632 5.34987C19.5264 5.41868 19.4224 5.49218 19.304 5.5803L18.728 6.01868L18.1745 5.62024C15.2465 2.8893 10.6432 2.99974 7.85602 5.8923C6.49131 7.30662 5.75851 9.16887 5.79526 11.1352C5.83202 13.1015 6.63044 14.9349 8.04335 16.298C8.45456 16.6947 8.9121 17.0435 9.40488 17.3347L10.7522 18.3875V19.2067C10.7522 23.6176 14.341 27.2062 18.7522 27.2062C23.1634 27.2062 26.7522 23.6159 26.7505 19.2052V18.386L28.1666 17.2805C31.2304 14.9557 31.9744 10.6152 29.864 7.40093ZM26.2144 14.7461L24.1664 16.346C23.7792 16.6484 23.5519 17.114 23.5519 17.6067V19.2067C23.5519 21.8529 21.3984 24.0063 18.752 24.0063C16.1056 24.0063 13.9521 21.8529 13.9521 19.2067V17.6067C13.9521 17.114 13.7265 16.6484 13.3376 16.346L11.2896 14.7461C11.2288 14.6981 11.1632 14.6549 11.0961 14.6165C10.7953 14.4453 10.5168 14.2374 10.2672 13.9957C9.46732 13.2245 9.01598 12.1878 8.99516 11.0774C8.97435 9.96706 9.38875 8.91443 10.16 8.11437C10.9744 7.26968 12.064 6.84405 13.1551 6.84405C14.1951 6.84405 15.2367 7.22955 16.0432 8.00881C16.0976 8.05999 16.1551 8.10968 16.2176 8.15431L17.8176 9.30631C18.3873 9.71749 19.16 9.70793 19.7201 9.28231L21.4066 8.01368C22.3346 7.39287 23.4466 7.17537 24.5411 7.39137C25.6322 7.60887 26.5746 8.23774 27.1938 9.16249C28.3809 10.9767 27.9585 13.4214 26.2144 14.7461Z" fill="#E7E8E7"/>
</g>
</g>
<g id="Group_21">
<g id="Group_22">
<path id="Vector_11" d="M38.3974 1.59961H35.1973V4.7993H38.3974V1.59961Z" fill="#E7E8E7"/>
</g>
</g>
<g id="Group_23">
<g id="Group_24">
<path id="Vector_12" d="M47.9968 52.7964H44.7969V55.9961H47.9968V52.7964Z" fill="#E7E8E7"/>
</g>
</g>
<g id="Group_25">
<g id="Group_26">
<path id="Vector_13" d="M86.3999 9.60742V12.8073C88.1648 12.8073 89.6 14.2424 89.6 16.007C89.6 17.7716 88.1648 19.2069 86.3999 19.2069V22.4066C89.9294 22.4066 92.7999 19.5363 92.7999 16.007C92.7999 12.4777 89.9294 9.60742 86.3999 9.60742Z" fill="#E7E8E7"/>
</g>
</g>
<g id="Group_27">
<g id="Group_28">
<path id="Vector_14" d="M6.39619 24.0142H3.19629V27.214H6.39619V24.0142Z" fill="#E7E8E7"/>
</g>
</g>
<g id="Group_29">
<g id="Group_30">
<path id="Vector_15" d="M3.1999 17.6147H0V20.8146H3.1999V17.6147Z" fill="#E7E8E7"/>
</g>
</g>
<g id="Group_31">
<g id="Group_32">
<path id="Vector_16" d="M62.4 51.2026C58.8704 51.2026 56 54.0729 56 57.6022H59.2001C59.2001 55.8374 60.6353 54.4023 62.4 54.4023C64.1649 54.4023 65.6001 55.8374 65.6001 57.6022H68.8C68.8 54.0729 65.9295 51.2026 62.4 51.2026Z" fill="#E7E8E7"/>
</g>
</g>
<g id="Group_33">
<g id="Group_34">
<path id="Vector_17" d="M19.2 36.8035H18.9984C18.2847 34.0469 15.7775 32.0039 12.8 32.0039C9.82247 32.0039 7.31355 34.0469 6.60156 36.8035H6.39999C2.87044 36.8035 0 39.6738 0 43.2031C0 46.7324 2.87044 49.6027 6.39999 49.6027H19.2C22.7295 49.6027 25.6 46.7324 25.6 43.2031C25.6 39.6738 22.7295 36.8035 19.2 36.8035ZM19.2 46.4045H6.3998C4.63493 46.4045 3.19971 44.9694 3.19971 43.2048C3.19971 41.44 4.63493 40.0049 6.3998 40.0049H7.99984C8.88303 40.0049 9.59989 39.2881 9.59989 38.405C9.59989 36.6402 11.0351 35.2053 12.8 35.2053C14.5648 35.2053 16.0001 36.6404 16.0001 38.405C16.0001 39.2881 16.7169 40.0049 17.6001 40.0049H19.2002C20.965 40.0049 22.4002 41.44 22.4002 43.2048C22.3999 44.9695 20.9646 46.4045 19.2 46.4045Z" fill="#E7E8E7"/>
</g>
</g>
<g id="Group_35">
<g id="Group_36">
<path id="Vector_18" d="M16 46.4033H9.60004C8.71686 46.4033 8 47.1201 8 48.0033V54.4028C8 55.2876 8.71686 56.0028 9.60004 56.0028H16C16.8832 56.0028 17.6001 55.2876 17.6001 54.4028V48.0033C17.6001 47.1201 16.8832 46.4033 16 46.4033ZM14.4 52.8029H11.2001V49.6032H14.4002V52.8029H14.4Z" fill="#E7E8E7"/>
</g>
</g>
<g id="Group_37">
<g id="Group_38">
<path id="Vector_19" d="M84.7995 41.6035C82.1531 41.6035 79.9995 43.757 79.9995 46.4031C79.9995 49.0493 82.1531 51.2028 84.7995 51.2028C87.4458 51.2028 89.5994 49.0493 89.5994 46.4031C89.5994 43.757 87.4458 41.6035 84.7995 41.6035ZM84.7995 48.0046C83.9163 48.0046 83.1994 47.2863 83.1994 46.4046C83.1994 45.523 83.9163 44.8047 84.7995 44.8047C85.6826 44.8047 86.3995 45.5215 86.3995 46.4046C86.3995 47.288 85.6826 48.0046 84.7995 48.0046Z" fill="#E7E8E7"/>
</g>
</g>
<g id="Group_39">
<g id="Group_40">
<path id="Vector_20" d="M84.7995 35.2041C78.6251 35.2041 73.5996 40.2278 73.5996 46.4033C73.5996 52.5788 78.6251 57.6025 84.7995 57.6025C90.974 57.6025 95.9995 52.5788 95.9995 46.4033C95.9995 40.2278 90.974 35.2041 84.7995 35.2041ZM84.7995 54.4043C80.3883 54.4043 76.7995 50.8142 76.7995 46.4048C76.7995 41.9939 80.3883 38.4053 84.7995 38.4053C89.2108 38.4053 92.7996 41.9939 92.7996 46.4048C92.7996 50.8157 89.2108 54.4043 84.7995 54.4043Z" fill="#E7E8E7"/>
</g>
</g>
</g>
</g>
<defs>
<clipPath id="clip0_0_1">
<rect width="375" height="812" fill="white" transform="translate(-139 -304)"/>
</clipPath>
</defs>
</svg>
