<svg width="282" height="282" viewBox="0 0 282 282" fill="none" xmlns="http://www.w3.org/2000/svg">
<path d="M192.658 203.09H251.043C251.043 203.09 248.138 199.311 244.941 198.838C244.941 198.838 238.737 180.305 228.291 180.175C218.607 180.051 214.721 191.568 214.721 191.568C214.721 191.568 210.209 186.401 205.946 188.748C201.682 191.094 199.228 197.873 199.228 197.873C199.228 197.873 194.406 200.49 192.658 203.09Z" fill="#EBEBEB"/>
<path d="M104.793 131.064H30.9595C30.9595 131.064 30.9595 126.349 41.1115 125.424C41.1115 125.424 50.3949 104.804 64.5739 107.579C73.4061 109.271 77.9181 121.425 77.9181 121.425C77.9181 121.425 84.5902 111.882 89.9257 113.732C95.2611 115.582 98.4308 125.734 98.4308 125.734C98.4308 125.734 103.958 128.402 104.793 131.064Z" fill="#EBEBEB"/>
<path d="M247.844 115.136H197.648C197.648 115.136 202.386 110.725 204.489 110.725C206.593 110.725 212.741 95.9202 220.592 96.5519C228.442 97.1836 232.61 108.204 232.61 108.204C232.61 108.204 242.153 105.215 247.844 115.136Z" fill="#EBEBEB"/>
<path d="M130.021 192.139H87.0897C87.0897 192.139 89.2273 189.358 91.6017 189.014C91.6017 189.014 96.1758 175.388 103.841 175.286C110.964 175.196 113.823 183.667 113.823 183.667C113.823 183.667 117.123 179.872 120.275 181.609C123.428 183.346 125.21 188.315 125.21 188.315C125.21 188.315 128.735 190.227 130.021 192.139Z" fill="#EBEBEB"/>
<path d="M72.6592 63.806H131.044C131.044 63.806 128.14 60.0272 124.942 59.5534C124.942 59.5534 118.738 41.0204 108.298 40.8906C98.6088 40.7666 94.7511 52.2891 94.7511 52.2891C94.7511 52.2891 90.2391 47.1228 85.9752 49.4691C81.7114 51.8153 79.258 58.5946 79.258 58.5946C79.258 58.5946 74.4076 61.2059 72.6592 63.806Z" fill="#EBEBEB"/>
<path d="M140.998 264.629C183.775 264.629 218.452 259.15 218.452 252.391C218.452 245.631 183.775 240.152 140.998 240.152C98.2212 240.152 63.5438 245.631 63.5438 252.391C63.5438 259.15 98.2212 264.629 140.998 264.629Z" fill="#EBEBEB"/>
<path d="M27.4288 238.487L55.8262 238.351L84.218 238.3L141.002 238.205L197.785 238.3L226.177 238.351L254.574 238.487L226.177 238.628L197.785 238.673L141.002 238.769L84.218 238.673L55.8262 238.622L27.4288 238.487Z" fill="#3A5036"/>
<path d="M113.191 238.485H67.84C67.84 238.485 67.9415 231.717 72.4027 229.946C73.6103 229.419 74.9569 229.298 76.239 229.603C77.5211 229.909 78.669 230.623 79.5091 231.638C79.5091 231.638 81.3252 219.23 89.6611 219.23C97.9971 219.23 101.945 229.946 101.945 229.946C101.945 229.946 103.772 226.726 108.392 227.29C113.011 227.854 113.191 238.485 113.191 238.485Z" fill="#37474F"/>
<path d="M247.848 238.487C247.848 238.487 246.455 232.001 243.68 231.002C240.905 230.004 239.214 232.914 239.214 232.914C239.214 232.914 238.571 226.727 234.623 224.86C230.675 222.994 227.73 226.801 227.73 226.801C227.73 226.801 224.713 218.938 219.316 218.938C213.918 218.938 211.194 230.444 211.194 230.444C211.194 230.444 208.007 227.015 204.731 228.983C201.454 230.952 201.465 238.515 201.465 238.515L247.848 238.487Z" fill="#37474F"/>
<path d="M75.9693 238.488H34.1487C34.1487 238.488 35.5305 232.594 38.2997 232.177C41.069 231.759 42.3605 234.489 42.3605 234.489C42.3605 234.489 42.2364 226.266 47.4365 224.867C52.6366 223.469 56.9625 230.733 56.9625 230.733C56.9625 230.733 60.2111 226.588 64.6329 226.853C69.0546 227.118 70.1826 233.965 70.1826 233.965C70.1826 233.965 74.187 231.59 75.9693 238.488Z" fill="#455A64"/>
<path d="M204.474 238.485H178.784C178.784 238.485 178.846 234.661 181.373 233.646C182.058 233.348 182.821 233.281 183.548 233.455C184.274 233.629 184.924 234.034 185.4 234.61C185.4 234.61 186.426 227.583 191.136 227.583C195.845 227.583 198.095 233.646 198.095 233.646C198.494 233.067 199.054 232.617 199.705 232.351C200.356 232.086 201.071 232.016 201.761 232.151C204.367 232.495 204.474 238.485 204.474 238.485Z" fill="#455A64"/>
<path d="M158.914 35.7736C165.479 47.0536 163.256 62.7159 149.619 73.2909C137.211 82.9127 118.599 81.5027 111.684 73.539C104.352 65.079 107.172 53.3648 114.753 49.5972C122.056 45.9651 129.67 47.9052 134.459 43.5399C136.748 41.4474 138.333 36.4448 141.582 33.2018C145.208 29.5922 154.689 28.5375 158.914 35.7736Z" fill="#3A5036"/>
<path d="M120.478 79.6265C125.584 81.2469 131.019 81.5419 136.27 80.4837C141.542 79.4039 146.494 77.1247 150.742 73.8229C155.064 70.5932 158.438 66.2608 160.511 61.2795C162.484 56.2829 163.068 50.8458 162.203 45.5439C162.82 50.826 162.079 56.1782 160.048 61.0934C159.011 63.5211 157.651 65.7977 156.005 67.8614C154.35 69.9133 152.446 71.7511 150.336 73.3322C148.247 74.9405 145.996 76.326 143.619 77.4663C138.833 79.7338 133.585 80.8594 128.29 80.7545C125.648 80.7176 123.022 80.3384 120.478 79.6265Z" fill="#3A5036"/>
<path d="M112.552 50.1955C113.852 49.1896 115.302 48.3959 116.85 47.8437C118.384 47.2834 119.977 46.9049 121.599 46.7157C123.235 46.5239 124.87 46.2927 126.5 45.9994C128.153 45.7074 129.765 45.2228 131.305 44.5555C132.082 44.2234 132.826 43.8194 133.528 43.3486C134.216 42.8492 134.836 42.2614 135.372 41.6002C136.387 40.2887 137.323 38.9176 138.175 37.4943C139.024 36.0989 140.047 34.8176 141.22 33.6816C142.409 32.5518 143.795 31.6495 145.309 31.0195C143.728 31.5433 142.262 32.3688 140.995 33.4504C139.756 34.5644 138.664 35.8324 137.746 37.2235C136.793 38.5771 135.964 40.0041 134.926 41.2392C134.418 41.8557 133.83 42.4019 133.178 42.8635C132.504 43.3052 131.79 43.6828 131.046 43.9915C128.079 45.3113 124.769 45.6835 121.531 46.2024C119.888 46.4511 118.28 46.8961 116.743 47.5278C115.204 48.1723 113.787 49.0744 112.552 50.1955Z" fill="#3A5036"/>
<path d="M66.4726 154.185C64.9723 151.229 89.8334 119.025 111.593 92.173C111.595 92.1687 111.596 92.1639 111.596 92.1589C111.596 92.1539 111.595 92.1491 111.593 92.1448C121.417 80.0301 129.9 67.5995 136.318 60.6567C140.396 56.2405 144.13 55.1689 145.224 55.1689C148.845 55.1689 158.422 57.6111 156.87 77.1086C155.697 91.8515 152.686 107.395 156.143 123.672C159.6 139.949 168.523 154.901 177.603 161.5C186.684 168.099 200.112 168.691 198.702 168.572C198.268 168.533 196.446 170.969 191.889 172.656C186.249 174.72 177.519 175.278 173.48 177.219C165.212 181.167 158.506 190.253 146.025 191.319C132.878 192.447 118.705 183.586 105.8 178.606C90.1493 172.543 79.3882 179.672 66.4726 154.185Z" fill="#91C788"/>
<g opacity="0.1">
<path opacity="0.1" d="M66.4726 154.185C64.9723 151.229 89.8334 119.025 111.593 92.173C111.595 92.1687 111.596 92.1639 111.596 92.1589C111.596 92.1539 111.595 92.1491 111.593 92.1448C121.417 80.0301 129.9 67.5995 136.318 60.6567C140.396 56.2405 144.13 55.1689 145.224 55.1689C148.845 55.1689 158.422 57.6111 156.87 77.1086C155.697 91.8515 152.686 107.395 156.143 123.672C159.6 139.949 168.523 154.901 177.603 161.5C186.684 168.099 200.112 168.691 198.702 168.572C198.268 168.533 196.446 170.969 191.889 172.656C186.249 174.72 177.519 175.278 173.48 177.219C165.212 181.167 158.506 190.253 146.025 191.319C132.878 192.447 118.705 183.586 105.8 178.606C90.1493 172.543 79.3882 179.672 66.4726 154.185Z" fill="black"/>
</g>
<path opacity="0.1" d="M111.554 180.98C109.62 180.134 107.708 179.321 105.818 178.594C102.138 177.249 98.3272 176.293 94.4481 175.74C94.4481 175.74 110.804 141.9 120.984 136.581C126.557 133.666 116.816 147.766 111.554 180.98Z" fill="black"/>
<path opacity="0.1" d="M181.132 175.172C178.109 175.736 175.323 176.345 173.501 177.219C171.421 178.27 169.434 179.497 167.562 180.885C157.41 169.402 151.076 160.683 149.926 151.225C149.187 145.156 162.063 169.594 181.132 175.172Z" fill="black"/>
<path opacity="0.1" d="M122.281 185.763C120.527 185.013 118.779 184.229 117.036 183.445C120.905 171.375 121.999 159.34 123.302 160.276C124.723 161.302 123.302 176.592 122.281 185.763Z" fill="black"/>
<path d="M85.0538 183.71C85.0538 183.71 71.4276 176.745 64.152 157.371C63.4413 155.482 68.8388 137.417 75.5053 127.885C82.1718 118.354 90.4513 113.785 100.806 104.468C111.161 95.1509 131.161 64.1816 138.279 58.5811C143.168 54.7346 145.244 55.1971 145.244 55.1971C145.244 55.1971 138.972 59.2184 136.288 62.546C125.684 75.721 113.367 104.536 108.24 110.486C101.974 117.818 94.467 125.46 90.9138 132.657C86.9319 140.745 84.1176 176.288 85.0538 183.71Z" fill="#91C788"/>
<path d="M199.299 252.744C197.878 253.207 156.148 252.829 154.614 251.83C154.05 251.464 157.101 211.905 157.101 211.905L183.654 212.074L180.89 238.571C180.89 238.571 196.372 245.643 197.957 246.918C199.542 248.193 200.726 252.282 199.299 252.744Z" fill="#EB9481"/>
<path d="M199.302 252.744C197.881 253.206 156.151 252.828 154.617 251.83C154.43 251.717 154.329 247.701 154.927 242.473C162.507 243.646 189.556 247.453 191.643 246.19C193.098 245.31 191.784 243.979 190.572 243.088C194.04 244.78 197.278 246.376 197.949 246.923C199.511 248.192 200.724 252.287 199.302 252.744Z" fill="#3A5036"/>
<path d="M182.961 232.18H153.707C153.707 232.18 159.217 169.897 158.986 168.702C158.692 167.173 156.966 160.242 154.665 151.218C153.943 148.398 153.171 145.358 152.359 142.194C150.182 133.694 147.773 124.405 145.681 116.317C142.539 104.208 140.086 94.8008 140.086 94.8008H164.874C164.874 94.8008 167.767 103.96 171.405 115.877C177.338 135.245 185.268 161.9 186.069 168.38C187.321 178.876 182.961 232.18 182.961 232.18Z" fill="#37474F"/>
<path d="M181.669 227.189C177.203 227.098 178.489 227.059 174.016 227.019C171.833 227.019 157.463 226.873 155.404 227.211C155.392 227.211 155.381 227.216 155.372 227.224C155.364 227.233 155.359 227.244 155.359 227.256C155.359 227.268 155.364 227.28 155.372 227.288C155.381 227.297 155.392 227.301 155.404 227.301C157.446 227.64 171.816 227.516 174.016 227.493C178.489 227.448 177.203 227.414 181.669 227.318C181.683 227.314 181.696 227.306 181.704 227.294C181.713 227.282 181.718 227.268 181.718 227.253C181.718 227.239 181.713 227.225 181.704 227.213C181.696 227.201 181.683 227.193 181.669 227.189Z" fill="#3A5036"/>
<path d="M164.49 164.529C163.532 160.299 162.099 156.154 160.847 152.003C158.313 143.573 155.763 135.145 153.199 126.719C151.921 122.508 150.633 118.294 149.336 114.08C148.681 111.959 148.033 109.833 147.367 107.712C146.702 105.591 145.974 103.578 145.388 101.508C145.145 100.656 145.015 101.124 145.32 102.207C145.94 104.39 146.549 106.573 147.187 108.75C148.443 113.059 149.71 117.366 150.988 121.671C153.526 130.244 156.085 138.809 158.664 147.367C159.95 151.661 161.24 155.951 162.533 160.237C163.186 162.271 163.715 164.343 164.118 166.441C164.461 168.646 164.548 170.883 164.378 173.108C164.096 177.58 163.577 182.047 163.165 186.514C162.753 190.981 162.336 195.465 161.918 199.937C161.095 208.843 160.655 211.708 159.854 220.619C159.753 221.747 159.651 222.875 159.567 224.003C159.538 224.381 160.131 224.353 160.131 224.003C161.095 215.199 161.45 212.402 162.279 203.581C163.109 194.76 163.921 186.029 164.744 177.253C164.947 175.054 165.184 172.843 165.184 170.632C165.181 168.578 164.948 166.531 164.49 164.529Z" fill="#3A5036"/>
<path d="M162.059 94.8301C160.339 108.146 157.057 133.114 154.665 151.23C149.076 129.285 140.086 94.8301 140.086 94.8301H162.059Z" fill="#3A5036"/>
<path d="M168.154 253.234C166.733 253.697 125.003 253.319 123.469 252.321C122.905 251.954 124.123 212.395 124.123 212.395L150.676 212.57L149.74 239.038C149.74 239.038 165.227 246.139 166.801 247.414C168.374 248.688 169.576 252.772 168.154 253.234Z" fill="#EB9481"/>
<path d="M168.155 253.236C166.734 253.699 125.004 253.321 123.47 252.323C123.284 252.21 123.278 248.301 123.357 242.966C130.937 244.139 158.41 247.946 160.496 246.683C161.951 245.803 160.637 244.472 159.425 243.581C162.893 245.273 166.131 246.869 166.802 247.416C168.364 248.679 169.577 252.774 168.155 253.236Z" fill="#3A5036"/>
<path d="M164.073 94.8301C164.073 94.8301 163.509 106.674 160.785 116.087C160.57 116.866 160.333 117.627 160.08 118.343C157.591 119.348 155.2 120.577 152.934 122.015C152.934 122.015 152.646 131.563 152.37 142.206C152.054 154.101 151.727 167.377 151.806 170.192C152.054 180.722 150.774 232.046 150.774 232.046L121.525 232.164C121.525 232.164 126.527 174.072 126.493 170.22C126.437 164.016 127.909 136.611 129.048 116.64C129.714 104.339 130.278 94.8301 130.278 94.8301H164.073Z" fill="#37474F"/>
<path d="M149.751 226.863C145.284 226.79 146.57 226.744 142.098 226.722C139.915 226.722 125.544 226.649 123.486 226.993C123.441 226.993 123.441 227.077 123.486 227.083C125.528 227.416 139.898 227.229 142.098 227.196C146.565 227.134 145.279 227.105 149.746 226.993C149.76 226.989 149.773 226.981 149.782 226.97C149.791 226.958 149.796 226.944 149.797 226.93C149.798 226.915 149.794 226.901 149.785 226.889C149.777 226.877 149.765 226.868 149.751 226.863Z" fill="#3A5036"/>
<path d="M132.751 99.07C132.215 115.387 131.623 131.703 130.912 148.014C130.202 164.325 129.192 180.726 127.821 197.082C127.06 206.202 126.62 212.451 125.639 221.548C125.639 221.61 125.723 221.633 125.735 221.548C127.861 205.362 128.763 191.933 129.812 175.644C130.861 159.356 131.566 143.045 132.125 126.734C132.441 117.507 132.689 108.28 132.954 99.0531C132.96 98.9234 132.757 98.9403 132.751 99.07Z" fill="#3A5036"/>
<path d="M161.3 117.654C158.393 118.869 155.597 120.333 152.942 122.031C152.835 122.099 152.914 122.262 153.027 122.206C155.847 120.835 158.729 119.515 161.487 117.993C161.531 117.968 161.565 117.926 161.579 117.877C161.593 117.828 161.587 117.775 161.563 117.73C161.538 117.686 161.497 117.652 161.447 117.638C161.398 117.624 161.345 117.63 161.3 117.654Z" fill="#3A5036"/>
<path d="M161.458 107.592C161.266 108.63 161.012 109.657 160.792 110.694C160.572 111.732 160.425 112.651 160.166 113.61C159.958 114.537 159.488 115.385 158.812 116.052C158.429 116.408 158.012 116.718 157.605 117.045C157.385 117.22 157.149 117.389 156.923 117.564C156.951 117.429 156.974 117.288 157.002 117.147L157.205 115.962C157.352 115.088 157.493 114.208 157.622 113.334C157.887 111.608 158.13 109.865 158.491 108.156C158.492 108.143 158.488 108.13 158.48 108.12C158.473 108.109 158.462 108.101 158.449 108.098C158.436 108.095 158.423 108.096 158.411 108.101C158.399 108.107 158.389 108.116 158.384 108.128C157.955 109.82 157.481 111.512 157.103 113.204C156.923 114.039 156.269 118.173 156.235 118.466C156.201 118.76 156.184 119.07 156.173 119.374C156.131 119.681 156.131 119.992 156.173 120.299C156.173 120.373 156.28 120.361 156.314 120.299C156.441 120.013 156.53 119.712 156.579 119.403C156.652 119.104 156.72 118.805 156.776 118.506C156.776 118.399 156.81 118.286 156.821 118.179C157.228 117.93 157.611 117.615 157.989 117.327C158.367 117.039 158.818 116.763 159.207 116.413C159.922 115.806 160.439 114.999 160.691 114.095C160.939 113.121 161.102 112.126 161.176 111.123C161.305 109.95 161.401 108.771 161.57 107.598C161.576 107.547 161.474 107.519 161.458 107.592Z" fill="#3A5036"/>
<path d="M150.221 64.9557C158.416 78.08 178.918 97.3237 184.428 93.7197C191.196 89.3205 189.188 68.2551 189.115 64.6455C189.07 62.1188 170.503 65.2659 171.462 67.7983C172.026 69.3324 172.499 71.3346 172.121 71.1484C170.937 70.5844 168.433 67.3527 157.181 59.6993C150.915 55.4523 144.796 56.2645 150.221 64.9557Z" fill="#EB9481"/>
<path d="M183.455 42.8175C182.909 42.7563 182.358 42.8641 181.876 43.1264C181.394 43.3887 181.004 43.7927 180.759 44.2839C180.048 43.684 179.151 43.3509 178.221 43.342C176.574 43.404 175.965 46.0097 175.965 46.0097C175.103 45.543 174.12 45.3465 173.145 45.4457C171.577 45.66 170.579 48.198 170.579 48.198C169.54 48.2079 168.539 48.5901 167.759 49.2753C165.751 51.1872 166.603 55.3326 167.116 57.9722C167.629 60.6117 171.56 67.6222 172.192 69.0378L189.174 65.8851C189.174 65.8851 190.24 53.3868 189.174 50.3638C188.26 47.8145 185.553 43.122 183.455 42.8175Z" fill="#EB9481"/>
<path d="M181.041 44.3508C182.626 46.8324 183.393 49.6468 184.312 52.4104C184.317 52.4231 184.316 52.4371 184.31 52.4493C184.304 52.4614 184.294 52.4708 184.281 52.4753C184.268 52.4798 184.254 52.479 184.242 52.4732C184.23 52.4674 184.221 52.457 184.216 52.4443C183.331 49.6806 181.91 47.1314 180.917 44.4129C180.909 44.3964 180.907 44.3774 180.913 44.3599C180.919 44.3425 180.932 44.328 180.948 44.3198C180.964 44.3116 180.984 44.3102 181.001 44.3161C181.018 44.3219 181.033 44.3344 181.041 44.3508Z" fill="#3A5036"/>
<path d="M176.177 46.0204C176.488 46.6256 176.714 47.2709 176.848 47.938C177.04 48.626 177.228 49.3141 177.412 50.0022C177.75 51.3821 178.053 52.7733 178.32 54.1758C178.32 54.2378 178.241 54.2717 178.224 54.1758C177.886 52.7996 177.525 51.4291 177.13 50.0642C176.933 49.3818 176.724 48.705 176.515 48.0226C176.278 47.3959 176.11 46.7454 176.013 46.0824C176.016 46.065 176.024 46.0487 176.035 46.035C176.046 46.0214 176.061 46.0109 176.077 46.0046C176.094 45.9984 176.112 45.9965 176.129 45.9993C176.147 46.002 176.163 46.0093 176.177 46.0204Z" fill="#3A5036"/>
<path d="M170.557 48.2566C170.825 48.8004 170.998 49.386 171.07 49.9881C171.211 50.6197 171.352 51.2571 171.499 51.8887C171.797 53.1521 172.091 54.4155 172.435 55.6676C172.435 55.681 172.429 55.6939 172.42 55.7035C172.41 55.713 172.397 55.7183 172.384 55.7183C172.371 55.7183 172.358 55.713 172.348 55.7035C172.339 55.6939 172.333 55.681 172.333 55.6676C171.984 54.3986 171.617 53.1295 171.279 51.8605C171.109 51.2345 170.946 50.6085 170.788 49.9768C170.586 49.4201 170.485 48.8318 170.489 48.2396C170.494 48.2343 170.5 48.2304 170.507 48.2283C170.514 48.2262 170.521 48.226 170.528 48.2277C170.535 48.2295 170.541 48.2331 170.546 48.2382C170.551 48.2432 170.555 48.2496 170.557 48.2566Z" fill="#3A5036"/>
<path d="M171.339 68.9997L190.132 65.5762C190.132 65.5762 191.914 94.8478 182.912 94.8478C175.688 94.8478 156.901 76.5799 150.612 66.394C144.324 56.2082 149.952 54.8208 157.155 59.1636C163.026 62.7055 169.625 68.8192 171.61 70.4436L171.339 68.9997Z" fill="#EBEBEB"/>
<path d="M171.539 70.4369L191.539 68.6547L190.952 64.6729L170.913 68.446L171.539 70.4369Z" fill="#EBEBEB"/>
<path d="M184.753 94.3792C184.189 94.6893 183.557 94.8504 182.914 94.8473C175.689 94.8473 156.902 76.5794 150.614 66.3935C146.237 59.3097 147.63 56.484 151.307 56.8788L184.753 94.3792Z" fill="#DBDBDB"/>
<path d="M171.612 70.4365L172.069 72.2357L172.509 74.0292L173.389 77.6162C173.688 78.8063 173.993 79.9963 174.314 81.1807C174.478 81.7729 174.641 82.3651 174.833 82.9517C175.025 83.5382 175.205 84.1192 175.397 84.717C174.811 83.6315 174.315 82.4997 173.914 81.333C173.491 80.1655 173.163 78.9698 172.853 77.7742C172.543 76.5785 172.289 75.3602 172.097 74.142C171.873 72.9159 171.711 71.6792 171.612 70.4365Z" fill="#3A5036"/>
<path d="M189.767 68.6497C186.857 68.8358 183.952 69.2137 181.053 69.5464C179.615 69.7157 178.171 69.8905 176.733 70.0766C175.294 70.2627 173.811 70.5053 172.339 70.6406C172.288 70.6406 172.288 70.7365 172.339 70.7309C173.822 70.5729 175.317 70.4996 176.806 70.3643C178.295 70.2289 179.688 70.0879 181.132 69.9243C184.014 69.5972 186.919 69.2701 189.772 68.723C189.829 68.7286 189.812 68.644 189.767 68.6497Z" fill="#3A5036"/>
<path d="M169.954 108.798L167.449 100.722L165.69 88.7989C165.69 88.7989 169.407 82.1155 167.139 77.3835C166.011 74.9865 156.045 60.1082 151.911 57.1754C148.02 54.4231 142.459 57.4913 140.4 59.7078C132.504 68.258 130.767 89.2896 128.167 112.16L156 109.904L158.73 103.92L161.279 109.481L169.954 108.798Z" fill="#EBEBEB"/>
<path d="M167.829 78.7577C167.509 77.7572 167.048 76.8076 166.459 75.9377C166.262 75.6162 165.822 74.945 165.297 74.1554C165.145 73.7776 164.976 73.3997 164.789 73.0274C164.48 72.4957 164.2 71.9478 163.949 71.3862C163.945 71.375 163.936 71.366 163.925 71.3613C163.914 71.3565 163.901 71.3563 163.89 71.3608C163.879 71.3653 163.87 71.3741 163.865 71.3852C163.86 71.3963 163.86 71.4088 163.865 71.4201C164.131 71.9585 164.37 72.51 164.581 73.0726C163.695 71.7641 162.759 70.4161 162.359 69.8634C162.325 69.8183 162.251 69.8634 162.285 69.9085C163.137 70.9914 165.929 75.7516 166.606 76.9585C167.263 78.1527 167.61 79.4927 167.615 80.8558C167.618 82.2655 167.451 83.6705 167.119 85.0406C167.085 85.1591 167.203 85.2155 167.249 85.1027C167.64 84.1032 167.887 83.053 167.982 81.9838C168.123 80.9079 168.072 79.8154 167.829 78.7577Z" fill="#3A5036"/>
<path d="M143.424 63.5781C140.908 67.4641 128.54 83.0023 128.106 84.4461C127.671 85.89 131.439 89.1442 131.416 89.7421C131.332 92.1616 127 108.506 124.829 106.989C121.964 104.993 108.382 90.6332 109.663 83.8652C110.943 77.0972 137.237 59.6132 141.467 58.0115C145.697 56.4097 145.905 59.7486 143.424 63.5781Z" fill="#EB9481"/>
<path d="M118.724 101.647L130.483 88.4716C130.483 88.4716 128.301 85.3076 128.312 84.8394C128.323 84.3713 139.147 71.5459 143.314 64.5354C147.482 57.5249 145.779 55.3591 137.815 59.3523C129.852 63.3454 110.546 78.3139 109.576 83.2095C108.098 90.6768 118.724 101.647 118.724 101.647Z" fill="#EBEBEB"/>
<path d="M116.815 101.299L119.968 104.457L131.181 89.0205L129.889 87.2383L116.815 101.299Z" fill="#EBEBEB"/>
<path d="M129.243 87.6726C128.207 88.6272 127.224 89.6383 126.299 90.7013C125.329 91.7221 124.387 92.7712 123.44 93.8089C121.539 95.9014 119.689 98.0107 117.901 100.199C117.893 100.208 117.889 100.22 117.889 100.232C117.89 100.244 117.895 100.256 117.904 100.264C117.913 100.272 117.925 100.276 117.937 100.276C117.949 100.275 117.961 100.27 117.969 100.261C119.982 98.2532 121.917 96.1834 123.812 94.0571C124.759 93.0137 125.701 91.9703 126.632 90.9043C127.584 89.8901 128.481 88.8244 129.317 87.7121C129.339 87.6783 129.277 87.6444 129.243 87.6726Z" fill="#3A5036"/>
<path d="M138.51 72.5741C138.042 72.9915 137.574 73.4032 137.1 73.798L136.931 73.9447C137.754 72.8167 138.563 71.6887 139.356 70.5607C139.356 70.5607 139.328 70.5043 139.311 70.5268C136.874 73.3471 134.6 76.3035 132.498 79.3817C132.495 79.3905 132.495 79.3999 132.498 79.4087C132.501 79.4174 132.507 79.4251 132.514 79.4306C132.522 79.4361 132.53 79.4393 132.54 79.4396C132.549 79.4399 132.558 79.4374 132.566 79.4324C133.891 77.9322 135.137 76.3586 136.339 74.7512C136.638 74.4918 136.903 74.221 137.207 73.9447C137.653 73.4991 138.11 73.0648 138.572 72.6362C138.617 72.5967 138.55 72.5403 138.51 72.5741Z" fill="#3A5036"/>
<path d="M135.353 112.173C136.943 110.577 134.146 109.618 134.146 109.618C134.146 109.618 138.5 110.024 139.498 107.746C140.497 105.467 137.039 104.508 136.797 104.429C137.028 104.429 141.038 104.717 141.805 102.32C142.6 99.827 138.985 99.3758 138.76 99.3476C138.985 99.2968 141.924 98.5862 142.093 96.6347C142.38 93.2507 133.791 94.593 131.563 93.0082C131.563 93.0082 131.563 88.6541 131.608 88.5244C131.608 88.5244 130.993 90.3461 129.589 91.0568C127.846 91.9422 126.244 92.5739 125.675 93.606C125.401 94.0609 125.282 94.5918 125.333 95.12C125.385 95.6483 125.606 96.1458 125.962 96.5388C125.962 96.5388 123.582 96.725 122.917 98.5918C122.578 99.5562 123.813 100.949 123.813 100.949C123.813 100.949 121.913 101.181 121.428 102.878C121.033 104.232 122.33 105.422 122.33 105.422C122.33 105.422 120.61 106.488 120.638 108.005C120.728 111.056 131.929 115.619 135.353 112.173Z" fill="#EB9481"/>
<path d="M122.493 105.643C122.454 105.643 122.425 105.671 122.459 105.693C125.909 108.199 130.041 109.592 134.303 109.686C134.439 109.686 134.501 109.467 134.348 109.438C130.233 108.755 126.24 107.476 122.493 105.643Z" fill="#3A5036"/>
<path d="M123.735 100.955C123.69 100.955 123.656 101.006 123.696 101.034C127.13 103.482 132.116 105.157 136.859 104.587C137.023 104.587 137.153 104.39 136.961 104.395C133.78 104.531 127.215 102.72 123.735 100.955Z" fill="#3A5036"/>
<path d="M139.06 99.1948C134.491 99.567 130.261 98.4334 126.088 96.6455C126.037 96.6455 126.009 96.7019 126.048 96.7357C127.853 98.1683 130.634 99.0256 132.856 99.5163C134.903 100 137.041 99.944 139.06 99.3527C139.156 99.3301 139.161 99.1891 139.06 99.1948Z" fill="#3A5036"/>
<path d="M122.19 105.432C121.367 104.733 120.69 103.774 120.955 102.646C121.07 102.134 121.367 101.682 121.79 101.372C122.305 101.069 122.885 100.895 123.482 100.864C122.715 100.012 122.263 98.7998 122.811 97.7113C123.076 97.2413 123.509 96.8888 124.023 96.7243C124.618 96.5465 125.235 96.4498 125.856 96.4366C125.549 96.1921 125.302 95.8792 125.137 95.5229C124.971 95.1665 124.891 94.7764 124.903 94.3837C124.934 93.9521 125.067 93.5339 125.291 93.1641C125.516 92.7943 125.826 92.4835 126.195 92.2574C127.06 91.7372 127.984 91.3207 128.947 91.0166C129.438 90.8407 129.906 90.6059 130.34 90.3173C130.801 89.9815 131.153 89.5163 131.349 88.9806C131.389 88.8847 131.4 88.9806 131.349 89.0595C131.217 89.4225 131.026 89.7615 130.785 90.0635C130.532 90.3801 130.24 90.6643 129.917 90.9095C129.088 91.419 128.222 91.8677 127.328 92.2518C126.553 92.6303 125.923 93.2523 125.535 94.0227C125.37 94.4243 125.32 94.8638 125.391 95.2921C125.462 95.7204 125.65 96.1206 125.935 96.4479C125.935 96.4479 125.935 96.5381 125.884 96.5438C125.337 96.6457 124.804 96.8163 124.3 97.0514C123.881 97.2541 123.533 97.5784 123.301 97.982C123.107 98.4702 123.045 99.0009 123.121 99.5207C123.197 100.041 123.409 100.531 123.736 100.943C123.154 101.104 122.606 101.368 122.117 101.721C121.811 102.004 121.592 102.368 121.485 102.77C121.363 103.234 121.372 103.723 121.511 104.182C121.651 104.641 121.915 105.053 122.275 105.37C122.279 105.381 122.279 105.393 122.275 105.404C122.279 105.415 122.279 105.427 122.275 105.438C122.275 105.438 121.711 105.799 121.711 105.81C121.711 105.822 121.711 105.81 121.711 105.776C121.863 105.652 122.023 105.537 122.19 105.432Z" fill="#3A5036"/>
<path d="M143.544 57.1201C143.708 57.78 148.575 61.9085 151.592 61.7336C152.574 61.6716 150.82 56.4208 150.82 56.4208L150.904 56.026L152.083 50.4536L145.513 46.3365L144.559 45.7725C144.559 45.7725 144.339 47.3178 144.08 49.2467C144.08 49.3369 144.052 49.4272 144.04 49.5231C144.029 49.6189 144.007 49.7317 143.995 49.8333C143.956 50.1209 143.911 50.3973 143.877 50.7075C143.843 51.0177 143.821 51.1474 143.798 51.3842C143.775 51.6211 143.747 51.8524 143.725 52.0836C143.546 53.7561 143.486 55.4391 143.544 57.1201Z" fill="#EB9481"/>
<path d="M144.079 49.2636C144.658 50.8191 145.568 52.2301 146.746 53.3988C147.924 54.5675 149.343 55.4658 150.903 56.0316L152.082 50.4593L145.511 46.3365L144.558 45.7725C144.558 45.7725 144.338 47.3347 144.079 49.2636Z" fill="#3A5036"/>
<path d="M159.923 42.2491C161.293 52.153 155.518 54.0931 153.38 54.3808C151.446 54.6515 144.808 55.3057 142.422 45.5993C140.036 35.8928 144.21 32.1253 148.626 31.285C153.042 30.4446 158.552 32.3453 159.923 42.2491Z" fill="#EB9481"/>
<path d="M156.574 40.6989C156.344 40.6812 156.116 40.6491 155.891 40.603C155.646 40.6014 155.409 40.5202 155.214 40.3718C155.165 40.31 155.139 40.2335 155.139 40.1546C155.139 40.0758 155.165 39.9993 155.214 39.9375C155.32 39.8219 155.455 39.7369 155.605 39.6913C155.754 39.6456 155.914 39.6411 156.066 39.6781C156.387 39.6997 156.687 39.8429 156.906 40.0785C156.956 40.1364 156.986 40.2078 156.995 40.2834C157.003 40.359 156.988 40.4353 156.952 40.5023C156.916 40.5694 156.861 40.624 156.793 40.6591C156.726 40.6941 156.649 40.708 156.574 40.6989Z" fill="#3A5036"/>
<path d="M149.951 42.0618C150.182 42.1013 150.408 42.0957 150.639 42.1126C150.879 42.164 151.128 42.1363 151.35 42.0336C151.414 41.9877 151.461 41.9217 151.483 41.8462C151.506 41.7706 151.503 41.6897 151.474 41.6163C151.395 41.4798 151.282 41.3667 151.145 41.2884C151.008 41.2102 150.853 41.1695 150.696 41.1707C150.378 41.1243 150.054 41.1988 149.788 41.3794C149.728 41.4244 149.684 41.4857 149.659 41.5558C149.634 41.6258 149.63 41.7016 149.647 41.7739C149.664 41.8462 149.702 41.9119 149.756 41.9631C149.81 42.0142 149.878 42.0485 149.951 42.0618Z" fill="#3A5036"/>
<path d="M151.401 43.8037C151.401 43.8037 151.351 43.8376 151.351 43.8658C151.435 44.5426 151.418 45.3322 150.826 45.6142C150.826 45.6142 150.826 45.6536 150.826 45.648C151.571 45.4788 151.587 44.4298 151.401 43.8037Z" fill="#3A5036"/>
<path d="M150.73 43.1504C149.63 43.1504 149.743 45.3613 150.763 45.3444C151.784 45.3275 151.649 43.1392 150.73 43.1504Z" fill="#3A5036"/>
<path d="M150.311 43.2898C150.125 43.4195 149.945 43.6508 149.719 43.6846C149.493 43.7185 149.24 43.5098 149.054 43.2955H149.014C149.014 43.7128 149.217 44.1358 149.668 44.1753C150.119 44.2148 150.356 43.8256 150.441 43.397C150.458 43.3462 150.385 43.2334 150.311 43.2898Z" fill="#3A5036"/>
<path d="M155.426 43.2744C155.426 43.2744 155.477 43.2744 155.482 43.3308C155.482 44.0132 155.612 44.7916 156.238 44.989V45.0284C155.477 44.9551 155.324 43.923 155.426 43.2744Z" fill="#3A5036"/>
<path d="M156.008 42.5368C157.097 42.4071 157.283 44.5954 156.268 44.7195C155.252 44.8435 155.1 42.6496 156.008 42.5368Z" fill="#3A5036"/>
<path d="M156.476 42.6435C156.656 42.745 156.848 42.9424 157.04 42.9367C157.231 42.9311 157.434 42.6829 157.57 42.4404H157.604C157.654 42.8578 157.553 43.3033 157.152 43.4218C156.752 43.5402 156.493 43.1849 156.363 42.7788C156.352 42.7281 156.402 42.604 156.476 42.6435Z" fill="#3A5036"/>
<path d="M154.691 46.3677C154.691 46.3677 154.894 47.3716 154.928 47.851C154.928 47.8962 154.815 47.9244 154.651 47.9469C154.246 48.0489 153.821 48.0364 153.423 47.911C153.024 47.7855 152.669 47.5519 152.395 47.2363C152.391 47.2268 152.389 47.2162 152.391 47.2058C152.393 47.1955 152.398 47.1859 152.405 47.1785C152.413 47.1711 152.422 47.1662 152.432 47.1644C152.443 47.1626 152.453 47.1641 152.463 47.1686C153.1 47.5463 153.841 47.7085 154.578 47.6311C154.606 47.4957 154.172 45.9391 154.245 45.9391C154.627 45.9442 155.007 46.003 155.373 46.1139C155.007 44.0046 154.307 41.9742 153.974 39.8705C153.974 39.7971 154.07 39.7689 154.093 39.831C154.91 41.9863 155.511 44.2175 155.886 46.4918C155.892 46.7343 154.888 46.4354 154.691 46.3677Z" fill="#3A5036"/>
<path d="M154.59 47.5791C154.371 48.0052 154.044 48.3668 153.643 48.6282C153.421 48.7632 153.163 48.8262 152.904 48.8087C152.34 48.7635 152.233 48.2447 152.255 47.8273C152.269 47.5901 152.311 47.3554 152.379 47.1279C153.049 47.5122 153.824 47.6705 154.59 47.5791Z" fill="#3A5036"/>
<path d="M153.643 48.6286C153.421 48.7636 153.163 48.8266 152.904 48.8091C152.34 48.764 152.233 48.2451 152.255 47.8277C152.543 47.7845 152.837 47.8402 153.089 47.9857C153.341 48.1312 153.536 48.3578 153.643 48.6286Z" fill="#E587B4"/>
<path d="M142.536 44.8933C144.916 44.7917 144.702 41.0411 144.702 41.0411C144.702 41.0411 147.392 40.6576 147.364 36.2923C147.934 37.1395 148.692 37.8432 149.58 38.3481C150.467 38.853 151.46 39.1455 152.479 39.2025C153.263 39.2758 150.561 37.4033 150.561 37.4033C150.561 37.4033 153.816 40.0598 159.535 38.6949C159.941 38.5934 158.756 32.5529 154.12 30.7087C149.484 28.8644 145.469 30.2518 142.84 33.2523C142.84 33.2523 139.603 34.9443 139.389 38.114C139.174 41.2837 141.611 44.9271 142.536 44.8933Z" fill="#3A5036"/>
<path d="M144.107 45.4587C144.107 45.4587 141.767 42.4525 140.396 43.2985C139.026 44.1445 140.887 48.5832 142.579 49.1134C142.791 49.1966 143.018 49.2361 143.246 49.2295C143.473 49.223 143.698 49.1704 143.905 49.0751C144.112 48.9797 144.297 48.8436 144.45 48.6747C144.603 48.5059 144.721 48.3079 144.795 48.0925L144.107 45.4587Z" fill="#EB9481"/>
<path d="M140.963 44.5557C140.963 44.5557 140.935 44.5951 140.963 44.6008C142.153 45.0125 142.819 46.0615 143.304 47.1613C143.231 47.0482 143.134 46.9523 143.02 46.8803C142.906 46.8083 142.778 46.7618 142.644 46.7441C142.511 46.7264 142.375 46.7379 142.247 46.7778C142.118 46.8177 141.999 46.8851 141.899 46.9752C141.871 46.9752 141.899 47.0429 141.933 47.0373C142.134 46.9605 142.355 46.9485 142.563 47.0031C142.771 47.0577 142.957 47.1762 143.095 47.3418C143.314 47.6201 143.503 47.9207 143.659 48.2386C143.721 48.3401 143.907 48.2724 143.862 48.154C143.817 46.6425 142.565 44.6233 140.963 44.5557Z" fill="#3A5036"/>
<path d="M150.463 62.04C151.263 65.5086 152.008 68.9942 152.719 72.474C153.429 75.9539 154.134 79.4564 154.845 82.9419C155.555 86.4274 156.204 89.9355 156.847 93.4379L157.8 98.6888C158.099 100.448 158.415 102.197 158.697 103.957C158.291 102.225 157.919 100.482 157.529 98.7452L156.401 93.5225C155.674 90.037 154.986 86.5402 154.275 83.0547C153.565 79.5692 152.916 76.0611 152.273 72.5586C151.63 69.0562 151.038 65.5425 150.463 62.04Z" fill="#3A5036"/>
<path d="M155.159 72.2364C155.189 72.3662 155.179 72.5018 155.131 72.626C155.083 72.7502 155 72.8574 154.891 72.934C154.782 73.0106 154.653 73.053 154.52 73.056C154.386 73.059 154.256 73.0224 154.143 72.9508C154.031 72.8792 153.943 72.7758 153.889 72.6539C153.836 72.5319 153.82 72.3969 153.844 72.2659C153.868 72.135 153.93 72.014 154.022 71.9183C154.115 71.8227 154.234 71.7567 154.364 71.7288C154.536 71.6918 154.717 71.7243 154.866 71.8193C155.015 71.9143 155.12 72.0642 155.159 72.2364Z" fill="#3A5036"/>
<path d="M156.35 79.0087C156.378 79.1374 156.367 79.2717 156.319 79.3944C156.271 79.5171 156.188 79.6228 156.08 79.6981C155.972 79.7734 155.844 79.8148 155.712 79.8173C155.58 79.8197 155.451 79.7829 155.34 79.7117C155.229 79.6404 155.142 79.5379 155.089 79.417C155.037 79.2961 155.021 79.1624 155.045 79.0327C155.068 78.9031 155.13 78.7833 155.222 78.6887C155.313 78.5941 155.431 78.5288 155.56 78.5011C155.732 78.4642 155.911 78.4969 156.059 78.592C156.207 78.6871 156.312 78.837 156.35 79.0087Z" fill="#3A5036"/>
<path d="M157.541 85.7897C157.568 85.9183 157.556 86.0519 157.507 86.1738C157.458 86.2957 157.374 86.4004 157.266 86.4748C157.158 86.5491 157.03 86.5899 156.899 86.5918C156.768 86.5937 156.639 86.5567 156.528 86.4855C156.418 86.4143 156.331 86.312 156.279 86.1916C156.227 86.0712 156.211 85.9379 156.234 85.8087C156.257 85.6795 156.318 85.56 156.409 85.4652C156.5 85.3705 156.617 85.3049 156.745 85.2765C156.831 85.2574 156.92 85.2557 157.007 85.2712C157.093 85.2868 157.176 85.3194 157.25 85.3671C157.324 85.4148 157.388 85.4768 157.438 85.5493C157.488 85.6219 157.523 85.7036 157.541 85.7897Z" fill="#3A5036"/>
<path d="M158.741 92.5631C158.769 92.6929 158.758 92.8283 158.709 92.952C158.661 93.0757 158.577 93.1821 158.467 93.2579C158.358 93.3336 158.229 93.3752 158.096 93.3774C157.963 93.3796 157.832 93.3423 157.721 93.2703C157.609 93.1982 157.521 93.0946 157.469 92.9726C157.416 92.8506 157.401 92.7157 157.425 92.585C157.449 92.4542 157.511 92.3336 157.604 92.2383C157.696 92.1431 157.815 92.0775 157.945 92.0498C158.119 92.013 158.3 92.0462 158.449 92.1424C158.598 92.2386 158.703 92.3898 158.741 92.5631Z" fill="#3A5036"/>
<path d="M159.936 99.3355C159.964 99.4654 159.953 99.6007 159.904 99.7244C159.856 99.8481 159.772 99.9545 159.662 100.03C159.553 100.106 159.424 100.148 159.291 100.15C159.158 100.152 159.028 100.115 158.916 100.043C158.804 99.9706 158.717 99.867 158.664 99.745C158.611 99.623 158.596 99.4881 158.62 99.3574C158.644 99.2267 158.706 99.106 158.799 99.0108C158.891 98.9155 159.01 98.8499 159.14 98.8223C159.314 98.7854 159.495 98.8187 159.644 98.9149C159.793 99.011 159.898 99.1623 159.936 99.3355Z" fill="#3A5036"/>
<path d="M150.872 56.5732L149.947 61.2432L143.518 56.765L142.316 58.818C142.316 58.818 149.242 66.5504 149.203 66.1499L150.286 62.0722L153.359 64.1872L151.921 57.69L150.872 56.5732Z" fill="#EBEBEB"/>
<path d="M152.842 60.9125C152.571 59.8522 152.323 58.7693 152.001 57.7202C152.001 57.6808 151.928 57.6751 151.922 57.7202C151.922 58.8031 152.977 62.8696 153.157 63.8622C153.028 63.772 150.337 62.0236 150.337 62.063C150.061 62.7286 149.26 65.7008 149.209 65.9659C148.11 64.7364 143.964 60.3259 142.729 59.1979C142.722 59.1897 142.713 59.1845 142.702 59.1834C142.691 59.1824 142.681 59.1855 142.673 59.1923C142.664 59.199 142.659 59.2087 142.658 59.2193C142.657 59.2299 142.66 59.2405 142.667 59.2487C143.682 60.5741 149.198 66.5807 149.26 66.5299C149.712 65.1144 150.088 63.6761 150.388 62.221C150.868 62.6214 153.637 64.6462 153.614 64.477C153.422 63.2755 153.164 62.0856 152.842 60.9125Z" fill="#3A5036"/>
<path d="M143.504 55.3846C142.799 54.5668 142.02 56.6649 143.318 57.5899C145.241 58.9604 148.929 60.4099 149.555 60.3309C150.181 60.252 151.332 57.8662 151.456 57.3925C151.58 56.9187 151.039 56.0332 150.892 56.1573C150.745 56.2814 149.623 58.7291 149.403 58.8701C149.183 59.0112 145.027 57.133 143.504 55.3846Z" fill="#91C788"/>
<path d="M149.804 214.562L152.951 215.329L149.793 215.893L149.082 219.226L148.377 215.893L145.219 215.329L148.366 214.562L149.082 211.415L149.804 214.562ZM78.2887 192.205L77.5668 195.352L74.4479 196.119L77.6063 196.683L78.3169 200.011L79.0219 196.683L82.1803 196.119L79.0332 195.352L78.2887 192.205ZM212.289 159.409L211.573 156.267L210.851 159.409L207.704 160.176L210.863 160.74L211.573 164.067L212.278 160.74L215.437 160.176L212.289 159.409ZM91.8247 94.7178L91.1028 97.8592L87.9839 98.6319L91.1423 99.1959L91.8473 102.524L92.5523 99.1959L95.7107 98.6319L92.5636 97.8592L91.8247 94.7178ZM216.294 179.109L215.893 180.869L214.134 181.297L215.899 181.625L216.294 183.491L216.689 181.625L218.454 181.303L216.694 180.869L216.294 179.109ZM119.004 188.878L118.603 190.632L116.844 191.06L118.609 191.393L119.004 193.254L119.399 191.393L121.164 191.066L119.41 190.632L119.004 188.878ZM176.193 201.438L175.787 203.198L174.033 203.626L175.799 203.953L176.193 205.814L176.588 203.953L178.354 203.626L176.594 203.198L176.193 201.438ZM131.598 224.878L131.198 226.637L129.438 227.066L131.203 227.393L131.598 229.254L131.993 227.393L133.758 227.066L132.004 226.637L131.598 224.878ZM68.3792 184.495L67.9788 186.255L66.2191 186.684L67.9845 187.011L68.3792 188.878L68.7741 187.011L70.5394 186.689L68.7797 186.255L68.3792 184.495ZM62.4291 137.683L62.0286 139.443L60.2689 139.872L62.0399 140.199L62.4291 142.066L62.8239 140.199L64.5948 139.877L62.8351 139.443L62.4291 137.683ZM189.087 204.404C188.96 204.418 188.844 204.477 188.759 204.572C188.674 204.666 188.627 204.788 188.627 204.915C188.627 205.042 188.674 205.164 188.759 205.258C188.844 205.353 188.96 205.412 189.087 205.425C189.213 205.412 189.329 205.353 189.414 205.258C189.499 205.164 189.546 205.042 189.546 204.915C189.546 204.788 189.499 204.666 189.414 204.572C189.329 204.477 189.213 204.418 189.087 204.404ZM223.615 145.1C223.478 145.1 223.348 145.154 223.252 145.25C223.155 145.346 223.101 145.477 223.101 145.613C223.101 145.749 223.155 145.88 223.252 145.976C223.348 146.072 223.478 146.126 223.615 146.126C223.751 146.126 223.881 146.072 223.978 145.976C224.074 145.88 224.128 145.749 224.128 145.613C224.128 145.477 224.074 145.346 223.978 145.25C223.881 145.154 223.751 145.1 223.615 145.1ZM83.4719 110.386C83.3358 110.386 83.2052 110.44 83.109 110.536C83.0127 110.632 82.9586 110.763 82.9586 110.899C82.9586 111.035 83.0127 111.166 83.109 111.262C83.2052 111.358 83.3358 111.412 83.4719 111.412C83.608 111.412 83.7386 111.358 83.8348 111.262C83.9311 111.166 83.9851 111.035 83.9851 110.899C83.9851 110.763 83.9311 110.632 83.8348 110.536C83.7386 110.44 83.608 110.386 83.4719 110.386ZM206.853 186.43C206.726 186.443 206.61 186.503 206.525 186.597C206.44 186.691 206.393 186.813 206.393 186.94C206.393 187.067 206.44 187.189 206.525 187.284C206.61 187.378 206.726 187.437 206.853 187.451C206.979 187.437 207.095 187.378 207.18 187.284C207.265 187.189 207.312 187.067 207.312 186.94C207.312 186.813 207.265 186.691 207.18 186.597C207.095 186.503 206.979 186.443 206.853 186.43ZM58.3852 176.379C58.259 176.393 58.1423 176.452 58.0575 176.546C57.9726 176.641 57.9257 176.763 57.9257 176.89C57.9257 177.017 57.9726 177.139 58.0575 177.233C58.1423 177.327 58.259 177.387 58.3852 177.4C58.5113 177.387 58.628 177.327 58.7129 177.233C58.7977 177.139 58.8447 177.017 58.8447 176.89C58.8447 176.763 58.7977 176.641 58.7129 176.546C58.628 176.452 58.5113 176.393 58.3852 176.379ZM68.7459 130.284C68.8416 130.284 68.9334 130.246 69.0011 130.178C69.0688 130.11 69.1068 130.018 69.1068 129.923C69.1068 129.827 69.0688 129.735 69.0011 129.667C68.9334 129.6 68.8416 129.562 68.7459 129.562C68.6501 129.562 68.5583 129.6 68.4906 129.667C68.4229 129.735 68.3849 129.827 68.3849 129.923C68.3849 130.018 68.4229 130.11 68.4906 130.178C68.5583 130.246 68.6501 130.284 68.7459 130.284ZM127.898 204.912C127.809 204.923 127.728 204.966 127.669 205.033C127.61 205.1 127.577 205.186 127.577 205.276C127.577 205.365 127.61 205.452 127.669 205.519C127.728 205.585 127.809 205.629 127.898 205.64C127.987 205.629 128.068 205.585 128.128 205.519C128.187 205.452 128.219 205.365 128.219 205.276C128.219 205.186 128.187 205.1 128.128 205.033C128.068 204.966 127.987 204.923 127.898 204.912ZM216.446 131.66C216.542 131.66 216.634 131.622 216.701 131.554C216.769 131.486 216.807 131.395 216.807 131.299C216.807 131.203 216.769 131.111 216.701 131.044C216.634 130.976 216.542 130.938 216.446 130.938C216.35 130.942 216.26 130.983 216.195 131.054C216.13 131.124 216.096 131.217 216.099 131.313C216.103 131.409 216.145 131.499 216.215 131.564C216.285 131.629 216.379 131.664 216.474 131.66H216.446ZM92.1744 203.604C92.0857 203.615 92.0041 203.658 91.945 203.725C91.8858 203.792 91.8532 203.878 91.8532 203.967C91.8532 204.057 91.8858 204.143 91.945 204.21C92.0041 204.277 92.0857 204.32 92.1744 204.331C92.2631 204.32 92.3447 204.277 92.4038 204.21C92.463 204.143 92.4956 204.057 92.4956 203.967C92.4956 203.878 92.463 203.792 92.4038 203.725C92.3447 203.658 92.2631 203.615 92.1744 203.604ZM154.824 200.626C154.563 200.626 154.314 200.729 154.13 200.913C153.946 201.097 153.842 201.347 153.842 201.607C153.842 201.867 153.946 202.117 154.13 202.301C154.314 202.485 154.563 202.588 154.824 202.588C155.055 202.553 155.267 202.436 155.42 202.258C155.573 202.08 155.657 201.853 155.657 201.618C155.657 201.384 155.573 201.157 155.42 200.979C155.267 200.801 155.055 200.684 154.824 200.648V200.626ZM96.8105 200.276C96.5502 200.276 96.3006 200.379 96.1166 200.563C95.9325 200.747 95.8291 200.997 95.8291 201.257C95.8291 201.518 95.9325 201.767 96.1166 201.951C96.3006 202.135 96.5502 202.239 96.8105 202.239C97.0424 202.203 97.2539 202.086 97.4067 201.908C97.5595 201.73 97.6435 201.503 97.6435 201.269C97.6435 201.034 97.5595 200.807 97.4067 200.629C97.2539 200.451 97.0424 200.334 96.8105 200.299V200.276ZM78.2887 109.303C78.549 109.303 78.7986 109.199 78.9827 109.015C79.1667 108.831 79.2701 108.582 79.2701 108.321C79.2701 108.061 79.1667 107.812 78.9827 107.628C78.7986 107.443 78.549 107.34 78.2887 107.34C78.0255 107.34 77.773 107.445 77.5868 107.631C77.4007 107.817 77.2961 108.069 77.2961 108.333C77.2961 108.596 77.4007 108.848 77.5868 109.035C77.773 109.221 78.0255 109.325 78.2887 109.325V109.303ZM218.454 161.67C218.194 161.67 217.944 161.774 217.76 161.958C217.576 162.142 217.473 162.391 217.473 162.652C217.473 162.912 217.576 163.161 217.76 163.345C217.944 163.53 218.194 163.633 218.454 163.633C218.686 163.597 218.897 163.48 219.05 163.302C219.203 163.124 219.287 162.897 219.287 162.663C219.287 162.428 219.203 162.201 219.05 162.024C218.897 161.846 218.686 161.728 218.454 161.693V161.67Z" fill="#91C788"/>
</svg>
