<svg width="108" height="96" viewBox="0 0 108 96" fill="none" xmlns="http://www.w3.org/2000/svg">
<g id="Group">
<path id="Vector" d="M81.0598 43.4114C81.9187 43.4114 82.7838 43.2006 83.585 42.7549C85.299 41.8112 86.2715 40.0376 86.2798 38.2121C86.286 37.3449 86.0753 36.4673 85.6292 35.662L66.6566 2.69565C65.7108 0.969484 63.9165 0.00292969 62.0747 0.00292969C61.22 0.00292969 60.359 0.207453 59.5575 0.647299C57.8355 1.60555 56.8668 3.37082 56.8523 5.20461C56.8523 6.06976 57.063 6.94946 57.5088 7.75059L76.4855 40.719C77.4382 42.4386 79.2242 43.4114 81.0598 43.4114Z" fill="#E7E8E7"/>
<path id="Vector_2" d="M24.3065 42.7523C25.1138 43.2005 25.9749 43.4088 26.8279 43.4088C28.6717 43.4088 30.4581 42.4363 31.4098 40.7161L50.3823 7.74766C50.8284 6.94445 51.0409 6.06683 51.0409 5.20168C51.0243 3.36789 50.056 1.60262 48.3357 0.644369C47.5346 0.204523 46.6674 0 45.8105 0C43.9646 0 42.1803 0.966208 41.2345 2.69272L22.2578 35.657C21.8117 36.4643 21.603 37.3399 21.6093 38.2071C21.6241 40.0371 22.5945 41.8089 24.3065 42.7523Z" fill="#E7E8E7"/>
<path id="Vector_3" d="M102.682 36.0369H90.817C91.7379 40.2638 89.892 44.7757 85.9088 46.9809C84.4221 47.7944 82.7496 48.2281 81.0604 48.2281C77.414 48.2281 74.0461 46.2458 72.2742 43.0409C72.3113 43.1195 68.2395 36.0366 68.2395 36.0366H39.6571L35.6141 43.0655C33.8176 46.2621 30.4684 48.2256 26.8279 48.2256C25.1449 48.2256 23.4641 47.792 21.9857 46.9784C19.638 45.6776 17.9323 43.5382 17.189 40.9652C16.7204 39.3297 16.7204 37.6448 17.0754 36.0342H5.24493C2.356 36.0349 0 38.3788 0 41.2798C0 44.1667 2.356 46.5185 5.24493 46.5185H6.92991C6.96279 46.7601 6.98148 46.9954 7.05173 47.2411L17.4136 86.1957C18.287 89.4788 21.7829 92.1653 25.1775 92.1653H26.9843C26.9843 92.1653 26.9843 93.0221 26.9843 94.0814C26.9843 95.1428 28.0889 95.9997 29.4496 95.9997H43.3195C44.6823 95.9997 45.7848 95.1428 45.7848 94.0814V92.1653H63.6628C63.6628 92.1653 63.6628 93.0221 63.6628 94.0814C63.6628 95.1428 64.7674 95.9997 66.1282 95.9997H79.998C81.3608 95.9997 82.4634 95.1428 82.4634 94.0814V92.1653H82.7503C86.1451 92.1653 89.6428 89.4788 90.5204 86.1957L100.882 47.2411C100.944 46.9975 100.971 46.7601 100.998 46.5185H102.677C105.582 46.5185 107.926 44.1667 107.926 41.2798C107.931 38.3808 105.587 36.0369 102.682 36.0369ZM32.0001 81.4795C32.0001 83.1192 30.666 84.4529 29.0267 84.4529C27.3788 84.4529 26.0471 83.1188 26.0471 81.4795V58.8688C26.0471 57.2229 27.3791 55.8954 29.0267 55.8954C30.6664 55.8954 32.0001 57.2233 32.0001 58.8688V81.4795ZM48.6309 81.4795C48.6309 83.1192 47.2968 84.4529 45.6513 84.4529C44.0095 84.4529 42.6779 83.1188 42.6779 81.4795V58.8688C42.6779 57.2229 44.012 55.8954 45.6513 55.8954C47.2992 55.8954 48.6309 57.2233 48.6309 58.8688V81.4795ZM65.2616 81.4795C65.2616 83.1192 63.9276 84.4529 62.2841 84.4529C60.6361 84.4529 59.3045 83.1188 59.3045 81.4795V58.8688C59.3045 57.2229 60.6386 55.8954 62.2841 55.8954C63.9279 55.8954 65.2616 57.2233 65.2616 58.8688V81.4795ZM81.8924 81.4795C81.8924 83.1192 80.5562 84.4529 78.9128 84.4529C77.271 84.4529 75.9352 83.1188 75.9352 81.4795V58.8688C75.9352 57.2229 77.2714 55.8954 78.9128 55.8954C80.5566 55.8954 81.8924 57.2233 81.8924 58.8688V81.4795Z" fill="#E7E8E7"/>
</g>
</svg>
