<svg width="21" height="56" viewBox="0 0 21 56" fill="none" xmlns="http://www.w3.org/2000/svg">
<path opacity="0.8" d="M20.7679 53.7283C20.7679 56.0915 0.272193 56.0633 0.277833 53.6945L0.379358 29.7696C0.821257 29.7358 1.25418 29.6271 1.65963 29.4481C1.72349 29.4198 1.77775 29.3735 1.81584 29.315C1.85392 29.2564 1.87419 29.188 1.87419 29.1182C1.87419 29.0483 1.85392 28.98 1.81584 28.9214C1.77775 28.8628 1.72349 28.8166 1.65963 28.7882C1.25125 28.5968 0.818605 28.462 0.373712 28.3878V27.1019C0.817076 27.0697 1.25183 26.963 1.65963 26.786C1.72239 26.7538 1.77506 26.7049 1.81184 26.6447C1.84861 26.5845 1.86807 26.5154 1.86807 26.4448C1.86807 26.3743 1.84861 26.3051 1.81184 26.2449C1.77506 26.1847 1.72239 26.1358 1.65963 26.1036C1.24575 25.932 0.814639 25.8053 0.373712 25.7257V24.4398C0.816983 24.4033 1.25133 24.2947 1.65963 24.1183C1.72262 24.087 1.77562 24.0388 1.81267 23.979C1.84972 23.9192 1.86935 23.8502 1.86935 23.7799C1.86935 23.7096 1.84972 23.6406 1.81267 23.5809C1.77562 23.5211 1.72262 23.4728 1.65963 23.4415C1.24751 23.2637 0.815905 23.135 0.373712 23.058V21.7552C0.814487 21.7143 1.24735 21.6118 1.65963 21.4506C1.72262 21.4193 1.77562 21.371 1.81267 21.3113C1.84972 21.2515 1.86935 21.1825 1.86935 21.1122C1.86935 21.0419 1.84972 20.9729 1.81267 20.9131C1.77562 20.8533 1.72262 20.8051 1.65963 20.7738C1.24436 20.6021 0.813812 20.4699 0.373712 20.379V14.9702C0.373712 13.0696 6.69051 7.02912 7.66623 6.10416L7.79595 5.98572V4.51367H13.498V5.98572C13.498 5.98572 20.8977 12.9342 20.8977 15.0097V20.4128C20.4578 20.507 20.0274 20.6411 19.6117 20.8133C19.5503 20.837 19.4987 20.8807 19.4651 20.9374C19.4179 21.0084 19.3961 21.0933 19.4033 21.1783C19.4104 21.2633 19.4461 21.3434 19.5046 21.4055C19.531 21.4438 19.5683 21.4733 19.6117 21.4901C20.0221 21.6513 20.4531 21.7538 20.892 21.7946V23.0975C20.4665 23.172 20.0504 23.2931 19.6512 23.4584H19.6061C19.5431 23.4897 19.4901 23.538 19.4531 23.5978C19.416 23.6576 19.3964 23.7265 19.3964 23.7968C19.3964 23.8672 19.416 23.9361 19.4531 23.9959C19.4901 24.0557 19.5431 24.1039 19.6061 24.1352L19.7076 24.1747C20.0869 24.3319 20.4884 24.429 20.8977 24.4624V25.7483C20.5415 25.8109 20.1922 25.9072 19.8543 26.0359L19.6117 26.1262C19.5488 26.1575 19.4958 26.2057 19.4587 26.2655C19.4217 26.3253 19.402 26.3942 19.402 26.4646C19.402 26.5349 19.4217 26.6038 19.4587 26.6636C19.4958 26.7234 19.5488 26.7717 19.6117 26.803C19.7069 26.8516 19.8071 26.8894 19.9107 26.9158C20.2285 27.0303 20.5607 27.1005 20.8977 27.1244V28.4104C20.6024 28.4614 20.3119 28.5369 20.0291 28.636C19.8768 28.6924 19.7358 28.7544 19.6174 28.8108C19.5535 28.8391 19.4993 28.8854 19.4612 28.944C19.4231 29.0025 19.4028 29.0709 19.4028 29.1407C19.4028 29.2106 19.4231 29.279 19.4612 29.3375C19.4993 29.3961 19.5535 29.4423 19.6174 29.4707C19.7743 29.5398 19.9365 29.5964 20.1024 29.6399C20.3633 29.7186 20.6317 29.7697 20.9033 29.7922V42.2002L20.7679 53.7283Z" fill="white"/>
<path opacity="0.8" d="M19.104 17.6433L19.0758 40.0454L19.0082 51.8894C19.0082 53.8295 2.13328 53.8126 2.13892 51.8555L2.24043 17.8463C3.66735 18.3539 6.99496 19.3861 9.877 19.0815C12.759 18.7769 16.4363 17.7561 19.0758 17.5361C19.0913 17.57 19.1008 17.6062 19.104 17.6433Z" fill="#EBEBEB"/>
<path d="M14.6949 0.904241L6.62969 0.89298C6.47083 0.892758 6.34186 1.02135 6.34164 1.18021L6.33739 4.22582C6.33717 4.38468 6.46577 4.51363 6.62463 4.51385L14.6898 4.52511C14.8487 4.52533 14.9777 4.39674 14.9779 4.23788L14.9821 1.19227C14.9824 1.03341 14.8538 0.904463 14.6949 0.904241Z" fill="#91C788"/>
</svg>
